<?xml version="1.0" encoding="UTF-8" standalone="no"?><svg xmlns="http://www.w3.org/2000/svg" xmlns:xlink="http://www.w3.org/1999/xlink" contentStyleType="text/css" height="104px" preserveAspectRatio="none" style="width:350px;height:104px;background:#FFFFFF;" version="1.1" viewBox="0 0 350 104" width="350px" zoomAndPan="magnify"><defs/><g><!--MD5=[39d35433a52881124a2dbe258f710f68]
class datos--><g id="elem_datos"><rect codeLine="1" fill="#F1F1F1" height="48" id="datos" rx="2.5" ry="2.5" style="stroke:#181818;stroke-width:0.5;" width="69" x="7" y="49.98"/><ellipse cx="22" cy="65.98" fill="#ADD1B2" rx="11" ry="11" style="stroke:#181818;stroke-width:1.0;"/><path d="M21.4688,72.9019 Q19.7188,72.9019 18.5781,72.1675 Q17.4531,71.4175 16.8906,70.0738 Q16.3438,68.7144 16.3438,66.9175 Q16.3438,64.8863 17,63.4331 Q17.6563,61.98 18.9375,61.1988 Q20.2188,60.4175 22.0938,60.4175 Q22.9844,60.4175 23.6563,60.605 Q24.3281,60.7769 25.0156,61.1206 L24.2031,63.1363 Q23.5781,62.8238 23.0313,62.6988 Q22.5,62.5738 22.0156,62.5738 Q20.8438,62.5738 20.1406,63.105 Q19.4375,63.6363 19.1406,64.5894 Q18.8438,65.5425 18.8438,66.8081 Q18.8438,68.8238 19.5625,69.7925 Q20.2813,70.7456 21.875,70.7456 Q22.4688,70.7456 23.0938,70.5894 Q23.7188,70.4331 24.5469,70.0581 L24.5469,72.2769 Q23.8125,72.5894 23.0156,72.7456 Q22.2344,72.9019 21.4688,72.9019 Z " fill="#000000"/><text fill="#000000" font-family="sans-serif" font-size="14" lengthAdjust="spacing" textLength="37" x="36" y="71.412">datos</text><line style="stroke:#181818;stroke-width:0.5;" x1="8" x2="75" y1="81.98" y2="81.98"/><line style="stroke:#181818;stroke-width:0.5;" x1="8" x2="75" y1="89.98" y2="89.98"/></g><!--MD5=[8ef086b2864151a5d92c2f53b00d3ab1]
class algoritmo--><g id="elem_algoritmo"><rect codeLine="2" fill="#F1F1F1" height="48" id="algoritmo" rx="2.5" ry="2.5" style="stroke:#181818;stroke-width:0.5;" width="97" x="111" y="49.98"/><ellipse cx="126" cy="65.98" fill="#ADD1B2" rx="11" ry="11" style="stroke:#181818;stroke-width:1.0;"/><path d="M125.4688,72.9019 Q123.7188,72.9019 122.5781,72.1675 Q121.4531,71.4175 120.8906,70.0738 Q120.3438,68.7144 120.3438,66.9175 Q120.3438,64.8863 121,63.4331 Q121.6563,61.98 122.9375,61.1988 Q124.2188,60.4175 126.0938,60.4175 Q126.9844,60.4175 127.6563,60.605 Q128.3281,60.7769 129.0156,61.1206 L128.2031,63.1363 Q127.5781,62.8238 127.0313,62.6988 Q126.5,62.5738 126.0156,62.5738 Q124.8438,62.5738 124.1406,63.105 Q123.4375,63.6363 123.1406,64.5894 Q122.8438,65.5425 122.8438,66.8081 Q122.8438,68.8238 123.5625,69.7925 Q124.2813,70.7456 125.875,70.7456 Q126.4688,70.7456 127.0938,70.5894 Q127.7188,70.4331 128.5469,70.0581 L128.5469,72.2769 Q127.8125,72.5894 127.0156,72.7456 Q126.2344,72.9019 125.4688,72.9019 Z " fill="#000000"/><text fill="#000000" font-family="sans-serif" font-size="14" lengthAdjust="spacing" textLength="65" x="140" y="71.412">algoritmo</text><line style="stroke:#181818;stroke-width:0.5;" x1="112" x2="207" y1="81.98" y2="81.98"/><line style="stroke:#181818;stroke-width:0.5;" x1="112" x2="207" y1="89.98" y2="89.98"/></g><!--MD5=[d8d02831f34dfa3799162c0d13567ec5]
class aplicación--><g id="elem_aplicación"><rect codeLine="3" fill="#F1F1F1" height="48" id="aplicación" rx="2.5" ry="2.5" style="stroke:#181818;stroke-width:0.5;" width="100" x="243.5" y="49.98"/><ellipse cx="258.5" cy="65.98" fill="#ADD1B2" rx="11" ry="11" style="stroke:#181818;stroke-width:1.0;"/><path d="M257.9688,72.9019 Q256.2188,72.9019 255.0781,72.1675 Q253.9531,71.4175 253.3906,70.0738 Q252.8438,68.7144 252.8438,66.9175 Q252.8438,64.8863 253.5,63.4331 Q254.1563,61.98 255.4375,61.1988 Q256.7188,60.4175 258.5938,60.4175 Q259.4844,60.4175 260.1563,60.605 Q260.8281,60.7769 261.5156,61.1206 L260.7031,63.1363 Q260.0781,62.8238 259.5313,62.6988 Q259,62.5738 258.5156,62.5738 Q257.3438,62.5738 256.6406,63.105 Q255.9375,63.6363 255.6406,64.5894 Q255.3438,65.5425 255.3438,66.8081 Q255.3438,68.8238 256.0625,69.7925 Q256.7813,70.7456 258.375,70.7456 Q258.9688,70.7456 259.5938,70.5894 Q260.2188,70.4331 261.0469,70.0581 L261.0469,72.2769 Q260.3125,72.5894 259.5156,72.7456 Q258.7344,72.9019 257.9688,72.9019 Z " fill="#000000"/><text fill="#000000" font-family="sans-serif" font-size="14" lengthAdjust="spacing" textLength="68" x="272.5" y="71.412">aplicación</text><line style="stroke:#181818;stroke-width:0.5;" x1="244.5" x2="342.5" y1="81.98" y2="81.98"/><line style="stroke:#181818;stroke-width:0.5;" x1="244.5" x2="342.5" y1="89.98" y2="89.98"/></g><!--MD5=[bd72988c5da9507817422a9f9d8745c8]
link algoritmo to aplicación--><g id="link_algoritmo_aplicación"><path codeLine="7" d="M208.18,73.98 C218.11,73.98 228.05,73.98 237.98,73.98 " fill="none" id="algoritmo-to-aplicación" style="stroke:#181818;stroke-width:1.0;"/><polygon fill="#181818" points="243.17,73.98,234.17,69.98,238.17,73.98,234.17,77.98,243.17,73.98" style="stroke:#181818;stroke-width:1.0;"/></g><!--MD5=[4fd13e46395eed7ad315c0bee7454d5e]
link datos to algoritmo--><g id="link_datos_algoritmo"><path codeLine="8" d="M76.07,73.98 C85.97,73.98 95.87,73.98 105.77,73.98 " fill="none" id="datos-to-algoritmo" style="stroke:#181818;stroke-width:1.0;"/><polygon fill="#181818" points="110.94,73.98,101.94,69.98,105.94,73.98,101.94,77.98,110.94,73.98" style="stroke:#181818;stroke-width:1.0;"/></g><!--MD5=[859f72798e8e347bcc85a0a4f877b251]
link aplicación to datos--><g id="link_aplicación_datos"><path codeLine="9" d="M264.66,49.98 C248.96,38.48 228.57,25.93 208,19.98 C166.59,8 151.78,6 111,19.98 C95.29,25.37 80.39,35.92 68.44,46.27 " fill="none" id="aplicación-to-datos" style="stroke:#181818;stroke-width:1.0;stroke-dasharray:7.0,7.0;"/><polygon fill="#181818" points="64.51,49.77,73.8934,46.7781,68.2463,46.4473,68.5771,40.8001,64.51,49.77" style="stroke:#181818;stroke-width:1.0;"/></g><!--MD5=[f7e003a1602b153f4d94dc94125a38f8]
@startuml
class datos
class algoritmo
class aplicación



aplicación <-l- algoritmo
algoritmo <-l- datos
aplicación .> datos

@enduml

PlantUML version 1.2022.7(Mon Aug 22 19:01:30 CEST 2022)
(GPL source distribution)
Java Runtime: OpenJDK Runtime Environment
JVM: OpenJDK 64-Bit Server VM
Default Encoding: UTF-8
Language: es
Country: ES
--></g></svg>