<?xml version="1.0" encoding="UTF-8" standalone="no"?><svg xmlns="http://www.w3.org/2000/svg" xmlns:xlink="http://www.w3.org/1999/xlink" contentStyleType="text/css" height="386px" preserveAspectRatio="none" style="width:2165px;height:386px;background:#FFFFFF;" version="1.1" viewBox="0 0 2165 386" width="2165px" zoomAndPan="magnify"><defs/><g><!--MD5=[23ac59978132272548bf992e3c610de9]
class Prompt--><g id="elem_Prompt"><rect fill="#F1F1F1" height="48" id="Prompt" rx="2.5" ry="2.5" style="stroke:#181818;stroke-width:0.5;" width="81" x="1043.5" y="331"/><ellipse cx="1058.5" cy="347" fill="#ADD1B2" rx="11" ry="11" style="stroke:#181818;stroke-width:1.0;"/><path d="M1057.9688,353.9219 Q1056.2188,353.9219 1055.0781,353.1875 Q1053.9531,352.4375 1053.3906,351.0938 Q1052.8438,349.7344 1052.8438,347.9375 Q1052.8438,345.9063 1053.5,344.4531 Q1054.1563,343 1055.4375,342.2188 Q1056.7188,341.4375 1058.5938,341.4375 Q1059.4844,341.4375 1060.1563,341.625 Q1060.8281,341.7969 1061.5156,342.1406 L1060.7031,344.1563 Q1060.0781,343.8438 1059.5313,343.7188 Q1059,343.5938 1058.5156,343.5938 Q1057.3438,343.5938 1056.6406,344.125 Q1055.9375,344.6563 1055.6406,345.6094 Q1055.3438,346.5625 1055.3438,347.8281 Q1055.3438,349.8438 1056.0625,350.8125 Q1056.7813,351.7656 1058.375,351.7656 Q1058.9688,351.7656 1059.5938,351.6094 Q1060.2188,351.4531 1061.0469,351.0781 L1061.0469,353.2969 Q1060.3125,353.6094 1059.5156,353.7656 Q1058.7344,353.9219 1057.9688,353.9219 Z " fill="#000000"/><text fill="#000000" font-family="sans-serif" font-size="14" lengthAdjust="spacing" textLength="49" x="1072.5" y="352.432">Prompt</text><line style="stroke:#181818;stroke-width:0.5;" x1="1044.5" x2="1123.5" y1="363" y2="363"/><line style="stroke:#181818;stroke-width:0.5;" x1="1044.5" x2="1123.5" y1="371" y2="371"/></g><!--MD5=[7dc4723b7980928a577f86f3637c3413]
class Receta--><g id="elem_Receta"><rect fill="#F1F1F1" height="48" id="Receta" rx="2.5" ry="2.5" style="stroke:#181818;stroke-width:0.5;" width="77" x="1045.5" y="223"/><ellipse cx="1060.5" cy="239" fill="#ADD1B2" rx="11" ry="11" style="stroke:#181818;stroke-width:1.0;"/><path d="M1059.9688,245.9219 Q1058.2188,245.9219 1057.0781,245.1875 Q1055.9531,244.4375 1055.3906,243.0938 Q1054.8438,241.7344 1054.8438,239.9375 Q1054.8438,237.9063 1055.5,236.4531 Q1056.1563,235 1057.4375,234.2188 Q1058.7188,233.4375 1060.5938,233.4375 Q1061.4844,233.4375 1062.1563,233.625 Q1062.8281,233.7969 1063.5156,234.1406 L1062.7031,236.1563 Q1062.0781,235.8438 1061.5313,235.7188 Q1061,235.5938 1060.5156,235.5938 Q1059.3438,235.5938 1058.6406,236.125 Q1057.9375,236.6563 1057.6406,237.6094 Q1057.3438,238.5625 1057.3438,239.8281 Q1057.3438,241.8438 1058.0625,242.8125 Q1058.7813,243.7656 1060.375,243.7656 Q1060.9688,243.7656 1061.5938,243.6094 Q1062.2188,243.4531 1063.0469,243.0781 L1063.0469,245.2969 Q1062.3125,245.6094 1061.5156,245.7656 Q1060.7344,245.9219 1059.9688,245.9219 Z " fill="#000000"/><text fill="#000000" font-family="sans-serif" font-size="14" lengthAdjust="spacing" textLength="45" x="1074.5" y="244.432">Receta</text><line style="stroke:#181818;stroke-width:0.5;" x1="1046.5" x2="1121.5" y1="255" y2="255"/><line style="stroke:#181818;stroke-width:0.5;" x1="1046.5" x2="1121.5" y1="263" y2="263"/></g><!--MD5=[8b66b7342ebffb5468f9dad95977a8e0]
class Tarea--><g id="elem_Tarea"><rect fill="#F1F1F1" height="48" id="Tarea" rx="2.5" ry="2.5" style="stroke:#181818;stroke-width:0.5;" width="70" x="1835" y="115"/><ellipse cx="1850" cy="131" fill="#ADD1B2" rx="11" ry="11" style="stroke:#181818;stroke-width:1.0;"/><path d="M1849.4688,137.9219 Q1847.7188,137.9219 1846.5781,137.1875 Q1845.4531,136.4375 1844.8906,135.0938 Q1844.3438,133.7344 1844.3438,131.9375 Q1844.3438,129.9063 1845,128.4531 Q1845.6563,127 1846.9375,126.2188 Q1848.2188,125.4375 1850.0938,125.4375 Q1850.9844,125.4375 1851.6563,125.625 Q1852.3281,125.7969 1853.0156,126.1406 L1852.2031,128.1563 Q1851.5781,127.8438 1851.0313,127.7188 Q1850.5,127.5938 1850.0156,127.5938 Q1848.8438,127.5938 1848.1406,128.125 Q1847.4375,128.6563 1847.1406,129.6094 Q1846.8438,130.5625 1846.8438,131.8281 Q1846.8438,133.8438 1847.5625,134.8125 Q1848.2813,135.7656 1849.875,135.7656 Q1850.4688,135.7656 1851.0938,135.6094 Q1851.7188,135.4531 1852.5469,135.0781 L1852.5469,137.2969 Q1851.8125,137.6094 1851.0156,137.7656 Q1850.2344,137.9219 1849.4688,137.9219 Z " fill="#000000"/><text fill="#000000" font-family="sans-serif" font-size="14" lengthAdjust="spacing" textLength="38" x="1864" y="136.432">Tarea</text><line style="stroke:#181818;stroke-width:0.5;" x1="1836" x2="1904" y1="147" y2="147"/><line style="stroke:#181818;stroke-width:0.5;" x1="1836" x2="1904" y1="155" y2="155"/></g><!--MD5=[58d0a597b86e0d150e85165aee8b1098]
class Instrucciones--><g id="elem_Instrucciones"><rect fill="#F1F1F1" height="48" id="Instrucciones" rx="2.5" ry="2.5" style="stroke:#181818;stroke-width:0.5;" width="123" x="628.5" y="115"/><ellipse cx="643.5" cy="131" fill="#ADD1B2" rx="11" ry="11" style="stroke:#181818;stroke-width:1.0;"/><path d="M642.9688,137.9219 Q641.2188,137.9219 640.0781,137.1875 Q638.9531,136.4375 638.3906,135.0938 Q637.8438,133.7344 637.8438,131.9375 Q637.8438,129.9063 638.5,128.4531 Q639.1563,127 640.4375,126.2188 Q641.7188,125.4375 643.5938,125.4375 Q644.4844,125.4375 645.1563,125.625 Q645.8281,125.7969 646.5156,126.1406 L645.7031,128.1563 Q645.0781,127.8438 644.5313,127.7188 Q644,127.5938 643.5156,127.5938 Q642.3438,127.5938 641.6406,128.125 Q640.9375,128.6563 640.6406,129.6094 Q640.3438,130.5625 640.3438,131.8281 Q640.3438,133.8438 641.0625,134.8125 Q641.7813,135.7656 643.375,135.7656 Q643.9688,135.7656 644.5938,135.6094 Q645.2188,135.4531 646.0469,135.0781 L646.0469,137.2969 Q645.3125,137.6094 644.5156,137.7656 Q643.7344,137.9219 642.9688,137.9219 Z " fill="#000000"/><text fill="#000000" font-family="sans-serif" font-size="14" lengthAdjust="spacing" textLength="91" x="657.5" y="136.432">Instrucciones</text><line style="stroke:#181818;stroke-width:0.5;" x1="629.5" x2="750.5" y1="147" y2="147"/><line style="stroke:#181818;stroke-width:0.5;" x1="629.5" x2="750.5" y1="155" y2="155"/></g><!--MD5=[d933999a937b529ea3aaeeb9e325bacd]
class Contexto--><g id="elem_Contexto"><rect fill="#F1F1F1" height="48" id="Contexto" rx="2.5" ry="2.5" style="stroke:#181818;stroke-width:0.5;" width="91" x="1038.5" y="115"/><ellipse cx="1053.5" cy="131" fill="#ADD1B2" rx="11" ry="11" style="stroke:#181818;stroke-width:1.0;"/><path d="M1052.9688,137.9219 Q1051.2188,137.9219 1050.0781,137.1875 Q1048.9531,136.4375 1048.3906,135.0938 Q1047.8438,133.7344 1047.8438,131.9375 Q1047.8438,129.9063 1048.5,128.4531 Q1049.1563,127 1050.4375,126.2188 Q1051.7188,125.4375 1053.5938,125.4375 Q1054.4844,125.4375 1055.1563,125.625 Q1055.8281,125.7969 1056.5156,126.1406 L1055.7031,128.1563 Q1055.0781,127.8438 1054.5313,127.7188 Q1054,127.5938 1053.5156,127.5938 Q1052.3438,127.5938 1051.6406,128.125 Q1050.9375,128.6563 1050.6406,129.6094 Q1050.3438,130.5625 1050.3438,131.8281 Q1050.3438,133.8438 1051.0625,134.8125 Q1051.7813,135.7656 1053.375,135.7656 Q1053.9688,135.7656 1054.5938,135.6094 Q1055.2188,135.4531 1056.0469,135.0781 L1056.0469,137.2969 Q1055.3125,137.6094 1054.5156,137.7656 Q1053.7344,137.9219 1052.9688,137.9219 Z " fill="#000000"/><text fill="#000000" font-family="sans-serif" font-size="14" lengthAdjust="spacing" textLength="59" x="1067.5" y="136.432">Contexto</text><line style="stroke:#181818;stroke-width:0.5;" x1="1039.5" x2="1128.5" y1="147" y2="147"/><line style="stroke:#181818;stroke-width:0.5;" x1="1039.5" x2="1128.5" y1="155" y2="155"/></g><!--MD5=[6694c18989b8e2458a5d3d469144568d]
class Entrada--><g id="elem_Entrada"><rect fill="#F1F1F1" height="48" id="Entrada" rx="2.5" ry="2.5" style="stroke:#181818;stroke-width:0.5;" width="85" x="129.5" y="115"/><ellipse cx="144.5" cy="131" fill="#ADD1B2" rx="11" ry="11" style="stroke:#181818;stroke-width:1.0;"/><path d="M143.9688,137.9219 Q142.2188,137.9219 141.0781,137.1875 Q139.9531,136.4375 139.3906,135.0938 Q138.8438,133.7344 138.8438,131.9375 Q138.8438,129.9063 139.5,128.4531 Q140.1563,127 141.4375,126.2188 Q142.7188,125.4375 144.5938,125.4375 Q145.4844,125.4375 146.1563,125.625 Q146.8281,125.7969 147.5156,126.1406 L146.7031,128.1563 Q146.0781,127.8438 145.5313,127.7188 Q145,127.5938 144.5156,127.5938 Q143.3438,127.5938 142.6406,128.125 Q141.9375,128.6563 141.6406,129.6094 Q141.3438,130.5625 141.3438,131.8281 Q141.3438,133.8438 142.0625,134.8125 Q142.7813,135.7656 144.375,135.7656 Q144.9688,135.7656 145.5938,135.6094 Q146.2188,135.4531 147.0469,135.0781 L147.0469,137.2969 Q146.3125,137.6094 145.5156,137.7656 Q144.7344,137.9219 143.9688,137.9219 Z " fill="#000000"/><text fill="#000000" font-family="sans-serif" font-size="14" lengthAdjust="spacing" textLength="53" x="158.5" y="136.432">Entrada</text><line style="stroke:#181818;stroke-width:0.5;" x1="130.5" x2="213.5" y1="147" y2="147"/><line style="stroke:#181818;stroke-width:0.5;" x1="130.5" x2="213.5" y1="155" y2="155"/></g><!--MD5=[4c18751fa77cc560573b090f3bbf04b2]
class Parámetros--><g id="elem_Parámetros"><rect fill="#F1F1F1" height="48" id="Parámetros" rx="2.5" ry="2.5" style="stroke:#181818;stroke-width:0.5;" width="109" x="1328.5" y="115"/><ellipse cx="1343.5" cy="131" fill="#ADD1B2" rx="11" ry="11" style="stroke:#181818;stroke-width:1.0;"/><path d="M1342.9688,137.9219 Q1341.2188,137.9219 1340.0781,137.1875 Q1338.9531,136.4375 1338.3906,135.0938 Q1337.8438,133.7344 1337.8438,131.9375 Q1337.8438,129.9063 1338.5,128.4531 Q1339.1563,127 1340.4375,126.2188 Q1341.7188,125.4375 1343.5938,125.4375 Q1344.4844,125.4375 1345.1563,125.625 Q1345.8281,125.7969 1346.5156,126.1406 L1345.7031,128.1563 Q1345.0781,127.8438 1344.5313,127.7188 Q1344,127.5938 1343.5156,127.5938 Q1342.3438,127.5938 1341.6406,128.125 Q1340.9375,128.6563 1340.6406,129.6094 Q1340.3438,130.5625 1340.3438,131.8281 Q1340.3438,133.8438 1341.0625,134.8125 Q1341.7813,135.7656 1343.375,135.7656 Q1343.9688,135.7656 1344.5938,135.6094 Q1345.2188,135.4531 1346.0469,135.0781 L1346.0469,137.2969 Q1345.3125,137.6094 1344.5156,137.7656 Q1343.7344,137.9219 1342.9688,137.9219 Z " fill="#000000"/><text fill="#000000" font-family="sans-serif" font-size="14" lengthAdjust="spacing" textLength="77" x="1357.5" y="136.432">Parámetros</text><line style="stroke:#181818;stroke-width:0.5;" x1="1329.5" x2="1436.5" y1="147" y2="147"/><line style="stroke:#181818;stroke-width:0.5;" x1="1329.5" x2="1436.5" y1="155" y2="155"/></g><!--MD5=[c3083c573491f94354dcf1a2c5c7faf1]
class Tópico--><g id="elem_Tópico"><rect fill="#F1F1F1" height="48" id="Tópico" rx="2.5" ry="2.5" style="stroke:#181818;stroke-width:0.5;" width="76" x="2082" y="7"/><ellipse cx="2097" cy="23" fill="#ADD1B2" rx="11" ry="11" style="stroke:#181818;stroke-width:1.0;"/><path d="M2096.4688,29.9219 Q2094.7188,29.9219 2093.5781,29.1875 Q2092.4531,28.4375 2091.8906,27.0938 Q2091.3438,25.7344 2091.3438,23.9375 Q2091.3438,21.9063 2092,20.4531 Q2092.6563,19 2093.9375,18.2188 Q2095.2188,17.4375 2097.0938,17.4375 Q2097.9844,17.4375 2098.6563,17.625 Q2099.3281,17.7969 2100.0156,18.1406 L2099.2031,20.1563 Q2098.5781,19.8438 2098.0313,19.7188 Q2097.5,19.5938 2097.0156,19.5938 Q2095.8438,19.5938 2095.1406,20.125 Q2094.4375,20.6563 2094.1406,21.6094 Q2093.8438,22.5625 2093.8438,23.8281 Q2093.8438,25.8438 2094.5625,26.8125 Q2095.2813,27.7656 2096.875,27.7656 Q2097.4688,27.7656 2098.0938,27.6094 Q2098.7188,27.4531 2099.5469,27.0781 L2099.5469,29.2969 Q2098.8125,29.6094 2098.0156,29.7656 Q2097.2344,29.9219 2096.4688,29.9219 Z " fill="#000000"/><text fill="#000000" font-family="sans-serif" font-size="14" lengthAdjust="spacing" textLength="44" x="2111" y="28.432">Tópico</text><line style="stroke:#181818;stroke-width:0.5;" x1="2083" x2="2157" y1="39" y2="39"/><line style="stroke:#181818;stroke-width:0.5;" x1="2083" x2="2157" y1="47" y2="47"/></g><!--MD5=[51f0781105b9cf5fcba3c6a2af676f78]
class Comando--><g id="elem_Comando"><rect fill="#F1F1F1" height="48" id="Comando" rx="2.5" ry="2.5" style="stroke:#181818;stroke-width:0.5;" width="96" x="1951" y="7"/><ellipse cx="1966" cy="23" fill="#ADD1B2" rx="11" ry="11" style="stroke:#181818;stroke-width:1.0;"/><path d="M1965.4688,29.9219 Q1963.7188,29.9219 1962.5781,29.1875 Q1961.4531,28.4375 1960.8906,27.0938 Q1960.3438,25.7344 1960.3438,23.9375 Q1960.3438,21.9063 1961,20.4531 Q1961.6563,19 1962.9375,18.2188 Q1964.2188,17.4375 1966.0938,17.4375 Q1966.9844,17.4375 1967.6563,17.625 Q1968.3281,17.7969 1969.0156,18.1406 L1968.2031,20.1563 Q1967.5781,19.8438 1967.0313,19.7188 Q1966.5,19.5938 1966.0156,19.5938 Q1964.8438,19.5938 1964.1406,20.125 Q1963.4375,20.6563 1963.1406,21.6094 Q1962.8438,22.5625 1962.8438,23.8281 Q1962.8438,25.8438 1963.5625,26.8125 Q1964.2813,27.7656 1965.875,27.7656 Q1966.4688,27.7656 1967.0938,27.6094 Q1967.7188,27.4531 1968.5469,27.0781 L1968.5469,29.2969 Q1967.8125,29.6094 1967.0156,29.7656 Q1966.2344,29.9219 1965.4688,29.9219 Z " fill="#000000"/><text fill="#000000" font-family="sans-serif" font-size="14" lengthAdjust="spacing" textLength="64" x="1980" y="28.432">Comando</text><line style="stroke:#181818;stroke-width:0.5;" x1="1952" x2="2046" y1="39" y2="39"/><line style="stroke:#181818;stroke-width:0.5;" x1="1952" x2="2046" y1="47" y2="47"/></g><!--MD5=[5f1fb55be5d36e76ccc1753bacdb8004]
class Acciones--><g id="elem_Acciones"><rect fill="#F1F1F1" height="48" id="Acciones" rx="2.5" ry="2.5" style="stroke:#181818;stroke-width:0.5;" width="91" x="1824.5" y="7"/><ellipse cx="1839.5" cy="23" fill="#ADD1B2" rx="11" ry="11" style="stroke:#181818;stroke-width:1.0;"/><path d="M1838.9688,29.9219 Q1837.2188,29.9219 1836.0781,29.1875 Q1834.9531,28.4375 1834.3906,27.0938 Q1833.8438,25.7344 1833.8438,23.9375 Q1833.8438,21.9063 1834.5,20.4531 Q1835.1563,19 1836.4375,18.2188 Q1837.7188,17.4375 1839.5938,17.4375 Q1840.4844,17.4375 1841.1563,17.625 Q1841.8281,17.7969 1842.5156,18.1406 L1841.7031,20.1563 Q1841.0781,19.8438 1840.5313,19.7188 Q1840,19.5938 1839.5156,19.5938 Q1838.3438,19.5938 1837.6406,20.125 Q1836.9375,20.6563 1836.6406,21.6094 Q1836.3438,22.5625 1836.3438,23.8281 Q1836.3438,25.8438 1837.0625,26.8125 Q1837.7813,27.7656 1839.375,27.7656 Q1839.9688,27.7656 1840.5938,27.6094 Q1841.2188,27.4531 1842.0469,27.0781 L1842.0469,29.2969 Q1841.3125,29.6094 1840.5156,29.7656 Q1839.7344,29.9219 1838.9688,29.9219 Z " fill="#000000"/><text fill="#000000" font-family="sans-serif" font-size="14" lengthAdjust="spacing" textLength="59" x="1853.5" y="28.432">Acciones</text><line style="stroke:#181818;stroke-width:0.5;" x1="1825.5" x2="1914.5" y1="39" y2="39"/><line style="stroke:#181818;stroke-width:0.5;" x1="1825.5" x2="1914.5" y1="47" y2="47"/></g><!--MD5=[8b35924ee2314cc385b070b0e6d033cc]
class Documento--><g id="elem_Documento"><rect fill="#F1F1F1" height="48" id="Documento" rx="2.5" ry="2.5" style="stroke:#181818;stroke-width:0.5;" width="109" x="1680.5" y="7"/><ellipse cx="1695.5" cy="23" fill="#ADD1B2" rx="11" ry="11" style="stroke:#181818;stroke-width:1.0;"/><path d="M1694.9688,29.9219 Q1693.2188,29.9219 1692.0781,29.1875 Q1690.9531,28.4375 1690.3906,27.0938 Q1689.8438,25.7344 1689.8438,23.9375 Q1689.8438,21.9063 1690.5,20.4531 Q1691.1563,19 1692.4375,18.2188 Q1693.7188,17.4375 1695.5938,17.4375 Q1696.4844,17.4375 1697.1563,17.625 Q1697.8281,17.7969 1698.5156,18.1406 L1697.7031,20.1563 Q1697.0781,19.8438 1696.5313,19.7188 Q1696,19.5938 1695.5156,19.5938 Q1694.3438,19.5938 1693.6406,20.125 Q1692.9375,20.6563 1692.6406,21.6094 Q1692.3438,22.5625 1692.3438,23.8281 Q1692.3438,25.8438 1693.0625,26.8125 Q1693.7813,27.7656 1695.375,27.7656 Q1695.9688,27.7656 1696.5938,27.6094 Q1697.2188,27.4531 1698.0469,27.0781 L1698.0469,29.2969 Q1697.3125,29.6094 1696.5156,29.7656 Q1695.7344,29.9219 1694.9688,29.9219 Z " fill="#000000"/><text fill="#000000" font-family="sans-serif" font-size="14" lengthAdjust="spacing" textLength="77" x="1709.5" y="28.432">Documento</text><line style="stroke:#181818;stroke-width:0.5;" x1="1681.5" x2="1788.5" y1="39" y2="39"/><line style="stroke:#181818;stroke-width:0.5;" x1="1681.5" x2="1788.5" y1="47" y2="47"/></g><!--MD5=[e8a21bd66ae5b4859d2601acfcab53fd]
class Objetivos--><g id="elem_Objetivos"><rect fill="#F1F1F1" height="48" id="Objetivos" rx="2.5" ry="2.5" style="stroke:#181818;stroke-width:0.5;" width="95" x="776.5" y="7"/><ellipse cx="791.5" cy="23" fill="#ADD1B2" rx="11" ry="11" style="stroke:#181818;stroke-width:1.0;"/><path d="M790.9688,29.9219 Q789.2188,29.9219 788.0781,29.1875 Q786.9531,28.4375 786.3906,27.0938 Q785.8438,25.7344 785.8438,23.9375 Q785.8438,21.9063 786.5,20.4531 Q787.1563,19 788.4375,18.2188 Q789.7188,17.4375 791.5938,17.4375 Q792.4844,17.4375 793.1563,17.625 Q793.8281,17.7969 794.5156,18.1406 L793.7031,20.1563 Q793.0781,19.8438 792.5313,19.7188 Q792,19.5938 791.5156,19.5938 Q790.3438,19.5938 789.6406,20.125 Q788.9375,20.6563 788.6406,21.6094 Q788.3438,22.5625 788.3438,23.8281 Q788.3438,25.8438 789.0625,26.8125 Q789.7813,27.7656 791.375,27.7656 Q791.9688,27.7656 792.5938,27.6094 Q793.2188,27.4531 794.0469,27.0781 L794.0469,29.2969 Q793.3125,29.6094 792.5156,29.7656 Q791.7344,29.9219 790.9688,29.9219 Z " fill="#000000"/><text fill="#000000" font-family="sans-serif" font-size="14" lengthAdjust="spacing" textLength="63" x="805.5" y="28.432">Objetivos</text><line style="stroke:#181818;stroke-width:0.5;" x1="777.5" x2="870.5" y1="39" y2="39"/><line style="stroke:#181818;stroke-width:0.5;" x1="777.5" x2="870.5" y1="47" y2="47"/></g><!--MD5=[f91ce7ac2d29bbd376d349cac4c81fbc]
class Estructura--><g id="elem_Estructura"><rect fill="#F1F1F1" height="48" id="Estructura" rx="2.5" ry="2.5" style="stroke:#181818;stroke-width:0.5;" width="102" x="639" y="7"/><ellipse cx="654" cy="23" fill="#ADD1B2" rx="11" ry="11" style="stroke:#181818;stroke-width:1.0;"/><path d="M653.4688,29.9219 Q651.7188,29.9219 650.5781,29.1875 Q649.4531,28.4375 648.8906,27.0938 Q648.3438,25.7344 648.3438,23.9375 Q648.3438,21.9063 649,20.4531 Q649.6563,19 650.9375,18.2188 Q652.2188,17.4375 654.0938,17.4375 Q654.9844,17.4375 655.6563,17.625 Q656.3281,17.7969 657.0156,18.1406 L656.2031,20.1563 Q655.5781,19.8438 655.0313,19.7188 Q654.5,19.5938 654.0156,19.5938 Q652.8438,19.5938 652.1406,20.125 Q651.4375,20.6563 651.1406,21.6094 Q650.8438,22.5625 650.8438,23.8281 Q650.8438,25.8438 651.5625,26.8125 Q652.2813,27.7656 653.875,27.7656 Q654.4688,27.7656 655.0938,27.6094 Q655.7188,27.4531 656.5469,27.0781 L656.5469,29.2969 Q655.8125,29.6094 655.0156,29.7656 Q654.2344,29.9219 653.4688,29.9219 Z " fill="#000000"/><text fill="#000000" font-family="sans-serif" font-size="14" lengthAdjust="spacing" textLength="70" x="668" y="28.432">Estructura</text><line style="stroke:#181818;stroke-width:0.5;" x1="640" x2="740" y1="39" y2="39"/><line style="stroke:#181818;stroke-width:0.5;" x1="640" x2="740" y1="47" y2="47"/></g><!--MD5=[b91c03d3292c224d8c1c29313e315f7f]
class Formato--><g id="elem_Formato"><rect fill="#F1F1F1" height="48" id="Formato" rx="2.5" ry="2.5" style="stroke:#181818;stroke-width:0.5;" width="87" x="516.5" y="7"/><ellipse cx="531.5" cy="23" fill="#ADD1B2" rx="11" ry="11" style="stroke:#181818;stroke-width:1.0;"/><path d="M530.9688,29.9219 Q529.2188,29.9219 528.0781,29.1875 Q526.9531,28.4375 526.3906,27.0938 Q525.8438,25.7344 525.8438,23.9375 Q525.8438,21.9063 526.5,20.4531 Q527.1563,19 528.4375,18.2188 Q529.7188,17.4375 531.5938,17.4375 Q532.4844,17.4375 533.1563,17.625 Q533.8281,17.7969 534.5156,18.1406 L533.7031,20.1563 Q533.0781,19.8438 532.5313,19.7188 Q532,19.5938 531.5156,19.5938 Q530.3438,19.5938 529.6406,20.125 Q528.9375,20.6563 528.6406,21.6094 Q528.3438,22.5625 528.3438,23.8281 Q528.3438,25.8438 529.0625,26.8125 Q529.7813,27.7656 531.375,27.7656 Q531.9688,27.7656 532.5938,27.6094 Q533.2188,27.4531 534.0469,27.0781 L534.0469,29.2969 Q533.3125,29.6094 532.5156,29.7656 Q531.7344,29.9219 530.9688,29.9219 Z " fill="#000000"/><text fill="#000000" font-family="sans-serif" font-size="14" lengthAdjust="spacing" textLength="55" x="545.5" y="28.432">Formato</text><line style="stroke:#181818;stroke-width:0.5;" x1="517.5" x2="602.5" y1="39" y2="39"/><line style="stroke:#181818;stroke-width:0.5;" x1="517.5" x2="602.5" y1="47" y2="47"/></g><!--MD5=[d1ddc821c4c69aca0e9435756232b395]
class Restricciones--><g id="elem_Restricciones"><rect fill="#F1F1F1" height="48" id="Restricciones" rx="2.5" ry="2.5" style="stroke:#181818;stroke-width:0.5;" width="121" x="360.5" y="7"/><ellipse cx="375.5" cy="23" fill="#ADD1B2" rx="11" ry="11" style="stroke:#181818;stroke-width:1.0;"/><path d="M374.9688,29.9219 Q373.2188,29.9219 372.0781,29.1875 Q370.9531,28.4375 370.3906,27.0938 Q369.8438,25.7344 369.8438,23.9375 Q369.8438,21.9063 370.5,20.4531 Q371.1563,19 372.4375,18.2188 Q373.7188,17.4375 375.5938,17.4375 Q376.4844,17.4375 377.1563,17.625 Q377.8281,17.7969 378.5156,18.1406 L377.7031,20.1563 Q377.0781,19.8438 376.5313,19.7188 Q376,19.5938 375.5156,19.5938 Q374.3438,19.5938 373.6406,20.125 Q372.9375,20.6563 372.6406,21.6094 Q372.3438,22.5625 372.3438,23.8281 Q372.3438,25.8438 373.0625,26.8125 Q373.7813,27.7656 375.375,27.7656 Q375.9688,27.7656 376.5938,27.6094 Q377.2188,27.4531 378.0469,27.0781 L378.0469,29.2969 Q377.3125,29.6094 376.5156,29.7656 Q375.7344,29.9219 374.9688,29.9219 Z " fill="#000000"/><text fill="#000000" font-family="sans-serif" font-size="14" lengthAdjust="spacing" textLength="89" x="389.5" y="28.432">Restricciones</text><line style="stroke:#181818;stroke-width:0.5;" x1="361.5" x2="480.5" y1="39" y2="39"/><line style="stroke:#181818;stroke-width:0.5;" x1="361.5" x2="480.5" y1="47" y2="47"/></g><!--MD5=[7f255ea2b33bca291426dce1f0dbc231]
class Ejemplos--><g id="elem_Ejemplos"><rect fill="#F1F1F1" height="48" id="Ejemplos" rx="2.5" ry="2.5" style="stroke:#181818;stroke-width:0.5;" width="93" x="906.5" y="7"/><ellipse cx="921.5" cy="23" fill="#ADD1B2" rx="11" ry="11" style="stroke:#181818;stroke-width:1.0;"/><path d="M920.9688,29.9219 Q919.2188,29.9219 918.0781,29.1875 Q916.9531,28.4375 916.3906,27.0938 Q915.8438,25.7344 915.8438,23.9375 Q915.8438,21.9063 916.5,20.4531 Q917.1563,19 918.4375,18.2188 Q919.7188,17.4375 921.5938,17.4375 Q922.4844,17.4375 923.1563,17.625 Q923.8281,17.7969 924.5156,18.1406 L923.7031,20.1563 Q923.0781,19.8438 922.5313,19.7188 Q922,19.5938 921.5156,19.5938 Q920.3438,19.5938 919.6406,20.125 Q918.9375,20.6563 918.6406,21.6094 Q918.3438,22.5625 918.3438,23.8281 Q918.3438,25.8438 919.0625,26.8125 Q919.7813,27.7656 921.375,27.7656 Q921.9688,27.7656 922.5938,27.6094 Q923.2188,27.4531 924.0469,27.0781 L924.0469,29.2969 Q923.3125,29.6094 922.5156,29.7656 Q921.7344,29.9219 920.9688,29.9219 Z " fill="#000000"/><text fill="#000000" font-family="sans-serif" font-size="14" lengthAdjust="spacing" textLength="61" x="935.5" y="28.432">Ejemplos</text><line style="stroke:#181818;stroke-width:0.5;" x1="907.5" x2="998.5" y1="39" y2="39"/><line style="stroke:#181818;stroke-width:0.5;" x1="907.5" x2="998.5" y1="47" y2="47"/></g><!--MD5=[738d072d1b8407e689e7276e5963af18]
class Guión--><g id="elem_Guión"><rect fill="#F1F1F1" height="48" id="Guión" rx="2.5" ry="2.5" style="stroke:#181818;stroke-width:0.5;" width="72" x="253" y="7"/><ellipse cx="268" cy="23" fill="#ADD1B2" rx="11" ry="11" style="stroke:#181818;stroke-width:1.0;"/><path d="M267.4688,29.9219 Q265.7188,29.9219 264.5781,29.1875 Q263.4531,28.4375 262.8906,27.0938 Q262.3438,25.7344 262.3438,23.9375 Q262.3438,21.9063 263,20.4531 Q263.6563,19 264.9375,18.2188 Q266.2188,17.4375 268.0938,17.4375 Q268.9844,17.4375 269.6563,17.625 Q270.3281,17.7969 271.0156,18.1406 L270.2031,20.1563 Q269.5781,19.8438 269.0313,19.7188 Q268.5,19.5938 268.0156,19.5938 Q266.8438,19.5938 266.1406,20.125 Q265.4375,20.6563 265.1406,21.6094 Q264.8438,22.5625 264.8438,23.8281 Q264.8438,25.8438 265.5625,26.8125 Q266.2813,27.7656 267.875,27.7656 Q268.4688,27.7656 269.0938,27.6094 Q269.7188,27.4531 270.5469,27.0781 L270.5469,29.2969 Q269.8125,29.6094 269.0156,29.7656 Q268.2344,29.9219 267.4688,29.9219 Z " fill="#000000"/><text fill="#000000" font-family="sans-serif" font-size="14" lengthAdjust="spacing" textLength="40" x="282" y="28.432">Guión</text><line style="stroke:#181818;stroke-width:0.5;" x1="254" x2="324" y1="39" y2="39"/><line style="stroke:#181818;stroke-width:0.5;" x1="254" x2="324" y1="47" y2="47"/></g><!--MD5=[54736e807c59b9b647b6e830d606a429]
class Rol--><g id="elem_Rol"><rect fill="#F1F1F1" height="48" id="Rol" rx="2.5" ry="2.5" style="stroke:#181818;stroke-width:0.5;" width="53" x="1168.5" y="7"/><ellipse cx="1183.5" cy="23" fill="#ADD1B2" rx="11" ry="11" style="stroke:#181818;stroke-width:1.0;"/><path d="M1182.9688,29.9219 Q1181.2188,29.9219 1180.0781,29.1875 Q1178.9531,28.4375 1178.3906,27.0938 Q1177.8438,25.7344 1177.8438,23.9375 Q1177.8438,21.9063 1178.5,20.4531 Q1179.1563,19 1180.4375,18.2188 Q1181.7188,17.4375 1183.5938,17.4375 Q1184.4844,17.4375 1185.1563,17.625 Q1185.8281,17.7969 1186.5156,18.1406 L1185.7031,20.1563 Q1185.0781,19.8438 1184.5313,19.7188 Q1184,19.5938 1183.5156,19.5938 Q1182.3438,19.5938 1181.6406,20.125 Q1180.9375,20.6563 1180.6406,21.6094 Q1180.3438,22.5625 1180.3438,23.8281 Q1180.3438,25.8438 1181.0625,26.8125 Q1181.7813,27.7656 1183.375,27.7656 Q1183.9688,27.7656 1184.5938,27.6094 Q1185.2188,27.4531 1186.0469,27.0781 L1186.0469,29.2969 Q1185.3125,29.6094 1184.5156,29.7656 Q1183.7344,29.9219 1182.9688,29.9219 Z " fill="#000000"/><text fill="#000000" font-family="sans-serif" font-size="14" lengthAdjust="spacing" textLength="21" x="1197.5" y="28.432">Rol</text><line style="stroke:#181818;stroke-width:0.5;" x1="1169.5" x2="1220.5" y1="39" y2="39"/><line style="stroke:#181818;stroke-width:0.5;" x1="1169.5" x2="1220.5" y1="47" y2="47"/></g><!--MD5=[2f4959b4f80778e941784acc0815f60f]
class Audiencia--><g id="elem_Audiencia"><rect fill="#F1F1F1" height="48" id="Audiencia" rx="2.5" ry="2.5" style="stroke:#181818;stroke-width:0.5;" width="99" x="1034.5" y="7"/><ellipse cx="1049.5" cy="23" fill="#ADD1B2" rx="11" ry="11" style="stroke:#181818;stroke-width:1.0;"/><path d="M1048.9688,29.9219 Q1047.2188,29.9219 1046.0781,29.1875 Q1044.9531,28.4375 1044.3906,27.0938 Q1043.8438,25.7344 1043.8438,23.9375 Q1043.8438,21.9063 1044.5,20.4531 Q1045.1563,19 1046.4375,18.2188 Q1047.7188,17.4375 1049.5938,17.4375 Q1050.4844,17.4375 1051.1563,17.625 Q1051.8281,17.7969 1052.5156,18.1406 L1051.7031,20.1563 Q1051.0781,19.8438 1050.5313,19.7188 Q1050,19.5938 1049.5156,19.5938 Q1048.3438,19.5938 1047.6406,20.125 Q1046.9375,20.6563 1046.6406,21.6094 Q1046.3438,22.5625 1046.3438,23.8281 Q1046.3438,25.8438 1047.0625,26.8125 Q1047.7813,27.7656 1049.375,27.7656 Q1049.9688,27.7656 1050.5938,27.6094 Q1051.2188,27.4531 1052.0469,27.0781 L1052.0469,29.2969 Q1051.3125,29.6094 1050.5156,29.7656 Q1049.7344,29.9219 1048.9688,29.9219 Z " fill="#000000"/><text fill="#000000" font-family="sans-serif" font-size="14" lengthAdjust="spacing" textLength="67" x="1063.5" y="28.432">Audiencia</text><line style="stroke:#181818;stroke-width:0.5;" x1="1035.5" x2="1132.5" y1="39" y2="39"/><line style="stroke:#181818;stroke-width:0.5;" x1="1035.5" x2="1132.5" y1="47" y2="47"/></g><!--MD5=[aa5bbbe51933d9af291db0ed1115076d]
class Consulta--><g id="elem_Consulta"><rect fill="#F1F1F1" height="48" id="Consulta" rx="2.5" ry="2.5" style="stroke:#181818;stroke-width:0.5;" width="91" x="126.5" y="7"/><ellipse cx="141.5" cy="23" fill="#ADD1B2" rx="11" ry="11" style="stroke:#181818;stroke-width:1.0;"/><path d="M140.9688,29.9219 Q139.2188,29.9219 138.0781,29.1875 Q136.9531,28.4375 136.3906,27.0938 Q135.8438,25.7344 135.8438,23.9375 Q135.8438,21.9063 136.5,20.4531 Q137.1563,19 138.4375,18.2188 Q139.7188,17.4375 141.5938,17.4375 Q142.4844,17.4375 143.1563,17.625 Q143.8281,17.7969 144.5156,18.1406 L143.7031,20.1563 Q143.0781,19.8438 142.5313,19.7188 Q142,19.5938 141.5156,19.5938 Q140.3438,19.5938 139.6406,20.125 Q138.9375,20.6563 138.6406,21.6094 Q138.3438,22.5625 138.3438,23.8281 Q138.3438,25.8438 139.0625,26.8125 Q139.7813,27.7656 141.375,27.7656 Q141.9688,27.7656 142.5938,27.6094 Q143.2188,27.4531 144.0469,27.0781 L144.0469,29.2969 Q143.3125,29.6094 142.5156,29.7656 Q141.7344,29.9219 140.9688,29.9219 Z " fill="#000000"/><text fill="#000000" font-family="sans-serif" font-size="14" lengthAdjust="spacing" textLength="59" x="155.5" y="28.432">Consulta</text><line style="stroke:#181818;stroke-width:0.5;" x1="127.5" x2="216.5" y1="39" y2="39"/><line style="stroke:#181818;stroke-width:0.5;" x1="127.5" x2="216.5" y1="47" y2="47"/></g><!--MD5=[78bf04863c95d1579bf6ff583f2a043e]
class Imagen--><g id="elem_Imagen"><rect fill="#F1F1F1" height="48" id="Imagen" rx="2.5" ry="2.5" style="stroke:#181818;stroke-width:0.5;" width="84" x="7" y="7"/><ellipse cx="22" cy="23" fill="#ADD1B2" rx="11" ry="11" style="stroke:#181818;stroke-width:1.0;"/><path d="M21.4688,29.9219 Q19.7188,29.9219 18.5781,29.1875 Q17.4531,28.4375 16.8906,27.0938 Q16.3438,25.7344 16.3438,23.9375 Q16.3438,21.9063 17,20.4531 Q17.6563,19 18.9375,18.2188 Q20.2188,17.4375 22.0938,17.4375 Q22.9844,17.4375 23.6563,17.625 Q24.3281,17.7969 25.0156,18.1406 L24.2031,20.1563 Q23.5781,19.8438 23.0313,19.7188 Q22.5,19.5938 22.0156,19.5938 Q20.8438,19.5938 20.1406,20.125 Q19.4375,20.6563 19.1406,21.6094 Q18.8438,22.5625 18.8438,23.8281 Q18.8438,25.8438 19.5625,26.8125 Q20.2813,27.7656 21.875,27.7656 Q22.4688,27.7656 23.0938,27.6094 Q23.7188,27.4531 24.5469,27.0781 L24.5469,29.2969 Q23.8125,29.6094 23.0156,29.7656 Q22.2344,29.9219 21.4688,29.9219 Z " fill="#000000"/><text fill="#000000" font-family="sans-serif" font-size="14" lengthAdjust="spacing" textLength="52" x="36" y="28.432">Imagen</text><line style="stroke:#181818;stroke-width:0.5;" x1="8" x2="90" y1="39" y2="39"/><line style="stroke:#181818;stroke-width:0.5;" x1="8" x2="90" y1="47" y2="47"/></g><!--MD5=[319b44e58cdb6c280be3e880299e3a62]
class Temperatura--><g id="elem_Temperatura"><rect fill="#F1F1F1" height="48" id="Temperatura" rx="2.5" ry="2.5" style="stroke:#181818;stroke-width:0.5;" width="120" x="1525" y="7"/><ellipse cx="1540" cy="23" fill="#ADD1B2" rx="11" ry="11" style="stroke:#181818;stroke-width:1.0;"/><path d="M1539.4688,29.9219 Q1537.7188,29.9219 1536.5781,29.1875 Q1535.4531,28.4375 1534.8906,27.0938 Q1534.3438,25.7344 1534.3438,23.9375 Q1534.3438,21.9063 1535,20.4531 Q1535.6563,19 1536.9375,18.2188 Q1538.2188,17.4375 1540.0938,17.4375 Q1540.9844,17.4375 1541.6563,17.625 Q1542.3281,17.7969 1543.0156,18.1406 L1542.2031,20.1563 Q1541.5781,19.8438 1541.0313,19.7188 Q1540.5,19.5938 1540.0156,19.5938 Q1538.8438,19.5938 1538.1406,20.125 Q1537.4375,20.6563 1537.1406,21.6094 Q1536.8438,22.5625 1536.8438,23.8281 Q1536.8438,25.8438 1537.5625,26.8125 Q1538.2813,27.7656 1539.875,27.7656 Q1540.4688,27.7656 1541.0938,27.6094 Q1541.7188,27.4531 1542.5469,27.0781 L1542.5469,29.2969 Q1541.8125,29.6094 1541.0156,29.7656 Q1540.2344,29.9219 1539.4688,29.9219 Z " fill="#000000"/><text fill="#000000" font-family="sans-serif" font-size="14" lengthAdjust="spacing" textLength="88" x="1554" y="28.432">Temperatura</text><line style="stroke:#181818;stroke-width:0.5;" x1="1526" x2="1644" y1="39" y2="39"/><line style="stroke:#181818;stroke-width:0.5;" x1="1526" x2="1644" y1="47" y2="47"/></g><!--MD5=[40ce7c85f33a27b949ebdd41bd3f4b23]
class Tokens--><g id="elem_Tokens"><rect fill="#F1F1F1" height="48" id="Tokens" rx="2.5" ry="2.5" style="stroke:#181818;stroke-width:0.5;" width="79" x="1410.5" y="7"/><ellipse cx="1425.5" cy="23" fill="#ADD1B2" rx="11" ry="11" style="stroke:#181818;stroke-width:1.0;"/><path d="M1424.9688,29.9219 Q1423.2188,29.9219 1422.0781,29.1875 Q1420.9531,28.4375 1420.3906,27.0938 Q1419.8438,25.7344 1419.8438,23.9375 Q1419.8438,21.9063 1420.5,20.4531 Q1421.1563,19 1422.4375,18.2188 Q1423.7188,17.4375 1425.5938,17.4375 Q1426.4844,17.4375 1427.1563,17.625 Q1427.8281,17.7969 1428.5156,18.1406 L1427.7031,20.1563 Q1427.0781,19.8438 1426.5313,19.7188 Q1426,19.5938 1425.5156,19.5938 Q1424.3438,19.5938 1423.6406,20.125 Q1422.9375,20.6563 1422.6406,21.6094 Q1422.3438,22.5625 1422.3438,23.8281 Q1422.3438,25.8438 1423.0625,26.8125 Q1423.7813,27.7656 1425.375,27.7656 Q1425.9688,27.7656 1426.5938,27.6094 Q1427.2188,27.4531 1428.0469,27.0781 L1428.0469,29.2969 Q1427.3125,29.6094 1426.5156,29.7656 Q1425.7344,29.9219 1424.9688,29.9219 Z " fill="#000000"/><text fill="#000000" font-family="sans-serif" font-size="14" lengthAdjust="spacing" textLength="47" x="1439.5" y="28.432">Tokens</text><line style="stroke:#181818;stroke-width:0.5;" x1="1411.5" x2="1488.5" y1="39" y2="39"/><line style="stroke:#181818;stroke-width:0.5;" x1="1411.5" x2="1488.5" y1="47" y2="47"/></g><!--MD5=[373e3cacf3eabfc382c92c6beb55b85d]
class Probabilidad--><g id="elem_Probabilidad"><rect fill="#F1F1F1" height="48" id="Probabilidad" rx="2.5" ry="2.5" style="stroke:#181818;stroke-width:0.5;" width="118" x="1257" y="7"/><ellipse cx="1272" cy="23" fill="#ADD1B2" rx="11" ry="11" style="stroke:#181818;stroke-width:1.0;"/><path d="M1271.4688,29.9219 Q1269.7188,29.9219 1268.5781,29.1875 Q1267.4531,28.4375 1266.8906,27.0938 Q1266.3438,25.7344 1266.3438,23.9375 Q1266.3438,21.9063 1267,20.4531 Q1267.6563,19 1268.9375,18.2188 Q1270.2188,17.4375 1272.0938,17.4375 Q1272.9844,17.4375 1273.6563,17.625 Q1274.3281,17.7969 1275.0156,18.1406 L1274.2031,20.1563 Q1273.5781,19.8438 1273.0313,19.7188 Q1272.5,19.5938 1272.0156,19.5938 Q1270.8438,19.5938 1270.1406,20.125 Q1269.4375,20.6563 1269.1406,21.6094 Q1268.8438,22.5625 1268.8438,23.8281 Q1268.8438,25.8438 1269.5625,26.8125 Q1270.2813,27.7656 1271.875,27.7656 Q1272.4688,27.7656 1273.0938,27.6094 Q1273.7188,27.4531 1274.5469,27.0781 L1274.5469,29.2969 Q1273.8125,29.6094 1273.0156,29.7656 Q1272.2344,29.9219 1271.4688,29.9219 Z " fill="#000000"/><text fill="#000000" font-family="sans-serif" font-size="14" lengthAdjust="spacing" textLength="86" x="1286" y="28.432">Probabilidad</text><line style="stroke:#181818;stroke-width:0.5;" x1="1258" x2="1374" y1="39" y2="39"/><line style="stroke:#181818;stroke-width:0.5;" x1="1258" x2="1374" y1="47" y2="47"/></g><!--MD5=[ca1ac2803c2597e6097f5dc7b8966cef]
reverse link Receta to Prompt--><g id="link_Receta_Prompt"><path codeLine="1" d="M1084,291.02 C1084,304.58 1084,319.04 1084,330.68 " fill="none" id="Receta-backto-Prompt" style="stroke:#181818;stroke-width:1.0;"/><polygon fill="none" points="1077,291,1084,271,1091,291,1077,291" style="stroke:#181818;stroke-width:1.0;"/></g><!--MD5=[a89adcb2820a093d190b73e16a548029]
link Tarea to Receta--><g id="link_Tarea_Receta"><path codeLine="3" d="M1834.96,144.73 C1709.87,161.6 1284.88,218.91 1136.02,238.98 " fill="none" id="Tarea-to-Receta" style="stroke:#181818;stroke-width:1.0;stroke-dasharray:7.0,7.0;"/><polygon fill="none" points="1122.9,240.75,1129.3825,243.9087,1134.7915,239.1398,1128.309,235.9811,1122.9,240.75" style="stroke:#181818;stroke-width:1.0;"/></g><!--MD5=[451a20379047f4d1098abba0bf219514]
link Instrucciones to Receta--><g id="link_Instrucciones_Receta"><path codeLine="4" d="M751.56,156.56 C828.89,177.37 960.16,212.68 1032.45,232.13 " fill="none" id="Instrucciones-to-Receta" style="stroke:#181818;stroke-width:1.0;stroke-dasharray:7.0,7.0;"/><polygon fill="none" points="1045.23,235.57,1040.4724,230.151,1033.6404,232.4584,1038.398,237.8774,1045.23,235.57" style="stroke:#181818;stroke-width:1.0;"/></g><!--MD5=[6e01a151d4ef6ef386ed81810cfb60c4]
link Contexto to Receta--><g id="link_Contexto_Receta"><path codeLine="5" d="M1084,163 C1084,176.52 1084,193.92 1084,209.3 " fill="none" id="Contexto-to-Receta" style="stroke:#181818;stroke-width:1.0;stroke-dasharray:7.0,7.0;"/><polygon fill="none" points="1084,222.68,1088,216.68,1084,210.68,1080,216.68,1084,222.68" style="stroke:#181818;stroke-width:1.0;"/></g><!--MD5=[0f6f68f04622246e6bf664764b665262]
link Entrada to Receta--><g id="link_Entrada_Receta"><path codeLine="6" d="M214.76,144.97 C365.14,162.45 869.26,221.04 1032.51,240.02 " fill="none" id="Entrada-to-Receta" style="stroke:#181818;stroke-width:1.0;stroke-dasharray:7.0,7.0;"/><polygon fill="none" points="1045.46,241.52,1039.9616,236.8545,1033.5401,240.1355,1039.0386,244.801,1045.46,241.52" style="stroke:#181818;stroke-width:1.0;"/></g><!--MD5=[efee1eeb2674383b1891dd95146c05d9]
link Parámetros to Receta--><g id="link_Parámetros_Receta"><path codeLine="7" d="M1328.16,159.44 C1273.06,178.97 1188.83,208.84 1135.1,227.88 " fill="none" id="Parámetros-to-Receta" style="stroke:#181818;stroke-width:1.0;stroke-dasharray:7.0,7.0;"/><polygon fill="none" points="1122.8,232.25,1129.7914,234.0165,1134.111,228.2424,1127.1196,226.4758,1122.8,232.25" style="stroke:#181818;stroke-width:1.0;"/></g><!--MD5=[da3d6e95b6adf622f9e64ef9506dafa5]
link Tópico to Tarea--><g id="link_Tópico_Tarea"><path codeLine="9" d="M2081.76,48.21 C2037.56,66.95 1964.81,97.8 1917.15,118.01 " fill="none" id="Tópico-to-Tarea" style="stroke:#181818;stroke-width:1.0;stroke-dasharray:7.0,7.0;"/><polygon fill="none" points="1905.01,123.16,1912.095,124.5027,1916.0594,118.4792,1908.9744,117.1364,1905.01,123.16" style="stroke:#181818;stroke-width:1.0;"/></g><!--MD5=[71f666cef4bb720b57dc74d372098a6f]
link Comando to Tarea--><g id="link_Comando_Tarea"><path codeLine="10" d="M1971.01,55 C1952.71,70.04 1928.56,89.88 1908.47,106.39 " fill="none" id="Comando-to-Tarea" style="stroke:#181818;stroke-width:1.0;stroke-dasharray:7.0,7.0;"/><polygon fill="none" points="1898.38,114.68,1905.5556,113.9653,1907.6557,107.0668,1900.4801,107.7815,1898.38,114.68" style="stroke:#181818;stroke-width:1.0;"/></g><!--MD5=[c4fe06c09697fe941b3f692f9b184432]
link Acciones to Tarea--><g id="link_Acciones_Tarea"><path codeLine="11" d="M1870,55 C1870,68.52 1870,85.92 1870,101.3 " fill="none" id="Acciones-to-Tarea" style="stroke:#181818;stroke-width:1.0;stroke-dasharray:7.0,7.0;"/><polygon fill="none" points="1870,114.68,1874,108.68,1870,102.68,1866,108.68,1870,114.68" style="stroke:#181818;stroke-width:1.0;"/></g><!--MD5=[e1bc89b7ada06e7bdbad0a23c0ace5f6]
link Documento to Tarea--><g id="link_Documento_Tarea"><path codeLine="12" d="M1764.29,55 C1783.53,70.11 1808.94,90.06 1830.03,106.62 " fill="none" id="Documento-to-Tarea" style="stroke:#181818;stroke-width:1.0;stroke-dasharray:7.0,7.0;"/><polygon fill="none" points="1840.3,114.68,1838.05,107.8289,1830.8605,107.2708,1833.1105,114.1219,1840.3,114.68" style="stroke:#181818;stroke-width:1.0;"/></g><!--MD5=[36f725fde129e3bec1ee267852d3b5d3]
link Objetivos to Instrucciones--><g id="link_Objetivos_Instrucciones"><path codeLine="14" d="M794.92,55 C775.92,70.04 750.83,89.88 729.96,106.39 " fill="none" id="Objetivos-to-Instrucciones" style="stroke:#181818;stroke-width:1.0;stroke-dasharray:7.0,7.0;"/><polygon fill="none" points="719.48,114.68,726.6672,114.0935,728.8902,107.2336,721.7029,107.8201,719.48,114.68" style="stroke:#181818;stroke-width:1.0;"/></g><!--MD5=[80ef04fee80ba657b18b694ff2988054]
link Estructura to Instrucciones--><g id="link_Estructura_Instrucciones"><path codeLine="15" d="M690,55 C690,68.52 690,85.92 690,101.3 " fill="none" id="Estructura-to-Instrucciones" style="stroke:#181818;stroke-width:1.0;stroke-dasharray:7.0,7.0;"/><polygon fill="none" points="690,114.68,694,108.68,690,102.68,686,108.68,690,114.68" style="stroke:#181818;stroke-width:1.0;"/></g><!--MD5=[82a7c659ccd04df525fe2dca5f62b300]
link Formato to Instrucciones--><g id="link_Formato_Instrucciones"><path codeLine="16" d="M588.21,55 C606.65,70.04 630.98,89.88 651.23,106.39 " fill="none" id="Formato-to-Instrucciones" style="stroke:#181818;stroke-width:1.0;stroke-dasharray:7.0,7.0;"/><polygon fill="none" points="661.4,114.68,659.2785,107.788,652.1008,107.0955,654.2222,113.9875,661.4,114.68" style="stroke:#181818;stroke-width:1.0;"/></g><!--MD5=[0ec4f05f4b472ffaba312442558405ab]
link Restricciones to Instrucciones--><g id="link_Restricciones_Instrucciones"><path codeLine="17" d="M479.37,55 C520.38,71.16 575.48,92.87 619.03,110.04 " fill="none" id="Restricciones-to-Instrucciones" style="stroke:#181818;stroke-width:1.0;stroke-dasharray:7.0,7.0;"/><polygon fill="none" points="631.28,114.86,627.1596,108.942,620.1121,110.4693,624.2325,116.3873,631.28,114.86" style="stroke:#181818;stroke-width:1.0;"/></g><!--MD5=[714b27919781056f6bab4e27a67ab9e7]
link Ejemplos to Instrucciones--><g id="link_Ejemplos_Instrucciones"><path codeLine="18" d="M906.28,50.83 C865.5,67.27 805.74,91.35 759.37,110.04 " fill="none" id="Ejemplos-to-Instrucciones" style="stroke:#181818;stroke-width:1.0;stroke-dasharray:7.0,7.0;"/><polygon fill="none" points="747.28,114.91,754.34,116.3783,758.4108,110.426,751.3507,108.9578,747.28,114.91" style="stroke:#181818;stroke-width:1.0;"/></g><!--MD5=[ac32d5b40f21c6bb4199ac093b4f8eb5]
link Guión to Instrucciones--><g id="link_Guión_Instrucciones"><path codeLine="19" d="M325.28,48.43 C331.14,50.8 337.19,53.08 343,55 C435.2,85.42 544.58,109.71 615.54,123.96 " fill="none" id="Guión-to-Instrucciones" style="stroke:#181818;stroke-width:1.0;stroke-dasharray:7.0,7.0;"/><polygon fill="none" points="628.33,126.51,623.2288,121.4132,616.562,124.1617,621.6632,129.2585,628.33,126.51" style="stroke:#181818;stroke-width:1.0;"/></g><!--MD5=[aa70702bca932753fd33498bb44cf253]
link Rol to Contexto--><g id="link_Rol_Contexto"><path codeLine="21" d="M1170.91,55 C1155.46,69.76 1135.15,89.15 1118.06,105.48 " fill="none" id="Rol-to-Contexto" style="stroke:#181818;stroke-width:1.0;stroke-dasharray:7.0,7.0;"/><polygon fill="none" points="1108.42,114.68,1115.5211,113.4254,1117.0943,106.388,1109.9931,107.6426,1108.42,114.68" style="stroke:#181818;stroke-width:1.0;"/></g><!--MD5=[5367cfd6ac56ba61f8d4eb8d2b48993e]
link Audiencia to Contexto--><g id="link_Audiencia_Contexto"><path codeLine="22" d="M1084,55 C1084,68.52 1084,85.92 1084,101.3 " fill="none" id="Audiencia-to-Contexto" style="stroke:#181818;stroke-width:1.0;stroke-dasharray:7.0,7.0;"/><polygon fill="none" points="1084,114.68,1088,108.68,1084,102.68,1080,108.68,1084,114.68" style="stroke:#181818;stroke-width:1.0;"/></g><!--MD5=[8a9760b6ff25be3860d801d000e767fc]
link Ejemplos to Contexto--><g id="link_Ejemplos_Contexto"><path codeLine="23" d="M981.43,55 C1000.01,70.04 1024.53,89.88 1044.93,106.39 " fill="none" id="Ejemplos-to-Contexto" style="stroke:#181818;stroke-width:1.0;stroke-dasharray:7.0,7.0;"/><polygon fill="none" points="1055.18,114.68,1053.0266,107.7979,1045.8457,107.1387,1047.9991,114.0208,1055.18,114.68" style="stroke:#181818;stroke-width:1.0;"/></g><!--MD5=[bb9d7102f93c320c2be9218efd43ecd8]
link Consulta to Entrada--><g id="link_Consulta_Entrada"><path codeLine="25" d="M172,55 C172,68.52 172,85.92 172,101.3 " fill="none" id="Consulta-to-Entrada" style="stroke:#181818;stroke-width:1.0;stroke-dasharray:7.0,7.0;"/><polygon fill="none" points="172,114.68,176,108.68,172,102.68,168,108.68,172,114.68" style="stroke:#181818;stroke-width:1.0;"/></g><!--MD5=[7d40ca413f7bd59b70ff691b91cdf7b2]
link Imagen to Entrada--><g id="link_Imagen_Entrada"><path codeLine="26" d="M75.69,55 C93.06,69.97 115.95,89.7 135.06,106.16 " fill="none" id="Imagen-to-Entrada" style="stroke:#181818;stroke-width:1.0;stroke-dasharray:7.0,7.0;"/><polygon fill="none" points="144.94,114.68,143.0075,107.7327,135.8513,106.8445,137.7838,113.7918,144.94,114.68" style="stroke:#181818;stroke-width:1.0;"/></g><!--MD5=[48341f552b8a468ecc9c16c228991769]
link Temperatura to Parámetros--><g id="link_Temperatura_Parámetros"><path codeLine="28" d="M1541.17,55 C1511.1,70.78 1470.94,91.85 1438.62,108.82 " fill="none" id="Temperatura-to-Parámetros" style="stroke:#181818;stroke-width:1.0;stroke-dasharray:7.0,7.0;"/><polygon fill="none" points="1427.09,114.86,1434.2616,115.6136,1437.7156,109.2835,1430.544,108.5299,1427.09,114.86" style="stroke:#181818;stroke-width:1.0;"/></g><!--MD5=[cf9b7d0a358acda38beebdde6a8994a9]
link Tokens to Parámetros--><g id="link_Tokens_Parámetros"><path codeLine="29" d="M1435.46,55 C1426.48,69.21 1414.79,87.71 1404.72,103.63 " fill="none" id="Tokens-to-Parámetros" style="stroke:#181818;stroke-width:1.0;stroke-dasharray:7.0,7.0;"/><polygon fill="none" points="1397.74,114.68,1404.3268,111.745,1404.1509,104.536,1397.5641,107.471,1397.74,114.68" style="stroke:#181818;stroke-width:1.0;"/></g><!--MD5=[9ab2a3f0fe92ab1f1bd0384b30b10a3e]
link Probabilidad to Parámetros--><g id="link_Probabilidad_Parámetros"><path codeLine="30" d="M1330.54,55 C1339.52,69.21 1351.21,87.71 1361.28,103.63 " fill="none" id="Probabilidad-to-Parámetros" style="stroke:#181818;stroke-width:1.0;stroke-dasharray:7.0,7.0;"/><polygon fill="none" points="1368.26,114.68,1368.4359,107.471,1361.8491,104.536,1361.6732,111.745,1368.26,114.68" style="stroke:#181818;stroke-width:1.0;"/></g><!--MD5=[90ecdeffce8316c2ed2646eec3b7329c]
@startuml
    Prompt -u-|> Receta

    Receta o.u. Tarea
    Receta o.u. Instrucciones
    Receta o.u. Contexto
    Receta o.u. Entrada
    Receta o.u. Parámetros

    Tarea o.u. Tópico
    Tarea o.u. Comando
    Tarea o.u. Acciones
    Tarea o.u. Documento

    Instrucciones o.u. Objetivos
    Instrucciones o.u. Estructura
    Instrucciones o.u. Formato
    Instrucciones o.u. Restricciones
    Instrucciones o.u. Ejemplos
    Instrucciones o.u. Guión

    Contexto o.u. Rol
    Contexto o.u. Audiencia
    Contexto o.u. Ejemplos

    Entrada o.u. Consulta
    Entrada o.u. Imagen

    Parámetros o.u. Temperatura
    Parámetros o.u. Tokens
    Parámetros o.u. Probabilidad 
@enduml

PlantUML version 1.2022.7(Mon Aug 22 19:01:30 CEST 2022)
(GPL source distribution)
Java Runtime: OpenJDK Runtime Environment
JVM: OpenJDK 64-Bit Server VM
Default Encoding: UTF-8
Language: es
Country: ES
--></g></svg>