<?xml version="1.0" encoding="UTF-8" standalone="no"?><svg xmlns="http://www.w3.org/2000/svg" xmlns:xlink="http://www.w3.org/1999/xlink" contentStyleType="text/css" height="223px" preserveAspectRatio="none" style="width:400px;height:223px;background:#FFFFFF;" version="1.1" viewBox="0 0 400 223" width="400px" zoomAndPan="magnify"><defs/><g><!--MD5=[0bc260734cc841228a159098d23b1812]
cluster Componentes--><g id="cluster_Componentes"><path d="M8.5,6.602 L106.5,6.602 A3.75,3.75 0 0 1 109,9.102 L116,31.6699 L390.5,31.6699 A2.5,2.5 0 0 1 393,34.1699 L393,214.102 A2.5,2.5 0 0 1 390.5,216.602 L8.5,216.602 A2.5,2.5 0 0 1 6,214.102 L6,9.102 A2.5,2.5 0 0 1 8.5,6.602 " fill="none" style="stroke:#000000;stroke-width:1.5;"/><line style="stroke:#000000;stroke-width:1.5;" x1="6" x2="116" y1="31.6699" y2="31.6699"/><text fill="#000000" font-family="sans-serif" font-size="14" font-weight="bold" lengthAdjust="spacing" textLength="97" x="10" y="23.5679">Componentes</text></g><!--MD5=[8b66b7342ebffb5468f9dad95977a8e0]
class Tarea--><g id="elem_Tarea"><rect codeLine="3" fill="#F1F1F1" height="48" id="Tarea" rx="2.5" ry="2.5" style="stroke:#181818;stroke-width:0.5;" width="70" x="22" y="44.602"/><ellipse cx="37" cy="60.602" fill="#ADD1B2" rx="11" ry="11" style="stroke:#181818;stroke-width:1.0;"/><path d="M36.4688,67.5239 Q34.7188,67.5239 33.5781,66.7895 Q32.4531,66.0395 31.8906,64.6957 Q31.3438,63.3364 31.3438,61.5395 Q31.3438,59.5082 32,58.0551 Q32.6563,56.602 33.9375,55.8207 Q35.2188,55.0395 37.0938,55.0395 Q37.9844,55.0395 38.6563,55.227 Q39.3281,55.3989 40.0156,55.7426 L39.2031,57.7582 Q38.5781,57.4457 38.0313,57.3207 Q37.5,57.1957 37.0156,57.1957 Q35.8438,57.1957 35.1406,57.727 Q34.4375,58.2582 34.1406,59.2114 Q33.8438,60.1645 33.8438,61.4301 Q33.8438,63.4457 34.5625,64.4145 Q35.2813,65.3676 36.875,65.3676 Q37.4688,65.3676 38.0938,65.2114 Q38.7188,65.0551 39.5469,64.6801 L39.5469,66.8989 Q38.8125,67.2114 38.0156,67.3676 Q37.2344,67.5239 36.4688,67.5239 Z " fill="#000000"/><text fill="#000000" font-family="sans-serif" font-size="14" lengthAdjust="spacing" textLength="38" x="51" y="66.034">Tarea</text><line style="stroke:#181818;stroke-width:0.5;" x1="23" x2="91" y1="76.602" y2="76.602"/><line style="stroke:#181818;stroke-width:0.5;" x1="23" x2="91" y1="84.602" y2="84.602"/></g><!--MD5=[58d0a597b86e0d150e85165aee8b1098]
class Instrucciones--><g id="elem_Instrucciones"><rect codeLine="4" fill="#F1F1F1" height="48" id="Instrucciones" rx="2.5" ry="2.5" style="stroke:#181818;stroke-width:0.5;" width="123" x="127.5" y="44.602"/><ellipse cx="142.5" cy="60.602" fill="#ADD1B2" rx="11" ry="11" style="stroke:#181818;stroke-width:1.0;"/><path d="M141.9688,67.5239 Q140.2188,67.5239 139.0781,66.7895 Q137.9531,66.0395 137.3906,64.6957 Q136.8438,63.3364 136.8438,61.5395 Q136.8438,59.5082 137.5,58.0551 Q138.1563,56.602 139.4375,55.8207 Q140.7188,55.0395 142.5938,55.0395 Q143.4844,55.0395 144.1563,55.227 Q144.8281,55.3989 145.5156,55.7426 L144.7031,57.7582 Q144.0781,57.4457 143.5313,57.3207 Q143,57.1957 142.5156,57.1957 Q141.3438,57.1957 140.6406,57.727 Q139.9375,58.2582 139.6406,59.2114 Q139.3438,60.1645 139.3438,61.4301 Q139.3438,63.4457 140.0625,64.4145 Q140.7813,65.3676 142.375,65.3676 Q142.9688,65.3676 143.5938,65.2114 Q144.2188,65.0551 145.0469,64.6801 L145.0469,66.8989 Q144.3125,67.2114 143.5156,67.3676 Q142.7344,67.5239 141.9688,67.5239 Z " fill="#000000"/><text fill="#000000" font-family="sans-serif" font-size="14" lengthAdjust="spacing" textLength="91" x="156.5" y="66.034">Instrucciones</text><line style="stroke:#181818;stroke-width:0.5;" x1="128.5" x2="249.5" y1="76.602" y2="76.602"/><line style="stroke:#181818;stroke-width:0.5;" x1="128.5" x2="249.5" y1="84.602" y2="84.602"/></g><!--MD5=[d933999a937b529ea3aaeeb9e325bacd]
class Contexto--><g id="elem_Contexto"><rect codeLine="5" fill="#F1F1F1" height="48" id="Contexto" rx="2.5" ry="2.5" style="stroke:#181818;stroke-width:0.5;" width="91" x="285.5" y="44.602"/><ellipse cx="300.5" cy="60.602" fill="#ADD1B2" rx="11" ry="11" style="stroke:#181818;stroke-width:1.0;"/><path d="M299.9688,67.5239 Q298.2188,67.5239 297.0781,66.7895 Q295.9531,66.0395 295.3906,64.6957 Q294.8438,63.3364 294.8438,61.5395 Q294.8438,59.5082 295.5,58.0551 Q296.1563,56.602 297.4375,55.8207 Q298.7188,55.0395 300.5938,55.0395 Q301.4844,55.0395 302.1563,55.227 Q302.8281,55.3989 303.5156,55.7426 L302.7031,57.7582 Q302.0781,57.4457 301.5313,57.3207 Q301,57.1957 300.5156,57.1957 Q299.3438,57.1957 298.6406,57.727 Q297.9375,58.2582 297.6406,59.2114 Q297.3438,60.1645 297.3438,61.4301 Q297.3438,63.4457 298.0625,64.4145 Q298.7813,65.3676 300.375,65.3676 Q300.9688,65.3676 301.5938,65.2114 Q302.2188,65.0551 303.0469,64.6801 L303.0469,66.8989 Q302.3125,67.2114 301.5156,67.3676 Q300.7344,67.5239 299.9688,67.5239 Z " fill="#000000"/><text fill="#000000" font-family="sans-serif" font-size="14" lengthAdjust="spacing" textLength="59" x="314.5" y="66.034">Contexto</text><line style="stroke:#181818;stroke-width:0.5;" x1="286.5" x2="375.5" y1="76.602" y2="76.602"/><line style="stroke:#181818;stroke-width:0.5;" x1="286.5" x2="375.5" y1="84.602" y2="84.602"/></g><!--MD5=[6694c18989b8e2458a5d3d469144568d]
class Entrada--><g id="elem_Entrada"><rect codeLine="6" fill="#F1F1F1" height="48" id="Entrada" rx="2.5" ry="2.5" style="stroke:#181818;stroke-width:0.5;" width="85" x="22.5" y="152.602"/><ellipse cx="37.5" cy="168.602" fill="#ADD1B2" rx="11" ry="11" style="stroke:#181818;stroke-width:1.0;"/><path d="M36.9688,175.5239 Q35.2188,175.5239 34.0781,174.7895 Q32.9531,174.0395 32.3906,172.6957 Q31.8438,171.3364 31.8438,169.5395 Q31.8438,167.5082 32.5,166.0551 Q33.1563,164.602 34.4375,163.8207 Q35.7188,163.0395 37.5938,163.0395 Q38.4844,163.0395 39.1563,163.227 Q39.8281,163.3989 40.5156,163.7426 L39.7031,165.7582 Q39.0781,165.4457 38.5313,165.3207 Q38,165.1957 37.5156,165.1957 Q36.3438,165.1957 35.6406,165.727 Q34.9375,166.2582 34.6406,167.2114 Q34.3438,168.1645 34.3438,169.4301 Q34.3438,171.4457 35.0625,172.4145 Q35.7813,173.3676 37.375,173.3676 Q37.9688,173.3676 38.5938,173.2114 Q39.2188,173.0551 40.0469,172.6801 L40.0469,174.8989 Q39.3125,175.2114 38.5156,175.3676 Q37.7344,175.5239 36.9688,175.5239 Z " fill="#000000"/><text fill="#000000" font-family="sans-serif" font-size="14" lengthAdjust="spacing" textLength="53" x="51.5" y="174.034">Entrada</text><line style="stroke:#181818;stroke-width:0.5;" x1="23.5" x2="106.5" y1="184.602" y2="184.602"/><line style="stroke:#181818;stroke-width:0.5;" x1="23.5" x2="106.5" y1="192.602" y2="192.602"/></g><!--MD5=[4c18751fa77cc560573b090f3bbf04b2]
class Parámetros--><g id="elem_Parámetros"><rect codeLine="7" fill="#F1F1F1" height="48" id="Parámetros" rx="2.5" ry="2.5" style="stroke:#181818;stroke-width:0.5;" width="109" x="142.5" y="152.602"/><ellipse cx="157.5" cy="168.602" fill="#ADD1B2" rx="11" ry="11" style="stroke:#181818;stroke-width:1.0;"/><path d="M156.9688,175.5239 Q155.2188,175.5239 154.0781,174.7895 Q152.9531,174.0395 152.3906,172.6957 Q151.8438,171.3364 151.8438,169.5395 Q151.8438,167.5082 152.5,166.0551 Q153.1563,164.602 154.4375,163.8207 Q155.7188,163.0395 157.5938,163.0395 Q158.4844,163.0395 159.1563,163.227 Q159.8281,163.3989 160.5156,163.7426 L159.7031,165.7582 Q159.0781,165.4457 158.5313,165.3207 Q158,165.1957 157.5156,165.1957 Q156.3438,165.1957 155.6406,165.727 Q154.9375,166.2582 154.6406,167.2114 Q154.3438,168.1645 154.3438,169.4301 Q154.3438,171.4457 155.0625,172.4145 Q155.7813,173.3676 157.375,173.3676 Q157.9688,173.3676 158.5938,173.2114 Q159.2188,173.0551 160.0469,172.6801 L160.0469,174.8989 Q159.3125,175.2114 158.5156,175.3676 Q157.7344,175.5239 156.9688,175.5239 Z " fill="#000000"/><text fill="#000000" font-family="sans-serif" font-size="14" lengthAdjust="spacing" textLength="77" x="171.5" y="174.034">Parámetros</text><line style="stroke:#181818;stroke-width:0.5;" x1="143.5" x2="250.5" y1="184.602" y2="184.602"/><line style="stroke:#181818;stroke-width:0.5;" x1="143.5" x2="250.5" y1="192.602" y2="192.602"/></g><!--MD5=[948393b0ba90d229df85d3e7e95bd179]
@startuml
package Componentes {

    class Tarea
    class Instrucciones
    class Contexto
    class Entrada
    class Parámetros
}
@enduml

PlantUML version 1.2022.7(Mon Aug 22 19:01:30 CEST 2022)
(GPL source distribution)
Java Runtime: OpenJDK Runtime Environment
JVM: OpenJDK 64-Bit Server VM
Default Encoding: UTF-8
Language: es
Country: ES
--></g></svg>