<?xml version="1.0" encoding="UTF-8" standalone="no"?><svg xmlns="http://www.w3.org/2000/svg" xmlns:xlink="http://www.w3.org/1999/xlink" contentStyleType="text/css" height="879px" preserveAspectRatio="none" style="width:373px;height:879px;background:#FFFFFF;" version="1.1" viewBox="0 0 373 879" width="373px" zoomAndPan="magnify"><defs/><g><ellipse cx="208" cy="20" fill="#222222" rx="10" ry="10" style="stroke:#222222;stroke-width:1.0;"/><rect fill="#F1F1F1" height="36.3441" rx="12.5" ry="12.5" style="stroke:#181818;stroke-width:0.5;" width="102" x="157" y="50"/><text fill="#000000" font-family="sans-serif" font-size="12" lengthAdjust="spacing" textLength="82" x="167" y="72.8281">iniciarPartido()</text><rect fill="#F1F1F1" height="36.3441" rx="12.5" ry="12.5" style="stroke:#181818;stroke-width:0.5;" width="106" x="155" y="106.3441"/><text fill="#000000" font-family="sans-serif" font-size="12" lengthAdjust="spacing" textLength="86" x="165" y="129.1722">realizarSaque()</text><polygon fill="#F1F1F1" points="196,162.6882,220,162.6882,232,174.6882,220,186.6882,196,186.6882,184,174.6882,196,162.6882" style="stroke:#181818;stroke-width:0.5;"/><text fill="#000000" font-family="sans-serif" font-size="11" lengthAdjust="spacing" textLength="18" x="199" y="178.9562">Gol</text><text fill="#000000" font-family="sans-serif" font-size="11" lengthAdjust="spacing" textLength="9" x="175" y="171.4653">Sí</text><text fill="#000000" font-family="sans-serif" font-size="11" lengthAdjust="spacing" textLength="15" x="232" y="171.4653">No</text><rect fill="#F1F1F1" height="36.3441" rx="12.5" ry="12.5" style="stroke:#181818;stroke-width:0.5;" width="84" x="92" y="196.6882"/><text fill="#000000" font-family="sans-serif" font-size="12" lengthAdjust="spacing" textLength="64" x="102" y="219.5163">anotarGol()</text><rect fill="#F1F1F1" height="36.3441" rx="12.5" ry="12.5" style="stroke:#181818;stroke-width:0.5;" width="138" x="65" y="253.0323"/><text fill="#000000" font-family="sans-serif" font-size="12" lengthAdjust="spacing" textLength="118" x="75" y="275.8604">actualizarMarcador()</text><rect fill="#F1F1F1" height="36.3441" rx="12.5" ry="12.5" style="stroke:#181818;stroke-width:0.5;" width="144" x="62" y="309.3765"/><text fill="#000000" font-family="sans-serif" font-size="12" lengthAdjust="spacing" textLength="124" x="72" y="332.2045">realizarSaqueCentro()</text><rect fill="#F1F1F1" height="36.3441" rx="12.5" ry="12.5" style="stroke:#181818;stroke-width:0.5;" width="112" x="226" y="196.6882"/><text fill="#000000" font-family="sans-serif" font-size="12" lengthAdjust="spacing" textLength="92" x="236" y="219.5163">continuarJuego()</text><polygon fill="#F1F1F1" points="208,351.7206,220,363.7206,208,375.7206,196,363.7206,208,351.7206" style="stroke:#181818;stroke-width:0.5;"/><polygon fill="#F1F1F1" points="195.5,395.7206,220.5,395.7206,232.5,407.7206,220.5,419.7206,195.5,419.7206,183.5,407.7206,195.5,395.7206" style="stroke:#181818;stroke-width:0.5;"/><text fill="#000000" font-family="sans-serif" font-size="11" lengthAdjust="spacing" textLength="25" x="195.5" y="411.9885">Falta</text><text fill="#000000" font-family="sans-serif" font-size="11" lengthAdjust="spacing" textLength="9" x="174.5" y="404.4976">Sí</text><text fill="#000000" font-family="sans-serif" font-size="11" lengthAdjust="spacing" textLength="15" x="232.5" y="404.4976">No</text><rect fill="#F1F1F1" height="36.3441" rx="12.5" ry="12.5" style="stroke:#181818;stroke-width:0.5;" width="102" x="88" y="429.7206"/><text fill="#000000" font-family="sans-serif" font-size="12" lengthAdjust="spacing" textLength="82" x="98" y="452.5487">cometerFalta()</text><rect fill="#F1F1F1" height="36.3441" rx="12.5" ry="12.5" style="stroke:#181818;stroke-width:0.5;" width="124" x="77" y="486.0647"/><text fill="#000000" font-family="sans-serif" font-size="12" lengthAdjust="spacing" textLength="104" x="87" y="508.8928">ejecutarTiroLibre()</text><rect fill="#F1F1F1" height="36.3441" rx="12.5" ry="12.5" style="stroke:#181818;stroke-width:0.5;" width="112" x="221" y="429.7206"/><text fill="#000000" font-family="sans-serif" font-size="12" lengthAdjust="spacing" textLength="92" x="231" y="452.5487">continuarJuego()</text><polygon fill="#F1F1F1" points="208,528.4088,220,540.4088,208,552.4088,196,540.4088,208,528.4088" style="stroke:#181818;stroke-width:0.5;"/><polygon fill="#F1F1F1" points="190,572.4088,226,572.4088,238,584.4088,226,596.4088,190,596.4088,178,584.4088,190,572.4088" style="stroke:#181818;stroke-width:0.5;"/><text fill="#000000" font-family="sans-serif" font-size="11" lengthAdjust="spacing" textLength="36" x="190" y="588.6768">Tarjeta</text><text fill="#000000" font-family="sans-serif" font-size="11" lengthAdjust="spacing" textLength="9" x="169" y="581.1858">Sí</text><text fill="#000000" font-family="sans-serif" font-size="11" lengthAdjust="spacing" textLength="15" x="238" y="581.1858">No</text><rect fill="#F1F1F1" height="36.3441" rx="12.5" ry="12.5" style="stroke:#181818;stroke-width:0.5;" width="113" x="84.25" y="606.4088"/><text fill="#000000" font-family="sans-serif" font-size="12" lengthAdjust="spacing" textLength="93" x="94.25" y="629.2369">mostrarTarjeta()</text><rect fill="#F1F1F1" height="36.3441" rx="12.5" ry="12.5" style="stroke:#181818;stroke-width:0.5;" width="117" x="82.25" y="662.7529"/><text fill="#000000" font-family="sans-serif" font-size="12" lengthAdjust="spacing" textLength="97" x="92.25" y="685.581">registrarTarjeta()</text><rect fill="#F1F1F1" height="36.3441" rx="12.5" ry="12.5" style="stroke:#181818;stroke-width:0.5;" width="112" x="219.25" y="606.4088"/><text fill="#000000" font-family="sans-serif" font-size="12" lengthAdjust="spacing" textLength="92" x="229.25" y="629.2369">continuarJuego()</text><polygon fill="#F1F1F1" points="208,705.097,220,717.097,208,729.097,196,717.097,208,705.097" style="stroke:#181818;stroke-width:0.5;"/><polygon fill="#F1F1F1" points="131.5,749.097,284.5,749.097,296.5,761.097,284.5,773.097,131.5,773.097,119.5,761.097,131.5,749.097" style="stroke:#181818;stroke-width:0.5;"/><text fill="#000000" font-family="sans-serif" font-size="11" lengthAdjust="spacing" textLength="153" x="131.5" y="765.365">Fin del tiempo reglamentario</text><text fill="#000000" font-family="sans-serif" font-size="11" lengthAdjust="spacing" textLength="9" x="110.5" y="757.8741">Sí</text><text fill="#000000" font-family="sans-serif" font-size="11" lengthAdjust="spacing" textLength="15" x="296.5" y="757.8741">No</text><rect fill="#F1F1F1" height="36.3441" rx="12.5" ry="12.5" style="stroke:#181818;stroke-width:0.5;" width="197" x="11" y="783.097"/><text fill="#000000" font-family="sans-serif" font-size="12" lengthAdjust="spacing" textLength="177" x="21" y="805.9251">finalizarTiempoReglamentario()</text><ellipse cx="109.5" cy="850.4411" fill="none" rx="11" ry="11" style="stroke:#222222;stroke-width:1.0;"/><ellipse cx="109.5" cy="850.4411" fill="#222222" rx="6" ry="6" style="stroke:#111111;stroke-width:1.0;"/><rect fill="#F1F1F1" height="36.3441" rx="12.5" ry="12.5" style="stroke:#181818;stroke-width:0.5;" width="112" x="250.5" y="783.097"/><text fill="#000000" font-family="sans-serif" font-size="12" lengthAdjust="spacing" textLength="92" x="260.5" y="805.9251">continuarJuego()</text><line style="stroke:#181818;stroke-width:1.0;" x1="208" x2="208" y1="30" y2="50"/><polygon fill="#181818" points="204,40,208,50,212,40,208,44" style="stroke:#181818;stroke-width:1.0;"/><line style="stroke:#181818;stroke-width:1.0;" x1="208" x2="208" y1="86.3441" y2="106.3441"/><polygon fill="#181818" points="204,96.3441,208,106.3441,212,96.3441,208,100.3441" style="stroke:#181818;stroke-width:1.0;"/><line style="stroke:#181818;stroke-width:1.0;" x1="134" x2="134" y1="233.0323" y2="253.0323"/><polygon fill="#181818" points="130,243.0323,134,253.0323,138,243.0323,134,247.0323" style="stroke:#181818;stroke-width:1.0;"/><line style="stroke:#181818;stroke-width:1.0;" x1="134" x2="134" y1="289.3765" y2="309.3765"/><polygon fill="#181818" points="130,299.3765,134,309.3765,138,299.3765,134,303.3765" style="stroke:#181818;stroke-width:1.0;"/><line style="stroke:#181818;stroke-width:1.0;" x1="184" x2="134" y1="174.6882" y2="174.6882"/><line style="stroke:#181818;stroke-width:1.0;" x1="134" x2="134" y1="174.6882" y2="196.6882"/><polygon fill="#181818" points="130,186.6882,134,196.6882,138,186.6882,134,190.6882" style="stroke:#181818;stroke-width:1.0;"/><line style="stroke:#181818;stroke-width:1.0;" x1="232" x2="282" y1="174.6882" y2="174.6882"/><line style="stroke:#181818;stroke-width:1.0;" x1="282" x2="282" y1="174.6882" y2="196.6882"/><polygon fill="#181818" points="278,186.6882,282,196.6882,286,186.6882,282,190.6882" style="stroke:#181818;stroke-width:1.0;"/><line style="stroke:#181818;stroke-width:1.0;" x1="134" x2="134" y1="345.7206" y2="363.7206"/><line style="stroke:#181818;stroke-width:1.0;" x1="134" x2="196" y1="363.7206" y2="363.7206"/><polygon fill="#181818" points="186,359.7206,196,363.7206,186,367.7206,190,363.7206" style="stroke:#181818;stroke-width:1.0;"/><line style="stroke:#181818;stroke-width:1.0;" x1="282" x2="282" y1="233.0323" y2="363.7206"/><line style="stroke:#181818;stroke-width:1.0;" x1="282" x2="220" y1="363.7206" y2="363.7206"/><polygon fill="#181818" points="230,359.7206,220,363.7206,230,367.7206,226,363.7206" style="stroke:#181818;stroke-width:1.0;"/><line style="stroke:#181818;stroke-width:1.0;" x1="208" x2="208" y1="142.6882" y2="162.6882"/><polygon fill="#181818" points="204,152.6882,208,162.6882,212,152.6882,208,156.6882" style="stroke:#181818;stroke-width:1.0;"/><line style="stroke:#181818;stroke-width:1.0;" x1="139" x2="139" y1="466.0647" y2="486.0647"/><polygon fill="#181818" points="135,476.0647,139,486.0647,143,476.0647,139,480.0647" style="stroke:#181818;stroke-width:1.0;"/><line style="stroke:#181818;stroke-width:1.0;" x1="183.5" x2="139" y1="407.7206" y2="407.7206"/><line style="stroke:#181818;stroke-width:1.0;" x1="139" x2="139" y1="407.7206" y2="429.7206"/><polygon fill="#181818" points="135,419.7206,139,429.7206,143,419.7206,139,423.7206" style="stroke:#181818;stroke-width:1.0;"/><line style="stroke:#181818;stroke-width:1.0;" x1="232.5" x2="277" y1="407.7206" y2="407.7206"/><line style="stroke:#181818;stroke-width:1.0;" x1="277" x2="277" y1="407.7206" y2="429.7206"/><polygon fill="#181818" points="273,419.7206,277,429.7206,281,419.7206,277,423.7206" style="stroke:#181818;stroke-width:1.0;"/><line style="stroke:#181818;stroke-width:1.0;" x1="139" x2="139" y1="522.4088" y2="540.4088"/><line style="stroke:#181818;stroke-width:1.0;" x1="139" x2="196" y1="540.4088" y2="540.4088"/><polygon fill="#181818" points="186,536.4088,196,540.4088,186,544.4088,190,540.4088" style="stroke:#181818;stroke-width:1.0;"/><line style="stroke:#181818;stroke-width:1.0;" x1="277" x2="277" y1="466.0647" y2="540.4088"/><line style="stroke:#181818;stroke-width:1.0;" x1="277" x2="220" y1="540.4088" y2="540.4088"/><polygon fill="#181818" points="230,536.4088,220,540.4088,230,544.4088,226,540.4088" style="stroke:#181818;stroke-width:1.0;"/><line style="stroke:#181818;stroke-width:1.0;" x1="208" x2="208" y1="375.7206" y2="395.7206"/><polygon fill="#181818" points="204,385.7206,208,395.7206,212,385.7206,208,389.7206" style="stroke:#181818;stroke-width:1.0;"/><line style="stroke:#181818;stroke-width:1.0;" x1="140.75" x2="140.75" y1="642.7529" y2="662.7529"/><polygon fill="#181818" points="136.75,652.7529,140.75,662.7529,144.75,652.7529,140.75,656.7529" style="stroke:#181818;stroke-width:1.0;"/><line style="stroke:#181818;stroke-width:1.0;" x1="178" x2="140.75" y1="584.4088" y2="584.4088"/><line style="stroke:#181818;stroke-width:1.0;" x1="140.75" x2="140.75" y1="584.4088" y2="606.4088"/><polygon fill="#181818" points="136.75,596.4088,140.75,606.4088,144.75,596.4088,140.75,600.4088" style="stroke:#181818;stroke-width:1.0;"/><line style="stroke:#181818;stroke-width:1.0;" x1="238" x2="275.25" y1="584.4088" y2="584.4088"/><line style="stroke:#181818;stroke-width:1.0;" x1="275.25" x2="275.25" y1="584.4088" y2="606.4088"/><polygon fill="#181818" points="271.25,596.4088,275.25,606.4088,279.25,596.4088,275.25,600.4088" style="stroke:#181818;stroke-width:1.0;"/><line style="stroke:#181818;stroke-width:1.0;" x1="140.75" x2="140.75" y1="699.097" y2="717.097"/><line style="stroke:#181818;stroke-width:1.0;" x1="140.75" x2="196" y1="717.097" y2="717.097"/><polygon fill="#181818" points="186,713.097,196,717.097,186,721.097,190,717.097" style="stroke:#181818;stroke-width:1.0;"/><line style="stroke:#181818;stroke-width:1.0;" x1="275.25" x2="275.25" y1="642.7529" y2="717.097"/><line style="stroke:#181818;stroke-width:1.0;" x1="275.25" x2="220" y1="717.097" y2="717.097"/><polygon fill="#181818" points="230,713.097,220,717.097,230,721.097,226,717.097" style="stroke:#181818;stroke-width:1.0;"/><line style="stroke:#181818;stroke-width:1.0;" x1="208" x2="208" y1="552.4088" y2="572.4088"/><polygon fill="#181818" points="204,562.4088,208,572.4088,212,562.4088,208,566.4088" style="stroke:#181818;stroke-width:1.0;"/><line style="stroke:#181818;stroke-width:1.0;" x1="109.5" x2="109.5" y1="819.4411" y2="839.4411"/><polygon fill="#181818" points="105.5,829.4411,109.5,839.4411,113.5,829.4411,109.5,833.4411" style="stroke:#181818;stroke-width:1.0;"/><line style="stroke:#181818;stroke-width:1.0;" x1="119.5" x2="109.5" y1="761.097" y2="761.097"/><line style="stroke:#181818;stroke-width:1.0;" x1="109.5" x2="109.5" y1="761.097" y2="783.097"/><polygon fill="#181818" points="105.5,773.097,109.5,783.097,113.5,773.097,109.5,777.097" style="stroke:#181818;stroke-width:1.0;"/><line style="stroke:#181818;stroke-width:1.0;" x1="296.5" x2="306.5" y1="761.097" y2="761.097"/><line style="stroke:#181818;stroke-width:1.0;" x1="306.5" x2="306.5" y1="761.097" y2="783.097"/><polygon fill="#181818" points="302.5,773.097,306.5,783.097,310.5,773.097,306.5,777.097" style="stroke:#181818;stroke-width:1.0;"/><line style="stroke:#181818;stroke-width:1.0;" x1="306.5" x2="306.5" y1="819.4411" y2="867.4411"/><line style="stroke:#181818;stroke-width:1.0;" x1="306.5" x2="208" y1="867.4411" y2="867.4411"/><line style="stroke:#181818;stroke-width:1.0;" x1="208" x2="208" y1="729.097" y2="749.097"/><polygon fill="#181818" points="204,739.097,208,749.097,212,739.097,208,743.097" style="stroke:#181818;stroke-width:1.0;"/><!--MD5=[d40d66efbaeef444d13b315ff5749584]
@startuml
start
:iniciarPartido();
:realizarSaque();
if (Gol) then (Sí)
  :anotarGol();
  :actualizarMarcador();
  :realizarSaqueCentro();
else (No)
  :continuarJuego();
endif
if (Falta) then (Sí)
  :cometerFalta();
  :ejecutarTiroLibre();
else (No)
  :continuarJuego();
endif
if (Tarjeta) then (Sí)
  :mostrarTarjeta();
  :registrarTarjeta();
else (No)
  :continuarJuego();
endif
if (Fin del tiempo reglamentario) then (Sí)
  :finalizarTiempoReglamentario();
  stop
else (No)
  :continuarJuego();
endif
@enduml

PlantUML version 1.2022.7(Mon Aug 22 19:01:30 CEST 2022)
(GPL source distribution)
Java Runtime: OpenJDK Runtime Environment
JVM: OpenJDK 64-Bit Server VM
Default Encoding: UTF-8
Language: es
Country: ES
--></g></svg>