<?xml version="1.0" encoding="UTF-8" standalone="no"?><svg xmlns="http://www.w3.org/2000/svg" xmlns:xlink="http://www.w3.org/1999/xlink" contentStyleType="text/css" height="530px" preserveAspectRatio="none" style="width:1065px;height:530px;background:#FFFFFF;" version="1.1" viewBox="0 0 1065 530" width="1065px" zoomAndPan="magnify"><defs/><g><ellipse cx="669.95" cy="16" fill="#222222" rx="10" ry="10" style="stroke:none;stroke-width:1.0;"/><g id="Inicio"><rect fill="#F1F1F1" height="50" rx="12.5" ry="12.5" style="stroke:#181818;stroke-width:0.5;" width="57" x="641.45" y="87"/><line style="stroke:#181818;stroke-width:0.5;" x1="641.45" x2="698.45" y1="116.0679" y2="116.0679"/><text fill="#000000" font-family="sans-serif" font-size="14" lengthAdjust="spacing" textLength="37" x="651.45" y="106.9659">Inicio</text></g><g id="SaqueInicial"><rect fill="#F1F1F1" height="50" rx="12.5" ry="12.5" style="stroke:#181818;stroke-width:0.5;" width="103" x="618.45" y="216"/><line style="stroke:#181818;stroke-width:0.5;" x1="618.45" x2="721.45" y1="245.0679" y2="245.0679"/><text fill="#000000" font-family="sans-serif" font-size="14" lengthAdjust="spacing" textLength="83" x="628.45" y="235.9659">SaqueInicial</text></g><g id="JuegoNormal"><rect fill="#F1F1F1" height="50" rx="12.5" ry="12.5" style="stroke:#181818;stroke-width:0.5;" width="108" x="389.95" y="345"/><line style="stroke:#181818;stroke-width:0.5;" x1="389.95" x2="497.95" y1="374.0679" y2="374.0679"/><text fill="#000000" font-family="sans-serif" font-size="14" lengthAdjust="spacing" textLength="88" x="399.95" y="364.9659">JuegoNormal</text></g><g id="Gol"><rect fill="#F1F1F1" height="50" rx="12.5" ry="12.5" style="stroke:#181818;stroke-width:0.5;" width="50" x="820.95" y="474"/><line style="stroke:#181818;stroke-width:0.5;" x1="820.95" x2="870.95" y1="503.0679" y2="503.0679"/><text fill="#000000" font-family="sans-serif" font-size="14" lengthAdjust="spacing" textLength="22" x="834.95" y="493.9659">Gol</text></g><g id="Falta"><rect fill="#F1F1F1" height="50" rx="12.5" ry="12.5" style="stroke:#181818;stroke-width:0.5;" width="52" x="65.95" y="474"/><line style="stroke:#181818;stroke-width:0.5;" x1="65.95" x2="117.95" y1="503.0679" y2="503.0679"/><text fill="#000000" font-family="sans-serif" font-size="14" lengthAdjust="spacing" textLength="32" x="75.95" y="493.9659">Falta</text></g><g id="Tarjeta"><rect fill="#F1F1F1" height="50" rx="12.5" ry="12.5" style="stroke:#181818;stroke-width:0.5;" width="67" x="338.45" y="474"/><line style="stroke:#181818;stroke-width:0.5;" x1="338.45" x2="405.45" y1="503.0679" y2="503.0679"/><text fill="#000000" font-family="sans-serif" font-size="14" lengthAdjust="spacing" textLength="47" x="348.45" y="493.9659">Tarjeta</text></g><g id="Fin"><rect fill="#F1F1F1" height="50" rx="12.5" ry="12.5" style="stroke:#181818;stroke-width:0.5;" width="50" x="556.95" y="474"/><line style="stroke:#181818;stroke-width:0.5;" x1="556.95" x2="606.95" y1="503.0679" y2="503.0679"/><text fill="#000000" font-family="sans-serif" font-size="14" lengthAdjust="spacing" textLength="20" x="571.95" y="493.9659">Fin</text></g><!--MD5=[44c84ed82d04b71b709f3e027259f807]
link *start to Inicio--><g id="link_*start_Inicio"><path d="M669.95,26.01 C669.95,38.7 669.95,62.41 669.95,81.57 " fill="none" id="*start-to-Inicio" style="stroke:#181818;stroke-width:1.0;"/><polygon fill="#181818" points="669.95,86.84,673.95,77.84,669.95,81.84,665.95,77.84,669.95,86.84" style="stroke:#181818;stroke-width:1.0;"/></g><!--MD5=[e67ef8b697597f3d3fbd3e66a226d1cc]
link Inicio to SaqueInicial--><g id="link_Inicio_SaqueInicial"><path d="M669.95,137.19 C669.95,158.11 669.95,188.41 669.95,210.71 " fill="none" id="Inicio-to-SaqueInicial" style="stroke:#181818;stroke-width:1.0;"/><polygon fill="#181818" points="669.95,215.9,673.95,206.9,669.95,210.9,665.95,206.9,669.95,215.9" style="stroke:#181818;stroke-width:1.0;"/><text fill="#000000" font-family="sans-serif" font-size="13" lengthAdjust="spacing" textLength="100" x="670.95" y="181.897">Inicio del partido</text></g><!--MD5=[694385c935b276d8111579bd41272a89]
link SaqueInicial to JuegoNormal--><g id="link_SaqueInicial_JuegoNormal"><path d="M627.17,266.04 C588.56,287.74 531.82,319.62 491.74,342.15 " fill="none" id="SaqueInicial-to-JuegoNormal" style="stroke:#181818;stroke-width:1.0;"/><polygon fill="#181818" points="486.93,344.85,496.7342,343.9133,491.2852,342.3939,492.8045,336.9449,486.93,344.85" style="stroke:#181818;stroke-width:1.0;"/><text fill="#000000" font-family="sans-serif" font-size="13" lengthAdjust="spacing" textLength="94" x="570.95" y="310.897">Saque realizado</text></g><!--MD5=[9787eb991ae8576598d3d515a6a6d4e6]
link JuegoNormal to Gol--><g id="link_JuegoNormal_Gol"><path d="M498.21,376.03 C555.35,382.58 647.23,396.71 721.95,425 C756.26,437.99 792.01,460.1 816.26,476.59 " fill="none" id="JuegoNormal-to-Gol" style="stroke:#181818;stroke-width:1.0;"/><polygon fill="#181818" points="820.65,479.6,815.4862,471.2134,816.5252,476.774,810.9646,477.8131,820.65,479.6" style="stroke:#181818;stroke-width:1.0;"/><text fill="#000000" font-family="sans-serif" font-size="13" lengthAdjust="spacing" textLength="74" x="761.95" y="439.897">Gol anotado</text></g><!--MD5=[ec1a8d3df7b2d2a5f7bc343007ea4856]
link Gol to SaqueInicial--><g id="link_Gol_SaqueInicial"><path d="M849.96,473.77 C851.35,459.12 851.24,440.37 844.95,425 C817.37,357.6 752.21,300.8 709.65,269.11 " fill="none" id="Gol-to-SaqueInicial" style="stroke:#181818;stroke-width:1.0;"/><polygon fill="#181818" points="705.6,266.12,710.4686,274.6814,709.6238,269.0879,715.2173,268.2432,705.6,266.12" style="stroke:#181818;stroke-width:1.0;"/><text fill="#000000" font-family="sans-serif" font-size="13" lengthAdjust="spacing" textLength="228" x="829.95" y="375.397">Actualizar marcador y saque de centro</text></g><!--MD5=[049c6a164068f0a10b2bd450f434c39e]
link JuegoNormal to Falta--><g id="link_JuegoNormal_Falta"><path d="M389.88,374.03 C281.89,380.62 47.77,397.92 23.95,425 C6,445.41 35.6,468.23 61.21,482.83 " fill="none" id="JuegoNormal-to-Falta" style="stroke:#181818;stroke-width:1.0;"/><polygon fill="#181818" points="65.6,485.28,59.7058,477.3896,61.2387,482.8348,55.7935,484.3677,65.6,485.28" style="stroke:#181818;stroke-width:1.0;"/><text fill="#000000" font-family="sans-serif" font-size="13" lengthAdjust="spacing" textLength="88" x="24.95" y="439.897">Falta cometida</text></g><!--MD5=[bf0fa55f42039548b8acd51a231e4ce8]
link Falta to JuegoNormal--><g id="link_Falta_JuegoNormal"><path d="M115.32,473.7 C132.31,457.46 156.67,436.97 181.95,425 C247.21,394.09 329.84,380.81 384.67,375.14 " fill="none" id="Falta-to-JuegoNormal" style="stroke:#181818;stroke-width:1.0;"/><polygon fill="#181818" points="389.89,374.62,380.5349,371.5407,384.9151,375.1203,381.3355,379.5006,389.89,374.62" style="stroke:#181818;stroke-width:1.0;"/><text fill="#000000" font-family="sans-serif" font-size="13" lengthAdjust="spacing" textLength="101" x="182.95" y="439.897">Ejecutar tiro libre</text></g><!--MD5=[bb945b3126dbeaea2952e581afecd9ff]
link JuegoNormal to Tarjeta--><g id="link_JuegoNormal_Tarjeta"><path d="M389.82,375.75 C357.1,381.73 317.8,395.13 296.95,425 C281.82,446.67 308.09,467.28 333.6,481.04 " fill="none" id="JuegoNormal-to-Tarjeta" style="stroke:#181818;stroke-width:1.0;"/><polygon fill="#181818" points="338.35,483.53,332.2261,475.8165,333.9186,481.2142,328.5209,482.9067,338.35,483.53" style="stroke:#181818;stroke-width:1.0;"/><text fill="#000000" font-family="sans-serif" font-size="13" lengthAdjust="spacing" textLength="102" x="297.95" y="439.897">Tarjeta mostrada</text></g><!--MD5=[7324317bd20ae94bf65825057876523c]
link Tarjeta to JuegoNormal--><g id="link_Tarjeta_JuegoNormal"><path d="M387.03,473.99 C392.76,464.69 399.27,453.92 404.95,444 C413.22,429.54 421.99,413.22 429.12,399.67 " fill="none" id="Tarjeta-to-JuegoNormal" style="stroke:#181818;stroke-width:1.0;"/><polygon fill="#181818" points="431.47,395.19,423.7565,401.3139,429.1542,399.6214,430.8467,405.0191,431.47,395.19" style="stroke:#181818;stroke-width:1.0;"/><text fill="#000000" font-family="sans-serif" font-size="13" lengthAdjust="spacing" textLength="96" x="415.95" y="439.897">Registrar tarjeta</text></g><!--MD5=[15769a7b4f37a22ec6754ffde16a4f67]
link JuegoNormal to Fin--><g id="link_JuegoNormal_Fin"><path d="M482.66,395.22 C495.41,403.94 509.29,414.28 520.95,425 C535.61,438.47 549.98,455.44 561.1,469.62 " fill="none" id="JuegoNormal-to-Fin" style="stroke:#181818;stroke-width:1.0;"/><polygon fill="#181818" points="564.44,473.93,562.0864,464.3665,561.3762,469.9786,555.7641,469.2685,564.44,473.93" style="stroke:#181818;stroke-width:1.0;"/><text fill="#000000" font-family="sans-serif" font-size="13" lengthAdjust="spacing" textLength="173" x="539.95" y="439.897">Fin del tiempo reglamentario</text></g><!--MD5=[8490b77055686c7f79bc447cea24674f]
@startuml
[*] - -> Inicio
Inicio - -> SaqueInicial : Inicio del partido
SaqueInicial - -> JuegoNormal : Saque realizado
JuegoNormal - -> Gol : Gol anotado
Gol - -> SaqueInicial : Actualizar marcador y saque de centro
JuegoNormal - -> Falta : Falta cometida
Falta - -> JuegoNormal : Ejecutar tiro libre
JuegoNormal - -> Tarjeta : Tarjeta mostrada
Tarjeta - -> JuegoNormal : Registrar tarjeta
JuegoNormal - -> Fin : Fin del tiempo reglamentario
@enduml

PlantUML version 1.2022.7(Mon Aug 22 19:01:30 CEST 2022)
(GPL source distribution)
Java Runtime: OpenJDK Runtime Environment
JVM: OpenJDK 64-Bit Server VM
Default Encoding: UTF-8
Language: es
Country: ES
--></g></svg>