<?xml version="1.0" encoding="UTF-8" standalone="no"?><svg xmlns="http://www.w3.org/2000/svg" xmlns:xlink="http://www.w3.org/1999/xlink" contentStyleType="text/css" height="823px" preserveAspectRatio="none" style="width:323px;height:823px;background:#FFFFFF;" version="1.1" viewBox="0 0 323 823" width="323px" zoomAndPan="magnify"><defs/><g><ellipse cx="159" cy="20" fill="#222222" rx="10" ry="10" style="stroke:#222222;stroke-width:1.0;"/><rect fill="#F1F1F1" height="36.3441" rx="12.5" ry="12.5" style="stroke:#181818;stroke-width:0.5;" width="113" x="102.5" y="50"/><text fill="#000000" font-family="sans-serif" font-size="12" lengthAdjust="spacing" textLength="93" x="112.5" y="72.8281">Inicio del partido</text><rect fill="#F1F1F1" height="36.3441" rx="12.5" ry="12.5" style="stroke:#181818;stroke-width:0.5;" width="109" x="104.5" y="106.3441"/><text fill="#000000" font-family="sans-serif" font-size="12" lengthAdjust="spacing" textLength="89" x="114.5" y="129.1722">Saques iniciales</text><polygon fill="#F1F1F1" points="147,162.6882,171,162.6882,183,174.6882,171,186.6882,147,186.6882,135,174.6882,147,162.6882" style="stroke:#181818;stroke-width:0.5;"/><text fill="#000000" font-family="sans-serif" font-size="11" lengthAdjust="spacing" textLength="18" x="150" y="178.9562">Gol</text><text fill="#000000" font-family="sans-serif" font-size="11" lengthAdjust="spacing" textLength="9" x="126" y="171.4653">Sí</text><text fill="#000000" font-family="sans-serif" font-size="11" lengthAdjust="spacing" textLength="15" x="183" y="171.4653">No</text><rect fill="#F1F1F1" height="36.3441" rx="12.5" ry="12.5" style="stroke:#181818;stroke-width:0.5;" width="134" x="21.25" y="196.6882"/><text fill="#000000" font-family="sans-serif" font-size="12" lengthAdjust="spacing" textLength="114" x="31.25" y="219.5163">Actualizar marcador</text><rect fill="#F1F1F1" height="36.3441" rx="12.5" ry="12.5" style="stroke:#181818;stroke-width:0.5;" width="117" x="29.75" y="253.0323"/><text fill="#000000" font-family="sans-serif" font-size="12" lengthAdjust="spacing" textLength="97" x="39.75" y="275.8604">Saques de centro</text><rect fill="#F1F1F1" height="36.3441" rx="12.5" ry="12.5" style="stroke:#181818;stroke-width:0.5;" width="109" x="175.25" y="196.6882"/><text fill="#000000" font-family="sans-serif" font-size="12" lengthAdjust="spacing" textLength="89" x="185.25" y="219.5163">Continuar juego</text><polygon fill="#F1F1F1" points="159,295.3765,171,307.3765,159,319.3765,147,307.3765,159,295.3765" style="stroke:#181818;stroke-width:0.5;"/><polygon fill="#F1F1F1" points="146.5,339.3765,171.5,339.3765,183.5,351.3765,171.5,363.3765,146.5,363.3765,134.5,351.3765,146.5,339.3765" style="stroke:#181818;stroke-width:0.5;"/><text fill="#000000" font-family="sans-serif" font-size="11" lengthAdjust="spacing" textLength="25" x="146.5" y="355.6444">Falta</text><text fill="#000000" font-family="sans-serif" font-size="11" lengthAdjust="spacing" textLength="9" x="125.5" y="348.1535">Sí</text><text fill="#000000" font-family="sans-serif" font-size="11" lengthAdjust="spacing" textLength="15" x="183.5" y="348.1535">No</text><rect fill="#F1F1F1" height="36.3441" rx="12.5" ry="12.5" style="stroke:#181818;stroke-width:0.5;" width="74" x="55.75" y="373.3765"/><text fill="#000000" font-family="sans-serif" font-size="12" lengthAdjust="spacing" textLength="54" x="65.75" y="396.2045">Pitar falta</text><rect fill="#F1F1F1" height="36.3441" rx="12.5" ry="12.5" style="stroke:#181818;stroke-width:0.5;" width="116" x="34.75" y="429.7206"/><text fill="#000000" font-family="sans-serif" font-size="12" lengthAdjust="spacing" textLength="96" x="44.75" y="452.5487">Ejecutar tiro libre</text><rect fill="#F1F1F1" height="36.3441" rx="12.5" ry="12.5" style="stroke:#181818;stroke-width:0.5;" width="109" x="170.75" y="373.3765"/><text fill="#000000" font-family="sans-serif" font-size="12" lengthAdjust="spacing" textLength="89" x="180.75" y="396.2045">Continuar juego</text><polygon fill="#F1F1F1" points="159,472.0647,171,484.0647,159,496.0647,147,484.0647,159,472.0647" style="stroke:#181818;stroke-width:0.5;"/><polygon fill="#F1F1F1" points="141,516.0647,177,516.0647,189,528.0647,177,540.0647,141,540.0647,129,528.0647,141,516.0647" style="stroke:#181818;stroke-width:0.5;"/><text fill="#000000" font-family="sans-serif" font-size="11" lengthAdjust="spacing" textLength="36" x="141" y="532.3327">Tarjeta</text><text fill="#000000" font-family="sans-serif" font-size="11" lengthAdjust="spacing" textLength="9" x="120" y="524.8417">Sí</text><text fill="#000000" font-family="sans-serif" font-size="11" lengthAdjust="spacing" textLength="15" x="189" y="524.8417">No</text><rect fill="#F1F1F1" height="36.3441" rx="12.5" ry="12.5" style="stroke:#181818;stroke-width:0.5;" width="105" x="41.5" y="550.0647"/><text fill="#000000" font-family="sans-serif" font-size="12" lengthAdjust="spacing" textLength="85" x="51.5" y="572.8928">Mostrar tarjeta</text><rect fill="#F1F1F1" height="36.3441" rx="12.5" ry="12.5" style="stroke:#181818;stroke-width:0.5;" width="111" x="38.5" y="606.4088"/><text fill="#000000" font-family="sans-serif" font-size="12" lengthAdjust="spacing" textLength="91" x="48.5" y="629.2369">Registrar tarjeta</text><rect fill="#F1F1F1" height="36.3441" rx="12.5" ry="12.5" style="stroke:#181818;stroke-width:0.5;" width="109" x="169.5" y="550.0647"/><text fill="#000000" font-family="sans-serif" font-size="12" lengthAdjust="spacing" textLength="89" x="179.5" y="572.8928">Continuar juego</text><polygon fill="#F1F1F1" points="159,648.7529,171,660.7529,159,672.7529,147,660.7529,159,648.7529" style="stroke:#181818;stroke-width:0.5;"/><polygon fill="#F1F1F1" points="82.5,692.7529,235.5,692.7529,247.5,704.7529,235.5,716.7529,82.5,716.7529,70.5,704.7529,82.5,692.7529" style="stroke:#181818;stroke-width:0.5;"/><text fill="#000000" font-family="sans-serif" font-size="11" lengthAdjust="spacing" textLength="153" x="82.5" y="709.0209">Fin del tiempo reglamentario</text><text fill="#000000" font-family="sans-serif" font-size="11" lengthAdjust="spacing" textLength="9" x="61.5" y="701.5299">Sí</text><text fill="#000000" font-family="sans-serif" font-size="11" lengthAdjust="spacing" textLength="15" x="247.5" y="701.5299">No</text><rect fill="#F1F1F1" height="36.3441" rx="12.5" ry="12.5" style="stroke:#181818;stroke-width:0.5;" width="99" x="11" y="726.7529"/><text fill="#000000" font-family="sans-serif" font-size="12" lengthAdjust="spacing" textLength="79" x="21" y="749.581">Fin del partido</text><ellipse cx="60.5" cy="794.097" fill="none" rx="11" ry="11" style="stroke:#222222;stroke-width:1.0;"/><ellipse cx="60.5" cy="794.097" fill="#222222" rx="6" ry="6" style="stroke:#111111;stroke-width:1.0;"/><rect fill="#F1F1F1" height="36.3441" rx="12.5" ry="12.5" style="stroke:#181818;stroke-width:0.5;" width="109" x="203" y="726.7529"/><text fill="#000000" font-family="sans-serif" font-size="12" lengthAdjust="spacing" textLength="89" x="213" y="749.581">Continuar juego</text><line style="stroke:#181818;stroke-width:1.0;" x1="159" x2="159" y1="30" y2="50"/><polygon fill="#181818" points="155,40,159,50,163,40,159,44" style="stroke:#181818;stroke-width:1.0;"/><line style="stroke:#181818;stroke-width:1.0;" x1="159" x2="159" y1="86.3441" y2="106.3441"/><polygon fill="#181818" points="155,96.3441,159,106.3441,163,96.3441,159,100.3441" style="stroke:#181818;stroke-width:1.0;"/><line style="stroke:#181818;stroke-width:1.0;" x1="88.25" x2="88.25" y1="233.0323" y2="253.0323"/><polygon fill="#181818" points="84.25,243.0323,88.25,253.0323,92.25,243.0323,88.25,247.0323" style="stroke:#181818;stroke-width:1.0;"/><line style="stroke:#181818;stroke-width:1.0;" x1="135" x2="88.25" y1="174.6882" y2="174.6882"/><line style="stroke:#181818;stroke-width:1.0;" x1="88.25" x2="88.25" y1="174.6882" y2="196.6882"/><polygon fill="#181818" points="84.25,186.6882,88.25,196.6882,92.25,186.6882,88.25,190.6882" style="stroke:#181818;stroke-width:1.0;"/><line style="stroke:#181818;stroke-width:1.0;" x1="183" x2="229.75" y1="174.6882" y2="174.6882"/><line style="stroke:#181818;stroke-width:1.0;" x1="229.75" x2="229.75" y1="174.6882" y2="196.6882"/><polygon fill="#181818" points="225.75,186.6882,229.75,196.6882,233.75,186.6882,229.75,190.6882" style="stroke:#181818;stroke-width:1.0;"/><line style="stroke:#181818;stroke-width:1.0;" x1="88.25" x2="88.25" y1="289.3765" y2="307.3765"/><line style="stroke:#181818;stroke-width:1.0;" x1="88.25" x2="147" y1="307.3765" y2="307.3765"/><polygon fill="#181818" points="137,303.3765,147,307.3765,137,311.3765,141,307.3765" style="stroke:#181818;stroke-width:1.0;"/><line style="stroke:#181818;stroke-width:1.0;" x1="229.75" x2="229.75" y1="233.0323" y2="307.3765"/><line style="stroke:#181818;stroke-width:1.0;" x1="229.75" x2="171" y1="307.3765" y2="307.3765"/><polygon fill="#181818" points="181,303.3765,171,307.3765,181,311.3765,177,307.3765" style="stroke:#181818;stroke-width:1.0;"/><line style="stroke:#181818;stroke-width:1.0;" x1="159" x2="159" y1="142.6882" y2="162.6882"/><polygon fill="#181818" points="155,152.6882,159,162.6882,163,152.6882,159,156.6882" style="stroke:#181818;stroke-width:1.0;"/><line style="stroke:#181818;stroke-width:1.0;" x1="92.75" x2="92.75" y1="409.7206" y2="429.7206"/><polygon fill="#181818" points="88.75,419.7206,92.75,429.7206,96.75,419.7206,92.75,423.7206" style="stroke:#181818;stroke-width:1.0;"/><line style="stroke:#181818;stroke-width:1.0;" x1="134.5" x2="92.75" y1="351.3765" y2="351.3765"/><line style="stroke:#181818;stroke-width:1.0;" x1="92.75" x2="92.75" y1="351.3765" y2="373.3765"/><polygon fill="#181818" points="88.75,363.3765,92.75,373.3765,96.75,363.3765,92.75,367.3765" style="stroke:#181818;stroke-width:1.0;"/><line style="stroke:#181818;stroke-width:1.0;" x1="183.5" x2="225.25" y1="351.3765" y2="351.3765"/><line style="stroke:#181818;stroke-width:1.0;" x1="225.25" x2="225.25" y1="351.3765" y2="373.3765"/><polygon fill="#181818" points="221.25,363.3765,225.25,373.3765,229.25,363.3765,225.25,367.3765" style="stroke:#181818;stroke-width:1.0;"/><line style="stroke:#181818;stroke-width:1.0;" x1="92.75" x2="92.75" y1="466.0647" y2="484.0647"/><line style="stroke:#181818;stroke-width:1.0;" x1="92.75" x2="147" y1="484.0647" y2="484.0647"/><polygon fill="#181818" points="137,480.0647,147,484.0647,137,488.0647,141,484.0647" style="stroke:#181818;stroke-width:1.0;"/><line style="stroke:#181818;stroke-width:1.0;" x1="225.25" x2="225.25" y1="409.7206" y2="484.0647"/><line style="stroke:#181818;stroke-width:1.0;" x1="225.25" x2="171" y1="484.0647" y2="484.0647"/><polygon fill="#181818" points="181,480.0647,171,484.0647,181,488.0647,177,484.0647" style="stroke:#181818;stroke-width:1.0;"/><line style="stroke:#181818;stroke-width:1.0;" x1="159" x2="159" y1="319.3765" y2="339.3765"/><polygon fill="#181818" points="155,329.3765,159,339.3765,163,329.3765,159,333.3765" style="stroke:#181818;stroke-width:1.0;"/><line style="stroke:#181818;stroke-width:1.0;" x1="94" x2="94" y1="586.4088" y2="606.4088"/><polygon fill="#181818" points="90,596.4088,94,606.4088,98,596.4088,94,600.4088" style="stroke:#181818;stroke-width:1.0;"/><line style="stroke:#181818;stroke-width:1.0;" x1="129" x2="94" y1="528.0647" y2="528.0647"/><line style="stroke:#181818;stroke-width:1.0;" x1="94" x2="94" y1="528.0647" y2="550.0647"/><polygon fill="#181818" points="90,540.0647,94,550.0647,98,540.0647,94,544.0647" style="stroke:#181818;stroke-width:1.0;"/><line style="stroke:#181818;stroke-width:1.0;" x1="189" x2="224" y1="528.0647" y2="528.0647"/><line style="stroke:#181818;stroke-width:1.0;" x1="224" x2="224" y1="528.0647" y2="550.0647"/><polygon fill="#181818" points="220,540.0647,224,550.0647,228,540.0647,224,544.0647" style="stroke:#181818;stroke-width:1.0;"/><line style="stroke:#181818;stroke-width:1.0;" x1="94" x2="94" y1="642.7529" y2="660.7529"/><line style="stroke:#181818;stroke-width:1.0;" x1="94" x2="147" y1="660.7529" y2="660.7529"/><polygon fill="#181818" points="137,656.7529,147,660.7529,137,664.7529,141,660.7529" style="stroke:#181818;stroke-width:1.0;"/><line style="stroke:#181818;stroke-width:1.0;" x1="224" x2="224" y1="586.4088" y2="660.7529"/><line style="stroke:#181818;stroke-width:1.0;" x1="224" x2="171" y1="660.7529" y2="660.7529"/><polygon fill="#181818" points="181,656.7529,171,660.7529,181,664.7529,177,660.7529" style="stroke:#181818;stroke-width:1.0;"/><line style="stroke:#181818;stroke-width:1.0;" x1="159" x2="159" y1="496.0647" y2="516.0647"/><polygon fill="#181818" points="155,506.0647,159,516.0647,163,506.0647,159,510.0647" style="stroke:#181818;stroke-width:1.0;"/><line style="stroke:#181818;stroke-width:1.0;" x1="60.5" x2="60.5" y1="763.097" y2="783.097"/><polygon fill="#181818" points="56.5,773.097,60.5,783.097,64.5,773.097,60.5,777.097" style="stroke:#181818;stroke-width:1.0;"/><line style="stroke:#181818;stroke-width:1.0;" x1="70.5" x2="60.5" y1="704.7529" y2="704.7529"/><line style="stroke:#181818;stroke-width:1.0;" x1="60.5" x2="60.5" y1="704.7529" y2="726.7529"/><polygon fill="#181818" points="56.5,716.7529,60.5,726.7529,64.5,716.7529,60.5,720.7529" style="stroke:#181818;stroke-width:1.0;"/><line style="stroke:#181818;stroke-width:1.0;" x1="247.5" x2="257.5" y1="704.7529" y2="704.7529"/><line style="stroke:#181818;stroke-width:1.0;" x1="257.5" x2="257.5" y1="704.7529" y2="726.7529"/><polygon fill="#181818" points="253.5,716.7529,257.5,726.7529,261.5,716.7529,257.5,720.7529" style="stroke:#181818;stroke-width:1.0;"/><line style="stroke:#181818;stroke-width:1.0;" x1="257.5" x2="257.5" y1="763.097" y2="811.097"/><line style="stroke:#181818;stroke-width:1.0;" x1="257.5" x2="159" y1="811.097" y2="811.097"/><line style="stroke:#181818;stroke-width:1.0;" x1="159" x2="159" y1="672.7529" y2="692.7529"/><polygon fill="#181818" points="155,682.7529,159,692.7529,163,682.7529,159,686.7529" style="stroke:#181818;stroke-width:1.0;"/><!--MD5=[a3db2b1dea979b09a47abcd22f284205]
@startuml
start
:Inicio del partido;
:Saques iniciales;
if (Gol) then (Sí)
  :Actualizar marcador;
  :Saques de centro;
else (No)
  :Continuar juego;
endif
if (Falta) then (Sí)
  :Pitar falta;
  :Ejecutar tiro libre;
else (No)
  :Continuar juego;
endif
if (Tarjeta) then (Sí)
  :Mostrar tarjeta;
  :Registrar tarjeta;
else (No)
  :Continuar juego;
endif
if (Fin del tiempo reglamentario) then (Sí)
  :Fin del partido;
  stop
else (No)
  :Continuar juego;
endif
@enduml

PlantUML version 1.2022.7(Mon Aug 22 19:01:30 CEST 2022)
(GPL source distribution)
Java Runtime: OpenJDK Runtime Environment
JVM: OpenJDK 64-Bit Server VM
Default Encoding: UTF-8
Language: es
Country: ES
--></g></svg>