<?xml version="1.0" encoding="us-ascii" standalone="no"?><svg xmlns="http://www.w3.org/2000/svg" xmlns:xlink="http://www.w3.org/1999/xlink" contentStyleType="text/css" height="524px" preserveAspectRatio="none" style="width:1189px;height:524px;background:#FFFFFF;" version="1.1" viewBox="0 0 1189 524" width="1189px" zoomAndPan="magnify"><defs/><g><ellipse cx="811.0804" cy="16" fill="#181818" rx="10" ry="10" style="stroke:none;stroke-width:1.0;"/><g id="Inicio"><rect fill="#F1F1F1" height="50" rx="12.5" ry="12.5" style="stroke:#181818;stroke-width:0.5;" width="58" x="782.0804" y="87"/><line style="stroke:#181818;stroke-width:0.5;" x1="782.0804" x2="840.0804" y1="113.2969" y2="113.2969"/><text fill="#000000" font-family="sans-serif" font-size="14" lengthAdjust="spacing" textLength="38" x="792.0804" y="104.9951">Inicio</text></g><g id="SaqueInicial"><rect fill="#F1F1F1" height="50" rx="12.5" ry="12.5" style="stroke:#181818;stroke-width:0.5;" width="104" x="759.0804" y="214"/><line style="stroke:#181818;stroke-width:0.5;" x1="759.0804" x2="863.0804" y1="240.2969" y2="240.2969"/><text fill="#000000" font-family="sans-serif" font-size="14" lengthAdjust="spacing" textLength="84" x="769.0804" y="231.9951">SaqueInicial</text></g><g id="JuegoNormal"><rect fill="#F1F1F1" height="50" rx="12.5" ry="12.5" style="stroke:#181818;stroke-width:0.5;" width="110" x="417.0804" y="341"/><line style="stroke:#181818;stroke-width:0.5;" x1="417.0804" x2="527.0804" y1="367.2969" y2="367.2969"/><text fill="#000000" font-family="sans-serif" font-size="14" lengthAdjust="spacing" textLength="90" x="427.0804" y="358.9951">JuegoNormal</text></g><g id="Gol"><rect fill="#F1F1F1" height="50" rx="12.5" ry="12.5" style="stroke:#181818;stroke-width:0.5;" width="50" x="891.0804" y="468"/><line style="stroke:#181818;stroke-width:0.5;" x1="891.0804" x2="941.0804" y1="494.2969" y2="494.2969"/><text fill="#000000" font-family="sans-serif" font-size="14" lengthAdjust="spacing" textLength="24" x="904.0804" y="485.9951">Gol</text></g><g id="Falta"><rect fill="#F1F1F1" height="50" rx="12.5" ry="12.5" style="stroke:#181818;stroke-width:0.5;" width="55" x="68.5799" y="468"/><line style="stroke:#181818;stroke-width:0.5;" x1="68.5799" x2="123.5799" y1="494.2969" y2="494.2969"/><text fill="#000000" font-family="sans-serif" font-size="14" lengthAdjust="spacing" textLength="35" x="78.5799" y="485.9951">Falta</text></g><g id="Tarjeta"><rect fill="#F1F1F1" height="50" rx="12.5" ry="12.5" style="stroke:#181818;stroke-width:0.5;" width="71" x="362.5804" y="468"/><line style="stroke:#181818;stroke-width:0.5;" x1="362.5804" x2="433.5804" y1="494.2969" y2="494.2969"/><text fill="#000000" font-family="sans-serif" font-size="14" lengthAdjust="spacing" textLength="51" x="372.5804" y="485.9951">Tarjeta</text></g><g id="Fin"><rect fill="#F1F1F1" height="50" rx="12.5" ry="12.5" style="stroke:#181818;stroke-width:0.5;" width="50" x="598.0804" y="468"/><line style="stroke:#181818;stroke-width:0.5;" x1="598.0804" x2="648.0804" y1="494.2969" y2="494.2969"/><text fill="#000000" font-family="sans-serif" font-size="14" lengthAdjust="spacing" textLength="21" x="612.5804" y="485.9951">Fin</text></g><!--link *start* to Inicio--><g id="link_*start*_Inicio"><path d="M811.0804,26.013 C811.0804,39.891 811.0804,60.965 811.0804,80.84 " fill="none" id="*start*-to-Inicio" style="stroke:#181818;stroke-width:1.0;"/><polygon fill="#181818" points="811.0804,86.84,815.0804,77.84,811.0804,81.84,807.0804,77.84,811.0804,86.84" style="stroke:#181818;stroke-width:1.0;"/></g><!--link Inicio to SaqueInicial--><g id="link_Inicio_SaqueInicial"><path d="M811.0804,137.101 C811.0804,159.236 811.0804,185.861 811.0804,207.973 " fill="none" id="Inicio-to-SaqueInicial" style="stroke:#181818;stroke-width:1.0;"/><polygon fill="#181818" points="811.0804,213.973,815.0804,204.973,811.0804,208.973,807.0804,204.973,811.0804,213.973" style="stroke:#181818;stroke-width:1.0;"/><text fill="#000000" font-family="sans-serif" font-size="13" lengthAdjust="spacing" textLength="92" x="812.0804" y="180.0669">iniciarPartido()</text></g><!--link SaqueInicial to JuegoNormal--><g id="link_SaqueInicial_JuegoNormal"><path d="M758.8544,259.257 C696.0784,282.405 596.8379,318.9983 532.8089,342.6073 " fill="none" id="SaqueInicial-to-JuegoNormal" style="stroke:#181818;stroke-width:1.0;"/><polygon fill="#181818" points="527.1794,344.683,537.0075,345.3224,531.8707,342.9532,534.2398,337.8164,527.1794,344.683" style="stroke:#181818;stroke-width:1.0;"/><text fill="#000000" font-family="sans-serif" font-size="13" lengthAdjust="spacing" textLength="97" x="663.0804" y="307.0669">realizarSaque()</text></g><!--link JuegoNormal to Gol--><g id="link_JuegoNormal_Gol"><path d="M527.2534,370.588 C591.8424,376.094 701.2774,389.52 790.0804,421 C827.2354,434.1714 861.2137,454.5652 885.7997,470.9413 " fill="none" id="JuegoNormal-to-Gol" style="stroke:#181818;stroke-width:1.0;"/><polygon fill="#181818" points="890.7934,474.2675,885.5203,465.9492,886.632,471.4957,881.0855,472.6074,890.7934,474.2675" style="stroke:#181818;stroke-width:1.0;"/><text fill="#000000" font-family="sans-serif" font-size="13" lengthAdjust="spacing" textLength="73" x="827.0804" y="434.0669">anotarGol()</text></g><!--link Gol to SaqueInicial--><g id="link_Gol_SaqueInicial"><path d="M916.0624,467.8692 C915.4734,453.909 913.7234,436.159 909.0804,421 C890.6064,360.696 854.4035,302.4646 831.5995,269.0346 " fill="none" id="Gol-to-SaqueInicial" style="stroke:#181818;stroke-width:1.0;"/><polygon fill="#181818" points="828.2184,264.078,829.9857,273.767,831.036,268.2085,836.5945,269.2588,828.2184,264.078" style="stroke:#181818;stroke-width:1.0;"/><text fill="#000000" font-family="sans-serif" font-size="13" lengthAdjust="spacing" textLength="283" x="898.0804" y="370.5669">actualizarMarcador() / realizarSaqueCentro()</text></g><!--link JuegoNormal to Falta--><g id="link_JuegoNormal_Falta"><path d="M416.7324,369.646 C302.8304,375.66 50.6823,392.119 25.0799,421 C6,442.5236 35.6574,463.086 62.9584,476.9121 " fill="none" id="JuegoNormal-to-Falta" style="stroke:#181818;stroke-width:1.0;"/><polygon fill="#181818" points="68.3111,479.6229,62.0892,471.9882,63.8505,477.3639,58.4748,479.1252,68.3111,479.6229" style="stroke:#181818;stroke-width:1.0;"/><text fill="#000000" font-family="sans-serif" font-size="13" lengthAdjust="spacing" textLength="95" x="26.0799" y="434.0669">cometerFalta()</text></g><!--link Falta to JuegoNormal--><g id="link_Falta_JuegoNormal"><path d="M121.1434,467.9549 C138.9874,452.1946 164.2874,432.4579 190.0804,421 C264.3344,388.014 352.3782,375.6517 410.8912,370.6527 " fill="none" id="Falta-to-JuegoNormal" style="stroke:#181818;stroke-width:1.0;"/><polygon fill="#181818" points="416.8694,370.142,407.5616,366.9226,411.8875,370.5676,408.2426,374.8936,416.8694,370.142" style="stroke:#181818;stroke-width:1.0;"/><text fill="#000000" font-family="sans-serif" font-size="13" lengthAdjust="spacing" textLength="117" x="191.0804" y="434.0669">ejecutarTiroLibre()</text></g><!--link JuegoNormal to Tarjeta--><g id="link_JuegoNormal_Tarjeta"><path d="M416.8984,371.257 C383.2304,377.035 342.6444,390.386 321.0804,421 C305.1634,443.596 329.8963,461.7682 357.0033,474.9337 " fill="none" id="JuegoNormal-to-Tarjeta" style="stroke:#181818;stroke-width:1.0;"/><polygon fill="#181818" points="362.4004,477.555,356.0523,470.025,357.9028,475.3706,352.5572,477.2211,362.4004,477.555" style="stroke:#181818;stroke-width:1.0;"/><text fill="#000000" font-family="sans-serif" font-size="13" lengthAdjust="spacing" textLength="106" x="322.0804" y="434.0669">mostrarTarjeta()</text></g><!--link Tarjeta to JuegoNormal--><g id="link_Tarjeta_JuegoNormal"><path d="M414.3154,467.775 C420.3574,458.5483 427.1764,447.8775 433.0804,438 C442.2424,422.6687 449.0774,410.363 456.4964,396.525 " fill="none" id="Tarjeta-to-JuegoNormal" style="stroke:#181818;stroke-width:1.0;"/><polygon fill="#181818" points="459.3314,391.237,451.5535,397.2789,456.9689,395.6436,458.6041,401.059,459.3314,391.237" style="stroke:#181818;stroke-width:1.0;"/><text fill="#000000" font-family="sans-serif" font-size="13" lengthAdjust="spacing" textLength="109" x="443.0804" y="434.0669">registrarTarjeta()</text></g><!--link JuegoNormal to Fin--><g id="link_JuegoNormal_Fin"><path d="M517.8144,391.099 C532.2944,399.665 547.9384,409.95 561.0804,421 C577.6134,434.9021 589.8508,448.6444 601.4398,463.2486 " fill="none" id="JuegoNormal-to-Fin" style="stroke:#181818;stroke-width:1.0;"/><polygon fill="#181818" points="605.1694,467.9486,602.7083,458.4122,602.0614,464.0319,596.4416,463.385,605.1694,467.9486" style="stroke:#181818;stroke-width:1.0;"/><text fill="#000000" font-family="sans-serif" font-size="13" lengthAdjust="spacing" textLength="202" x="579.0804" y="434.0669">finalizarTiempoReglamentario()</text></g><!--SRC=[RP2n3i8m34JtVaL6YeJO6LYGG2102BeX1XDCvQg9mQGBNu-R28dIJd7EB-TppkEBcKpcPkt94cVfYCe9dWt6EzHcPYXMSW09TEDHddNwxODDWoNlMLpa1Q6cDqZ45F_jjlIAMmey1n2jbMYLWS5WGvEiTY0MRYoZt4ox_WlqGNXWoXBg06fYsM50YLV5ajmFZHNQHWCL9Bobgmm5Bq0gZAQENq4KJeAYtzRGRvJq1_UYabVmJZxjLH2w1n-nhC7fTY2a-tq0]--></g></svg>