<?xml version="1.0" encoding="UTF-8" standalone="no"?><svg xmlns="http://www.w3.org/2000/svg" xmlns:xlink="http://www.w3.org/1999/xlink" contentStyleType="text/css" height="425px" preserveAspectRatio="none" style="width:898px;height:425px;background:#FFFFFF;" version="1.1" viewBox="0 0 898 425" width="898px" zoomAndPan="magnify"><defs/><g><rect fill="#F1F1F1" height="37.6094" rx="12.5" ry="12.5" style="stroke:#181818;stroke-width:1.5;" width="60" x="342" y="192.8281"/><text fill="#000000" font-family="sans-serif" font-size="14" font-weight="bold" lengthAdjust="spacing" textLength="40" x="352" y="217.3613">ÉTICA</text><rect fill="#F1F1F1" height="37.6094" rx="12.5" ry="12.5" style="stroke:#181818;stroke-width:1.5;" width="50" x="452" y="192.8281"/><text fill="#000000" font-family="sans-serif" font-size="14" lengthAdjust="spacing" textLength="30" x="462" y="217.3613">Guia</text><rect fill="#F1F1F1" height="37.6094" rx="12.5" ry="12.5" style="stroke:#181818;stroke-width:1.5;" width="112" x="552" y="77.6094"/><text fill="#000000" font-family="sans-serif" font-size="14" lengthAdjust="spacing" textLength="92" x="562" y="102.1426">Transparencia</text><rect fill="#F1F1F1" height="37.6094" rx="12.5" ry="12.5" style="stroke:#181818;stroke-width:1.5;" width="172" x="714" y="20"/><text fill="#000000" font-family="sans-serif" font-size="14" lengthAdjust="spacing" textLength="152" x="724" y="44.5332">Datos de entrenamiento</text><path d="M664,96.4141 L674,96.4141 C689,96.4141 689,38.8047 704,38.8047 L714,38.8047 " fill="none" style="stroke:#181818;stroke-width:1.0;"/><rect fill="#F1F1F1" height="37.6094" rx="12.5" ry="12.5" style="stroke:#181818;stroke-width:1.5;" width="90" x="714" y="77.6094"/><text fill="#000000" font-family="sans-serif" font-size="14" lengthAdjust="spacing" textLength="66" x="724" y="102.1426">Algoritmos</text><path d="M664,96.4141 L674,96.4141 C689,96.4141 689,96.4141 704,96.4141 L714,96.4141 " fill="none" style="stroke:#181818;stroke-width:1.0;"/><rect fill="#F1F1F1" height="37.6094" rx="12.5" ry="12.5" style="stroke:#181818;stroke-width:1.5;" width="123" x="714" y="135.2188"/><text fill="#000000" font-family="sans-serif" font-size="14" lengthAdjust="spacing" textLength="103" x="724" y="159.752">Contexto de uso</text><path d="M664,96.4141 L674,96.4141 C689,96.4141 689,154.0234 704,154.0234 L714,154.0234 " fill="none" style="stroke:#181818;stroke-width:1.0;"/><path d="M502,211.6328 L512,211.6328 C527,211.6328 527,96.4141 542,96.4141 L552,96.4141 " fill="none" style="stroke:#181818;stroke-width:1.0;"/><rect fill="#F1F1F1" height="37.6094" rx="12.5" ry="12.5" style="stroke:#181818;stroke-width:1.5;" width="125" x="552" y="192.8281"/><text fill="#000000" font-family="sans-serif" font-size="14" lengthAdjust="spacing" textLength="105" x="562" y="217.3613">Responsabilidad</text><path d="M502,211.6328 L512,211.6328 C527,211.6328 527,211.6328 542,211.6328 L552,211.6328 " fill="none" style="stroke:#181818;stroke-width:1.0;"/><rect fill="#F1F1F1" height="37.6094" rx="12.5" ry="12.5" style="stroke:#181818;stroke-width:1.5;" width="72" x="552" y="279.2422"/><text fill="#000000" font-family="sans-serif" font-size="14" lengthAdjust="spacing" textLength="52" x="562" y="303.7754">Equidad</text><rect fill="#F1F1F1" height="37.6094" rx="12.5" ry="12.5" style="stroke:#181818;stroke-width:1.5;" width="103" x="674" y="250.4375"/><text fill="#000000" font-family="sans-serif" font-size="14" lengthAdjust="spacing" textLength="83" x="684" y="274.9707">Imparcialidad</text><path d="M624,298.0469 L634,298.0469 C649,298.0469 649,269.2422 664,269.2422 L674,269.2422 " fill="none" style="stroke:#181818;stroke-width:1.0;"/><rect fill="#F1F1F1" height="37.6094" rx="12.5" ry="12.5" style="stroke:#181818;stroke-width:1.5;" width="122" x="674" y="308.0469"/><text fill="#000000" font-family="sans-serif" font-size="14" lengthAdjust="spacing" textLength="102" x="684" y="332.5801">Cohesión Social</text><path d="M624,298.0469 L634,298.0469 C649,298.0469 649,326.8516 664,326.8516 L674,326.8516 " fill="none" style="stroke:#181818;stroke-width:1.0;"/><path d="M502,211.6328 L512,211.6328 C527,211.6328 527,298.0469 542,298.0469 L552,298.0469 " fill="none" style="stroke:#181818;stroke-width:1.0;"/><rect fill="#F1F1F1" height="37.6094" rx="12.5" ry="12.5" style="stroke:#181818;stroke-width:1.5;" width="86" x="552" y="365.6563"/><text fill="#000000" font-family="sans-serif" font-size="14" lengthAdjust="spacing" textLength="66" x="562" y="390.1895">Privacidad</text><path d="M502,211.6328 L512,211.6328 C527,211.6328 527,384.4609 542,384.4609 L552,384.4609 " fill="none" style="stroke:#181818;stroke-width:1.0;"/><path d="M402,211.6328 L412,211.6328 C427,211.6328 427,211.6328 442,211.6328 L452,211.6328 " fill="none" style="stroke:#181818;stroke-width:1.0;"/><rect fill="#F1F1F1" height="37.6094" rx="12.5" ry="12.5" style="stroke:#181818;stroke-width:1.5;" width="60" x="232" y="135.2188"/><text fill="#000000" font-family="sans-serif" font-size="14" lengthAdjust="spacing" textLength="40" x="242" y="159.752">Sesgo</text><rect fill="#F1F1F1" height="37.6094" rx="12.5" ry="12.5" style="stroke:#181818;stroke-width:1.5;" width="172" x="10" y="77.6094"/><text fill="#000000" font-family="sans-serif" font-size="14" lengthAdjust="spacing" textLength="152" x="20" y="102.1426">Datos de entrenamiento</text><path d="M232,154.0234 L222,154.0234 C207,154.0234 207,96.4141 192,96.4141 L182,96.4141 " fill="none" style="stroke:#181818;stroke-width:1.0;"/><rect fill="#F1F1F1" height="37.6094" rx="12.5" ry="12.5" style="stroke:#181818;stroke-width:1.5;" width="72" x="110" y="135.2188"/><text fill="#000000" font-family="sans-serif" font-size="14" lengthAdjust="spacing" textLength="52" x="120" y="159.752">Prompts</text><path d="M232,154.0234 L222,154.0234 C207,154.0234 207,154.0234 192,154.0234 L182,154.0234 " fill="none" style="stroke:#181818;stroke-width:1.0;"/><rect fill="#F1F1F1" height="37.6094" rx="12.5" ry="12.5" style="stroke:#181818;stroke-width:1.5;" width="118" x="64" y="192.8281"/><text fill="#000000" font-family="sans-serif" font-size="14" lengthAdjust="spacing" textLength="98" x="74" y="217.3613">Datos de salida</text><path d="M232,154.0234 L222,154.0234 C207,154.0234 207,211.6328 192,211.6328 L182,211.6328 " fill="none" style="stroke:#181818;stroke-width:1.0;"/><path d="M342,211.6328 L332,211.6328 C317,211.6328 317,154.0234 302,154.0234 L292,154.0234 " fill="none" style="stroke:#181818;stroke-width:1.0;"/><rect fill="#F1F1F1" height="37.6094" rx="12.5" ry="12.5" style="stroke:#181818;stroke-width:1.5;" width="86" x="206" y="279.2422"/><text fill="#000000" font-family="sans-serif" font-size="14" lengthAdjust="spacing" textLength="66" x="216" y="303.7754">Privacidad</text><rect fill="#F1F1F1" height="37.6094" rx="12.5" ry="12.5" style="stroke:#181818;stroke-width:1.5;" width="76" x="80" y="250.4375"/><text fill="#000000" font-family="sans-serif" font-size="14" lengthAdjust="spacing" textLength="56" x="90" y="274.9707">Personal</text><path d="M206,298.0469 L196,298.0469 C181,298.0469 181,269.2422 166,269.2422 L156,269.2422 " fill="none" style="stroke:#181818;stroke-width:1.0;"/><rect fill="#F1F1F1" height="37.6094" rx="12.5" ry="12.5" style="stroke:#181818;stroke-width:1.5;" width="94" x="62" y="308.0469"/><text fill="#000000" font-family="sans-serif" font-size="14" lengthAdjust="spacing" textLength="74" x="72" y="332.5801">Corporativa</text><path d="M206,298.0469 L196,298.0469 C181,298.0469 181,326.8516 166,326.8516 L156,326.8516 " fill="none" style="stroke:#181818;stroke-width:1.0;"/><path d="M342,211.6328 L332,211.6328 C317,211.6328 317,298.0469 302,298.0469 L292,298.0469 " fill="none" style="stroke:#181818;stroke-width:1.0;"/><!--MD5=[8623cdd786b02a7f9b25dca6848bfccc]
@startmindmap

- <b>ÉTICA</b>

- - Sesgo
- - - Datos de entrenamiento
- - - Prompts
- - - Datos de salida
- - Privacidad
- - - Personal
- - - Corporativa

++ Guia

+++ Transparencia
++++ Datos de entrenamiento
++++ Algoritmos 
++++ Contexto de uso

+++ Responsabilidad


+++ Equidad
++++ Imparcialidad
++++ Cohesión Social


+++ Privacidad


@endmindmap

PlantUML version 1.2022.7(Mon Aug 22 19:01:30 CEST 2022)
(GPL source distribution)
Java Runtime: Java(TM) SE Runtime Environment
JVM: Java HotSpot(TM) 64-Bit Server VM
Default Encoding: UTF-8
Language: es
Country: ES
--></g></svg>