<?xml version="1.0" encoding="UTF-8" standalone="no"?><svg xmlns="http://www.w3.org/2000/svg" xmlns:xlink="http://www.w3.org/1999/xlink" contentStyleType="text/css" height="202px" preserveAspectRatio="none" style="width:665px;height:202px;background:#FFFFFF;" version="1.1" viewBox="0 0 665 202" width="665px" zoomAndPan="magnify"><defs/><g><!--MD5=[d2ccdb7000a941e5292966415be277ac]
class Vida--><g id="elem_Vida"><rect codeLine="1" fill="#F1F1F1" height="80.9766" id="Vida" rx="2.5" ry="2.5" style="stroke:#181818;stroke-width:0.5;" width="89" x="7" y="115"/><ellipse cx="34.15" cy="131" fill="#ADD1B2" rx="11" ry="11" style="stroke:#181818;stroke-width:1.0;"/><path d="M36.6231,137.1431 Q36.0421,137.4419 35.4029,137.5913 Q34.7638,137.7407 34.0582,137.7407 Q31.5514,137.7407 30.2315,136.0889 Q28.9117,134.437 28.9117,131.3159 Q28.9117,128.1865 30.2315,126.5347 Q31.5514,124.8828 34.0582,124.8828 Q34.7638,124.8828 35.4112,125.0322 Q36.0587,125.1816 36.6231,125.4805 L36.6231,128.2031 Q35.9923,127.6221 35.3988,127.3523 Q34.8053,127.0825 34.1744,127.0825 Q32.8297,127.0825 32.1449,128.1492 Q31.4601,129.2158 31.4601,131.3159 Q31.4601,133.4077 32.1449,134.4744 Q32.8297,135.541 34.1744,135.541 Q34.8053,135.541 35.3988,135.2712 Q35.9923,135.0015 36.6231,134.4204 Z " fill="#000000"/><text fill="#000000" font-family="sans-serif" font-size="14" lengthAdjust="spacing" textLength="30" x="50.85" y="136.291">Vida</text><line style="stroke:#181818;stroke-width:0.5;" x1="8" x2="95" y1="147" y2="147"/><text fill="#000000" font-family="sans-serif" font-size="14" lengthAdjust="spacing" textLength="59" x="13" y="164.5352">Personal</text><text fill="#000000" font-family="sans-serif" font-size="14" lengthAdjust="spacing" textLength="77" x="13" y="181.0234">Profesional</text><line style="stroke:#181818;stroke-width:0.5;" x1="8" x2="95" y1="187.9766" y2="187.9766"/></g><!--MD5=[97dbcee4b191b2c1ca291d5337ff648a]
class Teletrabajo--><g id="elem_Teletrabajo"><rect fill="#F1F1F1" height="48" id="Teletrabajo" rx="2.5" ry="2.5" style="stroke:#181818;stroke-width:0.5;" width="110" x="237.5" y="7"/><ellipse cx="252.5" cy="23" fill="#ADD1B2" rx="11" ry="11" style="stroke:#181818;stroke-width:1.0;"/><path d="M254.9731,29.1431 Q254.3921,29.4419 253.7529,29.5913 Q253.1138,29.7407 252.4082,29.7407 Q249.9014,29.7407 248.5815,28.0889 Q247.2617,26.437 247.2617,23.3159 Q247.2617,20.1865 248.5815,18.5347 Q249.9014,16.8828 252.4082,16.8828 Q253.1138,16.8828 253.7612,17.0322 Q254.4087,17.1816 254.9731,17.4805 L254.9731,20.2031 Q254.3423,19.6221 253.7488,19.3523 Q253.1553,19.0825 252.5244,19.0825 Q251.1797,19.0825 250.4949,20.1492 Q249.8101,21.2158 249.8101,23.3159 Q249.8101,25.4077 250.4949,26.4744 Q251.1797,27.541 252.5244,27.541 Q253.1553,27.541 253.7488,27.2712 Q254.3423,27.0015 254.9731,26.4204 Z " fill="#000000"/><text fill="#000000" font-family="sans-serif" font-size="14" lengthAdjust="spacing" textLength="78" x="266.5" y="28.291">Teletrabajo</text><line style="stroke:#181818;stroke-width:0.5;" x1="238.5" x2="346.5" y1="39" y2="39"/><line style="stroke:#181818;stroke-width:0.5;" x1="238.5" x2="346.5" y1="47" y2="47"/></g><!--MD5=[176484ce2eeaca736d80002f59920b2e]
class Tiempo--><g id="elem_Tiempo"><rect fill="#F1F1F1" height="48" id="Tiempo" rx="2.5" ry="2.5" style="stroke:#181818;stroke-width:0.5;" width="84" x="131.5" y="131.49"/><ellipse cx="146.5" cy="147.49" fill="#ADD1B2" rx="11" ry="11" style="stroke:#181818;stroke-width:1.0;"/><path d="M148.9731,153.6331 Q148.3921,153.9319 147.7529,154.0813 Q147.1138,154.2307 146.4082,154.2307 Q143.9014,154.2307 142.5815,152.5789 Q141.2617,150.927 141.2617,147.8059 Q141.2617,144.6765 142.5815,143.0247 Q143.9014,141.3728 146.4082,141.3728 Q147.1138,141.3728 147.7612,141.5222 Q148.4087,141.6716 148.9731,141.9705 L148.9731,144.6931 Q148.3423,144.1121 147.7488,143.8423 Q147.1553,143.5725 146.5244,143.5725 Q145.1797,143.5725 144.4949,144.6392 Q143.8101,145.7058 143.8101,147.8059 Q143.8101,149.8977 144.4949,150.9644 Q145.1797,152.031 146.5244,152.031 Q147.1553,152.031 147.7488,151.7612 Q148.3423,151.4915 148.9731,150.9104 Z " fill="#000000"/><text fill="#000000" font-family="sans-serif" font-size="14" lengthAdjust="spacing" textLength="52" x="160.5" y="152.781">Tiempo</text><line style="stroke:#181818;stroke-width:0.5;" x1="132.5" x2="214.5" y1="163.49" y2="163.49"/><line style="stroke:#181818;stroke-width:0.5;" x1="132.5" x2="214.5" y1="171.49" y2="171.49"/></g><!--MD5=[f143ba10880e45ceaf8e49e057cf7f24]
class Espacio--><g id="elem_Espacio"><rect fill="#F1F1F1" height="48" id="Espacio" rx="2.5" ry="2.5" style="stroke:#181818;stroke-width:0.5;" width="84" x="250.5" y="131.49"/><ellipse cx="265.5" cy="147.49" fill="#ADD1B2" rx="11" ry="11" style="stroke:#181818;stroke-width:1.0;"/><path d="M267.9731,153.6331 Q267.3921,153.9319 266.7529,154.0813 Q266.1138,154.2307 265.4082,154.2307 Q262.9014,154.2307 261.5815,152.5789 Q260.2617,150.927 260.2617,147.8059 Q260.2617,144.6765 261.5815,143.0247 Q262.9014,141.3728 265.4082,141.3728 Q266.1138,141.3728 266.7612,141.5222 Q267.4087,141.6716 267.9731,141.9705 L267.9731,144.6931 Q267.3423,144.1121 266.7488,143.8423 Q266.1553,143.5725 265.5244,143.5725 Q264.1797,143.5725 263.4949,144.6392 Q262.8101,145.7058 262.8101,147.8059 Q262.8101,149.8977 263.4949,150.9644 Q264.1797,152.031 265.5244,152.031 Q266.1553,152.031 266.7488,151.7612 Q267.3423,151.4915 267.9731,150.9104 Z " fill="#000000"/><text fill="#000000" font-family="sans-serif" font-size="14" lengthAdjust="spacing" textLength="52" x="279.5" y="152.781">Espacio</text><line style="stroke:#181818;stroke-width:0.5;" x1="251.5" x2="333.5" y1="163.49" y2="163.49"/><line style="stroke:#181818;stroke-width:0.5;" x1="251.5" x2="333.5" y1="171.49" y2="171.49"/></g><!--MD5=[40a799ab6c48195afbbe20e1989a2887]
class Distracciones--><g id="elem_Distracciones"><rect fill="#F1F1F1" height="48" id="Distracciones" rx="2.5" ry="2.5" style="stroke:#181818;stroke-width:0.5;" width="123" x="370" y="131.49"/><ellipse cx="385" cy="147.49" fill="#ADD1B2" rx="11" ry="11" style="stroke:#181818;stroke-width:1.0;"/><path d="M387.4731,153.6331 Q386.8921,153.9319 386.2529,154.0813 Q385.6138,154.2307 384.9082,154.2307 Q382.4014,154.2307 381.0815,152.5789 Q379.7617,150.927 379.7617,147.8059 Q379.7617,144.6765 381.0815,143.0247 Q382.4014,141.3728 384.9082,141.3728 Q385.6138,141.3728 386.2612,141.5222 Q386.9087,141.6716 387.4731,141.9705 L387.4731,144.6931 Q386.8423,144.1121 386.2488,143.8423 Q385.6553,143.5725 385.0244,143.5725 Q383.6797,143.5725 382.9949,144.6392 Q382.3101,145.7058 382.3101,147.8059 Q382.3101,149.8977 382.9949,150.9644 Q383.6797,152.031 385.0244,152.031 Q385.6553,152.031 386.2488,151.7612 Q386.8423,151.4915 387.4731,150.9104 Z " fill="#000000"/><text fill="#000000" font-family="sans-serif" font-size="14" lengthAdjust="spacing" textLength="91" x="399" y="152.781">Distracciones</text><line style="stroke:#181818;stroke-width:0.5;" x1="371" x2="492" y1="163.49" y2="163.49"/><line style="stroke:#181818;stroke-width:0.5;" x1="371" x2="492" y1="171.49" y2="171.49"/></g><!--MD5=[dce2bb75da5f0ebdaa19007dfbfcf055]
class Comunicación--><g id="elem_Comunicación"><rect fill="#F1F1F1" height="48" id="Comunicación" rx="2.5" ry="2.5" style="stroke:#181818;stroke-width:0.5;" width="130" x="528.5" y="131.49"/><ellipse cx="543.5" cy="147.49" fill="#ADD1B2" rx="11" ry="11" style="stroke:#181818;stroke-width:1.0;"/><path d="M545.9731,153.6331 Q545.3921,153.9319 544.7529,154.0813 Q544.1138,154.2307 543.4082,154.2307 Q540.9014,154.2307 539.5815,152.5789 Q538.2617,150.927 538.2617,147.8059 Q538.2617,144.6765 539.5815,143.0247 Q540.9014,141.3728 543.4082,141.3728 Q544.1138,141.3728 544.7612,141.5222 Q545.4087,141.6716 545.9731,141.9705 L545.9731,144.6931 Q545.3423,144.1121 544.7488,143.8423 Q544.1553,143.5725 543.5244,143.5725 Q542.1797,143.5725 541.4949,144.6392 Q540.8101,145.7058 540.8101,147.8059 Q540.8101,149.8977 541.4949,150.9644 Q542.1797,152.031 543.5244,152.031 Q544.1553,152.031 544.7488,151.7612 Q545.3423,151.4915 545.9731,150.9104 Z " fill="#000000"/><text fill="#000000" font-family="sans-serif" font-size="14" lengthAdjust="spacing" textLength="98" x="557.5" y="152.781">Comunicación</text><line style="stroke:#181818;stroke-width:0.5;" x1="529.5" x2="657.5" y1="163.49" y2="163.49"/><line style="stroke:#181818;stroke-width:0.5;" x1="529.5" x2="657.5" y1="171.49" y2="171.49"/></g><!--MD5=[8e2c030e6cd869c9d87118501b0c6fc9]
reverse link Teletrabajo to Tiempo--><g id="link_Teletrabajo_Tiempo"><path codeLine="6" d="M260.35,65.09 C240.02,86.02 214.25,112.54 196.08,131.25 " fill="none" id="Teletrabajo-backto-Tiempo" style="stroke:#181818;stroke-width:1.0;stroke-dasharray:7.0,7.0;"/><polygon fill="none" points="268.84,56.33,261.7894,57.8429,260.4741,64.933,267.5247,63.4201,268.84,56.33" style="stroke:#181818;stroke-width:1.0;"/></g><!--MD5=[e5aee63536feefa754f49b70df001872]
reverse link Teletrabajo to Espacio--><g id="link_Teletrabajo_Espacio"><path codeLine="7" d="M292.5,69.15 C292.5,89.36 292.5,113.74 292.5,131.25 " fill="none" id="Teletrabajo-backto-Espacio" style="stroke:#181818;stroke-width:1.0;stroke-dasharray:7.0,7.0;"/><polygon fill="none" points="292.5,56.33,288.5,62.33,292.5,68.33,296.5,62.33,292.5,56.33" style="stroke:#181818;stroke-width:1.0;"/></g><!--MD5=[eabb2c1bc16296cd49e74708945399a6]
reverse link Teletrabajo to Distracciones--><g id="link_Teletrabajo_Distracciones"><path codeLine="8" d="M329.4,64.52 C353.25,85.53 383.71,112.37 405.13,131.25 " fill="none" id="Teletrabajo-backto-Distracciones" style="stroke:#181818;stroke-width:1.0;stroke-dasharray:7.0,7.0;"/><polygon fill="none" points="319.97,56.33,321.832,63.2966,328.9788,64.2572,327.1168,57.2907,319.97,56.33" style="stroke:#181818;stroke-width:1.0;"/></g><!--MD5=[23481838806aae7a22f658d009cfdcd1]
reverse link Teletrabajo to Comunicación--><g id="link_Teletrabajo_Comunicación"><path codeLine="9" d="M360.6,56.33 C403.88,72.19 460.89,93.8 510.5,115 C522.09,119.96 534.43,125.62 545.96,131.07 " fill="none" id="Teletrabajo-backto-Comunicación" style="stroke:#181818;stroke-width:1.0;stroke-dasharray:7.0,7.0;"/><polygon fill="none" points="348.64,51.61,352.9052,57.4244,359.9129,55.7236,355.6477,49.9092,348.64,51.61" style="stroke:#181818;stroke-width:1.0;"/></g><!--MD5=[c56fee4f4dec9a0dad73449af817e104]
reverse link Teletrabajo to Vida--><g id="link_Teletrabajo_Vida"><path codeLine="10" d="M224.53,60.96 C190.64,76.04 149.34,95.39 113.5,115 C107.9,118.07 102.13,121.44 96.45,124.88 " fill="none" id="Teletrabajo-backto-Vida" style="stroke:#181818;stroke-width:1.0;stroke-dasharray:7.0,7.0;"/><polygon fill="none" points="236.12,55.4,229.0148,54.1689,225.1456,60.2541,232.2508,61.4852,236.12,55.4" style="stroke:#181818;stroke-width:1.0;"/></g><!--MD5=[2fe4b1773f4126172d9f476d6b9f1ebd]
@startuml
class Vida {
    Personal
    Profesional
}

Teletrabajo o.. Tiempo
Teletrabajo o.. Espacio
Teletrabajo o.. Distracciones
Teletrabajo o.. Comunicación
Teletrabajo o.. Vida
@enduml

PlantUML version 1.2022.7(Mon Aug 22 19:01:30 CEST 2022)
(GPL source distribution)
Java Runtime: Java(TM) SE Runtime Environment
JVM: Java HotSpot(TM) 64-Bit Server VM
Default Encoding: UTF-8
Language: es
Country: ES
--></g></svg>