<?xml version="1.0" encoding="UTF-8" standalone="no"?><svg xmlns="http://www.w3.org/2000/svg" xmlns:xlink="http://www.w3.org/1999/xlink" contentStyleType="text/css" height="300px" preserveAspectRatio="none" style="width:517px;height:300px;background:#FFFFFF;" version="1.1" viewBox="0 0 517 300" width="517px" zoomAndPan="magnify"><defs/><g><!--MD5=[0bc260734cc841228a159098d23b1812]
cluster Componentes--><g id="cluster_Componentes"><path d="M8.5,6 L107.5,6 A3.75,3.75 0 0 1 110,8.5 L117,29.6094 L507.5,29.6094 A2.5,2.5 0 0 1 510,32.1094 L510,99.5 A2.5,2.5 0 0 1 507.5,102 L8.5,102 A2.5,2.5 0 0 1 6,99.5 L6,8.5 A2.5,2.5 0 0 1 8.5,6 " fill="none" style="stroke:#000000;stroke-width:1.5;"/><line style="stroke:#000000;stroke-width:1.5;" x1="6" x2="117" y1="29.6094" y2="29.6094"/><text fill="#000000" font-family="sans-serif" font-size="14" font-weight="bold" lengthAdjust="spacing" textLength="98" x="10" y="22.5332">Componentes</text></g><!--MD5=[8b66b7342ebffb5468f9dad95977a8e0]
class Tarea--><g id="elem_Tarea"><rect fill="#F1F1F1" height="43.6094" id="Tarea" rx="2.5" ry="2.5" style="stroke:#181818;stroke-width:0.5;" width="44" x="22" y="42"/><text fill="#000000" font-family="sans-serif" font-size="14" lengthAdjust="spacing" textLength="38" x="25" y="61.5332">Tarea</text><line style="stroke:#181818;stroke-width:0.5;" x1="23" x2="65" y1="69.6094" y2="69.6094"/><line style="stroke:#181818;stroke-width:0.5;" x1="23" x2="65" y1="77.6094" y2="77.6094"/></g><!--MD5=[58d0a597b86e0d150e85165aee8b1098]
class Instrucciones--><g id="elem_Instrucciones"><rect fill="#F1F1F1" height="43.6094" id="Instrucciones" rx="2.5" ry="2.5" style="stroke:#181818;stroke-width:0.5;" width="89" x="101.5" y="42"/><text fill="#000000" font-family="sans-serif" font-size="14" lengthAdjust="spacing" textLength="83" x="104.5" y="61.5332">Instrucciones</text><line style="stroke:#181818;stroke-width:0.5;" x1="102.5" x2="189.5" y1="69.6094" y2="69.6094"/><line style="stroke:#181818;stroke-width:0.5;" x1="102.5" x2="189.5" y1="77.6094" y2="77.6094"/></g><!--MD5=[d933999a937b529ea3aaeeb9e325bacd]
class Contexto--><g id="elem_Contexto"><rect fill="#F1F1F1" height="43.6094" id="Contexto" rx="2.5" ry="2.5" style="stroke:#181818;stroke-width:0.5;" width="62" x="226" y="42"/><text fill="#000000" font-family="sans-serif" font-size="14" lengthAdjust="spacing" textLength="56" x="229" y="61.5332">Contexto</text><line style="stroke:#181818;stroke-width:0.5;" x1="227" x2="287" y1="69.6094" y2="69.6094"/><line style="stroke:#181818;stroke-width:0.5;" x1="227" x2="287" y1="77.6094" y2="77.6094"/></g><!--MD5=[6694c18989b8e2458a5d3d469144568d]
class Entrada--><g id="elem_Entrada"><rect fill="#F1F1F1" height="43.6094" id="Entrada" rx="2.5" ry="2.5" style="stroke:#181818;stroke-width:0.5;" width="56" x="323" y="42"/><text fill="#000000" font-family="sans-serif" font-size="14" lengthAdjust="spacing" textLength="50" x="326" y="61.5332">Entrada</text><line style="stroke:#181818;stroke-width:0.5;" x1="324" x2="378" y1="69.6094" y2="69.6094"/><line style="stroke:#181818;stroke-width:0.5;" x1="324" x2="378" y1="77.6094" y2="77.6094"/></g><!--MD5=[4c18751fa77cc560573b090f3bbf04b2]
class Parámetros--><g id="elem_Parámetros"><rect fill="#F1F1F1" height="43.6094" id="Parámetros" rx="2.5" ry="2.5" style="stroke:#181818;stroke-width:0.5;" width="79" x="414.5" y="42"/><text fill="#000000" font-family="sans-serif" font-size="14" lengthAdjust="spacing" textLength="73" x="417.5" y="61.5332">Parámetros</text><line style="stroke:#181818;stroke-width:0.5;" x1="415.5" x2="492.5" y1="69.6094" y2="69.6094"/><line style="stroke:#181818;stroke-width:0.5;" x1="415.5" x2="492.5" y1="77.6094" y2="77.6094"/></g><!--MD5=[23ac59978132272548bf992e3c610de9]
class Prompt--><g id="elem_Prompt"><rect fill="#F1F1F1" height="43.6094" id="Prompt" rx="2.5" ry="2.5" style="stroke:#181818;stroke-width:0.5;" width="51" x="231.5" y="250"/><text fill="#000000" font-family="sans-serif" font-size="14" lengthAdjust="spacing" textLength="45" x="234.5" y="269.5332">Prompt</text><line style="stroke:#181818;stroke-width:0.5;" x1="232.5" x2="281.5" y1="277.6094" y2="277.6094"/><line style="stroke:#181818;stroke-width:0.5;" x1="232.5" x2="281.5" y1="285.6094" y2="285.6094"/></g><!--MD5=[7dc4723b7980928a577f86f3637c3413]
class Receta--><g id="elem_Receta"><rect fill="#F1F1F1" height="43.6094" id="Receta" rx="2.5" ry="2.5" style="stroke:#181818;stroke-width:0.5;" width="51" x="231.5" y="146"/><text fill="#000000" font-family="sans-serif" font-size="14" lengthAdjust="spacing" textLength="45" x="234.5" y="165.5332">Receta</text><line style="stroke:#181818;stroke-width:0.5;" x1="232.5" x2="281.5" y1="173.6094" y2="173.6094"/><line style="stroke:#181818;stroke-width:0.5;" x1="232.5" x2="281.5" y1="181.6094" y2="181.6094"/></g><!--MD5=[ca1ac2803c2597e6097f5dc7b8966cef]
reverse link Receta to Prompt--><g id="link_Receta_Prompt"><path codeLine="5" d="M257,210.17 C257,223.8 257,238.41 257,249.89 " fill="none" id="Receta-backto-Prompt" style="stroke:#181818;stroke-width:1.0;"/><polygon fill="none" points="250,210.13,257,190.13,264,210.13,250,210.13" style="stroke:#181818;stroke-width:1.0;"/></g><!--MD5=[a89adcb2820a093d190b73e16a548029]
link Tarea to Receta--><g id="link_Tarea_Receta"><path codeLine="8" d="M58.81,86.05 C65.65,94.49 74.39,103.69 84,110 C125.6,137.33 181.44,152.6 218.29,160.31 " fill="none" id="Tarea-to-Receta" style="stroke:#181818;stroke-width:1.0;stroke-dasharray:7.0,7.0;"/><polygon fill="none" points="231.41,162.9,226.3033,157.8087,219.6395,160.5644,224.7462,165.6557,231.41,162.9" style="stroke:#181818;stroke-width:1.0;"/></g><!--MD5=[451a20379047f4d1098abba0bf219514]
link Instrucciones to Receta--><g id="link_Instrucciones_Receta"><path codeLine="9" d="M169,86.13 C184.92,100.77 206.36,120.47 224.09,136.76 " fill="none" id="Instrucciones-to-Receta" style="stroke:#181818;stroke-width:1.0;stroke-dasharray:7.0,7.0;"/><polygon fill="none" points="234.03,145.89,232.3204,138.8845,225.1962,137.7682,226.9058,144.7737,234.03,145.89" style="stroke:#181818;stroke-width:1.0;"/></g><!--MD5=[6e01a151d4ef6ef386ed81810cfb60c4]
link Contexto to Receta--><g id="link_Contexto_Receta"><path codeLine="10" d="M257,86.13 C257,99.54 257,117.19 257,132.58 " fill="none" id="Contexto-to-Receta" style="stroke:#181818;stroke-width:1.0;stroke-dasharray:7.0,7.0;"/><polygon fill="none" points="257,145.89,261,139.89,257,133.89,253,139.89,257,145.89" style="stroke:#181818;stroke-width:1.0;"/></g><!--MD5=[0f6f68f04622246e6bf664764b665262]
link Entrada to Receta--><g id="link_Entrada_Receta"><path codeLine="11" d="M331.52,86.13 C318.16,100.63 300.22,120.1 285.29,136.3 " fill="none" id="Entrada-to-Receta" style="stroke:#181818;stroke-width:1.0;stroke-dasharray:7.0,7.0;"/><polygon fill="none" points="276.45,145.89,283.4582,144.1913,284.5855,137.0688,277.5774,138.7676,276.45,145.89" style="stroke:#181818;stroke-width:1.0;"/></g><!--MD5=[efee1eeb2674383b1891dd95146c05d9]
link Parámetros to Receta--><g id="link_Parámetros_Receta"><path codeLine="12" d="M430.4,86.09 C420.53,94.23 408.66,103.21 397,110 C364.26,129.07 323.92,144.76 294.96,154.82 " fill="none" id="Parámetros-to-Receta" style="stroke:#181818;stroke-width:1.0;stroke-dasharray:7.0,7.0;"/><polygon fill="none" points="282.53,159.04,289.4962,160.9035,293.8956,155.1899,286.9294,153.3264,282.53,159.04" style="stroke:#181818;stroke-width:1.0;"/></g><!--MD5=[5d4b5e02daccea3b566649331ff589f4]
@startuml
hide circle
hide stereotype
' hide empty members

Prompt -u-|> Receta

package Componentes {
    Receta o.u. Tarea
    Receta o.u. Instrucciones
    Receta o.u. Contexto
    Receta o.u. Entrada
    Receta o.u. Parámetros
}
@enduml

@startuml
hide circle
hide stereotype

Prompt -u-|> Receta

package Componentes {
    Receta o.u. Tarea
    Receta o.u. Instrucciones
    Receta o.u. Contexto
    Receta o.u. Entrada
    Receta o.u. Parámetros
}
@enduml

PlantUML version 1.2022.7(Mon Aug 22 19:01:30 CEST 2022)
(GPL source distribution)
Java Runtime: Java(TM) SE Runtime Environment
JVM: Java HotSpot(TM) 64-Bit Server VM
Default Encoding: UTF-8
Language: es
Country: ES
--></g></svg>