<?xml version="1.0" encoding="UTF-8" standalone="no"?><svg xmlns="http://www.w3.org/2000/svg" xmlns:xlink="http://www.w3.org/1999/xlink" contentStyleType="text/css" height="278px" preserveAspectRatio="none" style="width:632px;height:278px;background:#FFFFFF;" version="1.1" viewBox="0 0 632 278" width="632px" zoomAndPan="magnify"><defs/><g><!--MD5=[23ac59978132272548bf992e3c610de9]
class Prompt--><g id="elem_Prompt"><rect fill="#F1F1F1" height="48" id="Prompt" rx="2.5" ry="2.5" style="stroke:#181818;stroke-width:0.5;" width="81" x="253.5" y="7"/><ellipse cx="268.5" cy="23" fill="#ADD1B2" rx="11" ry="11" style="stroke:#181818;stroke-width:1.0;"/><path d="M267.9688,29.9219 Q266.2188,29.9219 265.0781,29.1875 Q263.9531,28.4375 263.3906,27.0938 Q262.8438,25.7344 262.8438,23.9375 Q262.8438,21.9063 263.5,20.4531 Q264.1563,19 265.4375,18.2188 Q266.7188,17.4375 268.5938,17.4375 Q269.4844,17.4375 270.1563,17.625 Q270.8281,17.7969 271.5156,18.1406 L270.7031,20.1563 Q270.0781,19.8438 269.5313,19.7188 Q269,19.5938 268.5156,19.5938 Q267.3438,19.5938 266.6406,20.125 Q265.9375,20.6563 265.6406,21.6094 Q265.3438,22.5625 265.3438,23.8281 Q265.3438,25.8438 266.0625,26.8125 Q266.7813,27.7656 268.375,27.7656 Q268.9688,27.7656 269.5938,27.6094 Q270.2188,27.4531 271.0469,27.0781 L271.0469,29.2969 Q270.3125,29.6094 269.5156,29.7656 Q268.7344,29.9219 267.9688,29.9219 Z " fill="#000000"/><text fill="#000000" font-family="sans-serif" font-size="14" lengthAdjust="spacing" textLength="49" x="282.5" y="28.432">Prompt</text><line style="stroke:#181818;stroke-width:0.5;" x1="254.5" x2="333.5" y1="39" y2="39"/><line style="stroke:#181818;stroke-width:0.5;" x1="254.5" x2="333.5" y1="47" y2="47"/></g><!--MD5=[7dc4723b7980928a577f86f3637c3413]
class Receta--><g id="elem_Receta"><rect fill="#F1F1F1" height="48" id="Receta" rx="2.5" ry="2.5" style="stroke:#181818;stroke-width:0.5;" width="77" x="255.5" y="115"/><ellipse cx="270.5" cy="131" fill="#ADD1B2" rx="11" ry="11" style="stroke:#181818;stroke-width:1.0;"/><path d="M269.9688,137.9219 Q268.2188,137.9219 267.0781,137.1875 Q265.9531,136.4375 265.3906,135.0938 Q264.8438,133.7344 264.8438,131.9375 Q264.8438,129.9063 265.5,128.4531 Q266.1563,127 267.4375,126.2188 Q268.7188,125.4375 270.5938,125.4375 Q271.4844,125.4375 272.1563,125.625 Q272.8281,125.7969 273.5156,126.1406 L272.7031,128.1563 Q272.0781,127.8438 271.5313,127.7188 Q271,127.5938 270.5156,127.5938 Q269.3438,127.5938 268.6406,128.125 Q267.9375,128.6563 267.6406,129.6094 Q267.3438,130.5625 267.3438,131.8281 Q267.3438,133.8438 268.0625,134.8125 Q268.7813,135.7656 270.375,135.7656 Q270.9688,135.7656 271.5938,135.6094 Q272.2188,135.4531 273.0469,135.0781 L273.0469,137.2969 Q272.3125,137.6094 271.5156,137.7656 Q270.7344,137.9219 269.9688,137.9219 Z " fill="#000000"/><text fill="#000000" font-family="sans-serif" font-size="14" lengthAdjust="spacing" textLength="45" x="284.5" y="136.432">Receta</text><line style="stroke:#181818;stroke-width:0.5;" x1="256.5" x2="331.5" y1="147" y2="147"/><line style="stroke:#181818;stroke-width:0.5;" x1="256.5" x2="331.5" y1="155" y2="155"/></g><!--MD5=[8b66b7342ebffb5468f9dad95977a8e0]
class Tarea--><g id="elem_Tarea"><rect fill="#F1F1F1" height="48" id="Tarea" rx="2.5" ry="2.5" style="stroke:#181818;stroke-width:0.5;" width="70" x="7" y="223"/><ellipse cx="22" cy="239" fill="#ADD1B2" rx="11" ry="11" style="stroke:#181818;stroke-width:1.0;"/><path d="M21.4688,245.9219 Q19.7188,245.9219 18.5781,245.1875 Q17.4531,244.4375 16.8906,243.0938 Q16.3438,241.7344 16.3438,239.9375 Q16.3438,237.9063 17,236.4531 Q17.6563,235 18.9375,234.2188 Q20.2188,233.4375 22.0938,233.4375 Q22.9844,233.4375 23.6563,233.625 Q24.3281,233.7969 25.0156,234.1406 L24.2031,236.1563 Q23.5781,235.8438 23.0313,235.7188 Q22.5,235.5938 22.0156,235.5938 Q20.8438,235.5938 20.1406,236.125 Q19.4375,236.6563 19.1406,237.6094 Q18.8438,238.5625 18.8438,239.8281 Q18.8438,241.8438 19.5625,242.8125 Q20.2813,243.7656 21.875,243.7656 Q22.4688,243.7656 23.0938,243.6094 Q23.7188,243.4531 24.5469,243.0781 L24.5469,245.2969 Q23.8125,245.6094 23.0156,245.7656 Q22.2344,245.9219 21.4688,245.9219 Z " fill="#000000"/><text fill="#000000" font-family="sans-serif" font-size="14" lengthAdjust="spacing" textLength="38" x="36" y="244.432">Tarea</text><line style="stroke:#181818;stroke-width:0.5;" x1="8" x2="76" y1="255" y2="255"/><line style="stroke:#181818;stroke-width:0.5;" x1="8" x2="76" y1="263" y2="263"/></g><!--MD5=[6694c18989b8e2458a5d3d469144568d]
class Entrada--><g id="elem_Entrada"><rect fill="#F1F1F1" height="48" id="Entrada" rx="2.5" ry="2.5" style="stroke:#181818;stroke-width:0.5;" width="85" x="112.5" y="223"/><ellipse cx="127.5" cy="239" fill="#ADD1B2" rx="11" ry="11" style="stroke:#181818;stroke-width:1.0;"/><path d="M126.9688,245.9219 Q125.2188,245.9219 124.0781,245.1875 Q122.9531,244.4375 122.3906,243.0938 Q121.8438,241.7344 121.8438,239.9375 Q121.8438,237.9063 122.5,236.4531 Q123.1563,235 124.4375,234.2188 Q125.7188,233.4375 127.5938,233.4375 Q128.4844,233.4375 129.1563,233.625 Q129.8281,233.7969 130.5156,234.1406 L129.7031,236.1563 Q129.0781,235.8438 128.5313,235.7188 Q128,235.5938 127.5156,235.5938 Q126.3438,235.5938 125.6406,236.125 Q124.9375,236.6563 124.6406,237.6094 Q124.3438,238.5625 124.3438,239.8281 Q124.3438,241.8438 125.0625,242.8125 Q125.7813,243.7656 127.375,243.7656 Q127.9688,243.7656 128.5938,243.6094 Q129.2188,243.4531 130.0469,243.0781 L130.0469,245.2969 Q129.3125,245.6094 128.5156,245.7656 Q127.7344,245.9219 126.9688,245.9219 Z " fill="#000000"/><text fill="#000000" font-family="sans-serif" font-size="14" lengthAdjust="spacing" textLength="53" x="141.5" y="244.432">Entrada</text><line style="stroke:#181818;stroke-width:0.5;" x1="113.5" x2="196.5" y1="255" y2="255"/><line style="stroke:#181818;stroke-width:0.5;" x1="113.5" x2="196.5" y1="263" y2="263"/></g><!--MD5=[58d0a597b86e0d150e85165aee8b1098]
class Instrucciones--><g id="elem_Instrucciones"><rect fill="#F1F1F1" height="48" id="Instrucciones" rx="2.5" ry="2.5" style="stroke:#181818;stroke-width:0.5;" width="123" x="232.5" y="223"/><ellipse cx="247.5" cy="239" fill="#ADD1B2" rx="11" ry="11" style="stroke:#181818;stroke-width:1.0;"/><path d="M246.9688,245.9219 Q245.2188,245.9219 244.0781,245.1875 Q242.9531,244.4375 242.3906,243.0938 Q241.8438,241.7344 241.8438,239.9375 Q241.8438,237.9063 242.5,236.4531 Q243.1563,235 244.4375,234.2188 Q245.7188,233.4375 247.5938,233.4375 Q248.4844,233.4375 249.1563,233.625 Q249.8281,233.7969 250.5156,234.1406 L249.7031,236.1563 Q249.0781,235.8438 248.5313,235.7188 Q248,235.5938 247.5156,235.5938 Q246.3438,235.5938 245.6406,236.125 Q244.9375,236.6563 244.6406,237.6094 Q244.3438,238.5625 244.3438,239.8281 Q244.3438,241.8438 245.0625,242.8125 Q245.7813,243.7656 247.375,243.7656 Q247.9688,243.7656 248.5938,243.6094 Q249.2188,243.4531 250.0469,243.0781 L250.0469,245.2969 Q249.3125,245.6094 248.5156,245.7656 Q247.7344,245.9219 246.9688,245.9219 Z " fill="#000000"/><text fill="#000000" font-family="sans-serif" font-size="14" lengthAdjust="spacing" textLength="91" x="261.5" y="244.432">Instrucciones</text><line style="stroke:#181818;stroke-width:0.5;" x1="233.5" x2="354.5" y1="255" y2="255"/><line style="stroke:#181818;stroke-width:0.5;" x1="233.5" x2="354.5" y1="263" y2="263"/></g><!--MD5=[4c18751fa77cc560573b090f3bbf04b2]
class Parámetros--><g id="elem_Parámetros"><rect fill="#F1F1F1" height="48" id="Parámetros" rx="2.5" ry="2.5" style="stroke:#181818;stroke-width:0.5;" width="109" x="390.5" y="223"/><ellipse cx="405.5" cy="239" fill="#ADD1B2" rx="11" ry="11" style="stroke:#181818;stroke-width:1.0;"/><path d="M404.9688,245.9219 Q403.2188,245.9219 402.0781,245.1875 Q400.9531,244.4375 400.3906,243.0938 Q399.8438,241.7344 399.8438,239.9375 Q399.8438,237.9063 400.5,236.4531 Q401.1563,235 402.4375,234.2188 Q403.7188,233.4375 405.5938,233.4375 Q406.4844,233.4375 407.1563,233.625 Q407.8281,233.7969 408.5156,234.1406 L407.7031,236.1563 Q407.0781,235.8438 406.5313,235.7188 Q406,235.5938 405.5156,235.5938 Q404.3438,235.5938 403.6406,236.125 Q402.9375,236.6563 402.6406,237.6094 Q402.3438,238.5625 402.3438,239.8281 Q402.3438,241.8438 403.0625,242.8125 Q403.7813,243.7656 405.375,243.7656 Q405.9688,243.7656 406.5938,243.6094 Q407.2188,243.4531 408.0469,243.0781 L408.0469,245.2969 Q407.3125,245.6094 406.5156,245.7656 Q405.7344,245.9219 404.9688,245.9219 Z " fill="#000000"/><text fill="#000000" font-family="sans-serif" font-size="14" lengthAdjust="spacing" textLength="77" x="419.5" y="244.432">Parámetros</text><line style="stroke:#181818;stroke-width:0.5;" x1="391.5" x2="498.5" y1="255" y2="255"/><line style="stroke:#181818;stroke-width:0.5;" x1="391.5" x2="498.5" y1="263" y2="263"/></g><!--MD5=[d933999a937b529ea3aaeeb9e325bacd]
class Contexto--><g id="elem_Contexto"><rect fill="#F1F1F1" height="48" id="Contexto" rx="2.5" ry="2.5" style="stroke:#181818;stroke-width:0.5;" width="91" x="534.5" y="223"/><ellipse cx="549.5" cy="239" fill="#ADD1B2" rx="11" ry="11" style="stroke:#181818;stroke-width:1.0;"/><path d="M548.9688,245.9219 Q547.2188,245.9219 546.0781,245.1875 Q544.9531,244.4375 544.3906,243.0938 Q543.8438,241.7344 543.8438,239.9375 Q543.8438,237.9063 544.5,236.4531 Q545.1563,235 546.4375,234.2188 Q547.7188,233.4375 549.5938,233.4375 Q550.4844,233.4375 551.1563,233.625 Q551.8281,233.7969 552.5156,234.1406 L551.7031,236.1563 Q551.0781,235.8438 550.5313,235.7188 Q550,235.5938 549.5156,235.5938 Q548.3438,235.5938 547.6406,236.125 Q546.9375,236.6563 546.6406,237.6094 Q546.3438,238.5625 546.3438,239.8281 Q546.3438,241.8438 547.0625,242.8125 Q547.7813,243.7656 549.375,243.7656 Q549.9688,243.7656 550.5938,243.6094 Q551.2188,243.4531 552.0469,243.0781 L552.0469,245.2969 Q551.3125,245.6094 550.5156,245.7656 Q549.7344,245.9219 548.9688,245.9219 Z " fill="#000000"/><text fill="#000000" font-family="sans-serif" font-size="14" lengthAdjust="spacing" textLength="59" x="563.5" y="244.432">Contexto</text><line style="stroke:#181818;stroke-width:0.5;" x1="535.5" x2="624.5" y1="255" y2="255"/><line style="stroke:#181818;stroke-width:0.5;" x1="535.5" x2="624.5" y1="263" y2="263"/></g><!--MD5=[d544001b04a73bc8f9f109f6c36fb0ba]
link Prompt to Receta--><g id="link_Prompt_Receta"><path codeLine="1" d="M294,55 C294,66.59 294,81.03 294,94.6 " fill="none" id="Prompt-to-Receta" style="stroke:#181818;stroke-width:1.0;"/><polygon fill="none" points="301,94.68,294,114.68,287,94.68,301,94.68" style="stroke:#181818;stroke-width:1.0;"/></g><!--MD5=[8b8cc8456a6fa805b085c7b1c1cabbfa]
reverse link Receta to Tarea--><g id="link_Receta_Tarea"><path codeLine="3" d="M243.24,160.94 C202.98,177.6 145.3,201.6 95,223 C89.19,225.47 83.02,228.12 77.04,230.71 " fill="none" id="Receta-backto-Tarea" style="stroke:#181818;stroke-width:1.0;stroke-dasharray:7.0,7.0;"/><polygon fill="none" points="255.41,155.9,248.3365,154.498,244.3218,160.4882,251.3953,161.8902,255.41,155.9" style="stroke:#181818;stroke-width:1.0;"/></g><!--MD5=[eefe981a2e5dfed4079bbe688254e19c]
reverse link Receta to Entrada--><g id="link_Receta_Entrada"><path codeLine="4" d="M253.31,171.03 C231.66,187.54 205.48,207.5 185.58,222.68 " fill="none" id="Receta-backto-Entrada" style="stroke:#181818;stroke-width:1.0;stroke-dasharray:7.0,7.0;"/><polygon fill="none" points="263.84,163,256.6437,163.4617,254.3021,170.2821,261.4984,169.8203,263.84,163" style="stroke:#181818;stroke-width:1.0;"/></g><!--MD5=[2358a6d37f8b480e8766efcdc29f9b97]
reverse link Receta to Instrucciones--><g id="link_Receta_Instrucciones"><path codeLine="5" d="M294,176.34 C294,191.68 294,209.1 294,222.68 " fill="none" id="Receta-backto-Instrucciones" style="stroke:#181818;stroke-width:1.0;stroke-dasharray:7.0,7.0;"/><polygon fill="none" points="294,163,290,169,294,175,298,169,294,163" style="stroke:#181818;stroke-width:1.0;"/></g><!--MD5=[bb471f5b318f68581c3c1f85343762f3]
reverse link Receta to Parámetros--><g id="link_Receta_Parámetros"><path codeLine="6" d="M337.6,170.61 C361.33,187.26 390.21,207.54 412.04,222.86 " fill="none" id="Receta-backto-Parámetros" style="stroke:#181818;stroke-width:1.0;stroke-dasharray:7.0,7.0;"/><polygon fill="none" points="326.76,163,329.3682,169.7229,336.5771,169.901,333.9689,163.1781,326.76,163" style="stroke:#181818;stroke-width:1.0;"/></g><!--MD5=[80a93a7466a18418dcf3e24f29399667]
reverse link Receta to Contexto--><g id="link_Receta_Contexto"><path codeLine="7" d="M344.86,158.85 C398.51,178.73 482.29,209.79 534.02,228.96 " fill="none" id="Receta-backto-Contexto" style="stroke:#181818;stroke-width:1.0;stroke-dasharray:7.0,7.0;"/><polygon fill="none" points="332.57,154.3,336.8068,160.1352,343.8227,158.4686,339.5859,152.6334,332.57,154.3" style="stroke:#181818;stroke-width:1.0;"/></g><!--MD5=[6179fcb92852b6775901974c9b9e1a90]
@startuml
    Prompt - -|> Receta

    Receta o.. Tarea
    Receta o.. Entrada
    Receta o.. Instrucciones
    Receta o.. Parámetros
    Receta o.. Contexto
@enduml

PlantUML version 1.2022.7(Mon Aug 22 19:01:30 CEST 2022)
(GPL source distribution)
Java Runtime: OpenJDK Runtime Environment
JVM: OpenJDK 64-Bit Server VM
Default Encoding: UTF-8
Language: es
Country: ES
--></g></svg>