<?xml version="1.0" encoding="UTF-8" standalone="no"?><svg xmlns="http://www.w3.org/2000/svg" xmlns:xlink="http://www.w3.org/1999/xlink" contentStyleType="text/css" height="306px" preserveAspectRatio="none" style="width:535px;height:306px;background:#FFFFFF;" version="1.1" viewBox="0 0 535 306" width="535px" zoomAndPan="magnify"><defs/><g><!--MD5=[0bc260734cc841228a159098d23b1812]
cluster Componentes--><g id="cluster_Componentes"><path d="M8.5,6.602 L106.5,6.602 A3.75,3.75 0 0 1 109,9.102 L116,31.6699 L525.5,31.6699 A2.5,2.5 0 0 1 528,34.1699 L528,103.102 A2.5,2.5 0 0 1 525.5,105.602 L8.5,105.602 A2.5,2.5 0 0 1 6,103.102 L6,9.102 A2.5,2.5 0 0 1 8.5,6.602 " fill="none" style="stroke:#000000;stroke-width:1.5;"/><line style="stroke:#000000;stroke-width:1.5;" x1="6" x2="116" y1="31.6699" y2="31.6699"/><text fill="#000000" font-family="sans-serif" font-size="14" font-weight="bold" lengthAdjust="spacing" textLength="97" x="10" y="23.5679">Componentes</text></g><!--MD5=[8b66b7342ebffb5468f9dad95977a8e0]
class Tarea--><g id="elem_Tarea"><rect codeLine="8" fill="#F1F1F1" height="45.0679" id="Tarea" rx="2.5" ry="2.5" style="stroke:#181818;stroke-width:0.5;" width="44" x="255" y="44.602"/><text fill="#000000" font-family="sans-serif" font-size="14" lengthAdjust="spacing" textLength="38" x="258" y="64.5679">Tarea</text><line style="stroke:#181818;stroke-width:0.5;" x1="256" x2="298" y1="73.6699" y2="73.6699"/><line style="stroke:#181818;stroke-width:0.5;" x1="256" x2="298" y1="81.6699" y2="81.6699"/></g><!--MD5=[6694c18989b8e2458a5d3d469144568d]
class Entrada--><g id="elem_Entrada"><rect codeLine="12" fill="#F1F1F1" height="45.0679" id="Entrada" rx="2.5" ry="2.5" style="stroke:#181818;stroke-width:0.5;" width="59" x="334.5" y="44.602"/><text fill="#000000" font-family="sans-serif" font-size="14" lengthAdjust="spacing" textLength="53" x="337.5" y="64.5679">Entrada</text><line style="stroke:#181818;stroke-width:0.5;" x1="335.5" x2="392.5" y1="73.6699" y2="73.6699"/><line style="stroke:#181818;stroke-width:0.5;" x1="335.5" x2="392.5" y1="81.6699" y2="81.6699"/></g><!--MD5=[58d0a597b86e0d150e85165aee8b1098]
class Instrucciones--><g id="elem_Instrucciones"><rect codeLine="10" fill="#F1F1F1" height="45.0679" id="Instrucciones" rx="2.5" ry="2.5" style="stroke:#181818;stroke-width:0.5;" width="97" x="122.5" y="44.602"/><text fill="#000000" font-family="sans-serif" font-size="14" lengthAdjust="spacing" textLength="91" x="125.5" y="64.5679">Instrucciones</text><line style="stroke:#181818;stroke-width:0.5;" x1="123.5" x2="218.5" y1="73.6699" y2="73.6699"/><line style="stroke:#181818;stroke-width:0.5;" x1="123.5" x2="218.5" y1="81.6699" y2="81.6699"/></g><!--MD5=[4c18751fa77cc560573b090f3bbf04b2]
class Parámetros--><g id="elem_Parámetros"><rect codeLine="11" fill="#F1F1F1" height="45.0679" id="Parámetros" rx="2.5" ry="2.5" style="stroke:#181818;stroke-width:0.5;" width="83" x="428.5" y="44.602"/><text fill="#000000" font-family="sans-serif" font-size="14" lengthAdjust="spacing" textLength="77" x="431.5" y="64.5679">Parámetros</text><line style="stroke:#181818;stroke-width:0.5;" x1="429.5" x2="510.5" y1="73.6699" y2="73.6699"/><line style="stroke:#181818;stroke-width:0.5;" x1="429.5" x2="510.5" y1="81.6699" y2="81.6699"/></g><!--MD5=[d933999a937b529ea3aaeeb9e325bacd]
class Contexto--><g id="elem_Contexto"><rect fill="#F1F1F1" height="45.0679" id="Contexto" rx="2.5" ry="2.5" style="stroke:#181818;stroke-width:0.5;" width="65" x="22.5" y="44.602"/><text fill="#000000" font-family="sans-serif" font-size="14" lengthAdjust="spacing" textLength="59" x="25.5" y="64.5679">Contexto</text><line style="stroke:#181818;stroke-width:0.5;" x1="23.5" x2="86.5" y1="73.6699" y2="73.6699"/><line style="stroke:#181818;stroke-width:0.5;" x1="23.5" x2="86.5" y1="81.6699" y2="81.6699"/></g><!--MD5=[23ac59978132272548bf992e3c610de9]
class Prompt--><g id="elem_Prompt"><rect fill="#F1F1F1" height="45.0679" id="Prompt" rx="2.5" ry="2.5" style="stroke:#181818;stroke-width:0.5;" width="55" x="249.5" y="254.602"/><text fill="#000000" font-family="sans-serif" font-size="14" lengthAdjust="spacing" textLength="49" x="252.5" y="274.5679">Prompt</text><line style="stroke:#181818;stroke-width:0.5;" x1="250.5" x2="303.5" y1="283.6699" y2="283.6699"/><line style="stroke:#181818;stroke-width:0.5;" x1="250.5" x2="303.5" y1="291.6699" y2="291.6699"/></g><!--MD5=[7dc4723b7980928a577f86f3637c3413]
class Receta--><g id="elem_Receta"><rect fill="#F1F1F1" height="45.0679" id="Receta" rx="2.5" ry="2.5" style="stroke:#181818;stroke-width:0.5;" width="51" x="251.5" y="149.602"/><text fill="#000000" font-family="sans-serif" font-size="14" lengthAdjust="spacing" textLength="45" x="254.5" y="169.5679">Receta</text><line style="stroke:#181818;stroke-width:0.5;" x1="252.5" x2="301.5" y1="178.6699" y2="178.6699"/><line style="stroke:#181818;stroke-width:0.5;" x1="252.5" x2="301.5" y1="186.6699" y2="186.6699"/></g><!--MD5=[ca1ac2803c2597e6097f5dc7b8966cef]
reverse link Receta to Prompt--><g id="link_Receta_Prompt"><path codeLine="5" d="M277,215.342 C277,228.722 277,242.962 277,254.292 " fill="none" id="Receta-backto-Prompt" style="stroke:#181818;stroke-width:1.0;"/><polygon fill="none" points="270,214.942,277,194.942,284,214.942,270,214.942" style="stroke:#181818;stroke-width:1.0;"/></g><!--MD5=[6e01a151d4ef6ef386ed81810cfb60c4]
link Contexto to Receta--><g id="link_Contexto_Receta"><path codeLine="14" d="M74.85,89.712 C83.46,98.092 94.07,107.192 105,113.602 C147.5,138.532 202.32,154.472 238.51,163.092 " fill="none" id="Contexto-to-Receta" style="stroke:#181818;stroke-width:1.0;stroke-dasharray:7.0,7.0;"/><polygon fill="none" points="251.41,166.042,246.4536,160.8042,239.7124,163.3649,244.6688,168.6026,251.41,166.042" style="stroke:#181818;stroke-width:1.0;"/></g><!--MD5=[451a20379047f4d1098abba0bf219514]
link Instrucciones to Receta--><g id="link_Instrucciones_Receta"><path codeLine="15" d="M193.22,89.692 C208.34,104.392 228.58,124.052 245.38,140.382 " fill="none" id="Instrucciones-to-Receta" style="stroke:#181818;stroke-width:1.0;stroke-dasharray:7.0,7.0;"/><polygon fill="none" points="254.81,149.542,253.2971,142.4914,246.207,141.1761,247.7199,148.2267,254.81,149.542" style="stroke:#181818;stroke-width:1.0;"/></g><!--MD5=[a89adcb2820a093d190b73e16a548029]
link Tarea to Receta--><g id="link_Tarea_Receta"><path codeLine="16" d="M277,89.942 C277,103.332 277,120.762 277,136.042 " fill="none" id="Tarea-to-Receta" style="stroke:#181818;stroke-width:1.0;stroke-dasharray:7.0,7.0;"/><polygon fill="none" points="277,149.292,281,143.292,277,137.292,273,143.292,277,149.292" style="stroke:#181818;stroke-width:1.0;"/></g><!--MD5=[0f6f68f04622246e6bf664764b665262]
link Entrada to Receta--><g id="link_Entrada_Receta"><path codeLine="17" d="M345.55,89.942 C333.44,104.282 317.4,123.272 303.88,139.282 " fill="none" id="Entrada-to-Receta" style="stroke:#181818;stroke-width:1.0;stroke-dasharray:7.0,7.0;"/><polygon fill="none" points="295.42,149.292,302.3474,147.2892,303.163,140.1243,296.2356,142.1272,295.42,149.292" style="stroke:#181818;stroke-width:1.0;"/></g><!--MD5=[efee1eeb2674383b1891dd95146c05d9]
link Parámetros to Receta--><g id="link_Parámetros_Receta"><path codeLine="18" d="M444.86,89.742 C434.74,97.832 422.71,106.722 411,113.602 C380.1,131.752 342.39,147.412 314.86,157.792 " fill="none" id="Parámetros-to-Receta" style="stroke:#181818;stroke-width:1.0;stroke-dasharray:7.0,7.0;"/><polygon fill="none" points="302.61,162.312,309.6235,163.9885,313.8685,158.1592,306.855,156.4828,302.61,162.312" style="stroke:#181818;stroke-width:1.0;"/></g><!--MD5=[397426088ebb093d2d820c6cd095a005]
@startuml
hide circle
hide stereotype
' hide empty members

Prompt -u-|> Receta

package Componentes {
    class Tarea
    class Entrada
    class Instrucciones
    class Parámetros
    class Entrada

    Receta o.u. Contexto
    Receta o.u. Instrucciones
    Receta o.u. Tarea
    Receta o.u. Entrada
    Receta o.u. Parámetros
}

@enduml

@startuml
hide circle
hide stereotype

Prompt -u-|> Receta

package Componentes {
    class Tarea
    class Entrada
    class Instrucciones
    class Parámetros
    class Entrada

    Receta o.u. Contexto
    Receta o.u. Instrucciones
    Receta o.u. Tarea
    Receta o.u. Entrada
    Receta o.u. Parámetros
}

@enduml

PlantUML version 1.2022.7(Mon Aug 22 19:01:30 CEST 2022)
(GPL source distribution)
Java Runtime: OpenJDK Runtime Environment
JVM: OpenJDK 64-Bit Server VM
Default Encoding: UTF-8
Language: es
Country: ES
--></g></svg>