<?xml version="1.0" encoding="UTF-8" standalone="no"?><svg xmlns="http://www.w3.org/2000/svg" xmlns:xlink="http://www.w3.org/1999/xlink" contentStyleType="text/css" height="315px" preserveAspectRatio="none" style="width:664px;height:315px;background:#FFFFFF;" version="1.1" viewBox="0 0 664 315" width="664px" zoomAndPan="magnify"><defs/><g><!--MD5=[0bc260734cc841228a159098d23b1812]
cluster Componentes--><g id="cluster_Componentes"><path d="M8.5,6.602 L106.5,6.602 A3.75,3.75 0 0 1 109,9.102 L116,31.6699 L654.5,31.6699 A2.5,2.5 0 0 1 657,34.1699 L657,106.102 A2.5,2.5 0 0 1 654.5,108.602 L8.5,108.602 A2.5,2.5 0 0 1 6,106.102 L6,9.102 A2.5,2.5 0 0 1 8.5,6.602 " fill="none" style="stroke:#000000;stroke-width:1.5;"/><line style="stroke:#000000;stroke-width:1.5;" x1="6" x2="116" y1="31.6699" y2="31.6699"/><text fill="#000000" font-family="sans-serif" font-size="14" font-weight="bold" lengthAdjust="spacing" textLength="97" x="10" y="23.5679">Componentes</text></g><!--MD5=[8b66b7342ebffb5468f9dad95977a8e0]
class Tarea--><g id="elem_Tarea"><rect codeLine="4" fill="#F1F1F1" height="48" id="Tarea" rx="2.5" ry="2.5" style="stroke:#181818;stroke-width:0.5;" width="70" x="22" y="44.602"/><ellipse cx="37" cy="60.602" fill="#ADD1B2" rx="11" ry="11" style="stroke:#181818;stroke-width:1.0;"/><path d="M36.4688,67.5239 Q34.7188,67.5239 33.5781,66.7895 Q32.4531,66.0395 31.8906,64.6957 Q31.3438,63.3364 31.3438,61.5395 Q31.3438,59.5082 32,58.0551 Q32.6563,56.602 33.9375,55.8207 Q35.2188,55.0395 37.0938,55.0395 Q37.9844,55.0395 38.6563,55.227 Q39.3281,55.3989 40.0156,55.7426 L39.2031,57.7582 Q38.5781,57.4457 38.0313,57.3207 Q37.5,57.1957 37.0156,57.1957 Q35.8438,57.1957 35.1406,57.727 Q34.4375,58.2582 34.1406,59.2114 Q33.8438,60.1645 33.8438,61.4301 Q33.8438,63.4457 34.5625,64.4145 Q35.2813,65.3676 36.875,65.3676 Q37.4688,65.3676 38.0938,65.2114 Q38.7188,65.0551 39.5469,64.6801 L39.5469,66.8989 Q38.8125,67.2114 38.0156,67.3676 Q37.2344,67.5239 36.4688,67.5239 Z " fill="#000000"/><text fill="#000000" font-family="sans-serif" font-size="14" lengthAdjust="spacing" textLength="38" x="51" y="66.034">Tarea</text><line style="stroke:#181818;stroke-width:0.5;" x1="23" x2="91" y1="76.602" y2="76.602"/><line style="stroke:#181818;stroke-width:0.5;" x1="23" x2="91" y1="84.602" y2="84.602"/></g><!--MD5=[6694c18989b8e2458a5d3d469144568d]
class Entrada--><g id="elem_Entrada"><rect codeLine="8" fill="#F1F1F1" height="48" id="Entrada" rx="2.5" ry="2.5" style="stroke:#181818;stroke-width:0.5;" width="85" x="127.5" y="44.602"/><ellipse cx="142.5" cy="60.602" fill="#ADD1B2" rx="11" ry="11" style="stroke:#181818;stroke-width:1.0;"/><path d="M141.9688,67.5239 Q140.2188,67.5239 139.0781,66.7895 Q137.9531,66.0395 137.3906,64.6957 Q136.8438,63.3364 136.8438,61.5395 Q136.8438,59.5082 137.5,58.0551 Q138.1563,56.602 139.4375,55.8207 Q140.7188,55.0395 142.5938,55.0395 Q143.4844,55.0395 144.1563,55.227 Q144.8281,55.3989 145.5156,55.7426 L144.7031,57.7582 Q144.0781,57.4457 143.5313,57.3207 Q143,57.1957 142.5156,57.1957 Q141.3438,57.1957 140.6406,57.727 Q139.9375,58.2582 139.6406,59.2114 Q139.3438,60.1645 139.3438,61.4301 Q139.3438,63.4457 140.0625,64.4145 Q140.7813,65.3676 142.375,65.3676 Q142.9688,65.3676 143.5938,65.2114 Q144.2188,65.0551 145.0469,64.6801 L145.0469,66.8989 Q144.3125,67.2114 143.5156,67.3676 Q142.7344,67.5239 141.9688,67.5239 Z " fill="#000000"/><text fill="#000000" font-family="sans-serif" font-size="14" lengthAdjust="spacing" textLength="53" x="156.5" y="66.034">Entrada</text><line style="stroke:#181818;stroke-width:0.5;" x1="128.5" x2="211.5" y1="76.602" y2="76.602"/><line style="stroke:#181818;stroke-width:0.5;" x1="128.5" x2="211.5" y1="84.602" y2="84.602"/></g><!--MD5=[58d0a597b86e0d150e85165aee8b1098]
class Instrucciones--><g id="elem_Instrucciones"><rect codeLine="6" fill="#F1F1F1" height="48" id="Instrucciones" rx="2.5" ry="2.5" style="stroke:#181818;stroke-width:0.5;" width="123" x="247.5" y="44.602"/><ellipse cx="262.5" cy="60.602" fill="#ADD1B2" rx="11" ry="11" style="stroke:#181818;stroke-width:1.0;"/><path d="M261.9688,67.5239 Q260.2188,67.5239 259.0781,66.7895 Q257.9531,66.0395 257.3906,64.6957 Q256.8438,63.3364 256.8438,61.5395 Q256.8438,59.5082 257.5,58.0551 Q258.1563,56.602 259.4375,55.8207 Q260.7188,55.0395 262.5938,55.0395 Q263.4844,55.0395 264.1563,55.227 Q264.8281,55.3989 265.5156,55.7426 L264.7031,57.7582 Q264.0781,57.4457 263.5313,57.3207 Q263,57.1957 262.5156,57.1957 Q261.3438,57.1957 260.6406,57.727 Q259.9375,58.2582 259.6406,59.2114 Q259.3438,60.1645 259.3438,61.4301 Q259.3438,63.4457 260.0625,64.4145 Q260.7813,65.3676 262.375,65.3676 Q262.9688,65.3676 263.5938,65.2114 Q264.2188,65.0551 265.0469,64.6801 L265.0469,66.8989 Q264.3125,67.2114 263.5156,67.3676 Q262.7344,67.5239 261.9688,67.5239 Z " fill="#000000"/><text fill="#000000" font-family="sans-serif" font-size="14" lengthAdjust="spacing" textLength="91" x="276.5" y="66.034">Instrucciones</text><line style="stroke:#181818;stroke-width:0.5;" x1="248.5" x2="369.5" y1="76.602" y2="76.602"/><line style="stroke:#181818;stroke-width:0.5;" x1="248.5" x2="369.5" y1="84.602" y2="84.602"/></g><!--MD5=[4c18751fa77cc560573b090f3bbf04b2]
class Parámetros--><g id="elem_Parámetros"><rect codeLine="7" fill="#F1F1F1" height="48" id="Parámetros" rx="2.5" ry="2.5" style="stroke:#181818;stroke-width:0.5;" width="109" x="405.5" y="44.602"/><ellipse cx="420.5" cy="60.602" fill="#ADD1B2" rx="11" ry="11" style="stroke:#181818;stroke-width:1.0;"/><path d="M419.9688,67.5239 Q418.2188,67.5239 417.0781,66.7895 Q415.9531,66.0395 415.3906,64.6957 Q414.8438,63.3364 414.8438,61.5395 Q414.8438,59.5082 415.5,58.0551 Q416.1563,56.602 417.4375,55.8207 Q418.7188,55.0395 420.5938,55.0395 Q421.4844,55.0395 422.1563,55.227 Q422.8281,55.3989 423.5156,55.7426 L422.7031,57.7582 Q422.0781,57.4457 421.5313,57.3207 Q421,57.1957 420.5156,57.1957 Q419.3438,57.1957 418.6406,57.727 Q417.9375,58.2582 417.6406,59.2114 Q417.3438,60.1645 417.3438,61.4301 Q417.3438,63.4457 418.0625,64.4145 Q418.7813,65.3676 420.375,65.3676 Q420.9688,65.3676 421.5938,65.2114 Q422.2188,65.0551 423.0469,64.6801 L423.0469,66.8989 Q422.3125,67.2114 421.5156,67.3676 Q420.7344,67.5239 419.9688,67.5239 Z " fill="#000000"/><text fill="#000000" font-family="sans-serif" font-size="14" lengthAdjust="spacing" textLength="77" x="434.5" y="66.034">Parámetros</text><line style="stroke:#181818;stroke-width:0.5;" x1="406.5" x2="513.5" y1="76.602" y2="76.602"/><line style="stroke:#181818;stroke-width:0.5;" x1="406.5" x2="513.5" y1="84.602" y2="84.602"/></g><!--MD5=[d933999a937b529ea3aaeeb9e325bacd]
class Contexto--><g id="elem_Contexto"><rect fill="#F1F1F1" height="48" id="Contexto" rx="2.5" ry="2.5" style="stroke:#181818;stroke-width:0.5;" width="91" x="549.5" y="44.602"/><ellipse cx="564.5" cy="60.602" fill="#ADD1B2" rx="11" ry="11" style="stroke:#181818;stroke-width:1.0;"/><path d="M563.9688,67.5239 Q562.2188,67.5239 561.0781,66.7895 Q559.9531,66.0395 559.3906,64.6957 Q558.8438,63.3364 558.8438,61.5395 Q558.8438,59.5082 559.5,58.0551 Q560.1563,56.602 561.4375,55.8207 Q562.7188,55.0395 564.5938,55.0395 Q565.4844,55.0395 566.1563,55.227 Q566.8281,55.3989 567.5156,55.7426 L566.7031,57.7582 Q566.0781,57.4457 565.5313,57.3207 Q565,57.1957 564.5156,57.1957 Q563.3438,57.1957 562.6406,57.727 Q561.9375,58.2582 561.6406,59.2114 Q561.3438,60.1645 561.3438,61.4301 Q561.3438,63.4457 562.0625,64.4145 Q562.7813,65.3676 564.375,65.3676 Q564.9688,65.3676 565.5938,65.2114 Q566.2188,65.0551 567.0469,64.6801 L567.0469,66.8989 Q566.3125,67.2114 565.5156,67.3676 Q564.7344,67.5239 563.9688,67.5239 Z " fill="#000000"/><text fill="#000000" font-family="sans-serif" font-size="14" lengthAdjust="spacing" textLength="59" x="578.5" y="66.034">Contexto</text><line style="stroke:#181818;stroke-width:0.5;" x1="550.5" x2="639.5" y1="76.602" y2="76.602"/><line style="stroke:#181818;stroke-width:0.5;" x1="550.5" x2="639.5" y1="84.602" y2="84.602"/></g><!--MD5=[23ac59978132272548bf992e3c610de9]
class Prompt--><g id="elem_Prompt"><rect fill="#F1F1F1" height="48" id="Prompt" rx="2.5" ry="2.5" style="stroke:#181818;stroke-width:0.5;" width="81" x="268.5" y="260.602"/><ellipse cx="283.5" cy="276.602" fill="#ADD1B2" rx="11" ry="11" style="stroke:#181818;stroke-width:1.0;"/><path d="M282.9688,283.5239 Q281.2188,283.5239 280.0781,282.7895 Q278.9531,282.0395 278.3906,280.6957 Q277.8438,279.3364 277.8438,277.5395 Q277.8438,275.5082 278.5,274.0551 Q279.1563,272.602 280.4375,271.8207 Q281.7188,271.0395 283.5938,271.0395 Q284.4844,271.0395 285.1563,271.227 Q285.8281,271.3989 286.5156,271.7426 L285.7031,273.7582 Q285.0781,273.4457 284.5313,273.3207 Q284,273.1957 283.5156,273.1957 Q282.3438,273.1957 281.6406,273.727 Q280.9375,274.2582 280.6406,275.2114 Q280.3438,276.1645 280.3438,277.4301 Q280.3438,279.4457 281.0625,280.4145 Q281.7813,281.3676 283.375,281.3676 Q283.9688,281.3676 284.5938,281.2114 Q285.2188,281.0551 286.0469,280.6801 L286.0469,282.8989 Q285.3125,283.2114 284.5156,283.3676 Q283.7344,283.5239 282.9688,283.5239 Z " fill="#000000"/><text fill="#000000" font-family="sans-serif" font-size="14" lengthAdjust="spacing" textLength="49" x="297.5" y="282.034">Prompt</text><line style="stroke:#181818;stroke-width:0.5;" x1="269.5" x2="348.5" y1="292.602" y2="292.602"/><line style="stroke:#181818;stroke-width:0.5;" x1="269.5" x2="348.5" y1="300.602" y2="300.602"/></g><!--MD5=[7dc4723b7980928a577f86f3637c3413]
class Receta--><g id="elem_Receta"><rect fill="#F1F1F1" height="48" id="Receta" rx="2.5" ry="2.5" style="stroke:#181818;stroke-width:0.5;" width="77" x="270.5" y="152.602"/><ellipse cx="285.5" cy="168.602" fill="#ADD1B2" rx="11" ry="11" style="stroke:#181818;stroke-width:1.0;"/><path d="M284.9688,175.5239 Q283.2188,175.5239 282.0781,174.7895 Q280.9531,174.0395 280.3906,172.6957 Q279.8438,171.3364 279.8438,169.5395 Q279.8438,167.5082 280.5,166.0551 Q281.1563,164.602 282.4375,163.8207 Q283.7188,163.0395 285.5938,163.0395 Q286.4844,163.0395 287.1563,163.227 Q287.8281,163.3989 288.5156,163.7426 L287.7031,165.7582 Q287.0781,165.4457 286.5313,165.3207 Q286,165.1957 285.5156,165.1957 Q284.3438,165.1957 283.6406,165.727 Q282.9375,166.2582 282.6406,167.2114 Q282.3438,168.1645 282.3438,169.4301 Q282.3438,171.4457 283.0625,172.4145 Q283.7813,173.3676 285.375,173.3676 Q285.9688,173.3676 286.5938,173.2114 Q287.2188,173.0551 288.0469,172.6801 L288.0469,174.8989 Q287.3125,175.2114 286.5156,175.3676 Q285.7344,175.5239 284.9688,175.5239 Z " fill="#000000"/><text fill="#000000" font-family="sans-serif" font-size="14" lengthAdjust="spacing" textLength="45" x="299.5" y="174.034">Receta</text><line style="stroke:#181818;stroke-width:0.5;" x1="271.5" x2="346.5" y1="184.602" y2="184.602"/><line style="stroke:#181818;stroke-width:0.5;" x1="271.5" x2="346.5" y1="192.602" y2="192.602"/></g><!--MD5=[ca1ac2803c2597e6097f5dc7b8966cef]
reverse link Receta to Prompt--><g id="link_Receta_Prompt"><path codeLine="1" d="M309,220.622 C309,234.182 309,248.642 309,260.282 " fill="none" id="Receta-backto-Prompt" style="stroke:#181818;stroke-width:1.0;"/><polygon fill="none" points="302,220.602,309,200.602,316,220.602,302,220.602" style="stroke:#181818;stroke-width:1.0;"/></g><!--MD5=[a89adcb2820a093d190b73e16a548029]
link Tarea to Receta--><g id="link_Tarea_Receta"><path codeLine="10" d="M78.78,92.822 C87.77,101.302 98.71,110.332 110,116.602 C156.62,142.492 215.84,158.162 257.51,166.782 " fill="none" id="Tarea-to-Receta" style="stroke:#181818;stroke-width:1.0;stroke-dasharray:7.0,7.0;"/><polygon fill="none" points="270.39,169.332,265.2822,164.2418,258.619,166.9989,263.7268,172.0891,270.39,169.332" style="stroke:#181818;stroke-width:1.0;"/></g><!--MD5=[0f6f68f04622246e6bf664764b665262]
link Entrada to Receta--><g id="link_Entrada_Receta"><path codeLine="11" d="M199.19,92.682 C208.95,100.342 219.91,108.882 230,116.602 C241.97,125.762 255.05,135.592 267.06,144.562 " fill="none" id="Entrada-to-Receta" style="stroke:#181818;stroke-width:1.0;stroke-dasharray:7.0,7.0;"/><polygon fill="none" points="277.73,152.512,275.3031,145.7215,268.1016,145.35,270.5285,152.1405,277.73,152.512" style="stroke:#181818;stroke-width:1.0;"/></g><!--MD5=[451a20379047f4d1098abba0bf219514]
link Instrucciones to Receta--><g id="link_Instrucciones_Receta"><path codeLine="12" d="M309,92.602 C309,106.122 309,123.522 309,138.902 " fill="none" id="Instrucciones-to-Receta" style="stroke:#181818;stroke-width:1.0;stroke-dasharray:7.0,7.0;"/><polygon fill="none" points="309,152.282,313,146.282,309,140.282,305,146.282,309,152.282" style="stroke:#181818;stroke-width:1.0;"/></g><!--MD5=[efee1eeb2674383b1891dd95146c05d9]
link Parámetros to Receta--><g id="link_Parámetros_Receta"><path codeLine="13" d="M427.24,92.602 C405.45,107.902 376.57,128.162 352.82,144.842 " fill="none" id="Parámetros-to-Receta" style="stroke:#181818;stroke-width:1.0;stroke-dasharray:7.0,7.0;"/><polygon fill="none" points="341.96,152.462,349.169,152.2884,351.7815,145.5672,344.5725,145.7407,341.96,152.462" style="stroke:#181818;stroke-width:1.0;"/></g><!--MD5=[6e01a151d4ef6ef386ed81810cfb60c4]
link Contexto to Receta--><g id="link_Contexto_Receta"><path codeLine="14" d="M568.88,92.622 C558.07,101.172 545.03,110.312 532,116.602 C476.53,143.382 407.21,159.282 360.71,167.712 " fill="none" id="Contexto-to-Receta" style="stroke:#181818;stroke-width:1.0;stroke-dasharray:7.0,7.0;"/><polygon fill="none" points="347.64,169.982,354.2372,172.8935,359.4622,167.9237,352.865,165.0121,347.64,169.982" style="stroke:#181818;stroke-width:1.0;"/></g><!--MD5=[c4784734e3d3eb607a295ba7dc652955]
@startuml
Prompt -u-|> Receta

package Componentes {
    class Tarea
    class Entrada
    class Instrucciones
    class Parámetros
    class Entrada

    Receta o.u. Tarea
    Receta o.u. Entrada
    Receta o.u. Instrucciones
    Receta o.u. Parámetros
    Receta o.u. Contexto
}

@enduml

PlantUML version 1.2022.7(Mon Aug 22 19:01:30 CEST 2022)
(GPL source distribution)
Java Runtime: OpenJDK Runtime Environment
JVM: OpenJDK 64-Bit Server VM
Default Encoding: UTF-8
Language: es
Country: ES
--></g></svg>