<?xml version="1.0" encoding="UTF-8" standalone="no"?><svg xmlns="http://www.w3.org/2000/svg" xmlns:xlink="http://www.w3.org/1999/xlink" contentStyleType="text/css" height="306px" preserveAspectRatio="none" style="width:534px;height:306px;background:#FFFFFF;" version="1.1" viewBox="0 0 534 306" width="534px" zoomAndPan="magnify"><defs/><g><!--MD5=[0bc260734cc841228a159098d23b1812]
cluster Componentes--><g id="cluster_Componentes"><path d="M8.5,6.602 L106.5,6.602 A3.75,3.75 0 0 1 109,9.102 L116,31.6699 L524.5,31.6699 A2.5,2.5 0 0 1 527,34.1699 L527,103.102 A2.5,2.5 0 0 1 524.5,105.602 L8.5,105.602 A2.5,2.5 0 0 1 6,103.102 L6,9.102 A2.5,2.5 0 0 1 8.5,6.602 " fill="none" style="stroke:#000000;stroke-width:1.5;"/><line style="stroke:#000000;stroke-width:1.5;" x1="6" x2="116" y1="31.6699" y2="31.6699"/><text fill="#000000" font-family="sans-serif" font-size="14" font-weight="bold" lengthAdjust="spacing" textLength="97" x="10" y="23.5679">Componentes</text></g><!--MD5=[8b66b7342ebffb5468f9dad95977a8e0]
class Tarea--><g id="elem_Tarea"><rect fill="#F1F1F1" height="45.0679" id="Tarea" rx="2.5" ry="2.5" style="stroke:#181818;stroke-width:0.5;" width="44" x="22" y="44.602"/><text fill="#000000" font-family="sans-serif" font-size="14" lengthAdjust="spacing" textLength="38" x="25" y="64.5679">Tarea</text><line style="stroke:#181818;stroke-width:0.5;" x1="23" x2="65" y1="73.6699" y2="73.6699"/><line style="stroke:#181818;stroke-width:0.5;" x1="23" x2="65" y1="81.6699" y2="81.6699"/></g><!--MD5=[58d0a597b86e0d150e85165aee8b1098]
class Instrucciones--><g id="elem_Instrucciones"><rect fill="#F1F1F1" height="45.0679" id="Instrucciones" rx="2.5" ry="2.5" style="stroke:#181818;stroke-width:0.5;" width="97" x="101.5" y="44.602"/><text fill="#000000" font-family="sans-serif" font-size="14" lengthAdjust="spacing" textLength="91" x="104.5" y="64.5679">Instrucciones</text><line style="stroke:#181818;stroke-width:0.5;" x1="102.5" x2="197.5" y1="73.6699" y2="73.6699"/><line style="stroke:#181818;stroke-width:0.5;" x1="102.5" x2="197.5" y1="81.6699" y2="81.6699"/></g><!--MD5=[d933999a937b529ea3aaeeb9e325bacd]
class Contexto--><g id="elem_Contexto"><rect fill="#F1F1F1" height="45.0679" id="Contexto" rx="2.5" ry="2.5" style="stroke:#181818;stroke-width:0.5;" width="65" x="233.5" y="44.602"/><text fill="#000000" font-family="sans-serif" font-size="14" lengthAdjust="spacing" textLength="59" x="236.5" y="64.5679">Contexto</text><line style="stroke:#181818;stroke-width:0.5;" x1="234.5" x2="297.5" y1="73.6699" y2="73.6699"/><line style="stroke:#181818;stroke-width:0.5;" x1="234.5" x2="297.5" y1="81.6699" y2="81.6699"/></g><!--MD5=[6694c18989b8e2458a5d3d469144568d]
class Entrada--><g id="elem_Entrada"><rect fill="#F1F1F1" height="45.0679" id="Entrada" rx="2.5" ry="2.5" style="stroke:#181818;stroke-width:0.5;" width="59" x="333.5" y="44.602"/><text fill="#000000" font-family="sans-serif" font-size="14" lengthAdjust="spacing" textLength="53" x="336.5" y="64.5679">Entrada</text><line style="stroke:#181818;stroke-width:0.5;" x1="334.5" x2="391.5" y1="73.6699" y2="73.6699"/><line style="stroke:#181818;stroke-width:0.5;" x1="334.5" x2="391.5" y1="81.6699" y2="81.6699"/></g><!--MD5=[4c18751fa77cc560573b090f3bbf04b2]
class Parámetros--><g id="elem_Parámetros"><rect fill="#F1F1F1" height="45.0679" id="Parámetros" rx="2.5" ry="2.5" style="stroke:#181818;stroke-width:0.5;" width="83" x="427.5" y="44.602"/><text fill="#000000" font-family="sans-serif" font-size="14" lengthAdjust="spacing" textLength="77" x="430.5" y="64.5679">Parámetros</text><line style="stroke:#181818;stroke-width:0.5;" x1="428.5" x2="509.5" y1="73.6699" y2="73.6699"/><line style="stroke:#181818;stroke-width:0.5;" x1="428.5" x2="509.5" y1="81.6699" y2="81.6699"/></g><!--MD5=[23ac59978132272548bf992e3c610de9]
class Prompt--><g id="elem_Prompt"><rect fill="#F1F1F1" height="45.0679" id="Prompt" rx="2.5" ry="2.5" style="stroke:#181818;stroke-width:0.5;" width="55" x="238.5" y="254.602"/><text fill="#000000" font-family="sans-serif" font-size="14" lengthAdjust="spacing" textLength="49" x="241.5" y="274.5679">Prompt</text><line style="stroke:#181818;stroke-width:0.5;" x1="239.5" x2="292.5" y1="283.6699" y2="283.6699"/><line style="stroke:#181818;stroke-width:0.5;" x1="239.5" x2="292.5" y1="291.6699" y2="291.6699"/></g><!--MD5=[7dc4723b7980928a577f86f3637c3413]
class Receta--><g id="elem_Receta"><rect fill="#F1F1F1" height="45.0679" id="Receta" rx="2.5" ry="2.5" style="stroke:#181818;stroke-width:0.5;" width="51" x="240.5" y="149.602"/><text fill="#000000" font-family="sans-serif" font-size="14" lengthAdjust="spacing" textLength="45" x="243.5" y="169.5679">Receta</text><line style="stroke:#181818;stroke-width:0.5;" x1="241.5" x2="290.5" y1="178.6699" y2="178.6699"/><line style="stroke:#181818;stroke-width:0.5;" x1="241.5" x2="290.5" y1="186.6699" y2="186.6699"/></g><!--MD5=[ca1ac2803c2597e6097f5dc7b8966cef]
reverse link Receta to Prompt--><g id="link_Receta_Prompt"><path codeLine="5" d="M266,215.342 C266,228.722 266,242.962 266,254.292 " fill="none" id="Receta-backto-Prompt" style="stroke:#181818;stroke-width:1.0;"/><polygon fill="none" points="259,214.942,266,194.942,273,214.942,259,214.942" style="stroke:#181818;stroke-width:1.0;"/></g><!--MD5=[a89adcb2820a093d190b73e16a548029]
link Tarea to Receta--><g id="link_Tarea_Receta"><path codeLine="8" d="M59.11,89.922 C65.88,98.332 74.48,107.402 84,113.602 C128.47,142.602 188.57,157.822 227.31,165.152 " fill="none" id="Tarea-to-Receta" style="stroke:#181818;stroke-width:1.0;stroke-dasharray:7.0,7.0;"/><polygon fill="none" points="240.3,167.472,235.0912,162.4852,228.4846,165.3753,233.6934,170.3621,240.3,167.472" style="stroke:#181818;stroke-width:1.0;"/></g><!--MD5=[451a20379047f4d1098abba0bf219514]
link Instrucciones to Receta--><g id="link_Instrucciones_Receta"><path codeLine="9" d="M174.32,89.692 C191.02,104.522 213.43,124.422 231.91,140.832 " fill="none" id="Instrucciones-to-Receta" style="stroke:#181818;stroke-width:1.0;stroke-dasharray:7.0,7.0;"/><polygon fill="none" points="241.71,149.542,239.8754,142.5682,232.7324,141.5794,234.567,148.5533,241.71,149.542" style="stroke:#181818;stroke-width:1.0;"/></g><!--MD5=[6e01a151d4ef6ef386ed81810cfb60c4]
link Contexto to Receta--><g id="link_Contexto_Receta"><path codeLine="10" d="M266,89.942 C266,103.332 266,120.762 266,136.042 " fill="none" id="Contexto-to-Receta" style="stroke:#181818;stroke-width:1.0;stroke-dasharray:7.0,7.0;"/><polygon fill="none" points="266,149.292,270,143.292,266,137.292,262,143.292,266,149.292" style="stroke:#181818;stroke-width:1.0;"/></g><!--MD5=[0f6f68f04622246e6bf664764b665262]
link Entrada to Receta--><g id="link_Entrada_Receta"><path codeLine="11" d="M342.43,89.942 C328.8,104.422 310.7,123.642 295.54,139.742 " fill="none" id="Entrada-to-Receta" style="stroke:#181818;stroke-width:1.0;stroke-dasharray:7.0,7.0;"/><polygon fill="none" points="286.54,149.292,293.565,147.6642,294.7644,140.5536,287.7394,142.1813,286.54,149.292" style="stroke:#181818;stroke-width:1.0;"/></g><!--MD5=[efee1eeb2674383b1891dd95146c05d9]
link Parámetros to Receta--><g id="link_Parámetros_Receta"><path codeLine="12" d="M444.24,89.662 C434.07,97.842 421.91,106.812 410,113.602 C375.88,133.062 333.88,149.022 304.06,159.142 " fill="none" id="Parámetros-to-Receta" style="stroke:#181818;stroke-width:1.0;stroke-dasharray:7.0,7.0;"/><polygon fill="none" points="291.69,163.252,298.645,165.1566,303.0781,159.4691,296.1231,157.5645,291.69,163.252" style="stroke:#181818;stroke-width:1.0;"/></g><!--MD5=[15152260beb4ddce3a5ae43b763b0668]
@startuml
hide circle
hide stereotype
' hide empty members

Prompt -u-|> Receta

package Componentes {
    Receta o.u. Tarea
    Receta o.u. Instrucciones
    Receta o.u. Contexto
    Receta o.u. Entrada
    Receta o.u. Parámetros
}

@enduml

@startuml
hide circle
hide stereotype

Prompt -u-|> Receta

package Componentes {
    Receta o.u. Tarea
    Receta o.u. Instrucciones
    Receta o.u. Contexto
    Receta o.u. Entrada
    Receta o.u. Parámetros
}

@enduml

PlantUML version 1.2022.7(Mon Aug 22 19:01:30 CEST 2022)
(GPL source distribution)
Java Runtime: OpenJDK Runtime Environment
JVM: OpenJDK 64-Bit Server VM
Default Encoding: UTF-8
Language: es
Country: ES
--></g></svg>