<?xml version="1.0" encoding="UTF-8" standalone="no"?><svg xmlns="http://www.w3.org/2000/svg" xmlns:xlink="http://www.w3.org/1999/xlink" contentStyleType="text/css" height="278px" preserveAspectRatio="none" style="width:632px;height:278px;background:#FFFFFF;" version="1.1" viewBox="0 0 632 278" width="632px" zoomAndPan="magnify"><defs/><g><!--MD5=[23ac59978132272548bf992e3c610de9]
class Prompt--><g id="elem_Prompt"><rect fill="#F1F1F1" height="48" id="Prompt" rx="2.5" ry="2.5" style="stroke:#181818;stroke-width:0.5;" width="81" x="298" y="223"/><ellipse cx="313" cy="239" fill="#ADD1B2" rx="11" ry="11" style="stroke:#181818;stroke-width:1.0;"/><path d="M312.4688,245.9219 Q310.7188,245.9219 309.5781,245.1875 Q308.4531,244.4375 307.8906,243.0938 Q307.3438,241.7344 307.3438,239.9375 Q307.3438,237.9063 308,236.4531 Q308.6563,235 309.9375,234.2188 Q311.2188,233.4375 313.0938,233.4375 Q313.9844,233.4375 314.6563,233.625 Q315.3281,233.7969 316.0156,234.1406 L315.2031,236.1563 Q314.5781,235.8438 314.0313,235.7188 Q313.5,235.5938 313.0156,235.5938 Q311.8438,235.5938 311.1406,236.125 Q310.4375,236.6563 310.1406,237.6094 Q309.8438,238.5625 309.8438,239.8281 Q309.8438,241.8438 310.5625,242.8125 Q311.2813,243.7656 312.875,243.7656 Q313.4688,243.7656 314.0938,243.6094 Q314.7188,243.4531 315.5469,243.0781 L315.5469,245.2969 Q314.8125,245.6094 314.0156,245.7656 Q313.2344,245.9219 312.4688,245.9219 Z " fill="#000000"/><text fill="#000000" font-family="sans-serif" font-size="14" lengthAdjust="spacing" textLength="49" x="327" y="244.432">Prompt</text><line style="stroke:#181818;stroke-width:0.5;" x1="299" x2="378" y1="255" y2="255"/><line style="stroke:#181818;stroke-width:0.5;" x1="299" x2="378" y1="263" y2="263"/></g><!--MD5=[7dc4723b7980928a577f86f3637c3413]
class Receta--><g id="elem_Receta"><rect fill="#F1F1F1" height="48" id="Receta" rx="2.5" ry="2.5" style="stroke:#181818;stroke-width:0.5;" width="77" x="300" y="115"/><ellipse cx="315" cy="131" fill="#ADD1B2" rx="11" ry="11" style="stroke:#181818;stroke-width:1.0;"/><path d="M314.4688,137.9219 Q312.7188,137.9219 311.5781,137.1875 Q310.4531,136.4375 309.8906,135.0938 Q309.3438,133.7344 309.3438,131.9375 Q309.3438,129.9063 310,128.4531 Q310.6563,127 311.9375,126.2188 Q313.2188,125.4375 315.0938,125.4375 Q315.9844,125.4375 316.6563,125.625 Q317.3281,125.7969 318.0156,126.1406 L317.2031,128.1563 Q316.5781,127.8438 316.0313,127.7188 Q315.5,127.5938 315.0156,127.5938 Q313.8438,127.5938 313.1406,128.125 Q312.4375,128.6563 312.1406,129.6094 Q311.8438,130.5625 311.8438,131.8281 Q311.8438,133.8438 312.5625,134.8125 Q313.2813,135.7656 314.875,135.7656 Q315.4688,135.7656 316.0938,135.6094 Q316.7188,135.4531 317.5469,135.0781 L317.5469,137.2969 Q316.8125,137.6094 316.0156,137.7656 Q315.2344,137.9219 314.4688,137.9219 Z " fill="#000000"/><text fill="#000000" font-family="sans-serif" font-size="14" lengthAdjust="spacing" textLength="45" x="329" y="136.432">Receta</text><line style="stroke:#181818;stroke-width:0.5;" x1="301" x2="376" y1="147" y2="147"/><line style="stroke:#181818;stroke-width:0.5;" x1="301" x2="376" y1="155" y2="155"/></g><!--MD5=[8b66b7342ebffb5468f9dad95977a8e0]
class Tarea--><g id="elem_Tarea"><rect fill="#F1F1F1" height="48" id="Tarea" rx="2.5" ry="2.5" style="stroke:#181818;stroke-width:0.5;" width="70" x="555.5" y="7"/><ellipse cx="570.5" cy="23" fill="#ADD1B2" rx="11" ry="11" style="stroke:#181818;stroke-width:1.0;"/><path d="M569.9688,29.9219 Q568.2188,29.9219 567.0781,29.1875 Q565.9531,28.4375 565.3906,27.0938 Q564.8438,25.7344 564.8438,23.9375 Q564.8438,21.9063 565.5,20.4531 Q566.1563,19 567.4375,18.2188 Q568.7188,17.4375 570.5938,17.4375 Q571.4844,17.4375 572.1563,17.625 Q572.8281,17.7969 573.5156,18.1406 L572.7031,20.1563 Q572.0781,19.8438 571.5313,19.7188 Q571,19.5938 570.5156,19.5938 Q569.3438,19.5938 568.6406,20.125 Q567.9375,20.6563 567.6406,21.6094 Q567.3438,22.5625 567.3438,23.8281 Q567.3438,25.8438 568.0625,26.8125 Q568.7813,27.7656 570.375,27.7656 Q570.9688,27.7656 571.5938,27.6094 Q572.2188,27.4531 573.0469,27.0781 L573.0469,29.2969 Q572.3125,29.6094 571.5156,29.7656 Q570.7344,29.9219 569.9688,29.9219 Z " fill="#000000"/><text fill="#000000" font-family="sans-serif" font-size="14" lengthAdjust="spacing" textLength="38" x="584.5" y="28.432">Tarea</text><line style="stroke:#181818;stroke-width:0.5;" x1="556.5" x2="624.5" y1="39" y2="39"/><line style="stroke:#181818;stroke-width:0.5;" x1="556.5" x2="624.5" y1="47" y2="47"/></g><!--MD5=[6694c18989b8e2458a5d3d469144568d]
class Entrada--><g id="elem_Entrada"><rect fill="#F1F1F1" height="48" id="Entrada" rx="2.5" ry="2.5" style="stroke:#181818;stroke-width:0.5;" width="85" x="435" y="7"/><ellipse cx="450" cy="23" fill="#ADD1B2" rx="11" ry="11" style="stroke:#181818;stroke-width:1.0;"/><path d="M449.4688,29.9219 Q447.7188,29.9219 446.5781,29.1875 Q445.4531,28.4375 444.8906,27.0938 Q444.3438,25.7344 444.3438,23.9375 Q444.3438,21.9063 445,20.4531 Q445.6563,19 446.9375,18.2188 Q448.2188,17.4375 450.0938,17.4375 Q450.9844,17.4375 451.6563,17.625 Q452.3281,17.7969 453.0156,18.1406 L452.2031,20.1563 Q451.5781,19.8438 451.0313,19.7188 Q450.5,19.5938 450.0156,19.5938 Q448.8438,19.5938 448.1406,20.125 Q447.4375,20.6563 447.1406,21.6094 Q446.8438,22.5625 446.8438,23.8281 Q446.8438,25.8438 447.5625,26.8125 Q448.2813,27.7656 449.875,27.7656 Q450.4688,27.7656 451.0938,27.6094 Q451.7188,27.4531 452.5469,27.0781 L452.5469,29.2969 Q451.8125,29.6094 451.0156,29.7656 Q450.2344,29.9219 449.4688,29.9219 Z " fill="#000000"/><text fill="#000000" font-family="sans-serif" font-size="14" lengthAdjust="spacing" textLength="53" x="464" y="28.432">Entrada</text><line style="stroke:#181818;stroke-width:0.5;" x1="436" x2="519" y1="39" y2="39"/><line style="stroke:#181818;stroke-width:0.5;" x1="436" x2="519" y1="47" y2="47"/></g><!--MD5=[58d0a597b86e0d150e85165aee8b1098]
class Instrucciones--><g id="elem_Instrucciones"><rect fill="#F1F1F1" height="48" id="Instrucciones" rx="2.5" ry="2.5" style="stroke:#181818;stroke-width:0.5;" width="123" x="277" y="7"/><ellipse cx="292" cy="23" fill="#ADD1B2" rx="11" ry="11" style="stroke:#181818;stroke-width:1.0;"/><path d="M291.4688,29.9219 Q289.7188,29.9219 288.5781,29.1875 Q287.4531,28.4375 286.8906,27.0938 Q286.3438,25.7344 286.3438,23.9375 Q286.3438,21.9063 287,20.4531 Q287.6563,19 288.9375,18.2188 Q290.2188,17.4375 292.0938,17.4375 Q292.9844,17.4375 293.6563,17.625 Q294.3281,17.7969 295.0156,18.1406 L294.2031,20.1563 Q293.5781,19.8438 293.0313,19.7188 Q292.5,19.5938 292.0156,19.5938 Q290.8438,19.5938 290.1406,20.125 Q289.4375,20.6563 289.1406,21.6094 Q288.8438,22.5625 288.8438,23.8281 Q288.8438,25.8438 289.5625,26.8125 Q290.2813,27.7656 291.875,27.7656 Q292.4688,27.7656 293.0938,27.6094 Q293.7188,27.4531 294.5469,27.0781 L294.5469,29.2969 Q293.8125,29.6094 293.0156,29.7656 Q292.2344,29.9219 291.4688,29.9219 Z " fill="#000000"/><text fill="#000000" font-family="sans-serif" font-size="14" lengthAdjust="spacing" textLength="91" x="306" y="28.432">Instrucciones</text><line style="stroke:#181818;stroke-width:0.5;" x1="278" x2="399" y1="39" y2="39"/><line style="stroke:#181818;stroke-width:0.5;" x1="278" x2="399" y1="47" y2="47"/></g><!--MD5=[4c18751fa77cc560573b090f3bbf04b2]
class Parámetros--><g id="elem_Parámetros"><rect fill="#F1F1F1" height="48" id="Parámetros" rx="2.5" ry="2.5" style="stroke:#181818;stroke-width:0.5;" width="109" x="133" y="7"/><ellipse cx="148" cy="23" fill="#ADD1B2" rx="11" ry="11" style="stroke:#181818;stroke-width:1.0;"/><path d="M147.4688,29.9219 Q145.7188,29.9219 144.5781,29.1875 Q143.4531,28.4375 142.8906,27.0938 Q142.3438,25.7344 142.3438,23.9375 Q142.3438,21.9063 143,20.4531 Q143.6563,19 144.9375,18.2188 Q146.2188,17.4375 148.0938,17.4375 Q148.9844,17.4375 149.6563,17.625 Q150.3281,17.7969 151.0156,18.1406 L150.2031,20.1563 Q149.5781,19.8438 149.0313,19.7188 Q148.5,19.5938 148.0156,19.5938 Q146.8438,19.5938 146.1406,20.125 Q145.4375,20.6563 145.1406,21.6094 Q144.8438,22.5625 144.8438,23.8281 Q144.8438,25.8438 145.5625,26.8125 Q146.2813,27.7656 147.875,27.7656 Q148.4688,27.7656 149.0938,27.6094 Q149.7188,27.4531 150.5469,27.0781 L150.5469,29.2969 Q149.8125,29.6094 149.0156,29.7656 Q148.2344,29.9219 147.4688,29.9219 Z " fill="#000000"/><text fill="#000000" font-family="sans-serif" font-size="14" lengthAdjust="spacing" textLength="77" x="162" y="28.432">Parámetros</text><line style="stroke:#181818;stroke-width:0.5;" x1="134" x2="241" y1="39" y2="39"/><line style="stroke:#181818;stroke-width:0.5;" x1="134" x2="241" y1="47" y2="47"/></g><!--MD5=[d933999a937b529ea3aaeeb9e325bacd]
class Contexto--><g id="elem_Contexto"><rect fill="#F1F1F1" height="48" id="Contexto" rx="2.5" ry="2.5" style="stroke:#181818;stroke-width:0.5;" width="91" x="7" y="7"/><ellipse cx="22" cy="23" fill="#ADD1B2" rx="11" ry="11" style="stroke:#181818;stroke-width:1.0;"/><path d="M21.4688,29.9219 Q19.7188,29.9219 18.5781,29.1875 Q17.4531,28.4375 16.8906,27.0938 Q16.3438,25.7344 16.3438,23.9375 Q16.3438,21.9063 17,20.4531 Q17.6563,19 18.9375,18.2188 Q20.2188,17.4375 22.0938,17.4375 Q22.9844,17.4375 23.6563,17.625 Q24.3281,17.7969 25.0156,18.1406 L24.2031,20.1563 Q23.5781,19.8438 23.0313,19.7188 Q22.5,19.5938 22.0156,19.5938 Q20.8438,19.5938 20.1406,20.125 Q19.4375,20.6563 19.1406,21.6094 Q18.8438,22.5625 18.8438,23.8281 Q18.8438,25.8438 19.5625,26.8125 Q20.2813,27.7656 21.875,27.7656 Q22.4688,27.7656 23.0938,27.6094 Q23.7188,27.4531 24.5469,27.0781 L24.5469,29.2969 Q23.8125,29.6094 23.0156,29.7656 Q22.2344,29.9219 21.4688,29.9219 Z " fill="#000000"/><text fill="#000000" font-family="sans-serif" font-size="14" lengthAdjust="spacing" textLength="59" x="36" y="28.432">Contexto</text><line style="stroke:#181818;stroke-width:0.5;" x1="8" x2="97" y1="39" y2="39"/><line style="stroke:#181818;stroke-width:0.5;" x1="8" x2="97" y1="47" y2="47"/></g><!--MD5=[ca1ac2803c2597e6097f5dc7b8966cef]
reverse link Receta to Prompt--><g id="link_Receta_Prompt"><path codeLine="1" d="M338.5,183.02 C338.5,196.58 338.5,211.04 338.5,222.68 " fill="none" id="Receta-backto-Prompt" style="stroke:#181818;stroke-width:1.0;"/><polygon fill="none" points="331.5,183,338.5,163,345.5,183,331.5,183" style="stroke:#181818;stroke-width:1.0;"/></g><!--MD5=[a89adcb2820a093d190b73e16a548029]
link Tarea to Receta--><g id="link_Tarea_Receta"><path codeLine="3" d="M555.46,47.29 C549.48,49.88 543.31,52.53 537.5,55 C487.2,76.4 429.52,100.4 389.26,117.06 " fill="none" id="Tarea-to-Receta" style="stroke:#181818;stroke-width:1.0;stroke-dasharray:7.0,7.0;"/><polygon fill="none" points="377.09,122.1,384.1635,123.502,388.1782,117.5118,381.1047,116.1098,377.09,122.1" style="stroke:#181818;stroke-width:1.0;"/></g><!--MD5=[0f6f68f04622246e6bf664764b665262]
link Entrada to Receta--><g id="link_Entrada_Receta"><path codeLine="4" d="M447.34,55 C427.53,70.11 401.36,90.06 379.65,106.62 " fill="none" id="Entrada-to-Receta" style="stroke:#181818;stroke-width:1.0;stroke-dasharray:7.0,7.0;"/><polygon fill="none" points="369.08,114.68,376.2763,114.2183,378.6179,107.3979,371.4216,107.8597,369.08,114.68" style="stroke:#181818;stroke-width:1.0;"/></g><!--MD5=[451a20379047f4d1098abba0bf219514]
link Instrucciones to Receta--><g id="link_Instrucciones_Receta"><path codeLine="5" d="M338.5,55 C338.5,68.52 338.5,85.92 338.5,101.3 " fill="none" id="Instrucciones-to-Receta" style="stroke:#181818;stroke-width:1.0;stroke-dasharray:7.0,7.0;"/><polygon fill="none" points="338.5,114.68,342.5,108.68,338.5,102.68,334.5,108.68,338.5,114.68" style="stroke:#181818;stroke-width:1.0;"/></g><!--MD5=[efee1eeb2674383b1891dd95146c05d9]
link Parámetros to Receta--><g id="link_Parámetros_Receta"><path codeLine="6" d="M220.26,55 C242.05,70.3 270.93,90.56 294.68,107.24 " fill="none" id="Parámetros-to-Receta" style="stroke:#181818;stroke-width:1.0;stroke-dasharray:7.0,7.0;"/><polygon fill="none" points="305.54,114.86,302.9275,108.1388,295.7185,107.9652,298.331,114.6864,305.54,114.86" style="stroke:#181818;stroke-width:1.0;"/></g><!--MD5=[6e01a151d4ef6ef386ed81810cfb60c4]
link Contexto to Receta--><g id="link_Contexto_Receta"><path codeLine="7" d="M98.13,48.91 C149.82,68.07 233.82,99.2 287.59,119.13 " fill="none" id="Contexto-to-Receta" style="stroke:#181818;stroke-width:1.0;stroke-dasharray:7.0,7.0;"/><polygon fill="none" points="299.91,123.7,295.6732,117.8648,288.6573,119.5314,292.8941,125.3666,299.91,123.7" style="stroke:#181818;stroke-width:1.0;"/></g><!--MD5=[eaa9d40a1e6aacfb65a883cc43b46b11]
@startuml
    Prompt -u-|> Receta

    Receta o.u. Tarea
    Receta o.u. Entrada
    Receta o.u. Instrucciones
    Receta o.u. Parámetros
    Receta o.u. Contexto
@enduml

PlantUML version 1.2022.7(Mon Aug 22 19:01:30 CEST 2022)
(GPL source distribution)
Java Runtime: OpenJDK Runtime Environment
JVM: OpenJDK 64-Bit Server VM
Default Encoding: UTF-8
Language: es
Country: ES
--></g></svg>