<?xml version="1.0" encoding="UTF-8" standalone="no"?><svg xmlns="http://www.w3.org/2000/svg" xmlns:xlink="http://www.w3.org/1999/xlink" contentStyleType="text/css" height="252px" preserveAspectRatio="none" style="width:296px;height:252px;background:#FFFFFF;" version="1.1" viewBox="0 0 296 252" width="296px" zoomAndPan="magnify"><defs/><g><path d="M19.5,7 L270,7 A12.5,12.5 0 0 1 282.5,19.5 L282.5,33.4883 L7,33.4883 L7,19.5 A12.5,12.5 0 0 1 19.5,7 " fill="#F1F1F1" style="stroke:#F1F1F1;stroke-width:1.0;"/><rect fill="none" height="239.4883" rx="12.5" ry="12.5" style="stroke:#181818;stroke-width:0.5;" width="275.5" x="7" y="7"/><line style="stroke:#181818;stroke-width:0.5;" x1="7" x2="282.5" y1="33.4883" y2="33.4883"/><text fill="#000000" font-family="sans-serif" font-size="14" lengthAdjust="spacing" textLength="93" x="98.25" y="25.5352">Conversaci贸n</text><ellipse cx="228.5" cy="54.4883" fill="#222222" rx="10" ry="10" style="stroke:none;stroke-width:1.0;"/><g id="Conversacion.Prompt"><rect fill="#F1F1F1" height="50" rx="12.5" ry="12.5" style="stroke:#181818;stroke-width:0.5;" width="70" x="193.5" y="100.4883"/><line style="stroke:#181818;stroke-width:0.5;" x1="193.5" x2="263.5" y1="126.9766" y2="126.9766"/><text fill="#000000" font-family="sans-serif" font-size="14" lengthAdjust="spacing" textLength="50" x="203.5" y="119.0234">Prompt</text></g><g id="elem_GMN6"><path d="M18,112.8283 L18,138.1388 A0,0 0 0 0 18,138.1388 L175,138.1388 A0,0 0 0 0 175,138.1388 L175,130.8283 L193.23,125.4883 L175,122.8283 L175,122.8283 L165,112.8283 L18,112.8283 A0,0 0 0 0 18,112.8283 " fill="#FEFFDD" style="stroke:#181818;stroke-width:0.5;"/><path d="M165,112.8283 L165,122.8283 L175,122.8283 L165,112.8283 " fill="#FEFFDD" style="stroke:#181818;stroke-width:0.5;"/><text fill="#000000" font-family="sans-serif" font-size="13" lengthAdjust="spacing" textLength="136" x="24" y="130.3966">Inicia la conversaci贸n</text></g><g id="Conversacion.Respuesta"><rect fill="#F1F1F1" height="50" rx="12.5" ry="12.5" style="stroke:#181818;stroke-width:0.5;" width="90" x="183.5" y="186.4883"/><line style="stroke:#181818;stroke-width:0.5;" x1="183.5" x2="273.5" y1="212.9766" y2="212.9766"/><text fill="#000000" font-family="sans-serif" font-size="14" lengthAdjust="spacing" textLength="70" x="193.5" y="205.0234">Respuesta</text></g><!--MD5=[ad564abfa47061cc2f03ff0f6fd05172]
link *start*Conversacion to Prompt--><g id="link_*start*Conversacion_Prompt"><path d="M228.5,64.7983 C228.5,72.4283 228.5,83.6883 228.5,94.3683 " fill="none" id="*start*Conversacion-to-Prompt" style="stroke:#181818;stroke-width:1.0;"/><polygon fill="#181818" points="228.5,99.2183,232.5,90.2183,228.5,94.2183,224.5,90.2183,228.5,99.2183" style="stroke:#181818;stroke-width:1.0;"/></g><!--MD5=[0c4c69716cce5f57c88707956c6e6a59]
link Prompt to Respuesta--><g id="link_Prompt_Respuesta"><path d="M222.31,150.7883 C221.69,160.0183 221.58,170.6383 221.99,180.3483 " fill="none" id="Prompt-to-Respuesta" style="stroke:#181818;stroke-width:1.0;"/><polygon fill="#181818" points="222.32,185.2483,225.8248,176.0441,222.0482,180.2557,217.8367,176.479,222.32,185.2483" style="stroke:#181818;stroke-width:1.0;"/></g><!--MD5=[c67f3e161f1c461b0f3e7dcdf15ecae4]
link Respuesta to Prompt--><g id="link_Respuesta_Prompt"><path d="M234.68,186.2483 C235.31,177.0183 235.42,166.3983 235.01,156.6883 " fill="none" id="Respuesta-to-Prompt" style="stroke:#181818;stroke-width:1.0;"/><polygon fill="#181818" points="234.69,151.7883,231.1837,160.9919,234.961,156.7809,239.172,160.5582,234.69,151.7883" style="stroke:#181818;stroke-width:1.0;"/></g><!--MD5=[9fb3e03c851030e7a2226f49710de874]
@startuml

state "Conversaci贸n" as Conversacion {
    [*] - -> Prompt
Note left: Inicia la conversaci贸n
    Prompt - -> Respuesta 

    Respuesta - -> Prompt
}


@enduml

PlantUML version 1.2022.7(Mon Aug 22 19:01:30 CEST 2022)
(GPL source distribution)
Java Runtime: Java(TM) SE Runtime Environment
JVM: Java HotSpot(TM) 64-Bit Server VM
Default Encoding: UTF-8
Language: es
Country: ES
--></g></svg>