<?xml version="1.0" encoding="us-ascii" standalone="no"?><svg xmlns="http://www.w3.org/2000/svg" xmlns:xlink="http://www.w3.org/1999/xlink" contentStyleType="text/css" height="178px" preserveAspectRatio="none" style="width:699px;height:178px;background:#FFFFFF;" version="1.1" viewBox="0 0 699 178" width="699px" zoomAndPan="magnify"><defs/><g><text fill="#000000" font-family="sans-serif" font-size="14" font-weight="bold" lengthAdjust="spacing" textLength="157" x="264.25" y="24.9659">"Cualquier" tecnolog&#237;a</text><!--class 5Primeros--><g id="elem_5Primeros"><rect codeLine="3" fill="#F1F1F1" height="124.2717" id="5Primeros" rx="2.5" ry="2.5" style="stroke:#181818;stroke-width:0.5;" width="266" x="7" y="47.0679"/><ellipse cx="101.75" cy="63.0679" fill="#ADD1B2" rx="11" ry="11" style="stroke:#181818;stroke-width:1.0;"/><path d="M101.5469,69.8023 Q99.0625,69.8023 97.7344,68.1617 Q96.4219,66.4898 96.4219,63.3804 Q96.4219,60.2554 97.7344,58.5992 Q99.0625,56.9429 101.5469,56.9429 Q102.2656,56.9429 102.9219,57.0992 Q103.5625,57.2554 104.125,57.5523 L104.125,60.271 Q103.7656,59.9273 103.4688,59.7398 Q103.1719,59.5367 102.9063,59.4117 Q102.5938,59.271 102.2813,59.2085 Q101.9844,59.146 101.6719,59.146 Q100.3438,59.146 99.6563,60.2085 Q98.9688,61.3023 98.9688,63.3804 Q98.9688,65.4742 99.6563,66.5367 Q100.3438,67.6148 101.6719,67.6148 Q102.3125,67.6148 102.9063,67.3335 Q103.2031,67.2085 103.4844,67.021 Q103.7813,66.8179 104.125,66.4898 L104.125,69.2085 Q103.5469,69.5054 102.9063,69.6617 Q102.2813,69.8023 101.5469,69.8023 Z " fill="#000000"/><text fill="#000000" font-family="sans-serif" font-size="14" lengthAdjust="spacing" textLength="68" x="122.25" y="68.4999">5Primeros</text><line style="stroke:#181818;stroke-width:0.5;" x1="8" x2="272" y1="79.0679" y2="79.0679"/><text fill="#000000" font-family="sans-serif" font-size="14" lengthAdjust="spacing" textLength="116" x="13" y="98.0339">Escopeta de feria</text><line style="stroke:#181818;stroke-width:1.0;" x1="8" x2="272" y1="106.1358" y2="106.1358"/><ellipse cx="18" cy="121.1698" fill="#000000" rx="3" ry="3" style="stroke:#000000;stroke-width:1.0;"/><text fill="#000000" font-family="sans-serif" font-size="14" lengthAdjust="spacing" textLength="125" x="27" y="125.1018">Lo acaban de pulir</text><ellipse cx="18" cy="140.2377" fill="#000000" rx="3" ry="3" style="stroke:#000000;stroke-width:1.0;"/><text fill="#000000" font-family="sans-serif" font-size="14" lengthAdjust="spacing" textLength="166" x="27" y="144.1697">Se aplica donde no debe</text><ellipse cx="18" cy="159.3056" fill="#000000" rx="3" ry="3" style="stroke:#000000;stroke-width:1.0;"/><text fill="#000000" font-family="sans-serif" font-size="14" lengthAdjust="spacing" textLength="240" x="27" y="163.2376">Facciones que pelean por la autor&#237;a</text></g><!--class 5Siguientes--><g id="elem_5Siguientes"><rect codeLine="12" fill="#F1F1F1" height="124.2717" id="5Siguientes" rx="2.5" ry="2.5" style="stroke:#181818;stroke-width:0.5;" width="196" x="308" y="47.0679"/><ellipse cx="362.25" cy="63.0679" fill="#ADD1B2" rx="11" ry="11" style="stroke:#181818;stroke-width:1.0;"/><path d="M362.0469,69.8023 Q359.5625,69.8023 358.2344,68.1617 Q356.9219,66.4898 356.9219,63.3804 Q356.9219,60.2554 358.2344,58.5992 Q359.5625,56.9429 362.0469,56.9429 Q362.7656,56.9429 363.4219,57.0992 Q364.0625,57.2554 364.625,57.5523 L364.625,60.271 Q364.2656,59.9273 363.9688,59.7398 Q363.6719,59.5367 363.4063,59.4117 Q363.0938,59.271 362.7813,59.2085 Q362.4844,59.146 362.1719,59.146 Q360.8438,59.146 360.1563,60.2085 Q359.4688,61.3023 359.4688,63.3804 Q359.4688,65.4742 360.1563,66.5367 Q360.8438,67.6148 362.1719,67.6148 Q362.8125,67.6148 363.4063,67.3335 Q363.7031,67.2085 363.9844,67.021 Q364.2813,66.8179 364.625,66.4898 L364.625,69.2085 Q364.0469,69.5054 363.4063,69.6617 Q362.7813,69.8023 362.0469,69.8023 Z " fill="#000000"/><text fill="#000000" font-family="sans-serif" font-size="14" lengthAdjust="spacing" textLength="79" x="382.75" y="68.4999">5Siguientes</text><line style="stroke:#181818;stroke-width:0.5;" x1="309" x2="503" y1="79.0679" y2="79.0679"/><text fill="#000000" font-family="sans-serif" font-size="14" lengthAdjust="spacing" textLength="135" x="314" y="98.0339">Reducci&#243;n del ruido</text><line style="stroke:#181818;stroke-width:1.0;" x1="309" x2="503" y1="106.1358" y2="106.1358"/><ellipse cx="319" cy="121.1698" fill="#000000" rx="3" ry="3" style="stroke:#000000;stroke-width:1.0;"/><text fill="#000000" font-family="sans-serif" font-size="14" lengthAdjust="spacing" textLength="70" x="328" y="125.1018">Se estudia</text><ellipse cx="319" cy="140.2377" fill="#000000" rx="3" ry="3" style="stroke:#000000;stroke-width:1.0;"/><text fill="#000000" font-family="sans-serif" font-size="14" lengthAdjust="spacing" textLength="113" x="328" y="144.1697">Se contraestudia</text><ellipse cx="319" cy="159.3056" fill="#000000" rx="3" ry="3" style="stroke:#000000;stroke-width:1.0;"/><text fill="#000000" font-family="sans-serif" font-size="14" lengthAdjust="spacing" textLength="170" x="328" y="163.2376">Tesis / Ant&#237;tesis / S&#237;ntesis</text></g><!--class 5Posteriores--><g id="elem_5Posteriores"><rect codeLine="20" fill="#F1F1F1" height="105.2038" id="5Posteriores" rx="2.5" ry="2.5" style="stroke:#181818;stroke-width:0.5;" width="153" x="539.5" y="56.5679"/><ellipse cx="571.6" cy="72.5679" fill="#ADD1B2" rx="11" ry="11" style="stroke:#181818;stroke-width:1.0;"/><path d="M571.3969,79.3023 Q568.9125,79.3023 567.5844,77.6617 Q566.2719,75.9898 566.2719,72.8804 Q566.2719,69.7554 567.5844,68.0992 Q568.9125,66.4429 571.3969,66.4429 Q572.1156,66.4429 572.7719,66.5992 Q573.4125,66.7554 573.975,67.0523 L573.975,69.771 Q573.6156,69.4273 573.3188,69.2398 Q573.0219,69.0367 572.7563,68.9117 Q572.4438,68.771 572.1313,68.7085 Q571.8344,68.646 571.5219,68.646 Q570.1938,68.646 569.5063,69.7085 Q568.8188,70.8023 568.8188,72.8804 Q568.8188,74.9742 569.5063,76.0367 Q570.1938,77.1148 571.5219,77.1148 Q572.1625,77.1148 572.7563,76.8335 Q573.0531,76.7085 573.3344,76.521 Q573.6313,76.3179 573.975,75.9898 L573.975,78.7085 Q573.3969,79.0054 572.7563,79.1617 Q572.1313,79.3023 571.3969,79.3023 Z " fill="#000000"/><text fill="#000000" font-family="sans-serif" font-size="14" lengthAdjust="spacing" textLength="83" x="589.4" y="77.9999">5Posteriores</text><line style="stroke:#181818;stroke-width:0.5;" x1="540.5" x2="691.5" y1="88.5679" y2="88.5679"/><ellipse cx="550.5" cy="103.6019" fill="#000000" rx="3" ry="3" style="stroke:#000000;stroke-width:1.0;"/><text fill="#000000" font-family="sans-serif" font-size="14" lengthAdjust="spacing" textLength="69" x="559.5" y="107.5339">Se asienta</text><ellipse cx="550.5" cy="122.6698" fill="#000000" rx="3" ry="3" style="stroke:#000000;stroke-width:1.0;"/><text fill="#000000" font-family="sans-serif" font-size="14" lengthAdjust="spacing" textLength="127" x="559.5" y="126.6018">Se conoce lo valido</text><ellipse cx="550.5" cy="141.7377" fill="#000000" rx="3" ry="3" style="stroke:#000000;stroke-width:1.0;"/><text fill="#000000" font-family="sans-serif" font-size="14" lengthAdjust="spacing" textLength="99" x="559.5" y="145.6697">Se estandariza</text><line style="stroke:#181818;stroke-width:0.5;" x1="540.5" x2="691.5" y1="153.7717" y2="153.7717"/></g><!--link 5Primeros to 5Siguientes--><g id="link_5Primeros_5Siguientes"><path codeLine="26" d="M273.26,109.0679 C284.75,109.0679 290.25,109.0679 301.74,109.0679 " fill="none" id="5Primeros-to-5Siguientes" style="stroke:#181818;stroke-width:1.0;"/><polygon fill="#181818" points="307.74,109.0679,298.74,105.0679,302.74,109.0679,298.74,113.0679,307.74,109.0679" style="stroke:#181818;stroke-width:1.0;"/></g><!--link 5Siguientes to 5Posteriores--><g id="link_5Siguientes_5Posteriores"><path codeLine="27" d="M504.03,109.0679 C515.84,109.0679 521.65,109.0679 533.46,109.0679 " fill="none" id="5Siguientes-to-5Posteriores" style="stroke:#181818;stroke-width:1.0;"/><polygon fill="#181818" points="539.46,109.0679,530.46,105.0679,534.46,109.0679,530.46,113.0679,539.46,109.0679" style="stroke:#181818;stroke-width:1.0;"/></g><!--SRC=[JP0zJWGn38NxdCBQ4cb4HOk445GKYDaBU3DcPId4iuv3iIkED1L7c8lX3FipdUrdvtilnfO8DiyLqw4owGQCOfOa-td246B2Kk3XNVcBLCefl9Ge8nd2GF19oXYwhWjty2Q04NUOcp3MnEh3dW37nD6t9ViyYwixSkKLOsJ9LE1GVPyI-UKe2Wa1guas-a-u6kXvx-woaLlueA7wzVpRM0cqyY1d5mwaOdLmMqiJ9PlYRRIbmWNkuIdRFDcvwUSfBtK3NW9BCKydse3_GKhZtzwLI904lZ4r_0MDUK3bu-Bz-ckTTe-h165LBz8AzWS0]--></g></svg>