<?xml version="1.0" encoding="UTF-8" standalone="no"?><svg xmlns="http://www.w3.org/2000/svg" xmlns:xlink="http://www.w3.org/1999/xlink" contentStyleType="text/css" height="132px" preserveAspectRatio="none" style="width:655px;height:132px;background:#FFFFFF;" version="1.1" viewBox="0 0 655 132" width="655px" zoomAndPan="magnify"><defs/><g><!--MD5=[371134888c57114941920a2e54cdc767]
class 5Primeros--><g id="elem_5Primeros"><rect codeLine="1" fill="#F1F1F1" height="118.4375" id="5Primeros" rx="2.5" ry="2.5" style="stroke:#181818;stroke-width:0.5;" width="249" x="7" y="7"/><ellipse cx="95.25" cy="23" fill="#ADD1B2" rx="11" ry="11" style="stroke:#181818;stroke-width:1.0;"/><path d="M98.0156,18.875 Q98.1719,18.6563 98.3594,18.5469 Q98.5469,18.4375 98.7656,18.4375 Q99.1406,18.4375 99.375,18.7031 Q99.6094,18.9531 99.6094,19.5625 L99.6094,21.0156 Q99.6094,21.625 99.375,21.8906 Q99.1406,22.1563 98.7656,22.1563 Q98.4219,22.1563 98.2188,21.9531 Q98.0156,21.7656 97.9063,21.25 Q97.8594,20.8906 97.6719,20.7031 Q97.3438,20.3281 96.7344,20.1094 Q96.125,19.8906 95.5,19.8906 Q94.7344,19.8906 94.0938,20.2188 Q93.4688,20.5469 92.9688,21.2969 Q92.4844,22.0469 92.4844,23.0781 L92.4844,24.1719 Q92.4844,25.4063 93.375,26.2344 Q94.2656,27.0469 95.8594,27.0469 Q96.7969,27.0469 97.4531,26.7969 Q97.8438,26.6406 98.2656,26.2031 Q98.5313,25.9375 98.6719,25.8594 Q98.8281,25.7813 99.0313,25.7813 Q99.3594,25.7813 99.6094,26.0469 Q99.875,26.2969 99.875,26.6406 Q99.875,26.9844 99.5313,27.3906 Q99.0313,27.9688 98.2344,28.2969 Q97.1563,28.75 95.8594,28.75 Q94.3438,28.75 93.1406,28.125 Q92.1563,27.625 91.4688,26.5625 Q90.7813,25.4844 90.7813,24.2031 L90.7813,23.0469 Q90.7813,21.7188 91.3906,20.5781 Q92.0156,19.4219 93.1094,18.8125 Q94.2031,18.1875 95.4375,18.1875 Q96.1719,18.1875 96.8125,18.3594 Q97.4688,18.5156 98.0156,18.875 Z " fill="#000000"/><text fill="#000000" font-family="sans-serif" font-size="14" lengthAdjust="spacing" textLength="64" x="115.75" y="28.7285">5Primeros</text><line style="stroke:#181818;stroke-width:0.5;" x1="8" x2="255" y1="39" y2="39"/><text fill="#000000" font-family="sans-serif" font-size="14" lengthAdjust="spacing" textLength="111" x="27" y="57.5332">Escopeta de feria</text><rect fill="none" height="6" style="stroke:#C82930;stroke-width:1.0;" width="6" x="15" y="67.9141"/><text fill="#000000" font-family="sans-serif" font-size="14" lengthAdjust="spacing" textLength="113" x="27" y="75.1426">lo acaban de pulir</text><rect fill="none" height="6" style="stroke:#C82930;stroke-width:1.0;" width="6" x="15" y="85.5234"/><text fill="#000000" font-family="sans-serif" font-size="14" lengthAdjust="spacing" textLength="202" x="27" y="92.752">alguien lo aplica dodne no debe</text><rect fill="none" height="6" style="stroke:#C82930;stroke-width:1.0;" width="6" x="15" y="103.1328"/><text fill="#000000" font-family="sans-serif" font-size="14" lengthAdjust="spacing" textLength="223" x="27" y="110.3613">facciones que pelean por la autoria</text><line style="stroke:#181818;stroke-width:0.5;" x1="8" x2="255" y1="117.4375" y2="117.4375"/></g><!--MD5=[1691341f5b603015402afa10dc3ec13a]
class 5Siguientes--><g id="elem_5Siguientes"><rect codeLine="9" fill="#F1F1F1" height="118.4375" id="5Siguientes" rx="2.5" ry="2.5" style="stroke:#181818;stroke-width:0.5;" width="172" x="291.5" y="7"/><ellipse cx="336.25" cy="23" fill="#ADD1B2" rx="11" ry="11" style="stroke:#181818;stroke-width:1.0;"/><path d="M339.0156,18.875 Q339.1719,18.6563 339.3594,18.5469 Q339.5469,18.4375 339.7656,18.4375 Q340.1406,18.4375 340.375,18.7031 Q340.6094,18.9531 340.6094,19.5625 L340.6094,21.0156 Q340.6094,21.625 340.375,21.8906 Q340.1406,22.1563 339.7656,22.1563 Q339.4219,22.1563 339.2188,21.9531 Q339.0156,21.7656 338.9063,21.25 Q338.8594,20.8906 338.6719,20.7031 Q338.3438,20.3281 337.7344,20.1094 Q337.125,19.8906 336.5,19.8906 Q335.7344,19.8906 335.0938,20.2188 Q334.4688,20.5469 333.9688,21.2969 Q333.4844,22.0469 333.4844,23.0781 L333.4844,24.1719 Q333.4844,25.4063 334.375,26.2344 Q335.2656,27.0469 336.8594,27.0469 Q337.7969,27.0469 338.4531,26.7969 Q338.8438,26.6406 339.2656,26.2031 Q339.5313,25.9375 339.6719,25.8594 Q339.8281,25.7813 340.0313,25.7813 Q340.3594,25.7813 340.6094,26.0469 Q340.875,26.2969 340.875,26.6406 Q340.875,26.9844 340.5313,27.3906 Q340.0313,27.9688 339.2344,28.2969 Q338.1563,28.75 336.8594,28.75 Q335.3438,28.75 334.1406,28.125 Q333.1563,27.625 332.4688,26.5625 Q331.7813,25.4844 331.7813,24.2031 L331.7813,23.0469 Q331.7813,21.7188 332.3906,20.5781 Q333.0156,19.4219 334.1094,18.8125 Q335.2031,18.1875 336.4375,18.1875 Q337.1719,18.1875 337.8125,18.3594 Q338.4688,18.5156 339.0156,18.875 Z " fill="#000000"/><text fill="#000000" font-family="sans-serif" font-size="14" lengthAdjust="spacing" textLength="74" x="356.75" y="28.7285">5Siguientes</text><line style="stroke:#181818;stroke-width:0.5;" x1="292.5" x2="462.5" y1="39" y2="39"/><text fill="#000000" font-family="sans-serif" font-size="14" lengthAdjust="spacing" textLength="146" x="311.5" y="57.5332">Acaba un poco el ruido</text><rect fill="none" height="6" style="stroke:#C82930;stroke-width:1.0;" width="6" x="299.5" y="67.9141"/><text fill="#000000" font-family="sans-serif" font-size="14" lengthAdjust="spacing" textLength="67" x="311.5" y="75.1426">Se estudia</text><rect fill="none" height="6" style="stroke:#C82930;stroke-width:1.0;" width="6" x="299.5" y="85.5234"/><text fill="#000000" font-family="sans-serif" font-size="14" lengthAdjust="spacing" textLength="107" x="311.5" y="92.752">Se contraestudia</text><rect fill="none" height="6" style="stroke:#C82930;stroke-width:1.0;" width="6" x="299.5" y="103.1328"/><text fill="#000000" font-family="sans-serif" font-size="14" lengthAdjust="spacing" textLength="144" x="311.5" y="110.3613">Tesis Antitesis Sintesis</text><line style="stroke:#181818;stroke-width:0.5;" x1="292.5" x2="462.5" y1="117.4375" y2="117.4375"/></g><!--MD5=[2a97822da792db6bedde74460323ccc4]
class 5Posteriores--><g id="elem_5Posteriores"><rect codeLine="16" fill="#F1F1F1" height="100.8281" id="5Posteriores" rx="2.5" ry="2.5" style="stroke:#181818;stroke-width:0.5;" width="149" x="499" y="15.5"/><ellipse cx="530.65" cy="31.5" fill="#ADD1B2" rx="11" ry="11" style="stroke:#181818;stroke-width:1.0;"/><path d="M533.4156,27.375 Q533.5719,27.1563 533.7594,27.0469 Q533.9469,26.9375 534.1656,26.9375 Q534.5406,26.9375 534.775,27.2031 Q535.0094,27.4531 535.0094,28.0625 L535.0094,29.5156 Q535.0094,30.125 534.775,30.3906 Q534.5406,30.6563 534.1656,30.6563 Q533.8219,30.6563 533.6188,30.4531 Q533.4156,30.2656 533.3063,29.75 Q533.2594,29.3906 533.0719,29.2031 Q532.7438,28.8281 532.1344,28.6094 Q531.525,28.3906 530.9,28.3906 Q530.1344,28.3906 529.4938,28.7188 Q528.8688,29.0469 528.3688,29.7969 Q527.8844,30.5469 527.8844,31.5781 L527.8844,32.6719 Q527.8844,33.9063 528.775,34.7344 Q529.6656,35.5469 531.2594,35.5469 Q532.1969,35.5469 532.8531,35.2969 Q533.2438,35.1406 533.6656,34.7031 Q533.9313,34.4375 534.0719,34.3594 Q534.2281,34.2813 534.4313,34.2813 Q534.7594,34.2813 535.0094,34.5469 Q535.275,34.7969 535.275,35.1406 Q535.275,35.4844 534.9313,35.8906 Q534.4313,36.4688 533.6344,36.7969 Q532.5563,37.25 531.2594,37.25 Q529.7438,37.25 528.5406,36.625 Q527.5563,36.125 526.8688,35.0625 Q526.1813,33.9844 526.1813,32.7031 L526.1813,31.5469 Q526.1813,30.2188 526.7906,29.0781 Q527.4156,27.9219 528.5094,27.3125 Q529.6031,26.6875 530.8375,26.6875 Q531.5719,26.6875 532.2125,26.8594 Q532.8688,27.0156 533.4156,27.375 Z " fill="#000000"/><text fill="#000000" font-family="sans-serif" font-size="14" lengthAdjust="spacing" textLength="80" x="548.35" y="37.2285">5Posteriores</text><line style="stroke:#181818;stroke-width:0.5;" x1="500" x2="647" y1="47.5" y2="47.5"/><rect fill="none" height="6" style="stroke:#C82930;stroke-width:1.0;" width="6" x="507" y="58.8047"/><text fill="#000000" font-family="sans-serif" font-size="14" lengthAdjust="spacing" textLength="67" x="519" y="66.0332">Se asienta</text><rect fill="none" height="6" style="stroke:#C82930;stroke-width:1.0;" width="6" x="507" y="76.4141"/><text fill="#000000" font-family="sans-serif" font-size="14" lengthAdjust="spacing" textLength="123" x="519" y="83.6426">Se conoce lo valido</text><rect fill="none" height="6" style="stroke:#C82930;stroke-width:1.0;" width="6" x="507" y="94.0234"/><text fill="#000000" font-family="sans-serif" font-size="14" lengthAdjust="spacing" textLength="94" x="519" y="101.252">Se estandariza</text><line style="stroke:#181818;stroke-width:0.5;" x1="500" x2="647" y1="108.3281" y2="108.3281"/></g><!--MD5=[584194bab92e8124e381127c8dc5d0a1]
link 5Primeros to 5Siguientes--><g id="link_5Primeros_5Siguientes"><path codeLine="22" d="M256.42,66 C266.36,66 276.29,66 286.23,66 " fill="none" id="5Primeros-to-5Siguientes" style="stroke:#181818;stroke-width:1.0;"/><polygon fill="#181818" points="291.42,66,282.42,62,286.42,66,282.42,70,291.42,66" style="stroke:#181818;stroke-width:1.0;"/></g><!--MD5=[54fb031e488d65ce7debc9bb3ebdbed9]
link 5Siguientes to 5Posteriores--><g id="link_5Siguientes_5Posteriores"><path codeLine="23" d="M463.63,66 C473.62,66 483.61,66 493.6,66 " fill="none" id="5Siguientes-to-5Posteriores" style="stroke:#181818;stroke-width:1.0;"/><polygon fill="#181818" points="498.82,66,489.82,62,493.82,66,489.82,70,498.82,66" style="stroke:#181818;stroke-width:1.0;"/></g><!--MD5=[3d8d2b3158ec89aad83b273640a21628]
@startuml
class 5Primeros{
Escopeta de feria
- lo acaban de pulir
- alguien lo aplica dodne no debe
- facciones que pelean por la autoria
}


class 5Siguientes{
Acaba un poco el ruido
- Se estudia
- Se contraestudia
- Tesis Antitesis Sintesis
}

class 5Posteriores{
- Se asienta
- Se conoce lo valido
- Se estandariza
}

5Primeros-r->5Siguientes
5Siguientes-r->5Posteriores
@enduml

PlantUML version 1.2022.7(Mon Aug 22 19:01:30 CEST 2022)
(GPL source distribution)
Java Runtime: Java(TM) SE Runtime Environment
JVM: Java HotSpot(TM) 64-Bit Server VM
Default Encoding: UTF-8
Language: es
Country: ES
--></g></svg>