<?xml version="1.0" encoding="UTF-8" standalone="no"?><svg xmlns="http://www.w3.org/2000/svg" xmlns:xlink="http://www.w3.org/1999/xlink" contentStyleType="text/css" height="103px" preserveAspectRatio="none" style="width:337px;height:103px;background:#FFFFFF;" version="1.1" viewBox="0 0 337 103" width="337px" zoomAndPan="magnify"><defs/><g><!--MD5=[39d35433a52881124a2dbe258f710f68]
class datos--><g id="elem_datos"><rect codeLine="1" fill="#F1F1F1" height="48" id="datos" rx="2.5" ry="2.5" style="stroke:#181818;stroke-width:0.5;" width="67" x="7" y="48.97"/><ellipse cx="22" cy="64.97" fill="#ADD1B2" rx="11" ry="11" style="stroke:#181818;stroke-width:1.0;"/><path d="M24.7656,60.845 Q24.9219,60.6263 25.1094,60.5169 Q25.2969,60.4075 25.5156,60.4075 Q25.8906,60.4075 26.125,60.6731 Q26.3594,60.9231 26.3594,61.5325 L26.3594,62.9856 Q26.3594,63.595 26.125,63.8606 Q25.8906,64.1263 25.5156,64.1263 Q25.1719,64.1263 24.9688,63.9231 Q24.7656,63.7356 24.6563,63.22 Q24.6094,62.8606 24.4219,62.6731 Q24.0938,62.2981 23.4844,62.0794 Q22.875,61.8606 22.25,61.8606 Q21.4844,61.8606 20.8438,62.1888 Q20.2188,62.5169 19.7188,63.2669 Q19.2344,64.0169 19.2344,65.0481 L19.2344,66.1419 Q19.2344,67.3763 20.125,68.2044 Q21.0156,69.0169 22.6094,69.0169 Q23.5469,69.0169 24.2031,68.7669 Q24.5938,68.6106 25.0156,68.1731 Q25.2813,67.9075 25.4219,67.8294 Q25.5781,67.7513 25.7813,67.7513 Q26.1094,67.7513 26.3594,68.0169 Q26.625,68.2669 26.625,68.6106 Q26.625,68.9544 26.2813,69.3606 Q25.7813,69.9388 24.9844,70.2669 Q23.9063,70.72 22.6094,70.72 Q21.0938,70.72 19.8906,70.095 Q18.9063,69.595 18.2188,68.5325 Q17.5313,67.4544 17.5313,66.1731 L17.5313,65.0169 Q17.5313,63.6888 18.1406,62.5481 Q18.7656,61.3919 19.8594,60.7825 Q20.9531,60.1575 22.1875,60.1575 Q22.9219,60.1575 23.5625,60.3294 Q24.2188,60.4856 24.7656,60.845 Z " fill="#000000"/><text fill="#000000" font-family="sans-serif" font-size="14" lengthAdjust="spacing" textLength="35" x="36" y="70.6985">datos</text><line style="stroke:#181818;stroke-width:0.5;" x1="8" x2="73" y1="80.97" y2="80.97"/><line style="stroke:#181818;stroke-width:0.5;" x1="8" x2="73" y1="88.97" y2="88.97"/></g><!--MD5=[8ef086b2864151a5d92c2f53b00d3ab1]
class algoritmo--><g id="elem_algoritmo"><rect codeLine="2" fill="#F1F1F1" height="48" id="algoritmo" rx="2.5" ry="2.5" style="stroke:#181818;stroke-width:0.5;" width="90" x="109.5" y="48.97"/><ellipse cx="124.5" cy="64.97" fill="#ADD1B2" rx="11" ry="11" style="stroke:#181818;stroke-width:1.0;"/><path d="M127.2656,60.845 Q127.4219,60.6263 127.6094,60.5169 Q127.7969,60.4075 128.0156,60.4075 Q128.3906,60.4075 128.625,60.6731 Q128.8594,60.9231 128.8594,61.5325 L128.8594,62.9856 Q128.8594,63.595 128.625,63.8606 Q128.3906,64.1263 128.0156,64.1263 Q127.6719,64.1263 127.4688,63.9231 Q127.2656,63.7356 127.1563,63.22 Q127.1094,62.8606 126.9219,62.6731 Q126.5938,62.2981 125.9844,62.0794 Q125.375,61.8606 124.75,61.8606 Q123.9844,61.8606 123.3438,62.1888 Q122.7188,62.5169 122.2188,63.2669 Q121.7344,64.0169 121.7344,65.0481 L121.7344,66.1419 Q121.7344,67.3763 122.625,68.2044 Q123.5156,69.0169 125.1094,69.0169 Q126.0469,69.0169 126.7031,68.7669 Q127.0938,68.6106 127.5156,68.1731 Q127.7813,67.9075 127.9219,67.8294 Q128.0781,67.7513 128.2813,67.7513 Q128.6094,67.7513 128.8594,68.0169 Q129.125,68.2669 129.125,68.6106 Q129.125,68.9544 128.7813,69.3606 Q128.2813,69.9388 127.4844,70.2669 Q126.4063,70.72 125.1094,70.72 Q123.5938,70.72 122.3906,70.095 Q121.4063,69.595 120.7188,68.5325 Q120.0313,67.4544 120.0313,66.1731 L120.0313,65.0169 Q120.0313,63.6888 120.6406,62.5481 Q121.2656,61.3919 122.3594,60.7825 Q123.4531,60.1575 124.6875,60.1575 Q125.4219,60.1575 126.0625,60.3294 Q126.7188,60.4856 127.2656,60.845 Z " fill="#000000"/><text fill="#000000" font-family="sans-serif" font-size="14" lengthAdjust="spacing" textLength="58" x="138.5" y="70.6985">algoritmo</text><line style="stroke:#181818;stroke-width:0.5;" x1="110.5" x2="198.5" y1="80.97" y2="80.97"/><line style="stroke:#181818;stroke-width:0.5;" x1="110.5" x2="198.5" y1="88.97" y2="88.97"/></g><!--MD5=[d8d02831f34dfa3799162c0d13567ec5]
class aplicación--><g id="elem_aplicación"><rect codeLine="3" fill="#F1F1F1" height="48" id="aplicación" rx="2.5" ry="2.5" style="stroke:#181818;stroke-width:0.5;" width="95" x="235" y="48.97"/><ellipse cx="250" cy="64.97" fill="#ADD1B2" rx="11" ry="11" style="stroke:#181818;stroke-width:1.0;"/><path d="M252.7656,60.845 Q252.9219,60.6263 253.1094,60.5169 Q253.2969,60.4075 253.5156,60.4075 Q253.8906,60.4075 254.125,60.6731 Q254.3594,60.9231 254.3594,61.5325 L254.3594,62.9856 Q254.3594,63.595 254.125,63.8606 Q253.8906,64.1263 253.5156,64.1263 Q253.1719,64.1263 252.9688,63.9231 Q252.7656,63.7356 252.6563,63.22 Q252.6094,62.8606 252.4219,62.6731 Q252.0938,62.2981 251.4844,62.0794 Q250.875,61.8606 250.25,61.8606 Q249.4844,61.8606 248.8438,62.1888 Q248.2188,62.5169 247.7188,63.2669 Q247.2344,64.0169 247.2344,65.0481 L247.2344,66.1419 Q247.2344,67.3763 248.125,68.2044 Q249.0156,69.0169 250.6094,69.0169 Q251.5469,69.0169 252.2031,68.7669 Q252.5938,68.6106 253.0156,68.1731 Q253.2813,67.9075 253.4219,67.8294 Q253.5781,67.7513 253.7813,67.7513 Q254.1094,67.7513 254.3594,68.0169 Q254.625,68.2669 254.625,68.6106 Q254.625,68.9544 254.2813,69.3606 Q253.7813,69.9388 252.9844,70.2669 Q251.9063,70.72 250.6094,70.72 Q249.0938,70.72 247.8906,70.095 Q246.9063,69.595 246.2188,68.5325 Q245.5313,67.4544 245.5313,66.1731 L245.5313,65.0169 Q245.5313,63.6888 246.1406,62.5481 Q246.7656,61.3919 247.8594,60.7825 Q248.9531,60.1575 250.1875,60.1575 Q250.9219,60.1575 251.5625,60.3294 Q252.2188,60.4856 252.7656,60.845 Z " fill="#000000"/><text fill="#000000" font-family="sans-serif" font-size="14" lengthAdjust="spacing" textLength="63" x="264" y="70.6985">aplicación</text><line style="stroke:#181818;stroke-width:0.5;" x1="236" x2="329" y1="80.97" y2="80.97"/><line style="stroke:#181818;stroke-width:0.5;" x1="236" x2="329" y1="88.97" y2="88.97"/></g><!--MD5=[bd72988c5da9507817422a9f9d8745c8]
link algoritmo to aplicación--><g id="link_algoritmo_aplicación"><path codeLine="7" d="M205.17,72.97 C213.35,72.97 221.53,72.97 229.71,72.97 " fill="none" id="algoritmo-aplicación" style="stroke:#181818;stroke-width:1.0;"/><polygon fill="#181818" points="234.8,72.97,225.8,68.97,229.8,72.97,225.8,76.97,234.8,72.97" style="stroke:#181818;stroke-width:1.0;"/><polygon fill="#181818" points="200,72.97,209,76.97,205,72.97,209,68.97,200,72.97" style="stroke:#181818;stroke-width:1.0;"/></g><!--MD5=[641a4aa33c433705fbd906c0dedf11ae]
reverse link datos to algoritmo--><g id="link_datos_algoritmo"><path codeLine="8" d="M79.55,72.97 C89.5,72.97 99.46,72.97 109.41,72.97 " fill="none" id="datos-backto-algoritmo" style="stroke:#181818;stroke-width:1.0;"/><polygon fill="#181818" points="74.34,72.97,83.34,76.97,79.34,72.97,83.34,68.97,74.34,72.97" style="stroke:#181818;stroke-width:1.0;"/></g><!--MD5=[859f72798e8e347bcc85a0a4f877b251]
link aplicación to datos--><g id="link_aplicación_datos"><path codeLine="9" d="M254.43,48.7 C239.37,37.28 219.85,24.89 200,18.97 C161.67,7.54 147.84,6 110,18.97 C94.29,24.36 79.39,34.91 67.44,45.26 " fill="none" id="aplicación-to-datos" style="stroke:#181818;stroke-width:1.0;stroke-dasharray:7.0,7.0;"/><polygon fill="#181818" points="63.51,48.76,72.8934,45.7681,67.2463,45.4373,67.5771,39.7901,63.51,48.76" style="stroke:#181818;stroke-width:1.0;"/></g><!--MD5=[d3182f31dd977593f5c354c207df66f3]
@startuml
class datos
class algoritmo
class aplicación



aplicación <-l-> algoritmo
algoritmo -l-> datos
aplicación .> datos

@enduml

PlantUML version 1.2022.7(Mon Aug 22 19:01:30 CEST 2022)
(GPL source distribution)
Java Runtime: Java(TM) SE Runtime Environment
JVM: Java HotSpot(TM) 64-Bit Server VM
Default Encoding: UTF-8
Language: es
Country: ES
--></g></svg>