<?xml version="1.0" encoding="us-ascii" standalone="no"?><svg xmlns="http://www.w3.org/2000/svg" xmlns:xlink="http://www.w3.org/1999/xlink" contentStyleType="text/css" height="553px" preserveAspectRatio="none" style="width:945px;height:553px;background:#FFFFFF;" version="1.1" viewBox="0 0 945 553" width="945px" zoomAndPan="magnify"><defs/><g><rect fill="#F1F1F1" height="39.0679" rx="12.5" ry="12.5" style="stroke:#181818;stroke-width:1.5;" width="110" x="366" y="256.2717"/><a href="https://github.com/mmasias/ai-prompts/blob/main/documentos/hiperpanor%C3%A1mica.md" target="_top" title="https://github.com/mmasias/ai-prompts/blob/main/documentos/hiperpanor%C3%A1mica.md" xlink:actuate="onRequest" xlink:href="https://github.com/mmasias/ai-prompts/blob/main/documentos/hiperpanor%C3%A1mica.md" xlink:show="new" xlink:title="https://github.com/mmasias/ai-prompts/blob/main/documentos/hiperpanor%C3%A1mica.md" xlink:type="simple"><text fill="#0000FF" font-family="sans-serif" font-size="14" lengthAdjust="spacing" text-decoration="underline" textLength="90" x="376" y="281.2376">IA generativa</text></a><rect fill="#F1F1F1" height="39.0679" rx="12.5" ry="12.5" style="stroke:#181818;stroke-width:1.5;" width="56" x="526" y="79.0679"/><text fill="#000000" font-family="sans-serif" font-size="14" lengthAdjust="spacing" textLength="36" x="536" y="104.0339">Texto</text><rect fill="#F1F1F1" height="39.0679" rx="12.5" ry="12.5" style="stroke:#181818;stroke-width:1.5;" width="131" x="632" y="20"/><text fill="#000000" font-family="sans-serif" font-size="14" lengthAdjust="spacing" textLength="111" x="642" y="44.9659">Art&#237;culos y blogs</text><path d="M582,98.6019 L592,98.6019 C607,98.6019 607,39.534 622,39.534 L632,39.534 " fill="none" style="stroke:#181818;stroke-width:1.0;"/><rect fill="#F1F1F1" height="39.0679" rx="12.5" ry="12.5" style="stroke:#181818;stroke-width:1.5;" width="207" x="632" y="79.0679"/><text fill="#000000" font-family="sans-serif" font-size="14" lengthAdjust="spacing" textLength="187" x="642" y="104.0339">Descripciones de productos</text><path d="M582,98.6019 L592,98.6019 C607,98.6019 607,98.6019 622,98.6019 L632,98.6019 " fill="none" style="stroke:#181818;stroke-width:1.0;"/><rect fill="#F1F1F1" height="39.0679" rx="12.5" ry="12.5" style="stroke:#181818;stroke-width:1.5;" width="140" x="632" y="138.1358"/><text fill="#000000" font-family="sans-serif" font-size="14" lengthAdjust="spacing" textLength="120" x="642" y="163.1018">Poemas y cuentos</text><path d="M582,98.6019 L592,98.6019 C607,98.6019 607,157.6698 622,157.6698 L632,157.6698 " fill="none" style="stroke:#181818;stroke-width:1.0;"/><path d="M476,275.8056 L486,275.8056 C501,275.8056 501,98.6019 516,98.6019 L526,98.6019 " fill="none" style="stroke:#181818;stroke-width:1.0;"/><rect fill="#F1F1F1" height="39.0679" rx="12.5" ry="12.5" style="stroke:#181818;stroke-width:1.5;" width="68" x="526" y="256.2717"/><text fill="#000000" font-family="sans-serif" font-size="14" lengthAdjust="spacing" textLength="48" x="536" y="281.2376">M&#250;sica</text><rect fill="#F1F1F1" height="39.0679" rx="12.5" ry="12.5" style="stroke:#181818;stroke-width:1.5;" width="192" x="644" y="197.2038"/><text fill="#000000" font-family="sans-serif" font-size="14" lengthAdjust="spacing" textLength="172" x="654" y="222.1697">Composiciones musicales</text><path d="M594,275.8056 L604,275.8056 C619,275.8056 619,216.7377 634,216.7377 L644,216.7377 " fill="none" style="stroke:#181818;stroke-width:1.0;"/><rect fill="#F1F1F1" height="39.0679" rx="12.5" ry="12.5" style="stroke:#181818;stroke-width:1.5;" width="138" x="644" y="256.2717"/><text fill="#000000" font-family="sans-serif" font-size="14" lengthAdjust="spacing" textLength="118" x="654" y="281.2376">Efectos de sonido</text><path d="M594,275.8056 L604,275.8056 C619,275.8056 619,275.8056 634,275.8056 L644,275.8056 " fill="none" style="stroke:#181818;stroke-width:1.0;"/><rect fill="#F1F1F1" height="39.0679" rx="12.5" ry="12.5" style="stroke:#181818;stroke-width:1.5;" width="117" x="644" y="315.3396"/><text fill="#000000" font-family="sans-serif" font-size="14" lengthAdjust="spacing" textLength="97" x="654" y="340.3055">Voces y cantos</text><path d="M594,275.8056 L604,275.8056 C619,275.8056 619,334.8735 634,334.8735 L644,334.8735 " fill="none" style="stroke:#181818;stroke-width:1.0;"/><path d="M476,275.8056 L486,275.8056 C501,275.8056 501,275.8056 516,275.8056 L526,275.8056 " fill="none" style="stroke:#181818;stroke-width:1.0;"/><rect fill="#F1F1F1" height="39.0679" rx="12.5" ry="12.5" style="stroke:#181818;stroke-width:1.5;" width="170" x="526" y="433.4754"/><text fill="#000000" font-family="sans-serif" font-size="14" lengthAdjust="spacing" textLength="150" x="536" y="458.4414">Dise&#241;o y Modelado 3D</text><rect fill="#F1F1F1" height="39.0679" rx="12.5" ry="12.5" style="stroke:#181818;stroke-width:1.5;" width="187" x="746" y="374.4075"/><text fill="#000000" font-family="sans-serif" font-size="14" lengthAdjust="spacing" textLength="167" x="756" y="399.3734">Activos para videojuegos</text><path d="M696,453.0094 L706,453.0094 C721,453.0094 721,393.9415 736,393.9415 L746,393.9415 " fill="none" style="stroke:#181818;stroke-width:1.0;"/><rect fill="#F1F1F1" height="39.0679" rx="12.5" ry="12.5" style="stroke:#181818;stroke-width:1.5;" width="185" x="746" y="433.4754"/><text fill="#000000" font-family="sans-serif" font-size="14" lengthAdjust="spacing" textLength="165" x="756" y="458.4414">Modelos arquitect&#243;nicos</text><path d="M696,453.0094 L706,453.0094 C721,453.0094 721,453.0094 736,453.0094 L746,453.0094 " fill="none" style="stroke:#181818;stroke-width:1.0;"/><rect fill="#F1F1F1" height="39.0679" rx="12.5" ry="12.5" style="stroke:#181818;stroke-width:1.5;" width="181" x="746" y="492.5433"/><text fill="#000000" font-family="sans-serif" font-size="14" lengthAdjust="spacing" textLength="161" x="756" y="517.5093">Prototipos de productos</text><path d="M696,453.0094 L706,453.0094 C721,453.0094 721,512.0773 736,512.0773 L746,512.0773 " fill="none" style="stroke:#181818;stroke-width:1.0;"/><path d="M476,275.8056 L486,275.8056 C501,275.8056 501,453.0094 516,453.0094 L526,453.0094 " fill="none" style="stroke:#181818;stroke-width:1.0;"/><rect fill="#F1F1F1" height="39.0679" rx="12.5" ry="12.5" style="stroke:#181818;stroke-width:1.5;" width="87" x="229" y="79.0679"/><text fill="#000000" font-family="sans-serif" font-size="14" lengthAdjust="spacing" textLength="67" x="239" y="104.0339">Im&#225;genes</text><rect fill="#F1F1F1" height="39.0679" rx="12.5" ry="12.5" style="stroke:#181818;stroke-width:1.5;" width="95" x="84" y="20"/><text fill="#000000" font-family="sans-serif" font-size="14" lengthAdjust="spacing" textLength="75" x="94" y="44.9659">Arte digital</text><path d="M229,98.6019 L219,98.6019 C204,98.6019 204,39.534 189,39.534 L179,39.534 " fill="none" style="stroke:#181818;stroke-width:1.0;"/><rect fill="#F1F1F1" height="39.0679" rx="12.5" ry="12.5" style="stroke:#181818;stroke-width:1.5;" width="159" x="20" y="79.0679"/><text fill="#000000" font-family="sans-serif" font-size="14" lengthAdjust="spacing" textLength="139" x="30" y="104.0339">Dise&#241;o de productos</text><path d="M229,98.6019 L219,98.6019 C204,98.6019 204,98.6019 189,98.6019 L179,98.6019 " fill="none" style="stroke:#181818;stroke-width:1.0;"/><rect fill="#F1F1F1" height="39.0679" rx="12.5" ry="12.5" style="stroke:#181818;stroke-width:1.5;" width="148" x="31" y="138.1358"/><text fill="#000000" font-family="sans-serif" font-size="14" lengthAdjust="spacing" textLength="128" x="41" y="163.1018">Retratos y avatares</text><path d="M229,98.6019 L219,98.6019 C204,98.6019 204,157.6698 189,157.6698 L179,157.6698 " fill="none" style="stroke:#181818;stroke-width:1.0;"/><path d="M366,275.8056 L356,275.8056 C341,275.8056 341,98.6019 326,98.6019 L316,98.6019 " fill="none" style="stroke:#181818;stroke-width:1.0;"/><rect fill="#F1F1F1" height="39.0679" rx="12.5" ry="12.5" style="stroke:#181818;stroke-width:1.5;" width="57" x="259" y="256.2717"/><text fill="#000000" font-family="sans-serif" font-size="14" lengthAdjust="spacing" textLength="37" x="269" y="281.2376">Video</text><rect fill="#F1F1F1" height="39.0679" rx="12.5" ry="12.5" style="stroke:#181818;stroke-width:1.5;" width="170" x="39" y="197.2038"/><text fill="#000000" font-family="sans-serif" font-size="14" lengthAdjust="spacing" textLength="150" x="49" y="222.1697">Anuncios publicitarios</text><path d="M259,275.8056 L249,275.8056 C234,275.8056 234,216.7377 219,216.7377 L209,216.7377 " fill="none" style="stroke:#181818;stroke-width:1.0;"/><rect fill="#F1F1F1" height="39.0679" rx="12.5" ry="12.5" style="stroke:#181818;stroke-width:1.5;" width="109" x="100" y="256.2717"/><text fill="#000000" font-family="sans-serif" font-size="14" lengthAdjust="spacing" textLength="89" x="110" y="281.2376">Simulaciones</text><path d="M259,275.8056 L249,275.8056 C234,275.8056 234,275.8056 219,275.8056 L209,275.8056 " fill="none" style="stroke:#181818;stroke-width:1.0;"/><rect fill="#F1F1F1" height="39.0679" rx="12.5" ry="12.5" style="stroke:#181818;stroke-width:1.5;" width="115" x="94" y="315.3396"/><text fill="#000000" font-family="sans-serif" font-size="14" lengthAdjust="spacing" textLength="95" x="104" y="340.3055">Cortometrajes</text><path d="M259,275.8056 L249,275.8056 C234,275.8056 234,334.8735 219,334.8735 L209,334.8735 " fill="none" style="stroke:#181818;stroke-width:1.0;"/><path d="M366,275.8056 L356,275.8056 C341,275.8056 341,275.8056 326,275.8056 L316,275.8056 " fill="none" style="stroke:#181818;stroke-width:1.0;"/><rect fill="#F1F1F1" height="39.0679" rx="12.5" ry="12.5" style="stroke:#181818;stroke-width:1.5;" width="67" x="249" y="433.4754"/><text fill="#000000" font-family="sans-serif" font-size="14" lengthAdjust="spacing" textLength="47" x="259" y="458.4414">C&#243;digo</text><rect fill="#F1F1F1" height="39.0679" rx="12.5" ry="12.5" style="stroke:#181818;stroke-width:1.5;" width="149" x="50" y="374.4075"/><text fill="#000000" font-family="sans-serif" font-size="14" lengthAdjust="spacing" textLength="129" x="60" y="399.3734">Snippets de c&#243;digo</text><path d="M249,453.0094 L239,453.0094 C224,453.0094 224,393.9415 209,393.9415 L199,393.9415 " fill="none" style="stroke:#181818;stroke-width:1.0;"/><rect fill="#F1F1F1" height="39.0679" rx="12.5" ry="12.5" style="stroke:#181818;stroke-width:1.5;" width="189" x="10" y="433.4754"/><text fill="#000000" font-family="sans-serif" font-size="14" lengthAdjust="spacing" textLength="169" x="20" y="458.4414">Soluciones de algoritmos</text><path d="M249,453.0094 L239,453.0094 C224,453.0094 224,453.0094 209,453.0094 L199,453.0094 " fill="none" style="stroke:#181818;stroke-width:1.0;"/><rect fill="#F1F1F1" height="39.0679" rx="12.5" ry="12.5" style="stroke:#181818;stroke-width:1.5;" width="164" x="35" y="492.5433"/><text fill="#000000" font-family="sans-serif" font-size="14" lengthAdjust="spacing" textLength="144" x="45" y="517.5093">Interfaces de usuario</text><path d="M249,453.0094 L239,453.0094 C224,453.0094 224,512.0773 209,512.0773 L199,512.0773 " fill="none" style="stroke:#181818;stroke-width:1.0;"/><path d="M366,275.8056 L356,275.8056 C341,275.8056 341,453.0094 326,453.0094 L316,453.0094 " fill="none" style="stroke:#181818;stroke-width:1.0;"/><!--SRC=[xLHDJnin4BtlhvWBAYXADWIegfoWIQYWH4Kav88uEDvXOxhskFw8uEVq1_HGSUirVwnZBocbVw0NRkjvzfitRvxss0VXWbQcqi8MnJlmNvMnmWaDWMnq3Qn2i7vObhOH9aJTz2JfiYWwS7EpXMeLLd6P0Qs5LyANGdMj8ss3BvSDBKijb2ahab6Z2UJBbRBeh33aTaO7EoVxMadHqnMSdK2D1fq8QYrkRujE1-Ru48W_Ed3YmkQ7Z0rvU0IchNqkZz5BfwnKPD13XS2TgoYvJOOl2LaKlv0nzowwNJZJc- -fJpfaNeHAyHYYoOMnyhZvIQ-v4d25WQNb_c8jsBhC00jL8RLK9XeMui76PQCaCphr_7QcT6n4gp8NHkG2wSHuZqagJ3U_FFkGLO_OFE9JEvIE2MYmdMXoXqbHakV9gAfrPq4IyvZ2jAF_6UCHfbHX8og2Wt7hf6H_aqhUDAoJ-lk8zRDX-JA3mdsBAd2hpPDHSkkceq11MVB_kWEZpHERsFemCyfQ3FcI_BjEJNnPb6XgSYhePuVEJ41t9sGBHX-JUSKnSZYt0Jr-dTUt6Bx5y7_4y3Bz3A-d5x16vva7zdk3_k2mTx0xNqKunINi7y6WFppi3_j7C9hC8S5xnUwdoulrWEsAJgPT- -3KCWPcs2lEUPLm5KrG6eVmnQ8v7t_U5c1YrigHIRajpXVJbmll3xiVLO0PEjO2YsannZiHcy0l95NAr4EudfzsFnGNmjHHrCpD-niHyxh78Knclm40]--></g></svg>