<?xml version="1.0" encoding="UTF-8" standalone="no"?><svg xmlns="http://www.w3.org/2000/svg" xmlns:xlink="http://www.w3.org/1999/xlink" contentStyleType="text/css" height="513px" preserveAspectRatio="none" style="width:488px;height:513px;background:#FFFFFF;" version="1.1" viewBox="0 0 488 513" width="488px" zoomAndPan="magnify"><defs/><g><!--MD5=[35a64b983c79880384a2fd9b61f0c24b]
class Usuario--><g id="elem_Usuario"><rect fill="#F1F1F1" height="48" id="Usuario" rx="2.5" ry="2.5" style="stroke:#181818;stroke-width:0.5;" width="85" x="197" y="7"/><ellipse cx="212" cy="23" fill="#ADD1B2" rx="11" ry="11" style="stroke:#181818;stroke-width:1.0;"/><path d="M214.4731,29.1431 Q213.8921,29.4419 213.2529,29.5913 Q212.6138,29.7407 211.9082,29.7407 Q209.4014,29.7407 208.0815,28.0889 Q206.7617,26.437 206.7617,23.3159 Q206.7617,20.1865 208.0815,18.5347 Q209.4014,16.8828 211.9082,16.8828 Q212.6138,16.8828 213.2612,17.0322 Q213.9087,17.1816 214.4731,17.4805 L214.4731,20.2031 Q213.8423,19.6221 213.2488,19.3523 Q212.6553,19.0825 212.0244,19.0825 Q210.6797,19.0825 209.9949,20.1492 Q209.3101,21.2158 209.3101,23.3159 Q209.3101,25.4077 209.9949,26.4744 Q210.6797,27.541 212.0244,27.541 Q212.6553,27.541 213.2488,27.2712 Q213.8423,27.0015 214.4731,26.4204 Z " fill="#000000"/><text fill="#000000" font-family="sans-serif" font-size="14" lengthAdjust="spacing" textLength="53" x="226" y="28.291">Usuario</text><line style="stroke:#181818;stroke-width:0.5;" x1="198" x2="281" y1="39" y2="39"/><line style="stroke:#181818;stroke-width:0.5;" x1="198" x2="281" y1="47" y2="47"/></g><!--MD5=[d755c5174fbc4166a0b82a39f0ad1a0e]
class AI--><g id="elem_AI"><rect fill="#F1F1F1" height="48" id="AI" rx="2.5" ry="2.5" style="stroke:#181818;stroke-width:0.5;" width="46" x="368.5" y="7"/><ellipse cx="383.5" cy="23" fill="#ADD1B2" rx="11" ry="11" style="stroke:#181818;stroke-width:1.0;"/><path d="M385.9731,29.1431 Q385.3921,29.4419 384.7529,29.5913 Q384.1138,29.7407 383.4082,29.7407 Q380.9014,29.7407 379.5815,28.0889 Q378.2617,26.437 378.2617,23.3159 Q378.2617,20.1865 379.5815,18.5347 Q380.9014,16.8828 383.4082,16.8828 Q384.1138,16.8828 384.7612,17.0322 Q385.4087,17.1816 385.9731,17.4805 L385.9731,20.2031 Q385.3423,19.6221 384.7488,19.3523 Q384.1553,19.0825 383.5244,19.0825 Q382.1797,19.0825 381.4949,20.1492 Q380.8101,21.2158 380.8101,23.3159 Q380.8101,25.4077 381.4949,26.4744 Q382.1797,27.541 383.5244,27.541 Q384.1553,27.541 384.7488,27.2712 Q385.3423,27.0015 385.9731,26.4204 Z " fill="#000000"/><text fill="#000000" font-family="sans-serif" font-size="14" lengthAdjust="spacing" textLength="14" x="397.5" y="28.291">AI</text><line style="stroke:#181818;stroke-width:0.5;" x1="369.5" x2="413.5" y1="39" y2="39"/><line style="stroke:#181818;stroke-width:0.5;" x1="369.5" x2="413.5" y1="47" y2="47"/></g><!--MD5=[62ab4910f5761f5c43e61a15aef79c5c]
class Respuestas--><g id="elem_Respuestas"><rect fill="#F1F1F1" height="48" id="Respuestas" rx="2.5" ry="2.5" style="stroke:#181818;stroke-width:0.5;" width="109" x="327" y="178"/><ellipse cx="342" cy="194" fill="#ADD1B2" rx="11" ry="11" style="stroke:#181818;stroke-width:1.0;"/><path d="M344.4731,200.1431 Q343.8921,200.4419 343.2529,200.5913 Q342.6138,200.7407 341.9082,200.7407 Q339.4014,200.7407 338.0815,199.0889 Q336.7617,197.437 336.7617,194.3159 Q336.7617,191.1865 338.0815,189.5347 Q339.4014,187.8828 341.9082,187.8828 Q342.6138,187.8828 343.2612,188.0322 Q343.9087,188.1816 344.4731,188.4805 L344.4731,191.2031 Q343.8423,190.6221 343.2488,190.3523 Q342.6553,190.0825 342.0244,190.0825 Q340.6797,190.0825 339.9949,191.1492 Q339.3101,192.2158 339.3101,194.3159 Q339.3101,196.4077 339.9949,197.4744 Q340.6797,198.541 342.0244,198.541 Q342.6553,198.541 343.2488,198.2712 Q343.8423,198.0015 344.4731,197.4204 Z " fill="#000000"/><text fill="#000000" font-family="sans-serif" font-size="14" lengthAdjust="spacing" textLength="77" x="356" y="199.291">Respuestas</text><line style="stroke:#181818;stroke-width:0.5;" x1="328" x2="435" y1="210" y2="210"/><line style="stroke:#181818;stroke-width:0.5;" x1="328" x2="435" y1="218" y2="218"/></g><!--MD5=[d0c60dc565373098dafafbef8dc9fcdd]
class Interpretar--><g id="elem_Interpretar"><rect fill="#F1F1F1" height="48" id="Interpretar" rx="2.5" ry="2.5" style="stroke:#181818;stroke-width:0.5;" width="106" x="186.5" y="178"/><ellipse cx="201.5" cy="194" fill="#ADD1B2" rx="11" ry="11" style="stroke:#181818;stroke-width:1.0;"/><path d="M203.9731,200.1431 Q203.3921,200.4419 202.7529,200.5913 Q202.1138,200.7407 201.4082,200.7407 Q198.9014,200.7407 197.5815,199.0889 Q196.2617,197.437 196.2617,194.3159 Q196.2617,191.1865 197.5815,189.5347 Q198.9014,187.8828 201.4082,187.8828 Q202.1138,187.8828 202.7612,188.0322 Q203.4087,188.1816 203.9731,188.4805 L203.9731,191.2031 Q203.3423,190.6221 202.7488,190.3523 Q202.1553,190.0825 201.5244,190.0825 Q200.1797,190.0825 199.4949,191.1492 Q198.8101,192.2158 198.8101,194.3159 Q198.8101,196.4077 199.4949,197.4744 Q200.1797,198.541 201.5244,198.541 Q202.1553,198.541 202.7488,198.2712 Q203.3423,198.0015 203.9731,197.4204 Z " fill="#000000"/><text fill="#000000" font-family="sans-serif" font-size="14" lengthAdjust="spacing" textLength="74" x="215.5" y="199.291">Interpretar</text><line style="stroke:#181818;stroke-width:0.5;" x1="187.5" x2="291.5" y1="210" y2="210"/><line style="stroke:#181818;stroke-width:0.5;" x1="187.5" x2="291.5" y1="218" y2="218"/></g><!--MD5=[378f95f7275c673109e5a17a6008f39b]
class Aplicar--><g id="elem_Aplicar"><rect fill="#F1F1F1" height="48" id="Aplicar" rx="2.5" ry="2.5" style="stroke:#181818;stroke-width:0.5;" width="80" x="199.5" y="349"/><ellipse cx="214.5" cy="365" fill="#ADD1B2" rx="11" ry="11" style="stroke:#181818;stroke-width:1.0;"/><path d="M216.9731,371.1431 Q216.3921,371.4419 215.7529,371.5913 Q215.1138,371.7407 214.4082,371.7407 Q211.9014,371.7407 210.5815,370.0889 Q209.2617,368.437 209.2617,365.3159 Q209.2617,362.1865 210.5815,360.5347 Q211.9014,358.8828 214.4082,358.8828 Q215.1138,358.8828 215.7612,359.0322 Q216.4087,359.1816 216.9731,359.4805 L216.9731,362.2031 Q216.3423,361.6221 215.7488,361.3523 Q215.1553,361.0825 214.5244,361.0825 Q213.1797,361.0825 212.4949,362.1492 Q211.8101,363.2158 211.8101,365.3159 Q211.8101,367.4077 212.4949,368.4744 Q213.1797,369.541 214.5244,369.541 Q215.1553,369.541 215.7488,369.2712 Q216.3423,369.0015 216.9731,368.4204 Z " fill="#000000"/><text fill="#000000" font-family="sans-serif" font-size="14" lengthAdjust="spacing" textLength="48" x="228.5" y="370.291">Aplicar</text><line style="stroke:#181818;stroke-width:0.5;" x1="200.5" x2="278.5" y1="381" y2="381"/><line style="stroke:#181818;stroke-width:0.5;" x1="200.5" x2="278.5" y1="389" y2="389"/></g><!--MD5=[693dfe8b52ae5402cf7214a030e420ad]
class Implicaciones--><g id="elem_Implicaciones"><rect fill="#F1F1F1" height="48" id="Implicaciones" rx="2.5" ry="2.5" style="stroke:#181818;stroke-width:0.5;" width="125" x="7" y="458"/><ellipse cx="22" cy="474" fill="#ADD1B2" rx="11" ry="11" style="stroke:#181818;stroke-width:1.0;"/><path d="M24.4731,480.1431 Q23.8921,480.4419 23.2529,480.5913 Q22.6138,480.7407 21.9082,480.7407 Q19.4014,480.7407 18.0815,479.0889 Q16.7617,477.437 16.7617,474.3159 Q16.7617,471.1865 18.0815,469.5347 Q19.4014,467.8828 21.9082,467.8828 Q22.6138,467.8828 23.2612,468.0322 Q23.9087,468.1816 24.4731,468.4805 L24.4731,471.2031 Q23.8423,470.6221 23.2488,470.3523 Q22.6553,470.0825 22.0244,470.0825 Q20.6797,470.0825 19.9949,471.1492 Q19.3101,472.2158 19.3101,474.3159 Q19.3101,476.4077 19.9949,477.4744 Q20.6797,478.541 22.0244,478.541 Q22.6553,478.541 23.2488,478.2712 Q23.8423,478.0015 24.4731,477.4204 Z " fill="#000000"/><text fill="#000000" font-family="sans-serif" font-size="14" lengthAdjust="spacing" textLength="93" x="36" y="479.291">Implicaciones</text><line style="stroke:#181818;stroke-width:0.5;" x1="8" x2="131" y1="490" y2="490"/><line style="stroke:#181818;stroke-width:0.5;" x1="8" x2="131" y1="498" y2="498"/></g><!--MD5=[e696e126dcefe1fa3c751fe377d75e62]
class Responsabilidad--><g id="elem_Responsabilidad"><rect fill="#F1F1F1" height="48" id="Responsabilidad" rx="2.5" ry="2.5" style="stroke:#181818;stroke-width:0.5;" width="145" x="167" y="458"/><ellipse cx="182" cy="474" fill="#ADD1B2" rx="11" ry="11" style="stroke:#181818;stroke-width:1.0;"/><path d="M184.4731,480.1431 Q183.8921,480.4419 183.2529,480.5913 Q182.6138,480.7407 181.9082,480.7407 Q179.4014,480.7407 178.0815,479.0889 Q176.7617,477.437 176.7617,474.3159 Q176.7617,471.1865 178.0815,469.5347 Q179.4014,467.8828 181.9082,467.8828 Q182.6138,467.8828 183.2612,468.0322 Q183.9087,468.1816 184.4731,468.4805 L184.4731,471.2031 Q183.8423,470.6221 183.2488,470.3523 Q182.6553,470.0825 182.0244,470.0825 Q180.6797,470.0825 179.9949,471.1492 Q179.3101,472.2158 179.3101,474.3159 Q179.3101,476.4077 179.9949,477.4744 Q180.6797,478.541 182.0244,478.541 Q182.6553,478.541 183.2488,478.2712 Q183.8423,478.0015 184.4731,477.4204 Z " fill="#000000"/><text fill="#000000" font-family="sans-serif" font-size="14" lengthAdjust="spacing" textLength="113" x="196" y="479.291">Responsabilidad</text><line style="stroke:#181818;stroke-width:0.5;" x1="168" x2="311" y1="490" y2="490"/><line style="stroke:#181818;stroke-width:0.5;" x1="168" x2="311" y1="498" y2="498"/></g><!--MD5=[77919a1b6bd8b43b01f0a6c88961eefb]
class Consecuencias--><g id="elem_Consecuencias"><rect fill="#F1F1F1" height="48" id="Consecuencias" rx="2.5" ry="2.5" style="stroke:#181818;stroke-width:0.5;" width="134" x="347.5" y="458"/><ellipse cx="362.5" cy="474" fill="#ADD1B2" rx="11" ry="11" style="stroke:#181818;stroke-width:1.0;"/><path d="M364.9731,480.1431 Q364.3921,480.4419 363.7529,480.5913 Q363.1138,480.7407 362.4082,480.7407 Q359.9014,480.7407 358.5815,479.0889 Q357.2617,477.437 357.2617,474.3159 Q357.2617,471.1865 358.5815,469.5347 Q359.9014,467.8828 362.4082,467.8828 Q363.1138,467.8828 363.7612,468.0322 Q364.4087,468.1816 364.9731,468.4805 L364.9731,471.2031 Q364.3423,470.6221 363.7488,470.3523 Q363.1553,470.0825 362.5244,470.0825 Q361.1797,470.0825 360.4949,471.1492 Q359.8101,472.2158 359.8101,474.3159 Q359.8101,476.4077 360.4949,477.4744 Q361.1797,478.541 362.5244,478.541 Q363.1553,478.541 363.7488,478.2712 Q364.3423,478.0015 364.9731,477.4204 Z " fill="#000000"/><text fill="#000000" font-family="sans-serif" font-size="14" lengthAdjust="spacing" textLength="102" x="376.5" y="479.291">Consecuencias</text><line style="stroke:#181818;stroke-width:0.5;" x1="348.5" x2="480.5" y1="490" y2="490"/><line style="stroke:#181818;stroke-width:0.5;" x1="348.5" x2="480.5" y1="498" y2="498"/></g><!--MD5=[4c3cd31f7742d98547cc75a6615b42d5]
link Usuario to AI--><g id="link_Usuario_AI"><path codeLine="1" d="M282.24,31 C307.88,31 339.8,31 362.5,31 " fill="none" id="Usuario-to-AI" style="stroke:#181818;stroke-width:1.0;"/><polygon fill="#181818" points="367.36,31,358.36,27,362.36,31,358.36,35,367.36,31" style="stroke:#181818;stroke-width:1.0;"/><text fill="#000000" font-family="sans-serif" font-size="13" lengthAdjust="spacing" textLength="50" x="300.25" y="24.5684">órdenes</text></g><!--MD5=[cf86a9ea6f0d924664c9d91ac2461d64]
link AI to Respuestas--><g id="link_AI_Respuestas"><path codeLine="2" d="M390.11,55.5 C388.31,85.89 385.18,138.84 383.23,171.79 " fill="none" id="AI-to-Respuestas" style="stroke:#181818;stroke-width:1.0;stroke-dasharray:7.0,7.0;"/><polygon fill="#181818" points="382.88,176.7,387.3884,167.9436,383.1661,171.7082,379.4015,167.4859,382.88,176.7" style="stroke:#181818;stroke-width:1.0;"/></g><!--MD5=[289473cbecf00a3acd0711367475ae10]
reverse link Usuario to Respuestas--><g id="link_Usuario_Respuestas"><path codeLine="3" d="M262.86,59.8 C290.5,92.7 336.04,146.9 361.92,177.7 " fill="none" id="Usuario-backto-Respuestas" style="stroke:#181818;stroke-width:1.0;stroke-dasharray:7.0,7.0;"/><polygon fill="#181818" points="259.24,56.5,261.9634,65.9648,262.455,60.3294,268.0904,60.8209,259.24,56.5" style="stroke:#181818;stroke-width:1.0;"/></g><!--MD5=[bbe6cf88bdca438ea6cb6cffb0b35996]
link Usuario to Interpretar--><g id="link_Usuario_Interpretar"><path codeLine="6" d="M239.5,55.5 C239.5,87.79 239.5,145.52 239.5,177.7 " fill="none" id="Usuario-Interpretar" style="stroke:#181818;stroke-width:1.0;stroke-dasharray:7.0,7.0;"/></g><!--MD5=[5d3686bdc0b50a15c076abd5bca33261]
link Interpretar to Respuestas--><g id="link_Interpretar_Respuestas"><path codeLine="7" d="M292.75,202 C304.07,202 315.4,202 326.72,202 " fill="none" id="Interpretar-Respuestas" style="stroke:#181818;stroke-width:1.0;stroke-dasharray:7.0,7.0;"/></g><!--MD5=[98ea6004c55a11362dc5e2f907a6a1c0]
link Interpretar to Aplicar--><g id="link_Interpretar_Aplicar"><path codeLine="8" d="M239.5,226.5 C239.5,258.79 239.5,316.52 239.5,348.7 " fill="none" id="Interpretar-Aplicar" style="stroke:#181818;stroke-width:1.0;stroke-dasharray:7.0,7.0;"/></g><!--MD5=[0a0fb5daaa187cc3357b4b8bb6ca3988]
reverse link Aplicar to Implicaciones--><g id="link_Aplicar_Implicaciones"><path codeLine="10" d="M190.39,404.91 C163.73,421.69 131.28,442.11 106.72,457.57 " fill="none" id="Aplicar-backto-Implicaciones" style="stroke:#181818;stroke-width:1.0;stroke-dasharray:7.0,7.0;"/><polygon fill="none" points="201.19,397.48,193.9815,397.2865,191.0304,403.8661,198.2389,404.0596,201.19,397.48" style="stroke:#181818;stroke-width:1.0;"/></g><!--MD5=[08bbc692b1cce7ae4e3e983d91667c9c]
reverse link Aplicar to Responsabilidad--><g id="link_Aplicar_Responsabilidad"><path codeLine="11" d="M239.5,411.41 C239.5,426.77 239.5,444.06 239.5,457.57 " fill="none" id="Aplicar-backto-Responsabilidad" style="stroke:#181818;stroke-width:1.0;stroke-dasharray:7.0,7.0;"/><polygon fill="none" points="239.5,398.48,235.5,404.48,239.5,410.48,243.5,404.48,239.5,398.48" style="stroke:#181818;stroke-width:1.0;"/></g><!--MD5=[3fa0c7ce1a1f4c9cd30bca9945ae2fcd]
reverse link Aplicar to Consecuencias--><g id="link_Aplicar_Consecuencias"><path codeLine="12" d="M289.68,404.68 C317.2,421.51 350.79,442.04 376.19,457.57 " fill="none" id="Aplicar-backto-Consecuencias" style="stroke:#181818;stroke-width:1.0;stroke-dasharray:7.0,7.0;"/><polygon fill="none" points="278.9,397.48,281.9291,404.024,289.1348,403.7449,286.1057,397.2008,278.9,397.48" style="stroke:#181818;stroke-width:1.0;"/></g><!--MD5=[73eb1ff87dd5f83f92acd95cadbd3325]
@startuml
Usuario -r-> AI : órdenes
AI .d..> Respuestas
Respuestas .u.> Usuario


Usuario .d.. Interpretar
Respuestas .l.. Interpretar
Interpretar .d.. Aplicar

Aplicar o.. Implicaciones
Aplicar o.. Responsabilidad
Aplicar o.. Consecuencias
@enduml

PlantUML version 1.2022.7(Mon Aug 22 19:01:30 CEST 2022)
(GPL source distribution)
Java Runtime: Java(TM) SE Runtime Environment
JVM: Java HotSpot(TM) 64-Bit Server VM
Default Encoding: UTF-8
Language: es
Country: ES
--></g></svg>