<?xml version="1.0" encoding="UTF-8" standalone="no"?><svg xmlns="http://www.w3.org/2000/svg" xmlns:xlink="http://www.w3.org/1999/xlink" contentStyleType="text/css" height="230px" preserveAspectRatio="none" style="width:508px;height:230px;background:#FFFFFF;" version="1.1" viewBox="0 0 508 230" width="508px" zoomAndPan="magnify"><defs/><g><!--MD5=[d31afda0cc48baf0421fddc3e8b169da]
class p1--><g id="elem_p1"><rect codeLine="3" fill="#F1F1F1" height="32" id="p1" rx="2.5" ry="2.5" style="stroke:#181818;stroke-width:0.5;" width="100" x="141" y="7"/><ellipse cx="156" cy="23" fill="#ADD1B2" rx="11" ry="11" style="stroke:#181818;stroke-width:1.0;"/><path d="M158.7656,18.875 Q158.9219,18.6563 159.1094,18.5469 Q159.2969,18.4375 159.5156,18.4375 Q159.8906,18.4375 160.125,18.7031 Q160.3594,18.9531 160.3594,19.5625 L160.3594,21.0156 Q160.3594,21.625 160.125,21.8906 Q159.8906,22.1563 159.5156,22.1563 Q159.1719,22.1563 158.9688,21.9531 Q158.7656,21.7656 158.6563,21.25 Q158.6094,20.8906 158.4219,20.7031 Q158.0938,20.3281 157.4844,20.1094 Q156.875,19.8906 156.25,19.8906 Q155.4844,19.8906 154.8438,20.2188 Q154.2188,20.5469 153.7188,21.2969 Q153.2344,22.0469 153.2344,23.0781 L153.2344,24.1719 Q153.2344,25.4063 154.125,26.2344 Q155.0156,27.0469 156.6094,27.0469 Q157.5469,27.0469 158.2031,26.7969 Q158.5938,26.6406 159.0156,26.2031 Q159.2813,25.9375 159.4219,25.8594 Q159.5781,25.7813 159.7813,25.7813 Q160.1094,25.7813 160.3594,26.0469 Q160.625,26.2969 160.625,26.6406 Q160.625,26.9844 160.2813,27.3906 Q159.7813,27.9688 158.9844,28.2969 Q157.9063,28.75 156.6094,28.75 Q155.0938,28.75 153.8906,28.125 Q152.9063,27.625 152.2188,26.5625 Q151.5313,25.4844 151.5313,24.2031 L151.5313,23.0469 Q151.5313,21.7188 152.1406,20.5781 Q152.7656,19.4219 153.8594,18.8125 Q154.9531,18.1875 156.1875,18.1875 Q156.9219,18.1875 157.5625,18.3594 Q158.2188,18.5156 158.7656,18.875 Z " fill="#000000"/><text fill="#000000" font-family="sans-serif" font-size="14" lengthAdjust="spacing" textLength="68" x="170" y="28.7285">Plataforma</text></g><!--MD5=[628d87af146a3c6c03649b82b9cf03ea]
class p2--><g id="elem_p2"><rect codeLine="4" fill="#F1F1F1" height="32" id="p2" rx="2.5" ry="2.5" style="stroke:#181818;stroke-width:0.5;" width="100" x="350" y="7"/><ellipse cx="365" cy="23" fill="#ADD1B2" rx="11" ry="11" style="stroke:#181818;stroke-width:1.0;"/><path d="M367.7656,18.875 Q367.9219,18.6563 368.1094,18.5469 Q368.2969,18.4375 368.5156,18.4375 Q368.8906,18.4375 369.125,18.7031 Q369.3594,18.9531 369.3594,19.5625 L369.3594,21.0156 Q369.3594,21.625 369.125,21.8906 Q368.8906,22.1563 368.5156,22.1563 Q368.1719,22.1563 367.9688,21.9531 Q367.7656,21.7656 367.6563,21.25 Q367.6094,20.8906 367.4219,20.7031 Q367.0938,20.3281 366.4844,20.1094 Q365.875,19.8906 365.25,19.8906 Q364.4844,19.8906 363.8438,20.2188 Q363.2188,20.5469 362.7188,21.2969 Q362.2344,22.0469 362.2344,23.0781 L362.2344,24.1719 Q362.2344,25.4063 363.125,26.2344 Q364.0156,27.0469 365.6094,27.0469 Q366.5469,27.0469 367.2031,26.7969 Q367.5938,26.6406 368.0156,26.2031 Q368.2813,25.9375 368.4219,25.8594 Q368.5781,25.7813 368.7813,25.7813 Q369.1094,25.7813 369.3594,26.0469 Q369.625,26.2969 369.625,26.6406 Q369.625,26.9844 369.2813,27.3906 Q368.7813,27.9688 367.9844,28.2969 Q366.9063,28.75 365.6094,28.75 Q364.0938,28.75 362.8906,28.125 Q361.9063,27.625 361.2188,26.5625 Q360.5313,25.4844 360.5313,24.2031 L360.5313,23.0469 Q360.5313,21.7188 361.1406,20.5781 Q361.7656,19.4219 362.8594,18.8125 Q363.9531,18.1875 365.1875,18.1875 Q365.9219,18.1875 366.5625,18.3594 Q367.2188,18.5156 367.7656,18.875 Z " fill="#000000"/><text fill="#000000" font-family="sans-serif" font-size="14" lengthAdjust="spacing" textLength="68" x="379" y="28.7285">Plataforma</text></g><!--MD5=[e5c8251ac567c27e68d440bb2a008c14]
class s1--><g id="elem_s1"><rect codeLine="6" fill="#F1F1F1" height="32" id="s1" rx="2.5" ry="2.5" style="stroke:#181818;stroke-width:0.5;" width="82" x="7" y="99"/><ellipse cx="22" cy="115" fill="#ADD1B2" rx="11" ry="11" style="stroke:#181818;stroke-width:1.0;"/><path d="M24.7656,110.875 Q24.9219,110.6563 25.1094,110.5469 Q25.2969,110.4375 25.5156,110.4375 Q25.8906,110.4375 26.125,110.7031 Q26.3594,110.9531 26.3594,111.5625 L26.3594,113.0156 Q26.3594,113.625 26.125,113.8906 Q25.8906,114.1563 25.5156,114.1563 Q25.1719,114.1563 24.9688,113.9531 Q24.7656,113.7656 24.6563,113.25 Q24.6094,112.8906 24.4219,112.7031 Q24.0938,112.3281 23.4844,112.1094 Q22.875,111.8906 22.25,111.8906 Q21.4844,111.8906 20.8438,112.2188 Q20.2188,112.5469 19.7188,113.2969 Q19.2344,114.0469 19.2344,115.0781 L19.2344,116.1719 Q19.2344,117.4063 20.125,118.2344 Q21.0156,119.0469 22.6094,119.0469 Q23.5469,119.0469 24.2031,118.7969 Q24.5938,118.6406 25.0156,118.2031 Q25.2813,117.9375 25.4219,117.8594 Q25.5781,117.7813 25.7813,117.7813 Q26.1094,117.7813 26.3594,118.0469 Q26.625,118.2969 26.625,118.6406 Q26.625,118.9844 26.2813,119.3906 Q25.7813,119.9688 24.9844,120.2969 Q23.9063,120.75 22.6094,120.75 Q21.0938,120.75 19.8906,120.125 Q18.9063,119.625 18.2188,118.5625 Q17.5313,117.4844 17.5313,116.2031 L17.5313,115.0469 Q17.5313,113.7188 18.1406,112.5781 Q18.7656,111.4219 19.8594,110.8125 Q20.9531,110.1875 22.1875,110.1875 Q22.9219,110.1875 23.5625,110.3594 Q24.2188,110.5156 24.7656,110.875 Z " fill="#000000"/><text fill="#000000" font-family="sans-serif" font-size="14" lengthAdjust="spacing" textLength="50" x="36" y="120.7285">Servicio</text></g><!--MD5=[b4f4966602871d2c15a160168b857c4b]
class s2--><g id="elem_s2"><rect codeLine="7" fill="#F1F1F1" height="32" id="s2" rx="2.5" ry="2.5" style="stroke:#181818;stroke-width:0.5;" width="82" x="312" y="99"/><ellipse cx="327" cy="115" fill="#ADD1B2" rx="11" ry="11" style="stroke:#181818;stroke-width:1.0;"/><path d="M329.7656,110.875 Q329.9219,110.6563 330.1094,110.5469 Q330.2969,110.4375 330.5156,110.4375 Q330.8906,110.4375 331.125,110.7031 Q331.3594,110.9531 331.3594,111.5625 L331.3594,113.0156 Q331.3594,113.625 331.125,113.8906 Q330.8906,114.1563 330.5156,114.1563 Q330.1719,114.1563 329.9688,113.9531 Q329.7656,113.7656 329.6563,113.25 Q329.6094,112.8906 329.4219,112.7031 Q329.0938,112.3281 328.4844,112.1094 Q327.875,111.8906 327.25,111.8906 Q326.4844,111.8906 325.8438,112.2188 Q325.2188,112.5469 324.7188,113.2969 Q324.2344,114.0469 324.2344,115.0781 L324.2344,116.1719 Q324.2344,117.4063 325.125,118.2344 Q326.0156,119.0469 327.6094,119.0469 Q328.5469,119.0469 329.2031,118.7969 Q329.5938,118.6406 330.0156,118.2031 Q330.2813,117.9375 330.4219,117.8594 Q330.5781,117.7813 330.7813,117.7813 Q331.1094,117.7813 331.3594,118.0469 Q331.625,118.2969 331.625,118.6406 Q331.625,118.9844 331.2813,119.3906 Q330.7813,119.9688 329.9844,120.2969 Q328.9063,120.75 327.6094,120.75 Q326.0938,120.75 324.8906,120.125 Q323.9063,119.625 323.2188,118.5625 Q322.5313,117.4844 322.5313,116.2031 L322.5313,115.0469 Q322.5313,113.7188 323.1406,112.5781 Q323.7656,111.4219 324.8594,110.8125 Q325.9531,110.1875 327.1875,110.1875 Q327.9219,110.1875 328.5625,110.3594 Q329.2188,110.5156 329.7656,110.875 Z " fill="#000000"/><text fill="#000000" font-family="sans-serif" font-size="14" lengthAdjust="spacing" textLength="50" x="341" y="120.7285">Servicio</text></g><!--MD5=[2cf9500d7a8bea84dea29bbbc52f6025]
class s3--><g id="elem_s3"><rect codeLine="8" fill="#F1F1F1" height="32" id="s3" rx="2.5" ry="2.5" style="stroke:#181818;stroke-width:0.5;" width="82" x="124" y="99"/><ellipse cx="139" cy="115" fill="#ADD1B2" rx="11" ry="11" style="stroke:#181818;stroke-width:1.0;"/><path d="M141.7656,110.875 Q141.9219,110.6563 142.1094,110.5469 Q142.2969,110.4375 142.5156,110.4375 Q142.8906,110.4375 143.125,110.7031 Q143.3594,110.9531 143.3594,111.5625 L143.3594,113.0156 Q143.3594,113.625 143.125,113.8906 Q142.8906,114.1563 142.5156,114.1563 Q142.1719,114.1563 141.9688,113.9531 Q141.7656,113.7656 141.6563,113.25 Q141.6094,112.8906 141.4219,112.7031 Q141.0938,112.3281 140.4844,112.1094 Q139.875,111.8906 139.25,111.8906 Q138.4844,111.8906 137.8438,112.2188 Q137.2188,112.5469 136.7188,113.2969 Q136.2344,114.0469 136.2344,115.0781 L136.2344,116.1719 Q136.2344,117.4063 137.125,118.2344 Q138.0156,119.0469 139.6094,119.0469 Q140.5469,119.0469 141.2031,118.7969 Q141.5938,118.6406 142.0156,118.2031 Q142.2813,117.9375 142.4219,117.8594 Q142.5781,117.7813 142.7813,117.7813 Q143.1094,117.7813 143.3594,118.0469 Q143.625,118.2969 143.625,118.6406 Q143.625,118.9844 143.2813,119.3906 Q142.7813,119.9688 141.9844,120.2969 Q140.9063,120.75 139.6094,120.75 Q138.0938,120.75 136.8906,120.125 Q135.9063,119.625 135.2188,118.5625 Q134.5313,117.4844 134.5313,116.2031 L134.5313,115.0469 Q134.5313,113.7188 135.1406,112.5781 Q135.7656,111.4219 136.8594,110.8125 Q137.9531,110.1875 139.1875,110.1875 Q139.9219,110.1875 140.5625,110.3594 Q141.2188,110.5156 141.7656,110.875 Z " fill="#000000"/><text fill="#000000" font-family="sans-serif" font-size="14" lengthAdjust="spacing" textLength="50" x="153" y="120.7285">Servicio</text></g><!--MD5=[d82113376ae5413ac535c7915f64cc13]
class h1--><g id="elem_h1"><rect codeLine="10" fill="#F1F1F1" height="32" id="h1" rx="2.5" ry="2.5" style="stroke:#181818;stroke-width:0.5;" width="109" x="204.5" y="191"/><ellipse cx="219.5" cy="207" fill="#ADD1B2" rx="11" ry="11" style="stroke:#181818;stroke-width:1.0;"/><path d="M222.2656,202.875 Q222.4219,202.6563 222.6094,202.5469 Q222.7969,202.4375 223.0156,202.4375 Q223.3906,202.4375 223.625,202.7031 Q223.8594,202.9531 223.8594,203.5625 L223.8594,205.0156 Q223.8594,205.625 223.625,205.8906 Q223.3906,206.1563 223.0156,206.1563 Q222.6719,206.1563 222.4688,205.9531 Q222.2656,205.7656 222.1563,205.25 Q222.1094,204.8906 221.9219,204.7031 Q221.5938,204.3281 220.9844,204.1094 Q220.375,203.8906 219.75,203.8906 Q218.9844,203.8906 218.3438,204.2188 Q217.7188,204.5469 217.2188,205.2969 Q216.7344,206.0469 216.7344,207.0781 L216.7344,208.1719 Q216.7344,209.4063 217.625,210.2344 Q218.5156,211.0469 220.1094,211.0469 Q221.0469,211.0469 221.7031,210.7969 Q222.0938,210.6406 222.5156,210.2031 Q222.7813,209.9375 222.9219,209.8594 Q223.0781,209.7813 223.2813,209.7813 Q223.6094,209.7813 223.8594,210.0469 Q224.125,210.2969 224.125,210.6406 Q224.125,210.9844 223.7813,211.3906 Q223.2813,211.9688 222.4844,212.2969 Q221.4063,212.75 220.1094,212.75 Q218.5938,212.75 217.3906,212.125 Q216.4063,211.625 215.7188,210.5625 Q215.0313,209.4844 215.0313,208.2031 L215.0313,207.0469 Q215.0313,205.7188 215.6406,204.5781 Q216.2656,203.4219 217.3594,202.8125 Q218.4531,202.1875 219.6875,202.1875 Q220.4219,202.1875 221.0625,202.3594 Q221.7188,202.5156 222.2656,202.875 Z " fill="#000000"/><text fill="#000000" font-family="sans-serif" font-size="14" lengthAdjust="spacing" textLength="77" x="233.5" y="212.7285">Herramienta</text></g><!--MD5=[c540aadf0d56ac905e255140f085ba4e]
class h2--><g id="elem_h2"><rect codeLine="11" fill="#F1F1F1" height="32" id="h2" rx="2.5" ry="2.5" style="stroke:#181818;stroke-width:0.5;" width="109" x="392.5" y="191"/><ellipse cx="407.5" cy="207" fill="#ADD1B2" rx="11" ry="11" style="stroke:#181818;stroke-width:1.0;"/><path d="M410.2656,202.875 Q410.4219,202.6563 410.6094,202.5469 Q410.7969,202.4375 411.0156,202.4375 Q411.3906,202.4375 411.625,202.7031 Q411.8594,202.9531 411.8594,203.5625 L411.8594,205.0156 Q411.8594,205.625 411.625,205.8906 Q411.3906,206.1563 411.0156,206.1563 Q410.6719,206.1563 410.4688,205.9531 Q410.2656,205.7656 410.1563,205.25 Q410.1094,204.8906 409.9219,204.7031 Q409.5938,204.3281 408.9844,204.1094 Q408.375,203.8906 407.75,203.8906 Q406.9844,203.8906 406.3438,204.2188 Q405.7188,204.5469 405.2188,205.2969 Q404.7344,206.0469 404.7344,207.0781 L404.7344,208.1719 Q404.7344,209.4063 405.625,210.2344 Q406.5156,211.0469 408.1094,211.0469 Q409.0469,211.0469 409.7031,210.7969 Q410.0938,210.6406 410.5156,210.2031 Q410.7813,209.9375 410.9219,209.8594 Q411.0781,209.7813 411.2813,209.7813 Q411.6094,209.7813 411.8594,210.0469 Q412.125,210.2969 412.125,210.6406 Q412.125,210.9844 411.7813,211.3906 Q411.2813,211.9688 410.4844,212.2969 Q409.4063,212.75 408.1094,212.75 Q406.5938,212.75 405.3906,212.125 Q404.4063,211.625 403.7188,210.5625 Q403.0313,209.4844 403.0313,208.2031 L403.0313,207.0469 Q403.0313,205.7188 403.6406,204.5781 Q404.2656,203.4219 405.3594,202.8125 Q406.4531,202.1875 407.6875,202.1875 Q408.4219,202.1875 409.0625,202.3594 Q409.7188,202.5156 410.2656,202.875 Z " fill="#000000"/><text fill="#000000" font-family="sans-serif" font-size="14" lengthAdjust="spacing" textLength="77" x="421.5" y="212.7285">Herramienta</text></g><!--MD5=[d40b850ca6fec998e21d39b6fcc0aa5c]
class h3--><g id="elem_h3"><rect codeLine="12" fill="#F1F1F1" height="32" id="h3" rx="2.5" ry="2.5" style="stroke:#181818;stroke-width:0.5;" width="109" x="60.5" y="191"/><ellipse cx="75.5" cy="207" fill="#ADD1B2" rx="11" ry="11" style="stroke:#181818;stroke-width:1.0;"/><path d="M78.2656,202.875 Q78.4219,202.6563 78.6094,202.5469 Q78.7969,202.4375 79.0156,202.4375 Q79.3906,202.4375 79.625,202.7031 Q79.8594,202.9531 79.8594,203.5625 L79.8594,205.0156 Q79.8594,205.625 79.625,205.8906 Q79.3906,206.1563 79.0156,206.1563 Q78.6719,206.1563 78.4688,205.9531 Q78.2656,205.7656 78.1563,205.25 Q78.1094,204.8906 77.9219,204.7031 Q77.5938,204.3281 76.9844,204.1094 Q76.375,203.8906 75.75,203.8906 Q74.9844,203.8906 74.3438,204.2188 Q73.7188,204.5469 73.2188,205.2969 Q72.7344,206.0469 72.7344,207.0781 L72.7344,208.1719 Q72.7344,209.4063 73.625,210.2344 Q74.5156,211.0469 76.1094,211.0469 Q77.0469,211.0469 77.7031,210.7969 Q78.0938,210.6406 78.5156,210.2031 Q78.7813,209.9375 78.9219,209.8594 Q79.0781,209.7813 79.2813,209.7813 Q79.6094,209.7813 79.8594,210.0469 Q80.125,210.2969 80.125,210.6406 Q80.125,210.9844 79.7813,211.3906 Q79.2813,211.9688 78.4844,212.2969 Q77.4063,212.75 76.1094,212.75 Q74.5938,212.75 73.3906,212.125 Q72.4063,211.625 71.7188,210.5625 Q71.0313,209.4844 71.0313,208.2031 L71.0313,207.0469 Q71.0313,205.7188 71.6406,204.5781 Q72.2656,203.4219 73.3594,202.8125 Q74.4531,202.1875 75.6875,202.1875 Q76.4219,202.1875 77.0625,202.3594 Q77.7188,202.5156 78.2656,202.875 Z " fill="#000000"/><text fill="#000000" font-family="sans-serif" font-size="14" lengthAdjust="spacing" textLength="77" x="89.5" y="212.7285">Herramienta</text></g><!--MD5=[2bd9d41e28e25589d14dc5894b2dcd45]
link p1 to s1--><g id="link_p1_s1"><path codeLine="15" d="M167.07,39.06 C140.67,55.68 98.44,82.25 72.01,98.89 " fill="none" id="p1-s1" style="stroke:#181818;stroke-width:1.0;"/></g><!--MD5=[427d7e40823db770bce1f7f1979e8caf]
link p1 to s2--><g id="link_p1_s2"><path codeLine="16" d="M218.12,39.06 C248.02,55.68 295.86,82.25 325.8,98.89 " fill="none" id="p1-s2" style="stroke:#181818;stroke-width:1.0;"/></g><!--MD5=[28e9a465d77a7c1be50ff470bbaae9e0]
link p1 to s3--><g id="link_p1_s3"><path codeLine="17" d="M186.59,39.27 C181.78,55.92 174.13,82.4 169.35,98.96 " fill="none" id="p1-s3" style="stroke:#181818;stroke-width:1.0;"/></g><!--MD5=[7ff234f7caee7632b9d53194cc9ad26e]
link p1 to h1--><g id="link_p1_h1"><path codeLine="18" d="M198.14,39.04 C205.15,54.06 215.92,77.87 224,99 C236.36,131.31 248.36,170.09 254.59,190.95 " fill="none" id="p1-h1" style="stroke:#181818;stroke-width:1.0;"/></g><!--MD5=[da36f7efd2da712b16214d3586e43317]
link p2 to s2--><g id="link_p2_s2"><path codeLine="20" d="M392.03,39.27 C383.33,55.92 369.5,82.4 360.86,98.96 " fill="none" id="p2-s2" style="stroke:#181818;stroke-width:1.0;"/></g><!--MD5=[ad458831a3964bbbc17ba3e530606e88]
link p2 to h2--><g id="link_p2_h2"><path codeLine="21" d="M403.93,39.2 C412.8,73.55 434.29,156.79 443.12,190.97 " fill="none" id="p2-h2" style="stroke:#181818;stroke-width:1.0;"/></g><!--MD5=[77199189773daaef17649aa07604ee79]
link s3 to h3--><g id="link_s3_h3"><path codeLine="23" d="M156.52,131.27 C147.27,147.92 132.56,174.4 123.36,190.96 " fill="none" id="s3-h3" style="stroke:#181818;stroke-width:1.0;"/></g><!--MD5=[77f44573bcc6ac5bde5388ae51edef36]
@startuml
hide empty members

class p1 as "Plataforma"
class p2 as "Plataforma"

class s1 as "Servicio"
class s2 as "Servicio"
class s3 as "Servicio"

class h1 as "Herramienta"
class h2 as "Herramienta"
class h3 as "Herramienta"


p1 -d- s1
p1 -d- s2
p1 -d- s3
p1 - -d- h1

p2 -d- s2
p2 - -d- h2

s3 -d- h3
@enduml

PlantUML version 1.2022.7(Mon Aug 22 19:01:30 CEST 2022)
(GPL source distribution)
Java Runtime: Java(TM) SE Runtime Environment
JVM: Java HotSpot(TM) 64-Bit Server VM
Default Encoding: UTF-8
Language: es
Country: ES
--></g></svg>