<?xml version="1.0" encoding="UTF-8" standalone="no"?><svg xmlns="http://www.w3.org/2000/svg" xmlns:xlink="http://www.w3.org/1999/xlink" contentStyleType="text/css" height="386px" preserveAspectRatio="none" style="width:2165px;height:386px;background:#FFFFFF;" version="1.1" viewBox="0 0 2165 386" width="2165px" zoomAndPan="magnify"><defs/><g><!--MD5=[23ac59978132272548bf992e3c610de9]
class Prompt--><g id="elem_Prompt"><rect fill="#F1F1F1" height="48" id="Prompt" rx="2.5" ry="2.5" style="stroke:#181818;stroke-width:0.5;" width="81" x="1105.5" y="7"/><ellipse cx="1120.5" cy="23" fill="#ADD1B2" rx="11" ry="11" style="stroke:#181818;stroke-width:1.0;"/><path d="M1119.9688,29.9219 Q1118.2188,29.9219 1117.0781,29.1875 Q1115.9531,28.4375 1115.3906,27.0938 Q1114.8438,25.7344 1114.8438,23.9375 Q1114.8438,21.9063 1115.5,20.4531 Q1116.1563,19 1117.4375,18.2188 Q1118.7188,17.4375 1120.5938,17.4375 Q1121.4844,17.4375 1122.1563,17.625 Q1122.8281,17.7969 1123.5156,18.1406 L1122.7031,20.1563 Q1122.0781,19.8438 1121.5313,19.7188 Q1121,19.5938 1120.5156,19.5938 Q1119.3438,19.5938 1118.6406,20.125 Q1117.9375,20.6563 1117.6406,21.6094 Q1117.3438,22.5625 1117.3438,23.8281 Q1117.3438,25.8438 1118.0625,26.8125 Q1118.7813,27.7656 1120.375,27.7656 Q1120.9688,27.7656 1121.5938,27.6094 Q1122.2188,27.4531 1123.0469,27.0781 L1123.0469,29.2969 Q1122.3125,29.6094 1121.5156,29.7656 Q1120.7344,29.9219 1119.9688,29.9219 Z " fill="#000000"/><text fill="#000000" font-family="sans-serif" font-size="14" lengthAdjust="spacing" textLength="49" x="1134.5" y="28.432">Prompt</text><line style="stroke:#181818;stroke-width:0.5;" x1="1106.5" x2="1185.5" y1="39" y2="39"/><line style="stroke:#181818;stroke-width:0.5;" x1="1106.5" x2="1185.5" y1="47" y2="47"/></g><!--MD5=[7dc4723b7980928a577f86f3637c3413]
class Receta--><g id="elem_Receta"><rect fill="#F1F1F1" height="48" id="Receta" rx="2.5" ry="2.5" style="stroke:#181818;stroke-width:0.5;" width="77" x="1107.5" y="115"/><ellipse cx="1122.5" cy="131" fill="#ADD1B2" rx="11" ry="11" style="stroke:#181818;stroke-width:1.0;"/><path d="M1121.9688,137.9219 Q1120.2188,137.9219 1119.0781,137.1875 Q1117.9531,136.4375 1117.3906,135.0938 Q1116.8438,133.7344 1116.8438,131.9375 Q1116.8438,129.9063 1117.5,128.4531 Q1118.1563,127 1119.4375,126.2188 Q1120.7188,125.4375 1122.5938,125.4375 Q1123.4844,125.4375 1124.1563,125.625 Q1124.8281,125.7969 1125.5156,126.1406 L1124.7031,128.1563 Q1124.0781,127.8438 1123.5313,127.7188 Q1123,127.5938 1122.5156,127.5938 Q1121.3438,127.5938 1120.6406,128.125 Q1119.9375,128.6563 1119.6406,129.6094 Q1119.3438,130.5625 1119.3438,131.8281 Q1119.3438,133.8438 1120.0625,134.8125 Q1120.7813,135.7656 1122.375,135.7656 Q1122.9688,135.7656 1123.5938,135.6094 Q1124.2188,135.4531 1125.0469,135.0781 L1125.0469,137.2969 Q1124.3125,137.6094 1123.5156,137.7656 Q1122.7344,137.9219 1121.9688,137.9219 Z " fill="#000000"/><text fill="#000000" font-family="sans-serif" font-size="14" lengthAdjust="spacing" textLength="45" x="1136.5" y="136.432">Receta</text><line style="stroke:#181818;stroke-width:0.5;" x1="1108.5" x2="1183.5" y1="147" y2="147"/><line style="stroke:#181818;stroke-width:0.5;" x1="1108.5" x2="1183.5" y1="155" y2="155"/></g><!--MD5=[8b66b7342ebffb5468f9dad95977a8e0]
class Tarea--><g id="elem_Tarea"><rect fill="#F1F1F1" height="48" id="Tarea" rx="2.5" ry="2.5" style="stroke:#181818;stroke-width:0.5;" width="70" x="260" y="223"/><ellipse cx="275" cy="239" fill="#ADD1B2" rx="11" ry="11" style="stroke:#181818;stroke-width:1.0;"/><path d="M274.4688,245.9219 Q272.7188,245.9219 271.5781,245.1875 Q270.4531,244.4375 269.8906,243.0938 Q269.3438,241.7344 269.3438,239.9375 Q269.3438,237.9063 270,236.4531 Q270.6563,235 271.9375,234.2188 Q273.2188,233.4375 275.0938,233.4375 Q275.9844,233.4375 276.6563,233.625 Q277.3281,233.7969 278.0156,234.1406 L277.2031,236.1563 Q276.5781,235.8438 276.0313,235.7188 Q275.5,235.5938 275.0156,235.5938 Q273.8438,235.5938 273.1406,236.125 Q272.4375,236.6563 272.1406,237.6094 Q271.8438,238.5625 271.8438,239.8281 Q271.8438,241.8438 272.5625,242.8125 Q273.2813,243.7656 274.875,243.7656 Q275.4688,243.7656 276.0938,243.6094 Q276.7188,243.4531 277.5469,243.0781 L277.5469,245.2969 Q276.8125,245.6094 276.0156,245.7656 Q275.2344,245.9219 274.4688,245.9219 Z " fill="#000000"/><text fill="#000000" font-family="sans-serif" font-size="14" lengthAdjust="spacing" textLength="38" x="289" y="244.432">Tarea</text><line style="stroke:#181818;stroke-width:0.5;" x1="261" x2="329" y1="255" y2="255"/><line style="stroke:#181818;stroke-width:0.5;" x1="261" x2="329" y1="263" y2="263"/></g><!--MD5=[6694c18989b8e2458a5d3d469144568d]
class Entrada--><g id="elem_Entrada"><rect fill="#F1F1F1" height="48" id="Entrada" rx="2.5" ry="2.5" style="stroke:#181818;stroke-width:0.5;" width="85" x="645.5" y="223"/><ellipse cx="660.5" cy="239" fill="#ADD1B2" rx="11" ry="11" style="stroke:#181818;stroke-width:1.0;"/><path d="M659.9688,245.9219 Q658.2188,245.9219 657.0781,245.1875 Q655.9531,244.4375 655.3906,243.0938 Q654.8438,241.7344 654.8438,239.9375 Q654.8438,237.9063 655.5,236.4531 Q656.1563,235 657.4375,234.2188 Q658.7188,233.4375 660.5938,233.4375 Q661.4844,233.4375 662.1563,233.625 Q662.8281,233.7969 663.5156,234.1406 L662.7031,236.1563 Q662.0781,235.8438 661.5313,235.7188 Q661,235.5938 660.5156,235.5938 Q659.3438,235.5938 658.6406,236.125 Q657.9375,236.6563 657.6406,237.6094 Q657.3438,238.5625 657.3438,239.8281 Q657.3438,241.8438 658.0625,242.8125 Q658.7813,243.7656 660.375,243.7656 Q660.9688,243.7656 661.5938,243.6094 Q662.2188,243.4531 663.0469,243.0781 L663.0469,245.2969 Q662.3125,245.6094 661.5156,245.7656 Q660.7344,245.9219 659.9688,245.9219 Z " fill="#000000"/><text fill="#000000" font-family="sans-serif" font-size="14" lengthAdjust="spacing" textLength="53" x="674.5" y="244.432">Entrada</text><line style="stroke:#181818;stroke-width:0.5;" x1="646.5" x2="729.5" y1="255" y2="255"/><line style="stroke:#181818;stroke-width:0.5;" x1="646.5" x2="729.5" y1="263" y2="263"/></g><!--MD5=[58d0a597b86e0d150e85165aee8b1098]
class Instrucciones--><g id="elem_Instrucciones"><rect fill="#F1F1F1" height="48" id="Instrucciones" rx="2.5" ry="2.5" style="stroke:#181818;stroke-width:0.5;" width="123" x="1084.5" y="223"/><ellipse cx="1099.5" cy="239" fill="#ADD1B2" rx="11" ry="11" style="stroke:#181818;stroke-width:1.0;"/><path d="M1098.9688,245.9219 Q1097.2188,245.9219 1096.0781,245.1875 Q1094.9531,244.4375 1094.3906,243.0938 Q1093.8438,241.7344 1093.8438,239.9375 Q1093.8438,237.9063 1094.5,236.4531 Q1095.1563,235 1096.4375,234.2188 Q1097.7188,233.4375 1099.5938,233.4375 Q1100.4844,233.4375 1101.1563,233.625 Q1101.8281,233.7969 1102.5156,234.1406 L1101.7031,236.1563 Q1101.0781,235.8438 1100.5313,235.7188 Q1100,235.5938 1099.5156,235.5938 Q1098.3438,235.5938 1097.6406,236.125 Q1096.9375,236.6563 1096.6406,237.6094 Q1096.3438,238.5625 1096.3438,239.8281 Q1096.3438,241.8438 1097.0625,242.8125 Q1097.7813,243.7656 1099.375,243.7656 Q1099.9688,243.7656 1100.5938,243.6094 Q1101.2188,243.4531 1102.0469,243.0781 L1102.0469,245.2969 Q1101.3125,245.6094 1100.5156,245.7656 Q1099.7344,245.9219 1098.9688,245.9219 Z " fill="#000000"/><text fill="#000000" font-family="sans-serif" font-size="14" lengthAdjust="spacing" textLength="91" x="1113.5" y="244.432">Instrucciones</text><line style="stroke:#181818;stroke-width:0.5;" x1="1085.5" x2="1206.5" y1="255" y2="255"/><line style="stroke:#181818;stroke-width:0.5;" x1="1085.5" x2="1206.5" y1="263" y2="263"/></g><!--MD5=[4c18751fa77cc560573b090f3bbf04b2]
class Parámetros--><g id="elem_Parámetros"><rect fill="#F1F1F1" height="48" id="Parámetros" rx="2.5" ry="2.5" style="stroke:#181818;stroke-width:0.5;" width="109" x="1842.5" y="223"/><ellipse cx="1857.5" cy="239" fill="#ADD1B2" rx="11" ry="11" style="stroke:#181818;stroke-width:1.0;"/><path d="M1856.9688,245.9219 Q1855.2188,245.9219 1854.0781,245.1875 Q1852.9531,244.4375 1852.3906,243.0938 Q1851.8438,241.7344 1851.8438,239.9375 Q1851.8438,237.9063 1852.5,236.4531 Q1853.1563,235 1854.4375,234.2188 Q1855.7188,233.4375 1857.5938,233.4375 Q1858.4844,233.4375 1859.1563,233.625 Q1859.8281,233.7969 1860.5156,234.1406 L1859.7031,236.1563 Q1859.0781,235.8438 1858.5313,235.7188 Q1858,235.5938 1857.5156,235.5938 Q1856.3438,235.5938 1855.6406,236.125 Q1854.9375,236.6563 1854.6406,237.6094 Q1854.3438,238.5625 1854.3438,239.8281 Q1854.3438,241.8438 1855.0625,242.8125 Q1855.7813,243.7656 1857.375,243.7656 Q1857.9688,243.7656 1858.5938,243.6094 Q1859.2188,243.4531 1860.0469,243.0781 L1860.0469,245.2969 Q1859.3125,245.6094 1858.5156,245.7656 Q1857.7344,245.9219 1856.9688,245.9219 Z " fill="#000000"/><text fill="#000000" font-family="sans-serif" font-size="14" lengthAdjust="spacing" textLength="77" x="1871.5" y="244.432">Parámetros</text><line style="stroke:#181818;stroke-width:0.5;" x1="1843.5" x2="1950.5" y1="255" y2="255"/><line style="stroke:#181818;stroke-width:0.5;" x1="1843.5" x2="1950.5" y1="263" y2="263"/></g><!--MD5=[d933999a937b529ea3aaeeb9e325bacd]
class Contexto--><g id="elem_Contexto"><rect fill="#F1F1F1" height="48" id="Contexto" rx="2.5" ry="2.5" style="stroke:#181818;stroke-width:0.5;" width="91" x="1474.5" y="223"/><ellipse cx="1489.5" cy="239" fill="#ADD1B2" rx="11" ry="11" style="stroke:#181818;stroke-width:1.0;"/><path d="M1488.9688,245.9219 Q1487.2188,245.9219 1486.0781,245.1875 Q1484.9531,244.4375 1484.3906,243.0938 Q1483.8438,241.7344 1483.8438,239.9375 Q1483.8438,237.9063 1484.5,236.4531 Q1485.1563,235 1486.4375,234.2188 Q1487.7188,233.4375 1489.5938,233.4375 Q1490.4844,233.4375 1491.1563,233.625 Q1491.8281,233.7969 1492.5156,234.1406 L1491.7031,236.1563 Q1491.0781,235.8438 1490.5313,235.7188 Q1490,235.5938 1489.5156,235.5938 Q1488.3438,235.5938 1487.6406,236.125 Q1486.9375,236.6563 1486.6406,237.6094 Q1486.3438,238.5625 1486.3438,239.8281 Q1486.3438,241.8438 1487.0625,242.8125 Q1487.7813,243.7656 1489.375,243.7656 Q1489.9688,243.7656 1490.5938,243.6094 Q1491.2188,243.4531 1492.0469,243.0781 L1492.0469,245.2969 Q1491.3125,245.6094 1490.5156,245.7656 Q1489.7344,245.9219 1488.9688,245.9219 Z " fill="#000000"/><text fill="#000000" font-family="sans-serif" font-size="14" lengthAdjust="spacing" textLength="59" x="1503.5" y="244.432">Contexto</text><line style="stroke:#181818;stroke-width:0.5;" x1="1475.5" x2="1564.5" y1="255" y2="255"/><line style="stroke:#181818;stroke-width:0.5;" x1="1475.5" x2="1564.5" y1="263" y2="263"/></g><!--MD5=[c3083c573491f94354dcf1a2c5c7faf1]
class Tópico--><g id="elem_Tópico"><rect fill="#F1F1F1" height="48" id="Tópico" rx="2.5" ry="2.5" style="stroke:#181818;stroke-width:0.5;" width="76" x="7" y="331"/><ellipse cx="22" cy="347" fill="#ADD1B2" rx="11" ry="11" style="stroke:#181818;stroke-width:1.0;"/><path d="M21.4688,353.9219 Q19.7188,353.9219 18.5781,353.1875 Q17.4531,352.4375 16.8906,351.0938 Q16.3438,349.7344 16.3438,347.9375 Q16.3438,345.9063 17,344.4531 Q17.6563,343 18.9375,342.2188 Q20.2188,341.4375 22.0938,341.4375 Q22.9844,341.4375 23.6563,341.625 Q24.3281,341.7969 25.0156,342.1406 L24.2031,344.1563 Q23.5781,343.8438 23.0313,343.7188 Q22.5,343.5938 22.0156,343.5938 Q20.8438,343.5938 20.1406,344.125 Q19.4375,344.6563 19.1406,345.6094 Q18.8438,346.5625 18.8438,347.8281 Q18.8438,349.8438 19.5625,350.8125 Q20.2813,351.7656 21.875,351.7656 Q22.4688,351.7656 23.0938,351.6094 Q23.7188,351.4531 24.5469,351.0781 L24.5469,353.2969 Q23.8125,353.6094 23.0156,353.7656 Q22.2344,353.9219 21.4688,353.9219 Z " fill="#000000"/><text fill="#000000" font-family="sans-serif" font-size="14" lengthAdjust="spacing" textLength="44" x="36" y="352.432">Tópico</text><line style="stroke:#181818;stroke-width:0.5;" x1="8" x2="82" y1="363" y2="363"/><line style="stroke:#181818;stroke-width:0.5;" x1="8" x2="82" y1="371" y2="371"/></g><!--MD5=[51f0781105b9cf5fcba3c6a2af676f78]
class Comando--><g id="elem_Comando"><rect fill="#F1F1F1" height="48" id="Comando" rx="2.5" ry="2.5" style="stroke:#181818;stroke-width:0.5;" width="96" x="118" y="331"/><ellipse cx="133" cy="347" fill="#ADD1B2" rx="11" ry="11" style="stroke:#181818;stroke-width:1.0;"/><path d="M132.4688,353.9219 Q130.7188,353.9219 129.5781,353.1875 Q128.4531,352.4375 127.8906,351.0938 Q127.3438,349.7344 127.3438,347.9375 Q127.3438,345.9063 128,344.4531 Q128.6563,343 129.9375,342.2188 Q131.2188,341.4375 133.0938,341.4375 Q133.9844,341.4375 134.6563,341.625 Q135.3281,341.7969 136.0156,342.1406 L135.2031,344.1563 Q134.5781,343.8438 134.0313,343.7188 Q133.5,343.5938 133.0156,343.5938 Q131.8438,343.5938 131.1406,344.125 Q130.4375,344.6563 130.1406,345.6094 Q129.8438,346.5625 129.8438,347.8281 Q129.8438,349.8438 130.5625,350.8125 Q131.2813,351.7656 132.875,351.7656 Q133.4688,351.7656 134.0938,351.6094 Q134.7188,351.4531 135.5469,351.0781 L135.5469,353.2969 Q134.8125,353.6094 134.0156,353.7656 Q133.2344,353.9219 132.4688,353.9219 Z " fill="#000000"/><text fill="#000000" font-family="sans-serif" font-size="14" lengthAdjust="spacing" textLength="64" x="147" y="352.432">Comando</text><line style="stroke:#181818;stroke-width:0.5;" x1="119" x2="213" y1="363" y2="363"/><line style="stroke:#181818;stroke-width:0.5;" x1="119" x2="213" y1="371" y2="371"/></g><!--MD5=[5f1fb55be5d36e76ccc1753bacdb8004]
class Acciones--><g id="elem_Acciones"><rect fill="#F1F1F1" height="48" id="Acciones" rx="2.5" ry="2.5" style="stroke:#181818;stroke-width:0.5;" width="91" x="249.5" y="331"/><ellipse cx="264.5" cy="347" fill="#ADD1B2" rx="11" ry="11" style="stroke:#181818;stroke-width:1.0;"/><path d="M263.9688,353.9219 Q262.2188,353.9219 261.0781,353.1875 Q259.9531,352.4375 259.3906,351.0938 Q258.8438,349.7344 258.8438,347.9375 Q258.8438,345.9063 259.5,344.4531 Q260.1563,343 261.4375,342.2188 Q262.7188,341.4375 264.5938,341.4375 Q265.4844,341.4375 266.1563,341.625 Q266.8281,341.7969 267.5156,342.1406 L266.7031,344.1563 Q266.0781,343.8438 265.5313,343.7188 Q265,343.5938 264.5156,343.5938 Q263.3438,343.5938 262.6406,344.125 Q261.9375,344.6563 261.6406,345.6094 Q261.3438,346.5625 261.3438,347.8281 Q261.3438,349.8438 262.0625,350.8125 Q262.7813,351.7656 264.375,351.7656 Q264.9688,351.7656 265.5938,351.6094 Q266.2188,351.4531 267.0469,351.0781 L267.0469,353.2969 Q266.3125,353.6094 265.5156,353.7656 Q264.7344,353.9219 263.9688,353.9219 Z " fill="#000000"/><text fill="#000000" font-family="sans-serif" font-size="14" lengthAdjust="spacing" textLength="59" x="278.5" y="352.432">Acciones</text><line style="stroke:#181818;stroke-width:0.5;" x1="250.5" x2="339.5" y1="363" y2="363"/><line style="stroke:#181818;stroke-width:0.5;" x1="250.5" x2="339.5" y1="371" y2="371"/></g><!--MD5=[8b35924ee2314cc385b070b0e6d033cc]
class Documento--><g id="elem_Documento"><rect fill="#F1F1F1" height="48" id="Documento" rx="2.5" ry="2.5" style="stroke:#181818;stroke-width:0.5;" width="109" x="375.5" y="331"/><ellipse cx="390.5" cy="347" fill="#ADD1B2" rx="11" ry="11" style="stroke:#181818;stroke-width:1.0;"/><path d="M389.9688,353.9219 Q388.2188,353.9219 387.0781,353.1875 Q385.9531,352.4375 385.3906,351.0938 Q384.8438,349.7344 384.8438,347.9375 Q384.8438,345.9063 385.5,344.4531 Q386.1563,343 387.4375,342.2188 Q388.7188,341.4375 390.5938,341.4375 Q391.4844,341.4375 392.1563,341.625 Q392.8281,341.7969 393.5156,342.1406 L392.7031,344.1563 Q392.0781,343.8438 391.5313,343.7188 Q391,343.5938 390.5156,343.5938 Q389.3438,343.5938 388.6406,344.125 Q387.9375,344.6563 387.6406,345.6094 Q387.3438,346.5625 387.3438,347.8281 Q387.3438,349.8438 388.0625,350.8125 Q388.7813,351.7656 390.375,351.7656 Q390.9688,351.7656 391.5938,351.6094 Q392.2188,351.4531 393.0469,351.0781 L393.0469,353.2969 Q392.3125,353.6094 391.5156,353.7656 Q390.7344,353.9219 389.9688,353.9219 Z " fill="#000000"/><text fill="#000000" font-family="sans-serif" font-size="14" lengthAdjust="spacing" textLength="77" x="404.5" y="352.432">Documento</text><line style="stroke:#181818;stroke-width:0.5;" x1="376.5" x2="483.5" y1="363" y2="363"/><line style="stroke:#181818;stroke-width:0.5;" x1="376.5" x2="483.5" y1="371" y2="371"/></g><!--MD5=[e8a21bd66ae5b4859d2601acfcab53fd]
class Objetivos--><g id="elem_Objetivos"><rect fill="#F1F1F1" height="48" id="Objetivos" rx="2.5" ry="2.5" style="stroke:#181818;stroke-width:0.5;" width="95" x="765.5" y="331"/><ellipse cx="780.5" cy="347" fill="#ADD1B2" rx="11" ry="11" style="stroke:#181818;stroke-width:1.0;"/><path d="M779.9688,353.9219 Q778.2188,353.9219 777.0781,353.1875 Q775.9531,352.4375 775.3906,351.0938 Q774.8438,349.7344 774.8438,347.9375 Q774.8438,345.9063 775.5,344.4531 Q776.1563,343 777.4375,342.2188 Q778.7188,341.4375 780.5938,341.4375 Q781.4844,341.4375 782.1563,341.625 Q782.8281,341.7969 783.5156,342.1406 L782.7031,344.1563 Q782.0781,343.8438 781.5313,343.7188 Q781,343.5938 780.5156,343.5938 Q779.3438,343.5938 778.6406,344.125 Q777.9375,344.6563 777.6406,345.6094 Q777.3438,346.5625 777.3438,347.8281 Q777.3438,349.8438 778.0625,350.8125 Q778.7813,351.7656 780.375,351.7656 Q780.9688,351.7656 781.5938,351.6094 Q782.2188,351.4531 783.0469,351.0781 L783.0469,353.2969 Q782.3125,353.6094 781.5156,353.7656 Q780.7344,353.9219 779.9688,353.9219 Z " fill="#000000"/><text fill="#000000" font-family="sans-serif" font-size="14" lengthAdjust="spacing" textLength="63" x="794.5" y="352.432">Objetivos</text><line style="stroke:#181818;stroke-width:0.5;" x1="766.5" x2="859.5" y1="363" y2="363"/><line style="stroke:#181818;stroke-width:0.5;" x1="766.5" x2="859.5" y1="371" y2="371"/></g><!--MD5=[f91ce7ac2d29bbd376d349cac4c81fbc]
class Estructura--><g id="elem_Estructura"><rect fill="#F1F1F1" height="48" id="Estructura" rx="2.5" ry="2.5" style="stroke:#181818;stroke-width:0.5;" width="102" x="896" y="331"/><ellipse cx="911" cy="347" fill="#ADD1B2" rx="11" ry="11" style="stroke:#181818;stroke-width:1.0;"/><path d="M910.4688,353.9219 Q908.7188,353.9219 907.5781,353.1875 Q906.4531,352.4375 905.8906,351.0938 Q905.3438,349.7344 905.3438,347.9375 Q905.3438,345.9063 906,344.4531 Q906.6563,343 907.9375,342.2188 Q909.2188,341.4375 911.0938,341.4375 Q911.9844,341.4375 912.6563,341.625 Q913.3281,341.7969 914.0156,342.1406 L913.2031,344.1563 Q912.5781,343.8438 912.0313,343.7188 Q911.5,343.5938 911.0156,343.5938 Q909.8438,343.5938 909.1406,344.125 Q908.4375,344.6563 908.1406,345.6094 Q907.8438,346.5625 907.8438,347.8281 Q907.8438,349.8438 908.5625,350.8125 Q909.2813,351.7656 910.875,351.7656 Q911.4688,351.7656 912.0938,351.6094 Q912.7188,351.4531 913.5469,351.0781 L913.5469,353.2969 Q912.8125,353.6094 912.0156,353.7656 Q911.2344,353.9219 910.4688,353.9219 Z " fill="#000000"/><text fill="#000000" font-family="sans-serif" font-size="14" lengthAdjust="spacing" textLength="70" x="925" y="352.432">Estructura</text><line style="stroke:#181818;stroke-width:0.5;" x1="897" x2="997" y1="363" y2="363"/><line style="stroke:#181818;stroke-width:0.5;" x1="897" x2="997" y1="371" y2="371"/></g><!--MD5=[b91c03d3292c224d8c1c29313e315f7f]
class Formato--><g id="elem_Formato"><rect fill="#F1F1F1" height="48" id="Formato" rx="2.5" ry="2.5" style="stroke:#181818;stroke-width:0.5;" width="87" x="1033.5" y="331"/><ellipse cx="1048.5" cy="347" fill="#ADD1B2" rx="11" ry="11" style="stroke:#181818;stroke-width:1.0;"/><path d="M1047.9688,353.9219 Q1046.2188,353.9219 1045.0781,353.1875 Q1043.9531,352.4375 1043.3906,351.0938 Q1042.8438,349.7344 1042.8438,347.9375 Q1042.8438,345.9063 1043.5,344.4531 Q1044.1563,343 1045.4375,342.2188 Q1046.7188,341.4375 1048.5938,341.4375 Q1049.4844,341.4375 1050.1563,341.625 Q1050.8281,341.7969 1051.5156,342.1406 L1050.7031,344.1563 Q1050.0781,343.8438 1049.5313,343.7188 Q1049,343.5938 1048.5156,343.5938 Q1047.3438,343.5938 1046.6406,344.125 Q1045.9375,344.6563 1045.6406,345.6094 Q1045.3438,346.5625 1045.3438,347.8281 Q1045.3438,349.8438 1046.0625,350.8125 Q1046.7813,351.7656 1048.375,351.7656 Q1048.9688,351.7656 1049.5938,351.6094 Q1050.2188,351.4531 1051.0469,351.0781 L1051.0469,353.2969 Q1050.3125,353.6094 1049.5156,353.7656 Q1048.7344,353.9219 1047.9688,353.9219 Z " fill="#000000"/><text fill="#000000" font-family="sans-serif" font-size="14" lengthAdjust="spacing" textLength="55" x="1062.5" y="352.432">Formato</text><line style="stroke:#181818;stroke-width:0.5;" x1="1034.5" x2="1119.5" y1="363" y2="363"/><line style="stroke:#181818;stroke-width:0.5;" x1="1034.5" x2="1119.5" y1="371" y2="371"/></g><!--MD5=[d1ddc821c4c69aca0e9435756232b395]
class Restricciones--><g id="elem_Restricciones"><rect fill="#F1F1F1" height="48" id="Restricciones" rx="2.5" ry="2.5" style="stroke:#181818;stroke-width:0.5;" width="121" x="1155.5" y="331"/><ellipse cx="1170.5" cy="347" fill="#ADD1B2" rx="11" ry="11" style="stroke:#181818;stroke-width:1.0;"/><path d="M1169.9688,353.9219 Q1168.2188,353.9219 1167.0781,353.1875 Q1165.9531,352.4375 1165.3906,351.0938 Q1164.8438,349.7344 1164.8438,347.9375 Q1164.8438,345.9063 1165.5,344.4531 Q1166.1563,343 1167.4375,342.2188 Q1168.7188,341.4375 1170.5938,341.4375 Q1171.4844,341.4375 1172.1563,341.625 Q1172.8281,341.7969 1173.5156,342.1406 L1172.7031,344.1563 Q1172.0781,343.8438 1171.5313,343.7188 Q1171,343.5938 1170.5156,343.5938 Q1169.3438,343.5938 1168.6406,344.125 Q1167.9375,344.6563 1167.6406,345.6094 Q1167.3438,346.5625 1167.3438,347.8281 Q1167.3438,349.8438 1168.0625,350.8125 Q1168.7813,351.7656 1170.375,351.7656 Q1170.9688,351.7656 1171.5938,351.6094 Q1172.2188,351.4531 1173.0469,351.0781 L1173.0469,353.2969 Q1172.3125,353.6094 1171.5156,353.7656 Q1170.7344,353.9219 1169.9688,353.9219 Z " fill="#000000"/><text fill="#000000" font-family="sans-serif" font-size="14" lengthAdjust="spacing" textLength="89" x="1184.5" y="352.432">Restricciones</text><line style="stroke:#181818;stroke-width:0.5;" x1="1156.5" x2="1275.5" y1="363" y2="363"/><line style="stroke:#181818;stroke-width:0.5;" x1="1156.5" x2="1275.5" y1="371" y2="371"/></g><!--MD5=[7f255ea2b33bca291426dce1f0dbc231]
class Ejemplos--><g id="elem_Ejemplos"><rect fill="#F1F1F1" height="48" id="Ejemplos" rx="2.5" ry="2.5" style="stroke:#181818;stroke-width:0.5;" width="93" x="1419.5" y="331"/><ellipse cx="1434.5" cy="347" fill="#ADD1B2" rx="11" ry="11" style="stroke:#181818;stroke-width:1.0;"/><path d="M1433.9688,353.9219 Q1432.2188,353.9219 1431.0781,353.1875 Q1429.9531,352.4375 1429.3906,351.0938 Q1428.8438,349.7344 1428.8438,347.9375 Q1428.8438,345.9063 1429.5,344.4531 Q1430.1563,343 1431.4375,342.2188 Q1432.7188,341.4375 1434.5938,341.4375 Q1435.4844,341.4375 1436.1563,341.625 Q1436.8281,341.7969 1437.5156,342.1406 L1436.7031,344.1563 Q1436.0781,343.8438 1435.5313,343.7188 Q1435,343.5938 1434.5156,343.5938 Q1433.3438,343.5938 1432.6406,344.125 Q1431.9375,344.6563 1431.6406,345.6094 Q1431.3438,346.5625 1431.3438,347.8281 Q1431.3438,349.8438 1432.0625,350.8125 Q1432.7813,351.7656 1434.375,351.7656 Q1434.9688,351.7656 1435.5938,351.6094 Q1436.2188,351.4531 1437.0469,351.0781 L1437.0469,353.2969 Q1436.3125,353.6094 1435.5156,353.7656 Q1434.7344,353.9219 1433.9688,353.9219 Z " fill="#000000"/><text fill="#000000" font-family="sans-serif" font-size="14" lengthAdjust="spacing" textLength="61" x="1448.5" y="352.432">Ejemplos</text><line style="stroke:#181818;stroke-width:0.5;" x1="1420.5" x2="1511.5" y1="363" y2="363"/><line style="stroke:#181818;stroke-width:0.5;" x1="1420.5" x2="1511.5" y1="371" y2="371"/></g><!--MD5=[738d072d1b8407e689e7276e5963af18]
class Guión--><g id="elem_Guión"><rect fill="#F1F1F1" height="48" id="Guión" rx="2.5" ry="2.5" style="stroke:#181818;stroke-width:0.5;" width="72" x="1312" y="331"/><ellipse cx="1327" cy="347" fill="#ADD1B2" rx="11" ry="11" style="stroke:#181818;stroke-width:1.0;"/><path d="M1326.4688,353.9219 Q1324.7188,353.9219 1323.5781,353.1875 Q1322.4531,352.4375 1321.8906,351.0938 Q1321.3438,349.7344 1321.3438,347.9375 Q1321.3438,345.9063 1322,344.4531 Q1322.6563,343 1323.9375,342.2188 Q1325.2188,341.4375 1327.0938,341.4375 Q1327.9844,341.4375 1328.6563,341.625 Q1329.3281,341.7969 1330.0156,342.1406 L1329.2031,344.1563 Q1328.5781,343.8438 1328.0313,343.7188 Q1327.5,343.5938 1327.0156,343.5938 Q1325.8438,343.5938 1325.1406,344.125 Q1324.4375,344.6563 1324.1406,345.6094 Q1323.8438,346.5625 1323.8438,347.8281 Q1323.8438,349.8438 1324.5625,350.8125 Q1325.2813,351.7656 1326.875,351.7656 Q1327.4688,351.7656 1328.0938,351.6094 Q1328.7188,351.4531 1329.5469,351.0781 L1329.5469,353.2969 Q1328.8125,353.6094 1328.0156,353.7656 Q1327.2344,353.9219 1326.4688,353.9219 Z " fill="#000000"/><text fill="#000000" font-family="sans-serif" font-size="14" lengthAdjust="spacing" textLength="40" x="1341" y="352.432">Guión</text><line style="stroke:#181818;stroke-width:0.5;" x1="1313" x2="1383" y1="363" y2="363"/><line style="stroke:#181818;stroke-width:0.5;" x1="1313" x2="1383" y1="371" y2="371"/></g><!--MD5=[54736e807c59b9b647b6e830d606a429]
class Rol--><g id="elem_Rol"><rect fill="#F1F1F1" height="48" id="Rol" rx="2.5" ry="2.5" style="stroke:#181818;stroke-width:0.5;" width="53" x="1547.5" y="331"/><ellipse cx="1562.5" cy="347" fill="#ADD1B2" rx="11" ry="11" style="stroke:#181818;stroke-width:1.0;"/><path d="M1561.9688,353.9219 Q1560.2188,353.9219 1559.0781,353.1875 Q1557.9531,352.4375 1557.3906,351.0938 Q1556.8438,349.7344 1556.8438,347.9375 Q1556.8438,345.9063 1557.5,344.4531 Q1558.1563,343 1559.4375,342.2188 Q1560.7188,341.4375 1562.5938,341.4375 Q1563.4844,341.4375 1564.1563,341.625 Q1564.8281,341.7969 1565.5156,342.1406 L1564.7031,344.1563 Q1564.0781,343.8438 1563.5313,343.7188 Q1563,343.5938 1562.5156,343.5938 Q1561.3438,343.5938 1560.6406,344.125 Q1559.9375,344.6563 1559.6406,345.6094 Q1559.3438,346.5625 1559.3438,347.8281 Q1559.3438,349.8438 1560.0625,350.8125 Q1560.7813,351.7656 1562.375,351.7656 Q1562.9688,351.7656 1563.5938,351.6094 Q1564.2188,351.4531 1565.0469,351.0781 L1565.0469,353.2969 Q1564.3125,353.6094 1563.5156,353.7656 Q1562.7344,353.9219 1561.9688,353.9219 Z " fill="#000000"/><text fill="#000000" font-family="sans-serif" font-size="14" lengthAdjust="spacing" textLength="21" x="1576.5" y="352.432">Rol</text><line style="stroke:#181818;stroke-width:0.5;" x1="1548.5" x2="1599.5" y1="363" y2="363"/><line style="stroke:#181818;stroke-width:0.5;" x1="1548.5" x2="1599.5" y1="371" y2="371"/></g><!--MD5=[2f4959b4f80778e941784acc0815f60f]
class Audiencia--><g id="elem_Audiencia"><rect fill="#F1F1F1" height="48" id="Audiencia" rx="2.5" ry="2.5" style="stroke:#181818;stroke-width:0.5;" width="99" x="1635.5" y="331"/><ellipse cx="1650.5" cy="347" fill="#ADD1B2" rx="11" ry="11" style="stroke:#181818;stroke-width:1.0;"/><path d="M1649.9688,353.9219 Q1648.2188,353.9219 1647.0781,353.1875 Q1645.9531,352.4375 1645.3906,351.0938 Q1644.8438,349.7344 1644.8438,347.9375 Q1644.8438,345.9063 1645.5,344.4531 Q1646.1563,343 1647.4375,342.2188 Q1648.7188,341.4375 1650.5938,341.4375 Q1651.4844,341.4375 1652.1563,341.625 Q1652.8281,341.7969 1653.5156,342.1406 L1652.7031,344.1563 Q1652.0781,343.8438 1651.5313,343.7188 Q1651,343.5938 1650.5156,343.5938 Q1649.3438,343.5938 1648.6406,344.125 Q1647.9375,344.6563 1647.6406,345.6094 Q1647.3438,346.5625 1647.3438,347.8281 Q1647.3438,349.8438 1648.0625,350.8125 Q1648.7813,351.7656 1650.375,351.7656 Q1650.9688,351.7656 1651.5938,351.6094 Q1652.2188,351.4531 1653.0469,351.0781 L1653.0469,353.2969 Q1652.3125,353.6094 1651.5156,353.7656 Q1650.7344,353.9219 1649.9688,353.9219 Z " fill="#000000"/><text fill="#000000" font-family="sans-serif" font-size="14" lengthAdjust="spacing" textLength="67" x="1664.5" y="352.432">Audiencia</text><line style="stroke:#181818;stroke-width:0.5;" x1="1636.5" x2="1733.5" y1="363" y2="363"/><line style="stroke:#181818;stroke-width:0.5;" x1="1636.5" x2="1733.5" y1="371" y2="371"/></g><!--MD5=[aa5bbbe51933d9af291db0ed1115076d]
class Consulta--><g id="elem_Consulta"><rect fill="#F1F1F1" height="48" id="Consulta" rx="2.5" ry="2.5" style="stroke:#181818;stroke-width:0.5;" width="91" x="519.5" y="331"/><ellipse cx="534.5" cy="347" fill="#ADD1B2" rx="11" ry="11" style="stroke:#181818;stroke-width:1.0;"/><path d="M533.9688,353.9219 Q532.2188,353.9219 531.0781,353.1875 Q529.9531,352.4375 529.3906,351.0938 Q528.8438,349.7344 528.8438,347.9375 Q528.8438,345.9063 529.5,344.4531 Q530.1563,343 531.4375,342.2188 Q532.7188,341.4375 534.5938,341.4375 Q535.4844,341.4375 536.1563,341.625 Q536.8281,341.7969 537.5156,342.1406 L536.7031,344.1563 Q536.0781,343.8438 535.5313,343.7188 Q535,343.5938 534.5156,343.5938 Q533.3438,343.5938 532.6406,344.125 Q531.9375,344.6563 531.6406,345.6094 Q531.3438,346.5625 531.3438,347.8281 Q531.3438,349.8438 532.0625,350.8125 Q532.7813,351.7656 534.375,351.7656 Q534.9688,351.7656 535.5938,351.6094 Q536.2188,351.4531 537.0469,351.0781 L537.0469,353.2969 Q536.3125,353.6094 535.5156,353.7656 Q534.7344,353.9219 533.9688,353.9219 Z " fill="#000000"/><text fill="#000000" font-family="sans-serif" font-size="14" lengthAdjust="spacing" textLength="59" x="548.5" y="352.432">Consulta</text><line style="stroke:#181818;stroke-width:0.5;" x1="520.5" x2="609.5" y1="363" y2="363"/><line style="stroke:#181818;stroke-width:0.5;" x1="520.5" x2="609.5" y1="371" y2="371"/></g><!--MD5=[78bf04863c95d1579bf6ff583f2a043e]
class Imagen--><g id="elem_Imagen"><rect fill="#F1F1F1" height="48" id="Imagen" rx="2.5" ry="2.5" style="stroke:#181818;stroke-width:0.5;" width="84" x="646" y="331"/><ellipse cx="661" cy="347" fill="#ADD1B2" rx="11" ry="11" style="stroke:#181818;stroke-width:1.0;"/><path d="M660.4688,353.9219 Q658.7188,353.9219 657.5781,353.1875 Q656.4531,352.4375 655.8906,351.0938 Q655.3438,349.7344 655.3438,347.9375 Q655.3438,345.9063 656,344.4531 Q656.6563,343 657.9375,342.2188 Q659.2188,341.4375 661.0938,341.4375 Q661.9844,341.4375 662.6563,341.625 Q663.3281,341.7969 664.0156,342.1406 L663.2031,344.1563 Q662.5781,343.8438 662.0313,343.7188 Q661.5,343.5938 661.0156,343.5938 Q659.8438,343.5938 659.1406,344.125 Q658.4375,344.6563 658.1406,345.6094 Q657.8438,346.5625 657.8438,347.8281 Q657.8438,349.8438 658.5625,350.8125 Q659.2813,351.7656 660.875,351.7656 Q661.4688,351.7656 662.0938,351.6094 Q662.7188,351.4531 663.5469,351.0781 L663.5469,353.2969 Q662.8125,353.6094 662.0156,353.7656 Q661.2344,353.9219 660.4688,353.9219 Z " fill="#000000"/><text fill="#000000" font-family="sans-serif" font-size="14" lengthAdjust="spacing" textLength="52" x="675" y="352.432">Imagen</text><line style="stroke:#181818;stroke-width:0.5;" x1="647" x2="729" y1="363" y2="363"/><line style="stroke:#181818;stroke-width:0.5;" x1="647" x2="729" y1="371" y2="371"/></g><!--MD5=[319b44e58cdb6c280be3e880299e3a62]
class Temperatura--><g id="elem_Temperatura"><rect fill="#F1F1F1" height="48" id="Temperatura" rx="2.5" ry="2.5" style="stroke:#181818;stroke-width:0.5;" width="120" x="1770" y="331"/><ellipse cx="1785" cy="347" fill="#ADD1B2" rx="11" ry="11" style="stroke:#181818;stroke-width:1.0;"/><path d="M1784.4688,353.9219 Q1782.7188,353.9219 1781.5781,353.1875 Q1780.4531,352.4375 1779.8906,351.0938 Q1779.3438,349.7344 1779.3438,347.9375 Q1779.3438,345.9063 1780,344.4531 Q1780.6563,343 1781.9375,342.2188 Q1783.2188,341.4375 1785.0938,341.4375 Q1785.9844,341.4375 1786.6563,341.625 Q1787.3281,341.7969 1788.0156,342.1406 L1787.2031,344.1563 Q1786.5781,343.8438 1786.0313,343.7188 Q1785.5,343.5938 1785.0156,343.5938 Q1783.8438,343.5938 1783.1406,344.125 Q1782.4375,344.6563 1782.1406,345.6094 Q1781.8438,346.5625 1781.8438,347.8281 Q1781.8438,349.8438 1782.5625,350.8125 Q1783.2813,351.7656 1784.875,351.7656 Q1785.4688,351.7656 1786.0938,351.6094 Q1786.7188,351.4531 1787.5469,351.0781 L1787.5469,353.2969 Q1786.8125,353.6094 1786.0156,353.7656 Q1785.2344,353.9219 1784.4688,353.9219 Z " fill="#000000"/><text fill="#000000" font-family="sans-serif" font-size="14" lengthAdjust="spacing" textLength="88" x="1799" y="352.432">Temperatura</text><line style="stroke:#181818;stroke-width:0.5;" x1="1771" x2="1889" y1="363" y2="363"/><line style="stroke:#181818;stroke-width:0.5;" x1="1771" x2="1889" y1="371" y2="371"/></g><!--MD5=[40ce7c85f33a27b949ebdd41bd3f4b23]
class Tokens--><g id="elem_Tokens"><rect fill="#F1F1F1" height="48" id="Tokens" rx="2.5" ry="2.5" style="stroke:#181818;stroke-width:0.5;" width="79" x="1925.5" y="331"/><ellipse cx="1940.5" cy="347" fill="#ADD1B2" rx="11" ry="11" style="stroke:#181818;stroke-width:1.0;"/><path d="M1939.9688,353.9219 Q1938.2188,353.9219 1937.0781,353.1875 Q1935.9531,352.4375 1935.3906,351.0938 Q1934.8438,349.7344 1934.8438,347.9375 Q1934.8438,345.9063 1935.5,344.4531 Q1936.1563,343 1937.4375,342.2188 Q1938.7188,341.4375 1940.5938,341.4375 Q1941.4844,341.4375 1942.1563,341.625 Q1942.8281,341.7969 1943.5156,342.1406 L1942.7031,344.1563 Q1942.0781,343.8438 1941.5313,343.7188 Q1941,343.5938 1940.5156,343.5938 Q1939.3438,343.5938 1938.6406,344.125 Q1937.9375,344.6563 1937.6406,345.6094 Q1937.3438,346.5625 1937.3438,347.8281 Q1937.3438,349.8438 1938.0625,350.8125 Q1938.7813,351.7656 1940.375,351.7656 Q1940.9688,351.7656 1941.5938,351.6094 Q1942.2188,351.4531 1943.0469,351.0781 L1943.0469,353.2969 Q1942.3125,353.6094 1941.5156,353.7656 Q1940.7344,353.9219 1939.9688,353.9219 Z " fill="#000000"/><text fill="#000000" font-family="sans-serif" font-size="14" lengthAdjust="spacing" textLength="47" x="1954.5" y="352.432">Tokens</text><line style="stroke:#181818;stroke-width:0.5;" x1="1926.5" x2="2003.5" y1="363" y2="363"/><line style="stroke:#181818;stroke-width:0.5;" x1="1926.5" x2="2003.5" y1="371" y2="371"/></g><!--MD5=[373e3cacf3eabfc382c92c6beb55b85d]
class Probabilidad--><g id="elem_Probabilidad"><rect fill="#F1F1F1" height="48" id="Probabilidad" rx="2.5" ry="2.5" style="stroke:#181818;stroke-width:0.5;" width="118" x="2040" y="331"/><ellipse cx="2055" cy="347" fill="#ADD1B2" rx="11" ry="11" style="stroke:#181818;stroke-width:1.0;"/><path d="M2054.4688,353.9219 Q2052.7188,353.9219 2051.5781,353.1875 Q2050.4531,352.4375 2049.8906,351.0938 Q2049.3438,349.7344 2049.3438,347.9375 Q2049.3438,345.9063 2050,344.4531 Q2050.6563,343 2051.9375,342.2188 Q2053.2188,341.4375 2055.0938,341.4375 Q2055.9844,341.4375 2056.6563,341.625 Q2057.3281,341.7969 2058.0156,342.1406 L2057.2031,344.1563 Q2056.5781,343.8438 2056.0313,343.7188 Q2055.5,343.5938 2055.0156,343.5938 Q2053.8438,343.5938 2053.1406,344.125 Q2052.4375,344.6563 2052.1406,345.6094 Q2051.8438,346.5625 2051.8438,347.8281 Q2051.8438,349.8438 2052.5625,350.8125 Q2053.2813,351.7656 2054.875,351.7656 Q2055.4688,351.7656 2056.0938,351.6094 Q2056.7188,351.4531 2057.5469,351.0781 L2057.5469,353.2969 Q2056.8125,353.6094 2056.0156,353.7656 Q2055.2344,353.9219 2054.4688,353.9219 Z " fill="#000000"/><text fill="#000000" font-family="sans-serif" font-size="14" lengthAdjust="spacing" textLength="86" x="2069" y="352.432">Probabilidad</text><line style="stroke:#181818;stroke-width:0.5;" x1="2041" x2="2157" y1="363" y2="363"/><line style="stroke:#181818;stroke-width:0.5;" x1="2041" x2="2157" y1="371" y2="371"/></g><!--MD5=[d544001b04a73bc8f9f109f6c36fb0ba]
link Prompt to Receta--><g id="link_Prompt_Receta"><path codeLine="1" d="M1146,55 C1146,66.59 1146,81.03 1146,94.6 " fill="none" id="Prompt-to-Receta" style="stroke:#181818;stroke-width:1.0;"/><polygon fill="none" points="1153,94.68,1146,114.68,1139,94.68,1153,94.68" style="stroke:#181818;stroke-width:1.0;"/></g><!--MD5=[8b8cc8456a6fa805b085c7b1c1cabbfa]
reverse link Receta to Tarea--><g id="link_Receta_Tarea"><path codeLine="3" d="M1094.23,146.45 C936.29,166.12 463.26,225.04 330.18,241.62 " fill="none" id="Receta-backto-Tarea" style="stroke:#181818;stroke-width:1.0;stroke-dasharray:7.0,7.0;"/><polygon fill="none" points="1107.22,144.83,1100.7698,141.606,1095.3129,146.32,1101.7631,149.5441,1107.22,144.83" style="stroke:#181818;stroke-width:1.0;"/></g><!--MD5=[eefe981a2e5dfed4079bbe688254e19c]
reverse link Receta to Entrada--><g id="link_Receta_Entrada"><path codeLine="4" d="M1094.63,151.89 C1003.49,172.98 815.18,216.56 730.68,236.12 " fill="none" id="Receta-backto-Entrada" style="stroke:#181818;stroke-width:1.0;stroke-dasharray:7.0,7.0;"/><polygon fill="none" points="1107.35,148.95,1100.6007,146.411,1095.6611,151.6647,1102.4104,154.2036,1107.35,148.95" style="stroke:#181818;stroke-width:1.0;"/></g><!--MD5=[2358a6d37f8b480e8766efcdc29f9b97]
reverse link Receta to Instrucciones--><g id="link_Receta_Instrucciones"><path codeLine="5" d="M1146,176.34 C1146,191.68 1146,209.1 1146,222.68 " fill="none" id="Receta-backto-Instrucciones" style="stroke:#181818;stroke-width:1.0;stroke-dasharray:7.0,7.0;"/><polygon fill="none" points="1146,163,1142,169,1146,175,1150,169,1146,163" style="stroke:#181818;stroke-width:1.0;"/></g><!--MD5=[bb471f5b318f68581c3c1f85343762f3]
reverse link Receta to Parámetros--><g id="link_Receta_Parámetros"><path codeLine="6" d="M1197.75,147.3 C1334.16,166.56 1702.65,218.57 1842.32,238.28 " fill="none" id="Receta-backto-Parámetros" style="stroke:#181818;stroke-width:1.0;stroke-dasharray:7.0,7.0;"/><polygon fill="none" points="1184.53,145.44,1189.913,150.2383,1196.4125,147.1149,1191.0296,142.3166,1184.53,145.44" style="stroke:#181818;stroke-width:1.0;"/></g><!--MD5=[80a93a7466a18418dcf3e24f29399667]
reverse link Receta to Contexto--><g id="link_Receta_Contexto"><path codeLine="7" d="M1197.14,154.49 C1270.43,175.27 1404.23,213.19 1474.36,233.06 " fill="none" id="Receta-backto-Contexto" style="stroke:#181818;stroke-width:1.0;stroke-dasharray:7.0,7.0;"/><polygon fill="none" points="1184.62,150.94,1189.3035,156.4231,1196.1662,154.2088,1191.4827,148.7257,1184.62,150.94" style="stroke:#181818;stroke-width:1.0;"/></g><!--MD5=[5f2f9808d635c0364f82f6107aa8f9e0]
reverse link Tarea to Tópico--><g id="link_Tarea_Tópico"><path codeLine="9" d="M247.82,268 C200.09,288.24 127.23,319.13 83.06,337.86 " fill="none" id="Tarea-backto-Tópico" style="stroke:#181818;stroke-width:1.0;stroke-dasharray:7.0,7.0;"/><polygon fill="none" points="259.98,262.85,252.8944,261.5103,248.9326,267.5356,256.0182,268.8753,259.98,262.85" style="stroke:#181818;stroke-width:1.0;"/></g><!--MD5=[e46aa42da2690614f53ed4e78b0f92af]
reverse link Tarea to Comando--><g id="link_Tarea_Comando"><path codeLine="10" d="M256.96,279.26 C236.92,295.72 212.76,315.57 194.38,330.68 " fill="none" id="Tarea-backto-Comando" style="stroke:#181818;stroke-width:1.0;stroke-dasharray:7.0,7.0;"/><polygon fill="none" points="267.01,271,259.8344,271.7147,257.7343,278.6132,264.9099,277.8985,267.01,271" style="stroke:#181818;stroke-width:1.0;"/></g><!--MD5=[71bd3db0955c6255e01ff4406aedc298]
reverse link Tarea to Acciones--><g id="link_Tarea_Acciones"><path codeLine="11" d="M295,284.34 C295,299.68 295,317.1 295,330.68 " fill="none" id="Tarea-backto-Acciones" style="stroke:#181818;stroke-width:1.0;stroke-dasharray:7.0,7.0;"/><polygon fill="none" points="295,271,291,277,295,283,299,277,295,271" style="stroke:#181818;stroke-width:1.0;"/></g><!--MD5=[e86aa0da237f92d2c06c873b35f62d8f]
reverse link Tarea to Documento--><g id="link_Tarea_Documento"><path codeLine="12" d="M334.52,279.03 C355.55,295.54 380.97,315.5 400.3,330.68 " fill="none" id="Tarea-backto-Documento" style="stroke:#181818;stroke-width:1.0;stroke-dasharray:7.0,7.0;"/><polygon fill="none" points="324.29,271,326.54,277.8511,333.7295,278.4092,331.4795,271.5581,324.29,271" style="stroke:#181818;stroke-width:1.0;"/></g><!--MD5=[8fecb630f920e34e2cdf0fe38a0d7142]
reverse link Instrucciones to Objetivos--><g id="link_Instrucciones_Objetivos"><path codeLine="14" d="M1071.75,270.13 C1017.81,286.41 943.16,309.39 878,331 C872.43,332.85 866.62,334.83 860.85,336.83 " fill="none" id="Instrucciones-backto-Objetivos" style="stroke:#181818;stroke-width:1.0;stroke-dasharray:7.0,7.0;"/><polygon fill="none" points="1084.31,266.35,1077.4121,264.2479,1072.8186,269.8066,1079.7165,271.9088,1084.31,266.35" style="stroke:#181818;stroke-width:1.0;"/></g><!--MD5=[dcae8496071150257c960dae0d88ccd0]
reverse link Instrucciones to Estructura--><g id="link_Instrucciones_Estructura"><path codeLine="15" d="M1091.07,277.26 C1059.34,294.16 1019.99,315.12 990.44,330.86 " fill="none" id="Instrucciones-backto-Estructura" style="stroke:#181818;stroke-width:1.0;stroke-dasharray:7.0,7.0;"/><polygon fill="none" points="1102.82,271,1095.6437,270.2923,1092.2303,276.6443,1099.4066,277.3521,1102.82,271" style="stroke:#181818;stroke-width:1.0;"/></g><!--MD5=[06cfeddc630a8cc01d6c9a699b1074a7]
reverse link Instrucciones to Formato--><g id="link_Instrucciones_Formato"><path codeLine="16" d="M1123.86,282.01 C1113.52,297.89 1101.47,316.41 1092.18,330.68 " fill="none" id="Instrucciones-backto-Formato" style="stroke:#181818;stroke-width:1.0;stroke-dasharray:7.0,7.0;"/><polygon fill="none" points="1131.03,271,1124.4035,273.8443,1124.4804,281.055,1131.1069,278.2107,1131.03,271" style="stroke:#181818;stroke-width:1.0;"/></g><!--MD5=[a01d3a1dbb0156afe4b56d7d5bc7884a]
reverse link Instrucciones to Restricciones--><g id="link_Instrucciones_Restricciones"><path codeLine="17" d="M1168.46,282.01 C1178.95,297.89 1191.17,316.41 1200.6,330.68 " fill="none" id="Instrucciones-backto-Restricciones" style="stroke:#181818;stroke-width:1.0;stroke-dasharray:7.0,7.0;"/><polygon fill="none" points="1161.19,271,1161.1636,278.2111,1167.8098,281.0089,1167.8362,273.7978,1161.19,271" style="stroke:#181818;stroke-width:1.0;"/></g><!--MD5=[f9d69f956e24c8f87012bccec2aa1b51]
reverse link Instrucciones to Ejemplos--><g id="link_Instrucciones_Ejemplos"><path codeLine="18" d="M1220.27,271.62 C1271.23,287.97 1340.34,310.4 1401,331 C1406.89,333 1413.08,335.14 1419.18,337.27 " fill="none" id="Instrucciones-backto-Ejemplos" style="stroke:#181818;stroke-width:1.0;stroke-dasharray:7.0,7.0;"/><polygon fill="none" points="1207.72,267.6,1212.2102,273.2425,1219.1457,271.2678,1214.6555,265.6253,1207.72,267.6" style="stroke:#181818;stroke-width:1.0;"/></g><!--MD5=[cc2ebc5f2104d43cdd234b5f6c860a91]
reverse link Instrucciones to Guión--><g id="link_Instrucciones_Guión"><path codeLine="19" d="M1201.36,277.05 C1236.5,295.49 1280.97,318.83 1311.68,334.94 " fill="none" id="Instrucciones-backto-Guión" style="stroke:#181818;stroke-width:1.0;stroke-dasharray:7.0,7.0;"/><polygon fill="none" points="1189.83,271,1193.284,277.3301,1200.4556,276.5765,1197.0016,270.2464,1189.83,271" style="stroke:#181818;stroke-width:1.0;"/></g><!--MD5=[18e10b42bb89e4cfbcdc8945ca3ab4f9]
reverse link Contexto to Rol--><g id="link_Contexto_Rol"><path codeLine="21" d="M1537.8,282.94 C1545.78,298.61 1554.99,316.68 1562.12,330.68 " fill="none" id="Contexto-backto-Rol" style="stroke:#181818;stroke-width:1.0;stroke-dasharray:7.0,7.0;"/><polygon fill="none" points="1531.72,271,1530.8783,278.1618,1537.1655,281.6933,1538.0072,274.5315,1531.72,271" style="stroke:#181818;stroke-width:1.0;"/></g><!--MD5=[1340b34a028bfc1bbe77acc3bf8af72e]
reverse link Contexto to Audiencia--><g id="link_Contexto_Audiencia"><path codeLine="22" d="M1566.94,278.16 C1593,294.9 1624.91,315.4 1648.98,330.86 " fill="none" id="Contexto-backto-Audiencia" style="stroke:#181818;stroke-width:1.0;stroke-dasharray:7.0,7.0;"/><polygon fill="none" points="1555.8,271,1558.6867,277.6081,1565.8967,277.4851,1563.0101,270.877,1555.8,271" style="stroke:#181818;stroke-width:1.0;"/></g><!--MD5=[852f410c8ef56e2a5c85cd7eae92a49c]
reverse link Contexto to Ejemplos--><g id="link_Contexto_Ejemplos"><path codeLine="23" d="M1502.2,282.94 C1494.22,298.61 1485.01,316.68 1477.88,330.68 " fill="none" id="Contexto-backto-Ejemplos" style="stroke:#181818;stroke-width:1.0;stroke-dasharray:7.0,7.0;"/><polygon fill="none" points="1508.28,271,1501.9928,274.5315,1502.8345,281.6933,1509.1217,278.1618,1508.28,271" style="stroke:#181818;stroke-width:1.0;"/></g><!--MD5=[67c00991b833af5f4fd220c4b6a17546]
reverse link Entrada to Consulta--><g id="link_Entrada_Consulta"><path codeLine="25" d="M651.2,279.71 C632.2,296.09 609.43,315.71 592.06,330.68 " fill="none" id="Entrada-backto-Consulta" style="stroke:#181818;stroke-width:1.0;stroke-dasharray:7.0,7.0;"/><polygon fill="none" points="661.31,271,654.1538,271.8882,652.2213,278.8355,659.3775,277.9473,661.31,271" style="stroke:#181818;stroke-width:1.0;"/></g><!--MD5=[b71cce50cf2b30ba2556b3b9a727c356]
reverse link Entrada to Imagen--><g id="link_Entrada_Imagen"><path codeLine="26" d="M688,284.34 C688,299.68 688,317.1 688,330.68 " fill="none" id="Entrada-backto-Imagen" style="stroke:#181818;stroke-width:1.0;stroke-dasharray:7.0,7.0;"/><polygon fill="none" points="688,271,684,277,688,283,692,277,688,271" style="stroke:#181818;stroke-width:1.0;"/></g><!--MD5=[3c94342b22afd691223e18fe5d14d764]
reverse link Parámetros to Temperatura--><g id="link_Parámetros_Temperatura"><path codeLine="28" d="M1875.51,282.01 C1865.46,297.89 1853.76,316.41 1844.74,330.68 " fill="none" id="Parámetros-backto-Temperatura" style="stroke:#181818;stroke-width:1.0;stroke-dasharray:7.0,7.0;"/><polygon fill="none" points="1882.46,271,1875.8732,273.935,1876.0491,281.144,1882.6359,278.209,1882.46,271" style="stroke:#181818;stroke-width:1.0;"/></g><!--MD5=[1dcf59596ff62e13a42f2aa493143acb]
reverse link Parámetros to Tokens--><g id="link_Parámetros_Tokens"><path codeLine="29" d="M1918.82,282.01 C1929.01,297.89 1940.88,316.41 1950.04,330.68 " fill="none" id="Parámetros-backto-Tokens" style="stroke:#181818;stroke-width:1.0;stroke-dasharray:7.0,7.0;"/><polygon fill="none" points="1911.75,271,1911.6203,278.2099,1918.2258,281.1027,1918.3554,273.8928,1911.75,271" style="stroke:#181818;stroke-width:1.0;"/></g><!--MD5=[434d7b26bf2501592ad9c4bd97f4aa3d]
reverse link Parámetros to Probabilidad--><g id="link_Parámetros_Probabilidad"><path codeLine="30" d="M1952.76,277.26 C1984.96,294.16 2024.91,315.12 2054.91,330.86 " fill="none" id="Parámetros-backto-Probabilidad" style="stroke:#181818;stroke-width:1.0;stroke-dasharray:7.0,7.0;"/><polygon fill="none" points="1940.83,271,1944.284,277.3301,1951.4556,276.5765,1948.0016,270.2464,1940.83,271" style="stroke:#181818;stroke-width:1.0;"/></g><!--MD5=[c4ee4d7e18597c11e6a6fff3898a83f6]
@startuml
    Prompt - -|> Receta

    Receta o.. Tarea
    Receta o.. Entrada
    Receta o.. Instrucciones
    Receta o.. Parámetros
    Receta o.. Contexto

    Tarea o.. Tópico
    Tarea o.. Comando
    Tarea o.. Acciones
    Tarea o.. Documento

    Instrucciones o.. Objetivos
    Instrucciones o.. Estructura
    Instrucciones o.. Formato
    Instrucciones o.. Restricciones
    Instrucciones o.. Ejemplos
    Instrucciones o.. Guión

    Contexto o.. Rol
    Contexto o.. Audiencia
    Contexto o.. Ejemplos

    Entrada o.. Consulta
    Entrada o.. Imagen

    Parámetros o.. Temperatura
    Parámetros o.. Tokens
    Parámetros o.. Probabilidad 
@enduml

PlantUML version 1.2022.7(Mon Aug 22 19:01:30 CEST 2022)
(GPL source distribution)
Java Runtime: OpenJDK Runtime Environment
JVM: OpenJDK 64-Bit Server VM
Default Encoding: UTF-8
Language: es
Country: ES
--></g></svg>